<?xml version="1.0" encoding="utf-8"?>
<!-- Generator: Adobe Illustrator 16.0.3, SVG Export Plug-In . SVG Version: 6.00 Build 0)  -->
<!DOCTYPE svg PUBLIC "-//W3C//DTD SVG 1.1//EN" "http://www.w3.org/Graphics/SVG/1.1/DTD/svg11.dtd">
<svg version="1.1" id="圖層_1" xmlns="http://www.w3.org/2000/svg" xmlns:xlink="http://www.w3.org/1999/xlink" x="0px" y="0px"
	 width="52.75px" height="52.75px" viewBox="0 0 52.75 52.75" enable-background="new 0 0 52.75 52.75" xml:space="preserve">
<g>
	<g>
		<path fill="#066F93" d="M52.861,44.362c0,4.67-3.779,8.453-8.449,8.453H8.398c-4.666,0-8.449-3.783-8.449-8.453V8.353
			c0-4.668,3.783-8.45,8.449-8.45h36.014c4.67,0,8.449,3.782,8.449,8.45V44.362z"/>
	</g>
</g>
<g>
	<polygon fill="#9B9B9B" points="20.747,40.919 5.378,35.526 5.378,28.74 20.747,28.74 	"/>
	<rect x="17.496" y="23.888" fill="#E2E2E2" width="5.572" height="16.177"/>
	<g>
		<path fill-rule="evenodd" clip-rule="evenodd" fill="#FFAC09" d="M18.342,46.563c0-1.072,0.869-1.941,1.94-1.941
			c1.072,0,1.94,0.869,1.94,1.941c0,1.07-1.94,4.311-1.94,4.311S18.342,47.633,18.342,46.563z"/>
		<path fill-rule="evenodd" clip-rule="evenodd" fill="#FFF1CA" d="M19.12,46.166c0-0.642,0.521-1.162,1.162-1.162
			s1.162,0.521,1.162,1.162s-1.162,2.582-1.162,2.582S19.12,46.808,19.12,46.166z"/>
	</g>
	<rect x="17.698" y="40.064" fill="#B7B7B7" width="5.168" height="2.607"/>
	<polygon fill="#9B9B9B" points="22.866,42.672 17.698,42.672 17.159,45.277 23.405,45.277 	"/>
	<polygon fill="#E71516" points="9.557,33.177 9.557,28.74 5.378,28.74 5.378,35.526 15.154,38.957 15.154,35.298 	"/>
	<path fill="#E2E2E2" d="M5.782,25.461c0-0.422-0.342-0.765-0.764-0.765H4.39c-0.422,0-0.765,0.343-0.765,0.765v10.334
		c0,0.423,0.343,0.765,0.765,0.765h0.629c0.422,0,0.764-0.342,0.764-0.765V25.461z"/>
	<rect x="17.496" y="24.696" fill="#E71516" width="5.572" height="0.798"/>
	<polygon fill="#FFFFFF" points="27.301,2.138 26.405,2.138 25.51,2.138 23.084,15.619 23.084,37.01 24.252,38.178 26.405,38.178 
		28.559,38.178 29.727,37.01 29.727,15.619 	"/>
	<polygon fill="#9B9B9B" points="32.063,40.919 47.433,35.526 47.433,28.74 32.063,28.74 	"/>
	<rect x="29.742" y="23.888" fill="#E2E2E2" width="5.572" height="16.177"/>
	<g>
		<path fill-rule="evenodd" clip-rule="evenodd" fill="#FFAC09" d="M32.528,50.873c0,0-1.94-3.24-1.94-4.311
			c0-1.072,0.868-1.941,1.94-1.941c1.071,0,1.94,0.869,1.94,1.941C34.469,47.633,32.528,50.873,32.528,50.873z"/>
		<path fill-rule="evenodd" clip-rule="evenodd" fill="#FFF1CA" d="M32.528,48.748c0,0-1.162-1.94-1.162-2.582
			s0.521-1.162,1.162-1.162s1.162,0.521,1.162,1.162S32.528,48.748,32.528,48.748z"/>
	</g>
	<rect x="29.944" y="40.064" fill="#B7B7B7" width="5.168" height="2.607"/>
	<polygon fill="#9B9B9B" points="29.944,42.672 35.112,42.672 35.651,45.277 29.405,45.277 	"/>
	<polygon fill="#E71516" points="43.254,33.177 43.254,28.74 47.433,28.74 47.433,35.526 37.656,38.957 37.656,35.298 	"/>
	<path fill="#E2E2E2" d="M47.028,25.461c0-0.422,0.342-0.765,0.764-0.765h0.629c0.422,0,0.765,0.343,0.765,0.765v10.334
		c0,0.423-0.343,0.765-0.765,0.765h-0.629c-0.422,0-0.764-0.342-0.764-0.765V25.461z"/>
	<rect x="29.742" y="24.696" fill="#E71516" width="5.572" height="0.798"/>
	<g>
		<polygon fill="#433F56" points="23.982,16.395 23.982,21.922 26.405,21.922 28.828,21.922 28.828,16.395 26.405,16.395 		"/>
		<polygon fill="#433F56" points="28.828,14.575 27.75,7.632 26.405,7.632 25.061,7.632 23.982,14.575 26.405,14.575 		"/>
	</g>
</g>
</svg>
