<?xml version="1.0" encoding="utf-8"?>
<!-- Generator: Adobe Illustrator 16.0.3, SVG Export Plug-In . SVG Version: 6.00 Build 0)  -->
<!DOCTYPE svg PUBLIC "-//W3C//DTD SVG 1.1//EN" "http://www.w3.org/Graphics/SVG/1.1/DTD/svg11.dtd">
<svg version="1.1" id="圖層_1" xmlns="http://www.w3.org/2000/svg" xmlns:xlink="http://www.w3.org/1999/xlink" x="0px" y="0px"
	 width="1920px" height="955px" viewBox="0 0 1920 955" enable-background="new 0 0 1920 955" xml:space="preserve">
<g>
	<rect y="0" fill="#D31A1D" width="1920" height="955"/>
</g>
<g>
	<path fill="#C41010" d="M1923.582,453.909c55.78,0,101-45.219,101-101c0-55.78-45.22-101-101-101
		c-15.911,0-30.961,3.685-44.349,10.239l-63.21-121.632c37.741-19.414,63.559-58.745,63.559-104.107c0-64.617-52.383-117-117-117
		s-117,52.383-117,117c0,15.292,2.938,29.897,8.273,43.287l-34.129,15.325c-3.705-6.159-10.434-10.293-18.145-10.293
		c-10.58,0-19.322,7.765-20.902,17.901l-46.553-1.735c-0.003-9.988-2.214-19.456-6.149-27.962
		c15.441-6.721,26.241-22.106,26.241-40.022c0-24.1-19.536-43.637-43.637-43.637s-43.637,19.537-43.637,43.637
		c0,0.43,0.02,0.856,0.032,1.283c-36.658,0.228-66.307,30.006-66.307,66.717c0,2.578,0.161,5.118,0.445,7.62l-104.685,16.028
		c-1.045-4.305-3.047-8.236-5.776-11.551l5.86-5.713c3.749,3.043,8.529,4.87,13.738,4.87c12.036,0,21.793-9.739,21.793-21.754
		c0-7.544-3.849-14.189-9.691-18.092l6.204-12.078c1.522,0.494,3.144,0.769,4.831,0.769c8.643,0,15.648-7.006,15.648-15.647
		c0-8.643-7.006-15.648-15.648-15.648c-4.362,0-8.304,1.789-11.142,4.668l-28.263-20.074c2.204-3.826,3.471-8.26,3.471-12.993
		c0-14.404-11.677-26.081-26.081-26.081s-26.081,11.677-26.081,26.081c0,2.54,0.37,4.993,1.047,7.314l-60.352,24.123
		c-6.167-12.841-19.311-21.709-34.53-21.709c-16.464,0-30.497,10.378-35.899,24.936l-84.932-25.217
		c0.135-0.895,0.228-1.803,0.228-2.736c0-10.047-8.16-18.191-18.226-18.191s-18.225,8.145-18.225,18.191
		c0,0.389,0.034,0.769,0.059,1.151L936.542,6.86c-0.598-11.374-9.998-20.42-21.542-20.42c-11.93,0-21.6,9.653-21.6,21.561
		c0,8.205,4.592,15.338,11.351,18.981l-25.277,63.481c-2.621-0.784-5.397-1.21-8.274-1.21c-4.085,0-7.968,0.854-11.488,2.385
		l-27.814-51.158C847.366,32.255,857.8,16.765,857.8-1c0-26.374-22.967-47.748-51.3-47.748S755.2-27.374,755.2-1
		c0,6.663,1.471,13.006,4.12,18.768l-81.267,37.06c-4.951-8.702-14.312-14.576-25.054-14.576c-15.906,0-28.8,12.871-28.8,28.748
		c0,7.729,3.061,14.739,8.031,19.905l-35.67,40.702c-4.812-3.526-10.749-5.612-17.177-5.612c-1.839,0-3.636,0.178-5.38,0.504
		L548.62,33.808c7.953-3.243,13.559-11.037,13.559-20.141c0-12.014-9.757-21.753-21.793-21.753s-21.793,9.739-21.793,21.753
		s9.757,21.753,21.793,21.753c1.163,0,2.304-0.093,3.417-0.268l25.383,90.685c-5.04,1.886-9.411,5.131-12.675,9.286l-65.059-42.364
		c4.066-6.987,6.405-15.098,6.405-23.758c0-26.173-21.254-47.386-47.473-47.386c-17.331,0-32.486,9.272-40.773,23.115l-77.06-40.534
		c1.38-3.119,2.152-6.566,2.152-10.195c0-13.957-11.336-25.271-25.319-25.271c-13.983,0-25.319,11.314-25.319,25.271
		c0,13.958,11.336,25.272,25.319,25.272c8.556,0,16.116-4.24,20.699-10.726l77.196,40.604c-2.737,5.913-4.291,12.479-4.355,19.406
		l-105.493,4.577C295.495,57.739,282.167,45.818,266,45.818c-17.498,0-31.682,13.961-31.682,31.182
		c0,11.008,5.8,20.676,14.552,26.226l-31.16,57.211c-3.892-1.68-8.188-2.619-12.71-2.619c-17.498,0-31.682,13.961-31.682,31.182
		c0,12.759,7.789,23.721,18.939,28.549l-16.396,46.383c-2.829-0.724-5.797-1.114-8.861-1.114c-19.154,0-34.682,15.08-34.682,33.682
		c0,15.287,10.49,28.188,24.858,32.303l-14.244,63.36c-1.612-0.223-3.257-0.345-4.932-0.345c-3.941,0-7.725,0.647-11.256,1.824
		l-35.86-81.681C125.222,295.834,149,260.947,149,220.5c0-34.108-16.91-64.265-42.801-82.552l44.157-66.046
		c9.616,5.884,20.924,9.281,33.029,9.281c34.959,0,63.297-28.292,63.297-63.183c0-34.897-28.338-63.182-63.297-63.182
		c-34.958,0-63.296,28.284-63.296,63.182c0,21.019,10.293,39.632,26.114,51.118l-44.158,66.048C86.417,125.247,67.88,119.5,48,119.5
		c-55.781,0-101,45.22-101,101c0,55.781,45.219,101,101,101c13.561,0,26.493-2.679,38.307-7.526l35.817,81.583
		c-11.166,5.595-18.806,16.899-18.806,29.942c0,17.617,13.929,32.066,31.674,33.548l-0.982,64.829
		c-18.228,1.003-32.691,15.671-32.691,33.623c0,6.094,1.674,11.803,4.588,16.734l-27.567,18.067
		C61.753,559.215,27.532,536.5-12,536.5c-55.781,0-101,45.22-101,101c0,55.781,45.219,101,101,101s101-45.219,101-101
		c0-14.454-3.042-28.195-8.512-40.628l28.276-18.532c6.352,7.818,16.187,12.843,27.236,12.843c2.661,0,5.247-0.301,7.736-0.852
		l22.226,70.448c-11.647,4.906-19.85,16.628-19.85,30.313c0,16.149,11.421,29.561,26.448,32.267l-10.894,114.325
		C157.505,837.236,153.28,837,149,837c-64.617,0-117,52.383-117,117c0,64.618,52.383,117,117,117s117-52.382,117-117
		c0-15.292-2.938-29.897-8.273-43.287l34.128-15.325c3.705,6.16,10.434,10.295,18.145,10.295c10.58,0,19.322-7.765,20.902-17.902
		l46.553,1.734c0.002,9.989,2.214,19.457,6.15,27.964c-15.441,6.721-26.241,22.107-26.241,40.021
		c0,24.1,19.536,43.637,43.636,43.637s43.636-19.537,43.636-43.637c0-0.43-0.02-0.855-0.032-1.282
		c36.659-0.228,66.308-30.005,66.308-66.718c0-2.578-0.161-5.118-0.446-7.62l104.685-16.028
		c3.085,12.71,14.552,22.154,28.234,22.154c9.283,0,17.543-4.352,22.863-11.115l69.841,45.538c-2.145,3.99-3.373,8.544-3.404,13.383
		c-7.23-6.408-16.743-10.307-27.172-10.307c-22.614,0-40.947,18.3-40.947,40.874c0,22.573,18.333,40.874,40.947,40.874
		c22.615,0,40.948-18.301,40.948-40.874c0-2.088-0.159-4.139-0.461-6.143c4.472,2.853,9.78,4.512,15.48,4.512
		c15.906,0,28.801-12.87,28.801-28.748c0-14.648-10.979-26.729-25.171-28.512l1.657-41.891c5.505-0.515,10.303-3.414,13.38-7.647
		l31.187,16.707C809.833,878.137,809,881.971,809,886c0,15.878,12.895,28.748,28.8,28.748c15.906,0,28.8-12.87,28.8-28.748
		c0-8.265-3.499-15.71-9.093-20.954l31.357-39.766c2.535,1.457,5.467,2.304,8.603,2.304c8.493,0,15.54-6.121,16.992-14.183
		l45.643,1.521c0.611,5.879,4.037,10.912,8.899,13.771l-21.826,40.531c-3.389-1.448-7.121-2.252-11.041-2.252
		c-15.508,0-28.08,12.549-28.08,28.028c0,7.275,2.778,13.903,7.332,18.885l-32.246,35.093c-4.879-3.793-11.009-6.058-17.673-6.058
		c-15.905,0-28.8,12.87-28.8,28.748c0,15.877,12.895,28.747,28.8,28.747c15.906,0,28.8-12.87,28.8-28.747
		c0-7.428-2.822-14.196-7.454-19.299l32.263-35.11c4.729,3.616,10.641,5.771,17.059,5.771c1.216,0,2.41-0.086,3.585-0.235
		l2.571,11.626c-11.404,3.825-19.623,14.574-19.623,27.248c0,15.877,12.895,28.747,28.8,28.747c15.906,0,28.8-12.87,28.8-28.747
		c0-15.878-12.894-28.748-28.8-28.748c-1.467,0-2.909,0.111-4.317,0.322l-2.546-11.514c11.368-3.586,19.61-14.195,19.61-26.729
		c0-3.168-0.534-6.21-1.505-9.051l48.467-17.239c3.759,7.752,11.711,13.099,20.915,13.099c0.797,0,1.584-0.04,2.359-0.118
		l6.443,30.245c-7.01,2.534-12.027,9.218-12.027,17.089c0,10.047,8.159,18.191,18.225,18.191s18.226-8.145,18.226-18.191
		s-8.16-18.19-18.226-18.19c-0.44,0-0.872,0.035-1.306,0.065l-6.444-30.249c7.254-2.379,12.928-8.227,15.058-15.581l63.168,11.085
		c-0.008,0.22-0.033,0.435-0.033,0.655c0,8.467,5.804,15.562,13.65,17.59l-4.12,35.221c-0.871-0.07-1.75-0.116-2.64-0.116
		c-17.797,0-32.225,14.4-32.225,32.165c0,17.764,14.428,32.165,32.225,32.165c17.798,0,32.225-14.401,32.225-32.165
		c0-15.156-10.505-27.856-24.643-31.261l4.145-35.428c9.883-0.211,17.832-8.256,17.832-18.171c0-9.197-6.845-16.781-15.724-18
		V817.69c5.167-0.709,9.642-3.565,12.48-7.655l33.029,16.635c-0.633,1.847-0.992,3.819-0.992,5.88
		c0,10.046,8.159,18.19,18.225,18.19c2.754,0,5.354-0.627,7.695-1.719l32.208,49.702c-6.765,5.261-11.121,13.463-11.121,22.686
		c0,15.877,12.895,28.748,28.8,28.748s28.8-12.871,28.8-28.748c0-7.729-3.062-14.739-8.032-19.905l35.67-40.702
		c4.813,3.526,10.75,5.612,17.178,5.612c1.84,0,3.636-0.179,5.381-0.505l25.385,90.691c-7.954,3.243-13.561,11.038-13.561,20.143
		c0,12.015,9.757,21.754,21.794,21.754c12.036,0,21.794-9.739,21.794-21.754c0-12.014-9.758-21.754-21.794-21.754
		c-1.163,0-2.304,0.093-3.418,0.269l-25.383-90.685c5.04-1.887,9.411-5.131,12.675-9.286l65.059,42.363
		c-4.066,6.986-6.405,15.098-6.405,23.759c0,26.175,21.254,47.388,47.474,47.388c17.33,0,32.485-9.272,40.773-23.115l98.114,51.607
		l2.328-4.426l-98.109-51.604c2.737-5.913,4.291-12.479,4.354-19.406l105.493-4.577c1.937,15.396,15.265,27.316,31.431,27.316
		c17.497,0,31.682-13.961,31.682-31.183c0-11.008-5.801-20.676-14.552-26.225l31.159-57.212c3.893,1.681,8.189,2.619,12.711,2.619
		c17.497,0,31.682-13.961,31.682-31.183c0-12.758-7.789-23.72-18.938-28.548l16.396-46.383c2.829,0.724,5.798,1.113,8.861,1.113
		c19.154,0,34.682-15.08,34.682-33.683c0-15.286-10.489-28.187-24.857-32.302l14.244-63.36c1.611,0.223,3.257,0.345,4.932,0.345
		c3.941,0,7.726-0.647,11.256-1.824l35.859,81.68c-34.337,16.128-58.115,51.016-58.115,91.462c0,34.108,16.91,64.266,42.801,82.552
		l-44.157,66.047c-9.615-5.884-20.924-9.28-33.028-9.28c-34.959,0-63.297,28.291-63.297,63.182
		c0,34.899,28.338,63.183,63.297,63.183c34.957,0,63.296-28.284,63.296-63.183c0-21.019-10.294-39.631-26.114-51.117l44.158-66.049
		c15.629,9.919,34.165,15.666,54.045,15.666c55.78,0,101-45.219,101-101c0-55.78-45.22-101-101-101
		c-13.561,0-26.493,2.679-38.307,7.526l-35.817-81.583c11.166-5.596,18.806-16.899,18.806-29.943
		c0-17.616-13.929-32.065-31.673-33.548l0.982-64.829c18.228-1.002,32.69-15.67,32.69-33.624c0-6.093-1.675-11.803-4.588-16.734
		l27.567-18.067C1849.829,431.194,1884.051,453.909,1923.582,453.909z M1655.805,84.302c15.994,35.604,49.271,61.76,89.15,67.786
		l-10.908,114.471c-0.203-0.004-0.405-0.016-0.61-0.016c-5.79,0-11.216,1.58-15.903,4.328l-50.734-76.338
		c4.563-3.885,7.465-9.662,7.465-16.124c0-11.698-9.483-21.182-21.182-21.182s-21.182,9.483-21.182,21.182
		s9.483,21.182,21.182,21.182c3.44,0,6.679-0.838,9.551-2.294l50.797,76.433c-4.286,3.512-7.668,8.126-9.74,13.424l-69.354-22.238
		c1.104-4.151,1.701-8.508,1.701-13.007c0-27.865-22.59-50.455-50.455-50.455c-23.714,0-43.597,16.364-48.998,38.414l-67.604-13.101
		c0.229-1.755,0.359-3.541,0.359-5.357c0-17.549-11.031-32.52-26.547-38.399l5.874-18.057c5.945,1.736,12.227,2.685,18.732,2.685
		c35.175,0,63.973-27.224,66.523-61.748l46.564,1.735c0.875,10.894,9.976,19.466,21.095,19.466c11.698,0,21.182-9.483,21.182-21.182
		c0-2.208-0.34-4.336-0.966-6.337L1655.805,84.302z M1740.9,432.909c0,4.924,1.097,9.596,3.052,13.812l-59.213,31.145
		c-12.53-21.908-36.11-36.684-63.157-36.684c-2.041,0-4.057,0.105-6.055,0.271l-4.894-41.36
		c11.369-2.484,19.882-12.589,19.882-24.683c0-3.827-0.856-7.453-2.382-10.704l78.908-46.82
		c5.776,8.579,15.441,14.206,26.395,14.206c2.561,0,5.048-0.316,7.436-0.897l22.181,70.309
		C1750.094,406.383,1740.9,418.599,1740.9,432.909z M1488.196,433.875c-0.537,0-1.065,0.04-1.593,0.08l-1.098-46.956
		c14.687-1.383,26.716-11.87,30.363-25.75l64.108,11.988c-0.062,0.717-0.1,1.44-0.1,2.172c0,13.958,11.336,25.273,25.319,25.273
		c0.158,0,0.313-0.009,0.471-0.012l4.891,41.342c-23.958,3.643-44.068,18.979-54.345,40l-48.354-21.569
		c0.587-1.908,0.906-3.934,0.906-6.034C1508.767,443.069,1499.558,433.875,1488.196,433.875z M1461.197,874.022
		c-4.201,0-8.273,0.551-12.152,1.573l-32.882-101.933c12.326-4.809,21.759-15.374,24.974-28.391l61.055,11.191
		c-0.441,3.086-0.683,6.237-0.683,9.445c0,21.749,10.512,41.04,26.729,53.08l-42.369,61.93
		C1478.679,876.544,1470.233,874.022,1461.197,874.022z M1503.093,751.546l-61.061-11.192c0.195-1.622,0.308-3.27,0.308-4.944
		c0-14.281-7.307-26.854-18.388-34.213l32.18-55.42c5.2,2.37,10.976,3.701,17.065,3.701c6.829,0,13.264-1.671,18.933-4.61
		l39.373,65.7C1517.293,719.85,1506.885,734.448,1503.093,751.546z M1473.197,567.342c-7.331,0-14.209,1.923-20.17,5.277
		l-27.178-42.023c7.587-5.791,12.484-14.916,12.484-25.187c0-5.519-1.415-10.706-3.899-15.225l36.853-24.096
		c2.304,3.317,5.562,5.913,9.377,7.414l-6.939,93.853C1473.549,567.352,1473.374,567.342,1473.197,567.342z M1346.196,677.655
		c-4.976,0-9.559,1.668-13.228,4.469l-33.672-34.843c4.409-5.05,7.085-11.647,7.085-18.872c0-0.635-0.028-1.263-0.068-1.887
		l53.651-8.245c1.878,7.718,6.845,14.224,13.523,18.145l-20.238,42.405C1351.037,678.071,1348.666,677.655,1346.196,677.655z
		 M1311.258,857.51l-35.67,40.702c-3.839-2.809-8.399-4.686-13.353-5.313l3.304-81.776c7.596-0.348,14.42-3.636,19.367-8.748
		l23.222,18.782c-3.149,4.637-4.989,10.229-4.989,16.252C1303.139,845.217,1306.233,852.296,1311.258,857.51z M1239.172,768.185
		l-43.93-20.143c1.356-3.639,2.101-7.575,2.101-11.686c0-18.515-15.037-33.523-33.586-33.523c-8.59,0-16.423,3.223-22.362,8.519
		l-50.564-48.69c1.073-1.748,1.702-3.796,1.702-5.996c0-2.566-0.853-4.929-2.275-6.844l16.734-16.138
		c3.038,2.639,6.996,4.248,11.338,4.248c7.399,0,13.695-4.644,16.169-11.162l15.099,4.247c-0.078,0.539-0.132,1.087-0.132,1.647
		c0,6.358,5.164,11.513,11.533,11.513c2.433,0,4.687-0.756,6.547-2.04l49.062,45.444c-2.073,2.952-3.299,6.539-3.299,10.418
		c0,10.047,8.16,18.191,18.226,18.191c1.436,0,2.826-0.183,4.166-0.496l15.826,40.896
		C1246.334,759.134,1242.027,763.191,1239.172,768.185z M1135.757,781.5c-8.016,0-14.808,5.172-17.247,12.351l-42.048-8.034
		c0.047-0.592,0.077-1.188,0.077-1.792c0-5.75-2.143-10.997-5.668-15.001l4.348-4.753c2.094,1.302,4.558,2.065,7.205,2.065
		c7.549,0,13.668-6.109,13.668-13.645c0-0.065-0.009-0.128-0.01-0.193l35.336-7.096c2.488,8.881,8.541,16.272,16.529,20.535
		l-7.193,16.271C1139.164,781.758,1137.492,781.5,1135.757,781.5z M797.925,776.318c-5.938,0.023-11.212,2.813-14.625,7.137
		l-62.02-36.468c1.392-3.39,2.164-7.098,2.164-10.987c0-1.077-0.063-2.14-0.178-3.187l68.202-15.314
		c2.091,5.616,6.797,9.946,12.651,11.523L797.925,776.318z M703.88,813.686c0,1.834,0.357,3.582,0.985,5.195l-38.022,23.005
		c-2.51-3.423-5.751-6.276-9.498-8.329l30.572-69.282c2.081,0.473,4.243,0.73,6.467,0.73c2.807,0,5.517-0.405,8.084-1.146
		l9.765,36.795C707.306,802.936,703.88,807.906,703.88,813.686z M463.945,633.87c-1.982-16.695-15.813-29.764-32.871-30.577
		l-1.119-47.848c8.136-2.738,14.001-10.4,14.001-19.445c0-2.547-0.486-4.976-1.336-7.227L479.9,504.4
		c5.549,7.144,14.085,11.854,23.743,12.261l3.21,88.814c-13.925,1.702-24.772,13.317-25.243,27.563L463.945,633.87z
		 M278.772,720.731l-69.417-22.257c0.535-2.374,0.826-4.842,0.826-7.382c0-5.097-1.137-9.921-3.166-14.223l78.992-46.871
		c4.611,6.231,12.02,10.274,20.376,10.274c0.496,0,0.987-0.018,1.476-0.046l7.765,48.891
		C298.627,692.672,284.778,704.778,278.772,720.731z M306.385,589.727c-0.158,0-0.313,0.009-0.47,0.012l-4.891-41.342
		c23.958-3.644,44.068-18.979,54.345-40.001l48.351,21.568c-0.587,1.909-0.906,3.935-0.906,6.035
		c0,11.341,9.21,20.534,20.571,20.534c0.538,0,1.065-0.04,1.593-0.08l1.098,46.956c-14.687,1.383-26.716,11.87-30.363,25.75
		l-64.108-11.987c0.062-0.717,0.1-1.44,0.1-2.173C331.704,601.043,320.368,589.727,306.385,589.727z M450.385,116.386
		c4.202,0,8.273-0.551,12.152-1.574l32.882,101.934c-12.327,4.809-21.758,15.374-24.974,28.39l-61.054-11.191
		c0.441-3.086,0.683-6.237,0.683-9.445c0-21.75-10.512-41.041-26.729-53.08l42.369-61.93
		C432.903,113.865,441.349,116.386,450.385,116.386z M408.489,238.863l61.06,11.193c-0.195,1.622-0.307,3.269-0.307,4.944
		c0,14.281,7.306,26.854,18.387,34.213l-32.18,55.421c-5.2-2.37-10.975-3.701-17.064-3.701c-6.829,0-13.264,1.671-18.933,4.61
		l-39.373-65.701C394.289,270.559,404.697,255.961,408.489,238.863z M438.385,423.068c7.332,0,14.209-1.923,20.171-5.278
		l27.177,42.023c-7.587,5.792-12.485,14.917-12.485,25.187c0,5.519,1.416,10.706,3.9,15.225l-36.854,24.096
		c-2.304-3.316-5.561-5.912-9.376-7.413l6.939-93.852C438.034,423.057,438.208,423.068,438.385,423.068z M565.386,312.754
		c4.976,0,9.559-1.668,13.227-4.469l33.672,34.843c-4.409,5.051-7.085,11.647-7.085,18.873c0,0.634,0.028,1.262,0.068,1.886
		l-53.652,8.246c-1.877-7.717-6.845-14.223-13.523-18.145l20.239-42.405C560.545,312.338,562.916,312.754,565.386,312.754z
		 M600.325,132.9l35.67-40.703c3.838,2.808,8.398,4.686,13.351,5.312l-3.303,81.776c-7.596,0.348-14.42,3.636-19.368,8.748
		l-23.221-18.782c3.148-4.636,4.988-10.23,4.988-16.252C608.443,145.194,605.349,138.114,600.325,132.9z M1181.225,73.251
		l61.873,43.55c-2.513,4.291-3.959,9.28-3.959,14.608c0,10.971,6.101,20.514,15.098,25.442l-30.572,69.283
		c-2.08-0.472-4.243-0.73-6.467-0.73c-7.583,0-14.485,2.903-19.66,7.652l-11.629-12.547c3.765-4.272,6.053-9.872,6.053-16.009
		c0-13.396-10.88-24.255-24.3-24.255c-0.006,0-0.012,0-0.018,0l-9.74-93.349C1167.277,85.309,1175.49,80.325,1181.225,73.251z
		 M1704.567,313.54l-78.993,46.871c-4.611-6.232-12.02-10.275-20.377-10.275c-0.496,0-0.987,0.018-1.477,0.046l-7.765-48.891
		c16.998-3.553,30.848-15.66,36.854-31.614l69.418,22.258c-0.534,2.374-0.826,4.842-0.826,7.381
		C1701.401,304.414,1702.539,309.238,1704.567,313.54z M1585.582,302.364c1.837,0,3.649-0.104,5.436-0.296l7.765,48.889
		c-8.598,2.241-15.408,8.88-17.888,17.364l-64.112-11.988c0.145-1.289,0.227-2.597,0.227-3.924c0-19.191-15.586-34.75-34.813-34.75
		c-3.809,0-7.47,0.619-10.9,1.747l-25.157-61.032c10.738-5.203,18.869-14.928,21.904-26.697l67.596,13.1
		c-0.33,2.331-0.512,4.71-0.512,7.132C1535.127,279.774,1557.717,302.364,1585.582,302.364z M1467.625,454.409
		c0,2.547,0.486,4.976,1.336,7.227l-37.278,24.374c-5.55-7.144-14.087-11.855-23.743-12.261l-3.211-88.815
		c13.925-1.701,24.773-13.317,25.243-27.563l17.664-0.832c1.982,16.696,15.814,29.764,32.872,30.578l1.119,47.847
		C1473.491,437.702,1467.625,445.365,1467.625,454.409z M1277.582,599.661c-15.754,0-28.547,12.63-28.788,28.298l-76.435,2.791
		c-0.916-5.443-5.647-9.597-11.361-9.597c-4.754,0-8.834,2.873-10.599,6.973l-15.079-4.241c0.197-1.045,0.312-2.119,0.312-3.221
		c0-4.838-1.999-9.205-5.211-12.339l28.697-34.902c2.444,1.636,5.384,2.592,8.548,2.592c7.824,0,14.27-5.838,15.237-13.387
		l68.438,2.074c0.536,7.991,7.183,14.313,15.324,14.313c8.492,0,15.377-6.872,15.377-15.349c0-8.476-6.885-15.348-15.377-15.348
		c-0.412,0-0.816,0.029-1.22,0.062l-6.274-34.953c6.461-1.817,11.203-7.731,11.203-14.763c0-8.478-6.885-15.35-15.377-15.35
		c-0.886,0-1.748,0.091-2.593,0.234l-11.587-42.224c5.779-2.208,9.891-7.78,9.891-14.326c0-8.477-6.885-15.349-15.377-15.349
		c-2.062,0-4.025,0.412-5.822,1.146l-18.934-33.085c5.883-3.336,9.859-9.635,9.859-16.872c0-10.716-8.703-19.403-19.438-19.403
		c-2.136,0-4.186,0.356-6.107,0.992l-20.415-45.273c5.538-2.57,9.387-8.157,9.387-14.655c0-8.252-6.198-15.048-14.2-16.034v-39.799
		c4.696-0.382,9.017-2.092,12.577-4.761l11.91,12.85c-3.766,4.891-6.01,11.01-6.01,17.654c0,16.022,13.009,29.005,29.059,29.005
		c6.023,0,11.619-1.83,16.26-4.962l31.394,38.752c-4.137,4.158-6.694,9.883-6.694,16.206c0,12.701,10.315,22.998,23.04,22.998
		c0.799,0,1.589-0.041,2.367-0.12l14.345,66.641c-11.77,3.612-20.326,14.548-20.326,27.481c0,15.015,11.535,27.335,26.24,28.629
		l-0.081,38.758c-10.881,1.219-19.339,10.429-19.339,21.613c0,8.812,5.251,16.394,12.798,19.813l-13.232,41.156
		C1281.913,599.915,1279.777,599.661,1277.582,599.661z M1130.436,740.499l-35.339,7.098c-1.904-4.715-6.365-8.113-11.672-8.498
		l-3.365-30.214c4.538-1.549,7.806-5.832,7.806-10.887c0-5.047-3.26-9.325-7.789-10.879l2.146-19.008
		c1.887-0.198,3.636-0.853,5.139-1.848l50.556,48.682c-4.836,5.808-7.746,13.27-7.746,21.412
		C1130.171,737.76,1130.268,739.141,1130.436,740.499z M1088.174,647.663c-1.971-1.565-4.461-2.508-7.175-2.508
		c-3.932,0-7.399,1.968-9.481,4.966l-25.157-10.209c0.104-0.623,0.172-1.259,0.172-1.912c0-6.356-5.164-11.51-11.533-11.51
		c-0.651,0-1.287,0.066-1.909,0.171l-10.373-33.823c3.229-1.392,5.816-3.986,7.186-7.223l33.35,11.9
		c-0.24,1.013-0.381,2.063-0.381,3.149c0,7.536,6.119,13.645,13.668,13.645c4.895,0,9.175-2.576,11.589-6.436l14.027,6.713
		c-0.714,1.893-1.123,3.935-1.123,6.077c0,4.122,1.451,7.903,3.865,10.872L1088.174,647.663z M1008.865,679.706
		c-4.238,0-8.128,1.457-11.224,3.879l-18.729-18.087c2.206-3.009,3.524-6.707,3.524-10.722c0-9.377-7.109-17.09-16.24-18.078
		l1.146-42.803c7.016-0.577,12.532-6.434,12.532-13.586c0-4.545-2.235-8.56-5.658-11.039l1.107-1.944
		c1.342,0.545,2.806,0.851,4.343,0.851c6.369,0,11.533-5.153,11.533-11.511c0-5.445-3.795-9.997-8.886-11.193l2.011-19.743
		c7.494-0.064,13.55-6.143,13.55-13.638c0-7.536-6.119-13.645-13.668-13.645c-0.624,0-1.234,0.057-1.836,0.138l-2.009-6.744
		c4.026-1.796,6.838-5.821,6.838-10.509c0-4.518-2.614-8.417-6.408-10.301l8.006-23.313c0.82,0.172,1.669,0.265,2.54,0.265
		c6.794,0,12.302-5.497,12.302-12.278c0-6.78-5.508-12.277-12.302-12.277c-4.159,0-7.83,2.066-10.057,5.22l-26.162-13.936
		c0.475-1.26,0.747-2.62,0.747-4.046c0-6.357-5.164-11.511-11.533-11.511c-0.145,0-0.286,0.017-0.429,0.021l-2.181-12.841
		c4.714-1.445,8.143-5.824,8.143-11.003c0-6.357-5.164-11.511-11.533-11.511c-0.179,0-0.353,0.019-0.529,0.027l-1.723-9.639
		c4.527-1.554,7.785-5.831,7.785-10.877c0-6.357-5.164-11.511-11.533-11.511c-0.988,0-1.941,0.137-2.856,0.37l-6.97-18.077
		c3.589-1.951,6.025-5.75,6.025-10.116c0-1.361-0.249-2.66-0.683-3.872l1.85-0.947c3.062,4.853,8.463,8.087,14.633,8.087
		c5.187,0,9.828-2.29,12.998-5.898l4.228,3.093c-0.906,1.644-1.424,3.53-1.424,5.538c0,6.357,5.164,11.512,11.533,11.512
		c1.587,0,3.099-0.321,4.475-0.899l10.551,18.021c-3.515,1.972-5.893,5.724-5.893,10.034c0,6.273,5.03,11.364,11.282,11.498
		l-1.246,15.232c-6.56,0.265-11.8,5.641-11.8,12.253c0,6.781,5.508,12.278,12.302,12.278c2.531,0,4.883-0.765,6.839-2.073
		l10.224,11.826c-1.819,2.035-2.935,4.71-2.935,7.652c0,5.39,3.718,9.902,8.729,11.155l-4.104,35.377
		c-6.754,0.047-12.216,5.522-12.216,12.274c0,6.781,5.508,12.277,12.302,12.277c4.699,0,8.78-2.632,10.853-6.498l14.97,5.757
		c-0.292,1.109-0.463,2.269-0.463,3.47c0,7.535,6.119,13.644,13.668,13.644s13.668-6.108,13.668-13.644
		c0-5.998-3.883-11.082-9.272-12.91l7.216-32.59c0.675,0.085,1.358,0.143,2.057,0.143c7.246,0,13.384-4.696,15.554-11.201
		l14.969,4.033c-0.158,0.911-0.257,1.841-0.257,2.797c0,9.042,7.344,16.371,16.402,16.371s16.401-7.329,16.401-16.371l0,0h0.001
		c0.25,0,0.494-0.022,0.74-0.037l5.191,35.385c-6.866,0.795-12.339,6.104-13.387,12.881h-9.034
		c-0.749-6.829-6.541-12.145-13.581-12.145c-7.549,0-13.668,6.109-13.668,13.645s6.119,13.644,13.668,13.644
		c0.605,0,1.198-0.053,1.783-0.129l7.189,29.206c-4.13,1.511-7.319,4.945-8.482,9.224l-19.854-3.1
		c0.01-0.204,0.031-0.404,0.031-0.61c0-7.536-6.119-13.645-13.668-13.645c-6.385,0-11.731,4.376-13.233,10.284l-18.683-2.607
		c0.004-0.13,0.02-0.258,0.02-0.39c0-7.535-6.119-13.644-13.668-13.644c-7.548,0-13.668,6.108-13.668,13.644
		c0,7.028,5.326,12.812,12.168,13.558v20.173c-6.842,0.746-12.168,6.529-12.168,13.558c0,7.535,6.12,13.644,13.668,13.644
		c0.869,0,1.717-0.09,2.541-0.244l10.373,33.825c-3.981,1.813-6.755,5.813-6.755,10.466c0,3.823,1.876,7.202,4.75,9.295
		l-14.44,33.099C1012.211,679.957,1010.569,679.706,1008.865,679.706z M955.536,750.745l-39.73-6.881
		c0.022-0.397,0.061-0.79,0.061-1.193c0-11.908-9.671-21.562-21.601-21.562c-0.724,0-1.438,0.039-2.144,0.108l-4.092-23.948
		c7.262-1.758,13.084-7.16,15.404-14.172l37.54,9.542c-0.086,0.618-0.146,1.246-0.146,1.889c0,7.535,6.119,13.645,13.668,13.645
		c0.811,0,1.601-0.084,2.373-0.219l10.73,28.562C961.857,739.391,957.446,744.52,955.536,750.745z M528.975,612.05
		c-4.669-3.943-10.61-6.435-17.125-6.76l-3.21-88.809c15.821-1.803,28.112-15.206,28.112-31.481c0-2.687-0.338-5.294-0.968-7.785
		l49.904-16.903c3.149,6.627,9.554,11.408,17.153,12.291l-0.081,38.761C587.997,512.6,576.4,524.944,576.4,540
		c0,7.004,2.512,13.421,6.682,18.408L528.975,612.05z M634,390.748c10.966,0,20.499-6.119,25.363-15.122l24.423,11.524
		c-0.629,1.725-0.989,3.578-0.989,5.519c0,7.887,5.66,14.446,13.145,15.874l-2.208,22.626c-0.024,0-0.046-0.003-0.07-0.003
		c-8.667,0-15.722,6.798-16.158,15.34l-50.462,2.094c-0.855-7.772-5.811-14.308-12.662-17.413l13.232-41.157
		C629.669,390.494,631.804,390.748,634,390.748z M714.8,270.434c0-5.064-1.316-9.82-3.62-13.953l27.569-23.555
		c3.31,2.951,7.664,4.76,12.451,4.76c10.339,0,18.72-8.366,18.72-18.687c0-2.301-0.437-4.495-1.199-6.531l18.527-9.904
		c2.894,3.79,7.45,6.247,12.592,6.247c8.748,0,15.84-7.079,15.84-15.813c0-3.61-1.226-6.927-3.266-9.589l40.846-42.93
		c2.595,2.066,5.554,3.691,8.767,4.769l-14.367,59.317c-0.439-0.036-0.88-0.067-1.328-0.067c-8.947,0-16.2,7.24-16.2,16.17
		c0,2.484,0.578,4.829,1.581,6.932l-31.57,20.09c-2.972-3.578-7.457-5.859-12.478-5.859c-8.947,0-16.2,7.24-16.2,16.17
		c0,4.417,1.779,8.417,4.655,11.335l-35.556,42.066c-2.624-1.826-5.808-2.905-9.249-2.905c-3.408,0-6.566,1.056-9.175,2.85
		l-16.569-19.832C711.245,286.267,714.8,278.767,714.8,270.434z M756.211,170.722c5.966-0.206,11.47-2.22,15.979-5.515
		l15.476,17.681C785.379,185.629,784,189.153,784,193c0,1.81,0.32,3.542,0.881,5.162l-18.524,9.902
		c-2.757-3.8-6.9-6.522-11.699-7.417L756.211,170.722z M974.066,151.798c2.231,1.618,4.748,2.864,7.461,3.653l-8.981,49.07
		c-0.139-0.003-0.274-0.021-0.415-0.021c-7.934,0-14.523,5.697-15.917,13.212l-26.353-2.403c-0.007-3.87-1.377-7.42-3.656-10.2
		L974.066,151.798z M1165.661,228.666v39.799c-8.002,0.986-14.2,7.782-14.2,16.034c0,8.931,7.253,16.17,16.2,16.17
		c1.02,0,2.013-0.105,2.98-0.285l20.602,45.689c-5.786,3.361-9.686,9.603-9.686,16.766c0,10.717,8.703,19.404,19.439,19.404
		c2.056,0,4.035-0.324,5.896-0.915l19.148,33.46c-3.692,2.804-6.086,7.222-6.086,12.209c0,8.478,6.885,15.35,15.377,15.35
		c0.886,0,1.748-0.091,2.593-0.235l11.587,42.225c-1.792,0.684-3.418,1.691-4.815,2.953l-27.708-25.139
		c1.91-2.558,3.055-5.719,3.055-9.154c0-8.477-6.885-15.349-15.377-15.349s-15.377,6.872-15.377,15.349
		c0,6.051,3.516,11.269,8.612,13.769l-3.281,8.748c-1.264-0.335-2.585-0.531-3.954-0.531c-8.061,0-14.662,6.195-15.313,14.073
		l-26.541,0.391c-0.509-3.028-1.899-5.749-3.908-7.9l31.206-39.927c2.38,1.508,5.194,2.394,8.222,2.394
		c8.492,0,15.377-6.872,15.377-15.35c0-8.477-6.885-15.349-15.377-15.349c-7.985,0-14.546,6.077-15.301,13.85h-30.961
		c-0.612-3.771-2.933-6.965-6.154-8.757l18.693-48.235c0.875,0.211,1.783,0.336,2.723,0.336c6.369,0,11.533-5.153,11.533-11.511
		s-5.164-11.511-11.533-11.511s-11.533,5.153-11.533,11.511c0,4.359,2.429,8.151,6.009,10.105l-18.676,48.188
		c-1.02-0.272-2.085-0.432-3.19-0.432c-5.601,0-10.318,3.739-11.807,8.849c-1.46-0.425-2.999-0.664-4.596-0.664
		c-7.05,0-13.043,4.447-15.362,10.678l-15.076-4.062c0.102-0.736,0.172-1.482,0.172-2.246c0-9.041-7.343-16.371-16.401-16.371
		c-1.131,0-2.234,0.114-3.3,0.332l-8.128-26.782c4.313-1.908,7.327-6.211,7.327-11.224c0-5.012-3.013-9.314-7.326-11.223
		l6.657-21.918c1.15,0.241,2.342,0.371,3.563,0.371c3.161,0,6.115-0.86,8.666-2.339l17.654,25.104
		c-3.278,2.814-5.362,6.977-5.362,11.632c0,8.478,6.885,15.35,15.377,15.35s15.377-6.872,15.377-15.35
		c0-5.383-2.782-10.111-6.983-12.851l15.995-30.675c1.232,0.448,2.557,0.705,3.943,0.705c6.369,0,11.533-5.153,11.533-11.511
		s-5.164-11.511-11.533-11.511c-2.365,0-4.563,0.713-6.394,1.933l-10.736-16.037c3.654-2.965,5.993-7.483,5.993-12.551
		c0-4.373-1.746-8.333-4.572-11.244l42.399-49.398C1156.595,226.553,1160.937,228.281,1165.661,228.666z M1182.99,559.63
		c-0.391-5.835-4.035-10.774-9.15-13.017l13.506-41.302c1.07,0.236,2.179,0.369,3.32,0.369c3.799,0,7.27-1.382,9.953-3.66
		l54.009,52.114c-1.699,2.135-2.835,4.729-3.199,7.569L1182.99,559.63z M1051.777,547.328l-25.388,22.806
		c-2.064-1.838-4.684-3.065-7.583-3.382v-20.173c5.711-0.623,10.351-4.76,11.733-10.197l18.683,2.607
		c-0.004,0.13-0.02,0.258-0.02,0.39C1049.203,542.348,1050.164,545.088,1051.777,547.328z M1028.4,572.36l25.388-22.806
		c2.416,2.15,5.592,3.468,9.083,3.468c0.503,0,0.998-0.031,1.487-0.084l7.767,34.824c-3.453,1.177-6.275,3.691-7.86,6.929
		l-33.518-11.961c0.142-0.787,0.228-1.594,0.228-2.421C1030.975,577.34,1030.014,574.6,1028.4,572.36z M1076.539,587.021
		c-0.503,0-0.998,0.031-1.487,0.084l-7.767-34.824c4.267-1.454,7.574-4.95,8.764-9.326l19.854,3.1
		c-0.01,0.204-0.031,0.404-0.031,0.61c0,7.536,6.119,13.645,13.668,13.645c0.037,0,0.073-0.005,0.11-0.006l5.163,43.453
		c-4.835,0.997-8.917,4.018-11.357,8.126l-14.026-6.713c0.495-1.412,0.778-2.924,0.778-4.505
		C1090.207,593.13,1084.088,587.021,1076.539,587.021z M1109.452,492.644h8.868c0.242,5.808,3.708,10.771,8.667,13.165
		l-13.065,27.941c-1.377-0.466-2.848-0.729-4.383-0.729c-0.605,0-1.198,0.053-1.783,0.129l-7.189-29.206
		C1105.348,502.195,1108.879,497.87,1109.452,492.644z M1138.191,430.166h30.84c0.367,3.774,2.109,7.139,4.713,9.611l-31.095,39.784
		c-2.215-1.597-4.868-2.618-7.751-2.848l-5.262-35.863C1134.31,439.384,1137.771,435.207,1138.191,430.166z M1175.393,492.057
		c0.621,5.533,4.188,10.173,9.101,12.326l-13.507,41.302c-1.07-0.236-2.179-0.369-3.32-0.369c-6.722,0-12.422,4.313-14.512,10.312
		l-30.067-7.242c0.071-0.565,0.12-1.137,0.12-1.721c0-4.937-2.635-9.247-6.568-11.643l13.176-28.178
		c1.232,0.317,2.517,0.504,3.848,0.504c8.344,0,15.118-6.634,15.357-14.903L1175.393,492.057z M1118.329,603.398
		c-0.181,0-0.355,0.021-0.535,0.027l-5.166-43.479c4.532-1.046,8.192-4.34,9.753-8.646l30.072,7.243
		c-0.097,0.695-0.164,1.399-0.164,2.121c0,4.241,1.723,8.08,4.508,10.857l-28.694,34.898
		C1125.321,604.516,1121.957,603.398,1118.329,603.398z M1256.714,551.978l-54.009-52.114c2.084-2.62,3.338-5.928,3.338-9.532
		c0-6.05-3.517-11.267-8.612-13.767l3.28-8.749c1.264,0.335,2.585,0.532,3.955,0.532c3.969,0,7.574-1.514,10.302-3.978l27.708,25.14
		c-1.91,2.558-3.055,5.718-3.055,9.153c0,8.478,6.885,15.351,15.377,15.351c0.412,0,0.816-0.03,1.221-0.062l6.273,34.953
		C1260.337,549.512,1258.374,550.569,1256.714,551.978z M1049.203,477.5c-5.281,0-9.854,2.996-12.131,7.373l-14.975-5.757
		c0.239-0.955,0.38-1.949,0.38-2.978c0-5.785-4.013-10.622-9.408-11.922l4.104-35.38c4.745-0.072,8.793-2.999,10.494-7.141
		l19.043,5.016c-0.147,0.882-0.242,1.781-0.242,2.705c0,7.305,4.795,13.486,11.413,15.594l-7.212,32.571
		C1050.188,477.53,1049.699,477.5,1049.203,477.5z M1089.243,297.39c2.297,1.733,5.06,2.884,8.079,3.193l-0.658,61.133
		c-2.249,0.193-4.356,0.869-6.225,1.925l-17.648-25.095c3.772-3.167,6.174-7.909,6.174-13.214c0-4.512-1.748-8.606-4.587-11.682
		L1089.243,297.39z M1119.725,332.092l-15.993,30.671c-1.28-0.515-2.643-0.867-4.067-1.021l0.658-61.14
		c2.297-0.187,4.463-0.838,6.389-1.882l10.956,16.365c-1.78,2.026-2.868,4.673-2.868,7.58
		C1114.799,326.568,1116.749,330.01,1119.725,332.092z M1087.025,295.369l-14.865,16.26c-2.912-2.226-6.543-3.563-10.495-3.563
		c-9.555,0-17.3,7.73-17.3,17.267c0,7.265,4.501,13.471,10.866,16.021l-6.661,21.932c-0.684-0.118-1.384-0.192-2.102-0.192
		c-6.794,0-12.302,5.496-12.302,12.277s5.508,12.278,12.302,12.278c0.718,0,1.417-0.074,2.101-0.192l8.132,26.795
		c-4.274,1.735-7.637,5.216-9.225,9.557l-19.048-5.018c0.061-0.479,0.103-0.964,0.103-1.459c0-6.357-5.164-11.511-11.533-11.511
		c-2.339,0-4.513,0.7-6.33,1.895l-10.228-11.83c1.981-2.18,3.198-5.063,3.198-8.237c0-5.93-4.212-10.877-9.813-12.026l1.293-15.799
		c5.021-1.246,8.746-5.762,8.746-11.158c0-2.819-1.019-5.398-2.704-7.399l7.68-12.156c1.47,0.677,3.1,1.066,4.824,1.066
		c6.369,0,11.533-5.153,11.533-11.511s-5.164-11.511-11.533-11.511c-2.381,0-4.593,0.721-6.431,1.955l-4.892-5.544
		c1.773-2.024,2.856-4.667,2.856-7.567c0-2.949-1.121-5.63-2.948-7.667l28.711-33.324c2.646,1.879,5.875,2.995,9.37,2.995
		c4.839,0,9.171-2.129,12.139-5.487l32.616,23.723c-1.446,2.42-2.292,5.239-2.292,8.261
		C1082.795,288.691,1084.405,292.496,1087.025,295.369z M985.962,446.736l-8.007,23.313c-0.74-0.149-1.505-0.229-2.289-0.229
		c-4.632,0-8.615,2.732-10.45,6.665l-19.405-6.084c0.033-0.352,0.054-0.708,0.054-1.068c0-4.607-2.719-8.571-6.637-10.41
		l5.04-36.748c0.021,0,0.042,0.003,0.064,0.003c3.866,0,7.279-1.906,9.372-4.82l26.163,13.937c-0.53,1.371-0.832,2.854-0.832,4.411
		C979.035,440.559,981.865,444.743,985.962,446.736z M963.198,636.636c-7.668,0.423-14.072,5.557-16.332,12.566l-29.764-6.923
		c0.063-0.531,0.104-1.067,0.104-1.615c0-6.353-4.355-11.675-10.244-13.194l6.553-45.301c0.05,0.001,0.099,0.008,0.149,0.008
		c5.131,0,9.476-3.348,10.972-7.973l27.95,5.13c-0.023,0.323-0.049,0.646-0.049,0.975c0,6.903,5.14,12.594,11.806,13.502
		L963.198,636.636z M966.206,566.666c-6.18,0-11.397,4.097-13.087,9.717l-27.951-5.131c0.01-0.195,0.03-0.388,0.03-0.586
		c0-6.356-5.164-11.511-11.533-11.511s-11.533,5.154-11.533,11.511c0,5.277,3.563,9.715,8.416,11.074l-6.554,45.305
		c-0.152-0.006-0.302-0.023-0.455-0.023c-3.998,0-7.584,1.725-10.083,4.455l-37.718-27.432c1.47-2.454,2.33-5.313,2.33-8.38
		c0-9.042-7.344-16.372-16.402-16.372c-3.71,0-7.122,1.244-9.87,3.318l-22.707-24.91c2.669-2.912,4.312-6.777,4.312-11.036
		c0-0.147-0.018-0.289-0.022-0.436l36.552-4.343c1.397,4.788,5.819,8.29,11.066,8.29c6.369,0,11.533-5.153,11.533-11.511
		c0-1.283-0.219-2.513-0.607-3.666l6.06-4.407c2.101,2.204,5.061,3.585,8.349,3.585c6.369,0,11.533-5.154,11.533-11.512
		c0-4.894-3.065-9.063-7.38-10.729l0.607-2.495c0.408,0.043,0.821,0.068,1.24,0.068c6.369,0,11.533-5.153,11.533-11.511
		c0-6.356-5.164-11.51-11.533-11.51c-2.83,0-5.418,1.021-7.425,2.709l-5.791-5.28c1.309-1.867,2.083-4.135,2.083-6.587
		c0-3.629-1.687-6.861-4.316-8.971l17.673-29.036c1.543,0.695,3.25,1.091,5.053,1.091c2.476,0,4.777-0.737,6.707-1.993
		l19.515,23.151c-1.876,2.047-3.031,4.765-3.031,7.758c0,6.357,5.164,11.512,11.533,11.512c0.63,0,1.244-0.064,1.847-0.161
		l3.348,28.83c-5.011,1.252-8.728,5.765-8.728,11.153c0,5.125,3.358,9.464,7.996,10.955l-1.879,10.229
		c-0.195-0.01-0.387-0.029-0.584-0.029c-6.369,0-11.533,5.153-11.533,11.511s5.164,11.512,11.533,11.512
		c5.554,0,10.189-3.921,11.285-9.14l20.547,1.581c0.187,3.494,1.929,6.568,4.554,8.553l-1.105,1.941
		C969.954,567.065,968.127,566.666,966.206,566.666z M713.5,714.163c-2.643-2.307-5.703-4.147-9.06-5.383l20.188-81.012
		c0.474,0.042,0.951,0.072,1.436,0.072c8.946,0,16.199-7.24,16.199-16.17c0-2.031-0.392-3.968-1.077-5.759l25.353-12.459
		c1.922,3.119,4.867,5.53,8.377,6.775l-12.744,50.152c-0.819-0.127-1.652-0.213-2.507-0.213c-8.947,0-16.2,7.239-16.2,16.17
		c0,4.164,1.591,7.948,4.181,10.814L713.5,714.163z M607.76,511.372l0.081-38.758c10.685-1.196,19.027-10.102,19.323-21.016
		l50.462-2.094c0.942,7.002,6.362,12.573,13.298,13.755l-3.512,45.256c-8.83,0.135-15.949,7.312-15.949,16.157
		c0,0.398,0.031,0.788,0.06,1.18l-38.493,6.738C629.966,521.1,619.955,512.445,607.76,511.372z M698.997,408.84
		c5.885,0,11.021-3.143,13.858-7.827l26.128,12.589c-0.67,1.786-1.054,3.711-1.054,5.73c0,7.719,5.359,14.174,12.562,15.902
		l-6.771,46.322c-0.085-0.002-0.169-0.013-0.255-0.013c-6.71,0-12.149,5.429-12.149,12.127c0,1.446,0.267,2.827,0.732,4.113
		l-32.143,16.318c-2.402-2.771-5.728-4.709-9.502-5.353l3.512-45.256c8.83-0.135,15.949-7.312,15.949-16.157
		c0-7.887-5.66-14.447-13.145-15.874l2.207-22.626C698.951,408.836,698.974,408.84,698.997,408.84z M822.332,375.371
		c4.333,0,8.263-1.69,11.196-4.43l5.928,5.262c-1.255,1.843-1.99,4.067-1.99,6.463c0,6.357,5.164,11.511,11.533,11.511
		c5.337,0,9.816-3.624,11.131-8.538l18.002,2.361c0,6.357,5.164,11.51,11.533,11.51c0.436,0,0.864-0.029,1.287-0.076l4.271,17.244
		c-4.47,1.705-7.68,5.929-7.892,10.938l-16.391,1.311c-1.109-5.201-5.734-9.104-11.276-9.104c-6.345,0-11.491,5.117-11.53,11.44
		l-9.322,1.165c-1.292-4.947-5.786-8.605-11.148-8.605c-3.901,0-7.344,1.939-9.431,4.898l-6.068-3.166
		c0.791-1.919,1.234-4.018,1.234-6.222c0-9.042-7.344-16.372-16.402-16.372c-0.756,0-1.495,0.069-2.224,0.168l-7.162-24.015
		c5.543-2.627,9.386-8.249,9.386-14.781c0-0.196-0.022-0.386-0.029-0.58l9.36-1.196
		C807.958,369.885,814.499,375.371,822.332,375.371z M941.296,421.761l-4.971,36.244c-0.649-0.113-1.313-0.184-1.994-0.184
		c-2.288,0-4.414,0.673-6.207,1.82l-19.516-23.152c2.042-2.192,3.301-5.121,3.301-8.35c0-6.781-5.508-12.278-12.302-12.278
		c-0.499,0-0.989,0.039-1.472,0.096l-4.272-17.246c2.442-0.954,4.474-2.712,5.775-4.952l33.566,13.918
		c-0.257,0.955-0.407,1.954-0.407,2.989C932.799,415.972,936.402,420.429,941.296,421.761z M888.179,508.728l-0.607,2.495
		c-0.408-0.043-0.821-0.068-1.24-0.068c-6.369,0-11.533,5.154-11.533,11.511c0,1.997,0.511,3.874,1.407,5.511l-5.623,4.09
		c-2.07-3.081-5.589-5.11-9.585-5.11c-1.483,0-2.896,0.289-4.199,0.799l-14.341-25.982c4.348-2.944,7.206-7.917,7.206-13.557
		c0-1.139-0.118-2.25-0.339-3.323l9.85-2.999c1.816,3.979,5.826,6.75,10.491,6.75c2.83,0,5.419-1.021,7.426-2.71l5.791,5.279
		c-1.309,1.867-2.083,4.136-2.083,6.587C880.799,502.893,883.864,507.063,888.179,508.728z M796.999,530.293
		c-6.656,0-12.375,3.965-14.946,9.652l-6.661-2.288c0.298-1.226,0.473-2.499,0.473-3.816c0-8.931-7.253-16.17-16.2-16.17
		c-1.655,0-3.25,0.251-4.754,0.711l-5.771-13.992c3.849-2.034,6.475-6.068,6.475-10.719c0-0.738-0.077-1.458-0.203-2.159
		l10.044-3.138c2.473,5.915,8.318,10.073,15.14,10.073c7.875,0,14.448-5.543,16.033-12.931l20.255,2.438
		c-0.004,0.154-0.023,0.306-0.023,0.461c0,9.042,7.343,16.371,16.401,16.371c2.336,0,4.554-0.495,6.565-1.373l14.346,25.99
		c-2.85,2.096-4.708,5.458-4.708,9.262c0,0.086,0.011,0.169,0.013,0.255l-36.439,4.328
		C811.463,535.847,804.883,530.293,796.999,530.293z M780.671,420.832c0.76,8.338,7.775,14.872,16.327,14.872
		c5.778,0,10.848-2.989,13.77-7.496l6.077,3.17c-0.453,1.234-0.713,2.562-0.713,3.953c0,6.258,5.006,11.338,11.237,11.497
		l2.692,25.534c-6.407,1.266-11.467,6.253-12.831,12.612l-20.255-2.438c0.004-0.154,0.023-0.306,0.023-0.461
		c0-9.042-7.344-16.372-16.402-16.372c-1.712,0-3.362,0.264-4.914,0.749l-13.67-32.658c4.768-2.528,8.133-7.332,8.646-12.962
		H780.671z M848.517,434.237c0.746,2.858,2.559,5.281,4.997,6.82l-14.774,31.943c-1.715-0.607-3.554-0.955-5.478-0.955
		c-0.073,0-0.144,0.01-0.216,0.011l-2.693-25.54c5.049-1.205,8.81-5.713,8.842-11.114L848.517,434.237z M754.332,435.704
		c1.712,0,3.362-0.264,4.914-0.749l13.67,32.658c-5.186,2.75-8.721,8.192-8.721,14.462c0,1.18,0.131,2.327,0.368,3.436
		l-10.048,3.138c-1.479-3.235-4.335-5.701-7.826-6.659l6.772-46.329C753.751,435.675,754.038,435.704,754.332,435.704z
		 M869.666,465.821c-6.369,0-11.533,5.154-11.533,11.511c0,0.646,0.066,1.275,0.169,1.893l-9.86,3.002
		c-1.38-3.368-3.853-6.165-6.978-7.972l14.769-31.93c1.084,0.337,2.237,0.519,3.432,0.519c6.171,0,11.196-4.843,11.503-10.927
		l16.386-1.31c0.591,2.888,2.203,5.399,4.437,7.162l-17.673,29.036C872.894,466.176,871.323,465.821,869.666,465.821z
		 M780.596,380.704c0.756,0,1.495-0.069,2.224-0.168l7.162,24.015c-5.114,2.423-8.773,7.395-9.31,13.281h-10.013
		c-0.488-5.35-3.557-9.944-7.951-12.558l12.222-25.594C776.697,380.33,778.601,380.704,780.596,380.704z M703.863,524.672
		c0-2.955-0.807-5.716-2.194-8.1l31.73-16.108c2.185,3.218,5.877,5.334,10.065,5.334c0.989,0,1.945-0.131,2.865-0.354l5.809,14.084
		c-5.154,2.706-8.674,8.096-8.674,14.313c0,8.93,7.253,16.17,16.2,16.17c6.568,0,12.21-3.908,14.753-9.516l6.662,2.288
		c-0.304,1.246-0.483,2.542-0.483,3.882c0,6.191,3.445,11.577,8.524,14.36l-3.747,8.618c-1.588-0.52-3.28-0.81-5.042-0.81
		c-8.947,0-16.2,7.239-16.2,16.17c0,2.031,0.392,3.968,1.077,5.76l-25.352,12.458c-2.85-4.626-7.953-7.722-13.792-7.722
		c-1.794,0-3.515,0.303-5.127,0.84l-25.399-57.542C700.502,536.034,703.863,530.747,703.863,524.672z M765.081,651.113
		l12.744-50.152c0.819,0.127,1.652,0.213,2.507,0.213c3.59,0,6.896-1.18,9.582-3.152l24.593,27.622
		c-2.706,2.89-4.375,6.76-4.375,11.027c0,1.815,0.313,3.554,0.866,5.183l-37.218,16.563
		C771.873,655.04,768.788,652.427,765.081,651.113z M826.332,620.5c-3.59,0-6.896,1.18-9.582,3.153l-24.593-27.622
		c2.706-2.891,4.375-6.76,4.375-11.027c0-6.108-3.396-11.423-8.403-14.173l3.747-8.62c1.613,0.53,3.332,0.826,5.123,0.826
		c3.71,0,7.122-1.244,9.87-3.318l22.707,24.91c-2.669,2.912-4.312,6.777-4.312,11.036c0,6.495,3.799,12.09,9.291,14.735
		l-3.992,10.676C829.212,620.712,827.798,620.5,826.332,620.5z M979.328,545.173c-5.401,0.157-9.874,4.01-10.947,9.121
		l-20.547-1.581c-0.259-4.852-3.516-8.904-7.965-10.335l1.879-10.229c0.194,0.01,0.387,0.029,0.584,0.029
		c6.369,0,11.533-5.154,11.533-11.512c0-0.277-0.022-0.549-0.042-0.822l17.379-3.559c1.486,4.596,5.344,8.122,10.136,9.145
		L979.328,545.173z M970.538,512.092c0,0.424,0.025,0.841,0.063,1.254l-17.379,3.559c-1.545-4.454-5.746-7.666-10.717-7.74
		l-3.409-29.357c2.783-1.264,4.967-3.596,6.038-6.474l19.181,6.015c-0.112,0.646-0.183,1.307-0.183,1.984
		c0,6.358,5.164,11.513,11.533,11.513c0.62,0,1.224-0.063,1.817-0.156l1.973,6.623C974.253,501.239,970.538,506.225,970.538,512.092
		z M934.357,404.906l-33.566-13.918c0.257-0.955,0.407-1.954,0.407-2.989c0-6.357-5.164-11.511-11.533-11.511
		c-5.337,0-9.816,3.624-11.131,8.538l-18.002-2.361c0-1.862-0.453-3.615-1.24-5.171l18.438-12.512
		c2.112,2.365,5.178,3.862,8.602,3.862c4.511,0,8.407-2.591,10.302-6.358l30.4,10.522c-0.154,0.75-0.235,1.527-0.235,2.323
		c0,6.357,5.164,11.511,11.533,11.511c0.145,0,0.286-0.017,0.429-0.021l2.181,12.841
		C938.14,400.521,935.801,402.422,934.357,404.906z M928.03,370.178l-30.4-10.522c0.154-0.75,0.235-1.527,0.235-2.323
		c0-0.459-0.034-0.91-0.087-1.354l24.924-6.32c2.063,3.122,5.604,5.184,9.63,5.184c0.272,0,0.539-0.022,0.807-0.041l1.708,9.557
		C931.864,365.302,929.415,367.427,928.03,370.178z M920.799,343.332c0,1.247,0.205,2.444,0.572,3.569l-24.332,6.17
		c-1.699-4.245-5.848-7.249-10.707-7.249c-6.369,0-11.533,5.153-11.533,11.511c0,1.862,0.453,3.615,1.24,5.172l-18.438,12.512
		c-2.112-2.364-5.178-3.861-8.602-3.861c-2.886,0-5.517,1.065-7.54,2.813l-5.936-5.269c2.009-2.717,3.211-6.065,3.211-9.701
		c0-9.042-7.344-16.372-16.402-16.372s-16.402,7.33-16.402,16.372c0,0.196,0.022,0.386,0.029,0.58l-9.36,1.196
		c-1.629-7.33-8.169-12.815-16.003-12.815c-4.619,0-8.784,1.912-11.765,4.979l-24.02-19.332c1.705-2.561,2.703-5.631,2.703-8.937
		c0-4.417-1.779-8.416-4.655-11.335l35.556-42.066c2.624,1.826,5.808,2.904,9.249,2.904c2.34,0,4.558-0.505,6.566-1.396
		l19.205,31.878c-2.429,2.11-3.971,5.21-3.971,8.677c0,6.357,5.164,11.512,11.533,11.512c5.325,0,9.795-3.607,11.122-8.504
		l22.014,2.958c0,0.012-0.002,0.023-0.002,0.036c0,6.357,5.164,11.512,11.533,11.512s11.533-5.154,11.533-11.512
		c0-4.462-2.548-8.322-6.267-10.232l1.623-4.521c0.788,0.17,1.604,0.265,2.443,0.265c4.857,0,9.006-3.002,10.706-7.246l19.849,5.042
		c-0.053,0.446-0.087,0.898-0.087,1.359c0,6.357,5.164,11.512,11.533,11.512c0.933,0,1.835-0.123,2.704-0.331l6.987,18.12
		C923.176,335.272,920.799,339.022,920.799,343.332z M897.792,218.601c0.875,4.263,3.435,7.909,6.949,10.229l-26.502,53.459
		c-1.029-0.301-2.115-0.469-3.241-0.469c-0.788,0-1.557,0.08-2.3,0.23l-18.614-47.182c4.832-2.633,8.152-7.656,8.412-13.474
		L897.792,218.601z M846.332,236.84c1.392,0,2.734-0.194,4.023-0.523l18.625,47.209c-3.304,2.024-5.515,5.653-5.515,9.806
		c0,4.462,2.548,8.322,6.267,10.233l-1.623,4.521c-0.788-0.169-1.604-0.264-2.443-0.264c-5.325,0-9.795,3.607-11.122,8.503
		l-22.014-2.958c0-0.012,0.002-0.023,0.002-0.036c0-6.357-5.164-11.511-11.533-11.511c-1.458,0-2.849,0.281-4.133,0.774
		l-19.208-31.882c3.774-2.96,6.208-7.548,6.208-12.711c0-2.484-0.578-4.829-1.581-6.932l31.57-20.09
		C836.826,234.559,841.312,236.84,846.332,236.84z M916.998,292.488c-4.857,0-9.006,3.001-10.706,7.245l-19.849-5.042
		c0.053-0.446,0.087-0.898,0.087-1.359c0-3.805-1.858-7.168-4.708-9.264l26.508-53.473c1.672,0.582,3.46,0.915,5.331,0.915
		c7.934,0,14.523-5.697,15.917-13.213l26.353,2.402c0.011,6.262,3.593,11.676,8.817,14.353l-15.407,38.422
		c-1.587-0.479-3.268-0.742-5.011-0.742c-9.555,0-17.3,7.73-17.3,17.267c0,2.308,0.462,4.506,1.285,6.518l-1.835,0.939
		C924.4,294.456,920.931,292.488,916.998,292.488z M952.123,274.598l15.41-38.429c1.458,0.43,2.999,0.67,4.598,0.67
		c6.741,0,12.518-4.112,14.957-9.958l37.396,11.604c-0.228,1.081-0.352,2.199-0.352,3.347c0,4.362,1.738,8.313,4.552,11.222
		l-28.704,33.317c-1.814-1.188-3.981-1.884-6.313-1.884c-6.369,0-11.533,5.153-11.533,11.511c0,1.886,0.464,3.661,1.27,5.232
		l-2.588,1.778c-2.108-2.744-5.417-4.521-9.148-4.521c-3.276,0-6.228,1.37-8.327,3.56l-4.234-3.098
		c1.593-2.613,2.526-5.669,2.526-8.951C961.631,283.263,957.759,277.444,952.123,274.598z M983.199,309.999
		c0-1.555-0.313-3.036-0.873-4.389l2.783-1.912c2.111,2.335,5.157,3.813,8.557,3.813c2.381,0,4.594-0.721,6.431-1.956l4.892,5.544
		c-1.773,2.024-2.856,4.667-2.856,7.567c0,3.561,1.621,6.742,4.165,8.853l-7.39,11.697c-1.866-1.296-4.13-2.061-6.575-2.061
		c-0.974,0-1.914,0.134-2.817,0.36l-10.789-18.428C981.443,316.982,983.199,313.698,983.199,309.999z M1025.375,235.621
		l-37.396-11.604c0.228-1.081,0.352-2.199,0.352-3.347c0-7.062-4.543-13.051-10.866-15.254l8.982-49.074
		c0.623,0.048,1.249,0.08,1.884,0.08c2.834,0,5.552-0.489,8.08-1.379l34.813,73.418
		C1028.64,230.219,1026.592,232.703,1025.375,235.621z M897.499,214.612l-35.296,2.795c-1.088-5.302-4.779-9.653-9.679-11.678
		l14.364-59.303c1.407,0.211,2.847,0.322,4.313,0.322c3.204,0,6.282-0.53,9.161-1.494l24.624,56.446
		C900.661,204.447,897.741,209.177,897.499,214.612z M731.315,340.84c4.555,0,8.664-1.883,11.607-4.903l24.019,19.331
		c-1.733,2.596-2.747,5.711-2.747,9.064c0,5.983,3.226,11.202,8.026,14.058l-12.222,25.594c-1.769-0.651-3.671-1.024-5.667-1.024
		c-5.965,0-11.17,3.189-14.041,7.941l-26.128-12.589c0.657-1.759,1.034-3.655,1.034-5.643c0-5.913-3.19-11.07-7.938-13.89
		l18.504-38.935C727.498,340.477,729.362,340.84,731.315,340.84z M634,540c0-0.837-0.044-1.664-0.114-2.483l38.764-6.786
		c2.403,5.926,8.214,10.111,15.013,10.111c1.794,0,3.514-0.303,5.127-0.84l25.399,57.542c-4.964,2.764-8.325,8.051-8.325,14.127
		c0,1.596,0.241,3.134,0.672,4.591l-60.534,28.678c-4.058-6.562-11.325-10.937-19.618-10.937c-0.799,0-1.588,0.041-2.366,0.12
		l-14.346-66.642C625.443,563.87,634,552.933,634,540z M652.15,649.456l60.531-28.679c1.747,2.553,4.205,4.582,7.093,5.798
		l-20.16,80.897c-1.697-0.309-3.442-0.478-5.229-0.478c-6.024,0-11.619,1.83-16.259,4.963l-31.395-38.753
		c4.137-4.157,6.694-9.883,6.694-16.205C653.425,654.356,652.972,651.819,652.15,649.456z M715.658,716.249l34.196-37.065
		c2.725,2.077,6.118,3.324,9.811,3.324c4.216,0,8.043-1.621,10.925-4.256l23.593,21.358c-2.438,3.155-3.903,7.098-3.903,11.39
		c0,0.548,0.036,1.087,0.082,1.622l-68.073,15.286C721.007,723.498,718.709,719.521,715.658,716.249z M809,692.314
		c-4.957,0-9.45,1.937-12.799,5.075l-23.592-21.357c2.036-2.703,3.256-6.053,3.256-9.694c0-1.815-0.313-3.554-0.865-5.183
		l37.218-16.563c1.958,3.468,5.157,6.136,8.998,7.412l-9.452,40.535C810.86,692.406,809.941,692.314,809,692.314z M833.373,622.124
		l3.992-10.675c1.373,0.372,2.811,0.588,4.301,0.588c4.906,0,9.297-2.161,12.303-5.569l37.713,27.429
		c-1.146,1.996-1.811,4.303-1.811,6.769c0,4.515,2.205,8.505,5.589,10.988l-3.074,5.32c-2.858-1.394-6.058-2.197-9.454-2.197
		c-6.77,0-12.806,3.113-16.767,7.979l-25.778-18.066c1.357-2.365,2.145-5.098,2.145-8.019
		C842.532,630.262,838.788,624.741,833.373,622.124z M954.496,680.885c-5.855,0-10.835,3.682-12.782,8.847l-37.544-9.543
		c0.227-1.252,0.363-2.534,0.363-3.851c0-7.448-3.783-14.014-9.536-17.887l3.057-5.293c1.68,0.736,3.533,1.151,5.485,1.151
		c5.954,0,11.004-3.807,12.878-9.109l29.785,6.928c-0.127,0.867-0.215,1.746-0.215,2.648c0,8.036,5.226,14.842,12.465,17.249
		l-2.196,8.985C955.679,680.936,955.094,680.885,954.496,680.885z M1329.392,254.324l-37.87,58.527
		c-3.106-1.558-6.611-2.44-10.325-2.44c-4.59,0-8.862,1.345-12.454,3.654l-31.401-38.761c5.491-5.276,8.914-12.684,8.914-20.895
		c0-1.019-0.054-2.025-0.156-3.017l72.994-12.597C1320.737,245.049,1324.422,250.471,1329.392,254.324z M1428.197,262.477
		c4.661,0,9.136-0.785,13.313-2.21l25.161,61.04c-11.188,5.576-18.941,16.985-19.267,30.238l-17.696,0.833
		c-1.585-11.274-9.72-20.446-20.443-23.565l13.345-66.723C1424.438,262.338,1426.301,262.477,1428.197,262.477z M1379.078,374.817
		l-54.106,53.642c-5.018-4.238-11.503-6.798-18.59-6.798c-1.214,0-2.407,0.084-3.581,0.229l-14.349-66.654
		c7.045-2.332,12.582-7.961,14.769-15.061l69.324,13.287c-0.099,0.969-0.149,1.952-0.149,2.946
		C1372.396,363.413,1374.907,369.83,1379.078,374.817z M1308.741,517.807l0.081-38.761c14.763-1.237,26.359-13.582,26.359-28.638
		c0-7.004-2.512-13.421-6.682-18.408l54.106-53.642c4.67,3.944,10.611,6.436,17.126,6.761l3.211,88.808
		c-15.821,1.803-28.113,15.207-28.113,31.481c0,2.687,0.338,5.295,0.969,7.786l-49.904,16.902
		C1322.745,523.47,1316.34,518.69,1308.741,517.807z M1417.704,261.125l-13.343,66.712c-1.04-0.113-2.095-0.176-3.165-0.176
		c-13.177,0-24.278,8.836-27.703,20.893l-69.338-13.29c0.049-0.612,0.081-1.23,0.081-1.855c0-7.204-3.32-13.631-8.514-17.848
		l37.867-58.522c4.06,2.152,8.689,3.375,13.607,3.375c16.048,0,29.058-12.983,29.058-29.005c0-0.357-0.015-0.711-0.027-1.065
		l11.525-1.423C1390.653,244.576,1402.44,257.117,1417.704,261.125z M1318.139,231.409c0,0.829,0.043,1.647,0.111,2.458
		l-73.103,12.616c-2.419-8.51-8.625-15.432-16.692-18.82l30.36-68.803c2.944,1.002,6.098,1.554,9.382,1.554
		c5.896,0,11.378-1.757,15.959-4.769l43.155,54.626C1321.668,215.562,1318.139,223.073,1318.139,231.409z M1150.745,221.904
		l-42.403,49.403c-2.643-1.869-5.862-2.977-9.347-2.977c-4.839,0-9.17,2.129-12.139,5.487l-32.616-23.723
		c1.446-2.42,2.292-5.239,2.292-8.261c0-6.038-3.321-11.293-8.233-14.07l22.455-59.668c1.29,0.289,2.626,0.454,4.003,0.454
		c5.993,0,11.295-2.9,14.616-7.358l56.361,32.845c-1.521,3.168-2.373,6.716-2.373,10.464
		C1143.361,211.33,1146.193,217.496,1150.745,221.904z M1066.067,166.352l-22.447,59.646c-1.062-0.219-2.161-0.334-3.288-0.334
		c-1.594,0-3.13,0.239-4.584,0.667l-34.814-73.421c5.087-3.086,8.943-7.985,10.681-13.798l45.008,9.474
		c-0.057,0.584-0.09,1.175-0.09,1.773C1056.532,157.264,1060.388,163.271,1066.067,166.352z M970.337,148.468l-47.863,53.314
		c-2.537-1.647-5.559-2.613-8.812-2.613c-1.416,0-2.782,0.2-4.09,0.541l-24.623-56.444c7.438-4.041,12.887-11.261,14.53-19.831
		l64.576,7.811c-0.012,0.307-0.023,0.613-0.023,0.922C964.031,138.442,966.419,144.161,970.337,148.468z M849.632,137.041
		l-40.837,42.921c-2.548-1.747-5.63-2.774-8.955-2.774c-3.088,0-5.961,0.896-8.397,2.422l-15.486-17.693
		C780.934,156.75,784,149.734,784,142c0-1.139-0.074-2.26-0.203-3.364l59.816-12.375C844.826,130.3,846.903,133.964,849.632,137.041
		z M729.435,154.842l-58.9,36.056c-4.562-6.143-11.52-10.399-19.495-11.408l3.303-81.776c8.21-0.376,15.518-4.186,20.528-10.021
		l55.542,39.673c-2.545,4.287-4.012,9.288-4.012,14.633C726.4,146.616,727.497,150.975,729.435,154.842z M676.186,208
		c0-4.617-1.097-8.976-3.034-12.842l58.9-36.056c4.5,6.058,11.329,10.283,19.166,11.366l-1.554,29.924
		c-9.618,0.782-17.183,8.806-17.183,18.608c0,3.74,1.112,7.215,3.007,10.136l-27.131,23.181c-5.28-6.484-13.332-10.63-22.356-10.63
		c-4.656,0-9.051,1.11-12.943,3.068l-8.471-13.696C671.626,225.818,676.186,217.44,676.186,208z M686,299.182
		c6.479,0,12.458-2.136,17.269-5.741l16.564,19.825c-2.915,2.924-4.718,6.953-4.718,11.403c0,5.914,3.19,11.071,7.938,13.891
		l-18.504,38.935c-1.734-0.632-3.598-0.995-5.551-0.995c-5.932,0-11.104,3.192-13.927,7.94l-24.425-11.525
		c1.385-3.366,2.154-7.05,2.154-10.915c0-10.185-5.311-19.125-13.313-24.232l23.636-41.62
		C676.999,298.085,681.37,299.182,686,299.182z M523.385,408.005c16.049,0,29.059-12.988,29.059-29.005
		c0-0.647-0.029-1.288-0.071-1.925l53.652-8.246c2.175,8.908,8.503,16.192,16.826,19.684l-13.229,41.147
		c-1.37-0.27-2.786-0.414-4.235-0.414c-12.036,0-21.793,9.74-21.793,21.754c0,1.57,0.17,3.101,0.487,4.577l-49.906,16.903
		c-3.854-8.937-11.705-15.75-21.309-18.193l8.047-46.394C521.728,407.962,522.551,408.005,523.385,408.005z M532.504,615.593
		l54.107-53.643c5.017,4.238,11.502,6.798,18.589,6.798c1.214,0,2.407-0.084,3.582-0.229l14.348,66.654
		c-7.045,2.332-12.583,7.961-14.77,15.061l-69.324-13.287c0.099-0.969,0.149-1.952,0.149-2.946
		C539.186,626.996,536.674,620.579,532.504,615.593z M630.385,679.998c4.59,0,8.863-1.345,12.455-3.654l31.402,38.762
		c-5.492,5.276-8.915,12.684-8.915,20.895c0,1.019,0.054,2.024,0.156,3.016l-72.994,12.598c-1.645-6.253-5.329-11.675-10.298-15.527
		l37.87-58.527C623.167,679.116,626.672,679.998,630.385,679.998z M593.443,759c0-0.829-0.043-1.647-0.111-2.458l73.103-12.616
		c2.418,8.511,8.625,15.433,16.692,18.821l-30.36,68.802c-2.944-1.002-6.098-1.554-9.382-1.554c-5.896,0-11.378,1.758-15.959,4.77
		l-43.154-54.626C589.914,774.846,593.443,767.336,593.443,759z M814.691,693.2l9.45-40.524c0.718,0.098,1.446,0.165,2.191,0.165
		c4.941,0,9.358-2.215,12.33-5.697l25.791,18.075c-1.967,3.249-3.12,7.045-3.12,11.119c0,11.907,9.671,21.561,21.6,21.561
		c0.724,0,1.438-0.039,2.144-0.108l4.091,23.948c-6.501,1.574-11.845,6.07-14.559,12.031L827,716.086
		c0.458-1.619,0.72-3.32,0.72-5.086C827.72,702.662,822.246,695.604,814.691,693.2z M899.157,793.171l-1.383-29.249
		c8.219-1.343,14.875-7.296,17.196-15.129l39.62,6.861c-0.058,0.672-0.093,1.351-0.093,2.037c0,12.238,9.299,22.307,21.229,23.554
		v13.778c-7.857,1.078-14.104,7.143-15.441,14.9l-45.652-1.52C913.731,800.342,907.269,793.958,899.157,793.171z M978.225,734.007
		c-2.054,0-4.046,0.261-5.945,0.75l-10.729-28.559c3.958-2.39,6.613-6.715,6.613-11.67c0-5.894-3.75-10.899-8.993-12.808
		l2.199-8.996c0.928,0.146,1.872,0.243,2.842,0.243c4.238,0,8.128-1.456,11.224-3.878l18.729,18.087
		c-2.206,3.009-3.524,6.706-3.524,10.721c0,10.047,8.16,18.191,18.226,18.191s18.225-8.145,18.225-18.191
		c0-6.57-3.501-12.31-8.731-15.507l14.439-33.095c0.713,0.138,1.448,0.215,2.201,0.215c3.932,0,7.399-1.967,9.481-4.966
		l25.157,10.209c-0.104,0.623-0.172,1.259-0.172,1.912c0,5.047,3.26,9.326,7.789,10.879l-2.146,19.008
		c-5.794,0.61-10.31,5.501-10.31,11.445c0,5.939,4.507,10.825,10.293,11.443l3.363,30.195c-5.612,1.698-9.699,6.898-9.699,13.055
		c0,3.086,1.038,5.923,2.77,8.209l-4.349,4.753c-3.765-2.745-8.401-4.368-13.42-4.368c-8.965,0-16.717,5.17-20.435,12.685
		l-31.847-11.526c0.313-1.535,0.479-3.124,0.479-4.752C1001.954,744.61,991.33,734.007,978.225,734.007z M1231.533,679.809
		c-4.374,0-8.387,1.541-11.527,4.105l-49.061-45.443c0.829-1.412,1.371-3.011,1.531-4.724l76.425-2.791
		c0.711,8.08,4.77,15.196,10.784,19.967l-20.301,30.68C1237.004,680.466,1234.349,679.809,1231.533,679.809z M1388.197,582.404
		c-16.049,0-29.059,12.989-29.059,29.005c0,0.647,0.029,1.289,0.07,1.926l-53.651,8.246c-2.175-8.909-8.503-16.192-16.825-19.685
		l13.229-41.147c1.371,0.27,2.786,0.414,4.235,0.414c12.036,0,21.794-9.739,21.794-21.754c0-1.57-0.171-3.101-0.487-4.577
		l49.905-16.902c3.854,8.937,11.705,15.75,21.31,18.193l-8.047,46.394C1389.854,582.447,1389.031,582.404,1388.197,582.404z
		 M1401.868,113.471c4.45,23.349,21.056,42.381,42.991,50.253l-5.873,18.052c-3.439-0.931-7.055-1.437-10.789-1.437
		c-22.723,0-41.144,18.388-41.144,41.068c0,0.857,0.035,1.706,0.087,2.55l-11.519,1.422c-2.78-13.123-14.448-22.977-28.425-22.977
		c-5.896,0-11.379,1.758-15.96,4.771l-43.154-54.626c5.643-5.291,9.172-12.801,9.172-21.14c0-0.642-0.028-1.277-0.069-1.909
		L1401.868,113.471z M1248.199,13.269c4.336,8.388,13.083,14.125,23.177,14.125c7.876,0,14.93-3.496,19.712-9.014l28.273,20.082
		c-1.026,2.083-1.618,4.419-1.618,6.898c0,5.166,2.515,9.733,6.375,12.583l-6.212,12.095c-2.381-0.892-4.959-1.383-7.652-1.383
		c-12.036,0-21.793,9.739-21.793,21.754c0,5.015,1.704,9.629,4.56,13.309l-5.867,5.72c-5.089-4.379-11.71-7.033-18.956-7.033
		c-8.912,0-16.883,4.009-22.213,10.314l-61.868-43.546c3.562-5.802,5.617-12.625,5.617-19.928c0-4.138-0.668-8.119-1.887-11.851
		L1248.199,13.269z M1114.143,40.773c-0.618,2.726-0.956,5.559-0.956,8.471c0,21.099,17.136,38.202,38.273,38.202
		c0.493,0,0.981-0.019,1.47-0.037l9.741,93.35c-6.142,1.28-11.428,4.876-14.91,9.829l-56.358-32.844
		c1.008-2.259,1.579-4.753,1.579-7.385c0-10.047-8.159-18.191-18.225-18.191c-8.074,0-14.91,5.246-17.304,12.505l-45.018-9.476
		c0.124-0.993,0.195-2.003,0.195-3.03c0-10.896-7.199-20.114-17.108-23.174l18.385-82.841c6.82-0.473,12.598-4.68,15.3-10.596
		L1114.143,40.773z M909.407,28.805c1.787,0.478,3.655,0.756,5.593,0.756c10.957,0,19.985-8.15,21.388-18.704l58.779,2.351
		c1.98,6.656,7.672,11.699,14.682,12.773l-18.233,82.157c-1.074-0.145-2.17-0.227-3.284-0.227c-11.741,0-21.537,8.312-23.805,19.361
		l-64.563-7.809c0.024-0.485,0.037-0.973,0.037-1.464c0-11.238-6.464-20.963-15.879-25.691L909.407,28.805z M855.317,94.021
		C847.535,99.168,842.4,107.983,842.4,118c0,1.139,0.074,2.26,0.203,3.364l-59.816,12.375c-2.384-7.943-8.115-14.438-15.561-17.86
		l25.436-70.903c4.404,1.146,9.041,1.772,13.837,1.772c7.434,0,14.491-1.484,20.869-4.131L855.317,94.021z M761.662,22.195
		c5.777,9.654,15.047,17.242,26.222,21.296l-25.363,70.701c-2.337-0.612-4.79-0.94-7.32-0.94c-8.753,0-16.588,3.903-21.87,10.055
		l-55.542-39.673c2.545-4.287,4.012-9.288,4.012-14.633c0-3.378-0.589-6.618-1.661-9.629L761.662,22.195z M553.769,139.302
		c-2.194,4.08-3.441,8.743-3.441,13.698c0,16.017,13.01,29.005,29.058,29.005c8.214,0,15.626-3.408,20.911-8.877l23.221,18.782
		c-3.112,4.592-4.931,10.129-4.931,16.09c0,15.877,12.895,28.748,28.8,28.748c4.656,0,9.051-1.11,12.943-3.068l8.471,13.696
		c-7.04,5.241-11.599,13.618-11.599,23.059c0,10.185,5.311,19.125,13.313,24.232l-23.636,41.62
		c-3.876-1.938-8.247-3.035-12.877-3.035c-6.866,0-13.167,2.402-18.116,6.405l-33.667-34.838c3.1-3.758,4.961-8.571,4.961-13.819
		c0-12.014-9.757-21.754-21.793-21.754s-21.793,9.74-21.793,21.754c0,7.771,4.085,14.586,10.225,18.434l-20.237,42.401
		c-3.173-1.187-6.607-1.84-10.196-1.84c-16.048,0-29.058,12.984-29.058,29.005c0,13.463,9.193,24.784,21.656,28.052l-8.047,46.394
		c-0.967-0.088-1.946-0.14-2.936-0.14c-5.454,0-10.586,1.374-15.069,3.792l-27.173-42.015c10.169-7.477,16.771-19.508,16.771-33.083
		c0-14.819-7.867-27.802-19.657-35.024l32.086-55.259c5.544,2.778,11.8,4.352,18.427,4.352c22.723,0,41.144-18.387,41.144-41.068
		c0-22.681-18.421-41.067-41.144-41.067c-3.524,0-6.944,0.444-10.208,1.276l-32.88-101.929c8.631-3.287,16.053-9.012,21.421-16.336
		L553.769,139.302z M253.29,105.564c3.892,1.68,8.188,2.619,12.71,2.619c17.113,0,31.048-13.356,31.653-30.054l105.482-4.577
		c1.289,13.485,8.239,25.318,18.453,33.111l-42.376,61.939c-10.196-6.436-22.264-10.175-35.213-10.175
		c-29.972,0-55.268,19.962-63.354,47.312l-44.444-11.351c0.31-1.751,0.481-3.549,0.481-5.388c0-11.007-5.801-20.676-14.552-26.225
		L253.29,105.564z M196.985,219.174c2.56,0.657,5.246,1.009,8.015,1.009c13.857,0,25.629-8.76,29.931-20.958l44.477,11.359
		c-0.962,4.488-1.481,9.141-1.481,13.916c0,36.491,29.582,66.073,66.073,66.073c11.528,0,22.363-2.959,31.798-8.149l39.36,65.68
		c-10.816,7.399-17.916,19.818-17.916,33.896c0,20.814,15.515,38,35.628,40.69l-6.873,92.96c-0.857-0.108-1.726-0.184-2.613-0.184
		c-7.475,0-13.998,3.992-17.601,9.944l-48.385-21.584c3.425-8.438,5.328-17.658,5.328-27.327c0-40.166-32.561-72.728-72.728-72.728
		c-14.329,0-27.678,4.16-38.938,11.314l-62.838-91.958c8.184-6.161,13.458-15.794,13.458-26.629
		c0-13.911-8.686-25.851-21.077-30.988L196.985,219.174z M162.068,329.838c1.612,0.223,3.257,0.345,4.932,0.345
		c6.188,0,11.993-1.582,17.023-4.34l62.909,92.061c-17.984,13.241-29.66,34.551-29.66,58.596c0,11.337,2.596,22.065,7.222,31.63
		l-59.304,31.192c-5.658-8.551-15.184-14.451-26.182-15.37l0.982-64.829c18.228-1.002,32.691-15.67,32.691-33.624
		c0-15.287-10.49-28.187-24.858-32.302L162.068,329.838z M148.53,588.907c12.959-4.88,22.152-17.098,22.152-31.407
		c0-4.924-1.097-9.596-3.052-13.812l59.212-31.145c12.531,21.909,36.111,36.685,63.158,36.685c2.041,0,4.056-0.105,6.055-0.271
		l4.893,41.36c-11.369,2.484-19.882,12.588-19.882,24.682c0,3.827,0.857,7.452,2.382,10.703l-78.907,46.82
		c-5.777-8.578-15.441-14.205-26.394-14.205c-2.561,0-5.049,0.316-7.436,0.897L148.53,588.907z M509.714,876.937
		c-5.879-30.844-32.974-54.165-65.531-54.165c-35.175,0-63.973,27.224-66.523,61.747l-46.564-1.735
		c-0.875-10.894-9.976-19.466-21.095-19.466c-11.698,0-21.182,9.483-21.182,21.182c0,2.208,0.339,4.336,0.966,6.338l-34.007,15.271
		c-15.994-35.604-49.27-61.761-89.149-67.787l10.908-114.471c0.204,0.004,0.406,0.016,0.611,0.016c5.79,0,11.215-1.579,15.902-4.327
		l50.733,76.338c-4.563,3.885-7.465,9.661-7.465,16.123c0,11.699,9.483,21.183,21.182,21.183c11.698,0,21.182-9.483,21.182-21.183
		c0-11.698-9.484-21.182-21.182-21.182c-3.44,0-6.679,0.838-9.551,2.294l-50.795-76.432c4.286-3.512,7.668-8.126,9.74-13.424
		l69.353,22.236c-1.104,4.15-1.701,8.509-1.701,13.007c0,27.866,22.59,50.455,50.455,50.455c23.714,0,43.597-16.363,48.998-38.413
		l67.604,13.101c-0.229,1.755-0.36,3.54-0.36,5.357c0,22.682,18.42,41.068,41.143,41.068s41.144-18.387,41.144-41.068
		c0-22.681-18.421-41.067-41.144-41.067c-19.17,0-35.278,13.087-39.846,30.799l-67.595-13.099c0.33-2.332,0.511-4.711,0.511-7.133
		c0-27.865-22.59-50.454-50.455-50.454c-1.837,0-3.648,0.104-5.435,0.296l-7.765-48.889c8.597-2.242,15.407-8.882,17.887-17.366
		l64.112,11.988c-0.145,1.289-0.227,2.598-0.227,3.925c0,19.192,15.586,34.75,34.813,34.75c18.936,0,34.331-15.094,34.792-33.886
		l17.697-0.833c1.964,13.968,13.978,24.717,28.512,24.717c13.177,0,24.278-8.836,27.703-20.894l69.337,13.29
		c-0.049,0.613-0.081,1.23-0.081,1.855c0,7.204,3.32,13.632,8.514,17.849l-37.867,58.521c-4.06-2.151-8.689-3.375-13.607-3.375
		c-16.048,0-29.058,12.984-29.058,29.005c0,16.017,13.01,29.006,29.058,29.006c5.896,0,11.379-1.759,15.96-4.771L623.5,837.86
		c-5.643,5.291-9.172,12.802-9.172,21.14c0,0.643,0.028,1.277,0.069,1.91L509.714,876.937z M668.994,872.713
		c2.199-4.084,3.45-8.752,3.45-13.713c0-4.612-1.083-8.971-3.002-12.843l38.022-23.004c2.639,3.002,6.501,4.907,10.817,4.907
		c3.927,0,7.482-1.573,10.079-4.117l20.094,14.328c-1.383,2.606-2.173,5.574-2.173,8.729c0,9.219,6.694,16.859,15.49,18.39
		l-1.657,41.897c-8.634,0.403-16.269,4.604-21.279,10.964L668.994,872.713z M782.515,853.547c0.766-2.04,1.205-4.24,1.205-6.547
		c0-10.319-8.381-18.686-18.72-18.686c-5.377,0-10.211,2.275-13.625,5.899l-20.112-14.341c0.899-1.876,1.417-3.968,1.417-6.187
		c0-7.938-6.446-14.374-14.399-14.374c-0.409,0-0.812,0.027-1.212,0.062l-9.905-37.321c4.858-2.379,8.95-6.073,11.818-10.616
		l61.761,36.315c-0.941,2.229-1.462,4.678-1.462,7.248c0,10.32,8.381,18.687,18.72,18.687c1.78,0,3.495-0.264,5.126-0.727
		l20.901,47.788c-4.176,2.274-7.721,5.554-10.32,9.509L782.515,853.547z M837.8,857.253c-3.213,0-6.301,0.533-9.187,1.503
		l-20.906-47.8c5.396-3.279,9.013-9.188,9.013-15.956c0-8.631-5.871-15.875-13.838-18.021l6.193-47.296
		c7.476-0.029,13.901-4.44,16.874-10.787l47.606,17.683c-0.57,1.934-0.889,3.975-0.889,6.093c0,11.406,8.881,20.72,20.113,21.485
		l1.383,29.253c-7.962,1.54-13.977,8.528-13.977,16.925c0,4.597,1.813,8.763,4.749,11.854l-31.357,39.766
		C849.045,858.985,843.626,857.253,837.8,857.253z M960.667,881.368c-2.203-3.942-5.33-7.297-9.091-9.774l22.068-40.981
		c1.466,0.38,2.995,0.603,4.58,0.603c10.065,0,18.226-8.145,18.226-18.191c0-9.198-6.847-16.781-15.726-18v-13.778
		c8.629-0.901,15.876-6.421,19.229-14.035l31.662,11.459c-0.416,1.718-0.642,3.51-0.642,5.355c0,9.48,5.814,17.602,14.075,21.016
		l-8.93,30.742c-1.31-0.229-2.655-0.355-4.03-0.355c-12.827,0-23.225,10.383-23.225,23.19c0,1.854,0.224,3.653,0.636,5.381
		L960.667,881.368z M1055.26,860.145c0.033-0.506,0.056-1.015,0.056-1.528c0-9.685-5.947-17.979-14.392-21.449l8.93-30.743
		c1.27,0.219,2.572,0.339,3.903,0.339c10.243,0,18.907-6.748,21.774-16.033l42.048,8.033c-0.016,0.309-0.047,0.614-0.047,0.927
		c0,9.198,6.846,16.782,15.726,18.001v41.117c-6.999,0.961-12.729,5.871-14.844,12.42L1055.26,860.145z M1152.989,805.571
		c0.633-1.847,0.992-3.82,0.992-5.881c0-6.538-3.468-12.254-8.655-15.46l7.196-16.277c3.514,1.245,7.293,1.929,11.234,1.929
		c3.389,0,6.659-0.506,9.743-1.438l18.662,48.202c-2.452,1.36-4.554,3.269-6.145,5.56L1152.989,805.571z M1212.896,846.311
		c3.869-3.336,6.328-8.258,6.328-13.762c0-10.047-8.159-18.191-18.225-18.191c-1.438,0-2.829,0.184-4.17,0.497l-18.666-48.211
		c6.345-3.012,11.591-7.952,14.983-14.062l43.928,20.142c-1.085,3.026-1.68,6.285-1.68,9.685c0,14.641,10.968,26.717,25.147,28.51
		l-3.304,81.776c-4.372,0.2-8.488,1.375-12.141,3.311L1212.896,846.311z M1357.813,851.107c2.194-4.08,3.441-8.743,3.441-13.698
		c0-16.016-13.01-29.005-29.058-29.005c-8.214,0-15.626,3.408-20.911,8.877l-23.221-18.781c3.112-4.592,4.931-10.129,4.931-16.091
		c0-15.877-12.895-28.748-28.8-28.748c-2.779,0-5.463,0.401-8.006,1.134l-15.822-40.889c5.598-3.104,9.39-9.061,9.39-15.906
		c0-5.44-2.406-10.311-6.199-13.644l20.295-30.67c4.081,2.214,8.758,3.471,13.729,3.471c6.865,0,13.167-2.402,18.115-6.405
		l33.667,34.838c-3.1,3.758-4.962,8.571-4.962,13.819c0,12.015,9.757,21.754,21.794,21.754c12.036,0,21.794-9.739,21.794-21.754
		c0-7.771-4.086-14.586-10.227-18.434l20.237-42.401c3.173,1.187,6.607,1.84,10.196,1.84c16.048,0,29.058-12.983,29.058-29.005
		c0-13.463-9.193-24.783-21.656-28.052l8.047-46.393c0.968,0.088,1.946,0.14,2.937,0.14c5.454,0,10.586-1.374,15.069-3.792
		l27.173,42.016c-10.169,7.477-16.771,19.508-16.771,33.081c0,14.82,7.866,27.803,19.656,35.025l-32.086,55.259
		c-5.544-2.778-11.8-4.352-18.427-4.352c-22.723,0-41.144,18.387-41.144,41.067c0,22.682,18.421,41.068,41.144,41.068
		c3.524,0,6.944-0.444,10.209-1.276l32.88,101.929c-8.632,3.287-16.054,9.012-21.422,16.336L1357.813,851.107z M1658.292,884.846
		c-3.892-1.681-8.188-2.619-12.71-2.619c-17.112,0-31.048,13.355-31.652,30.052l-105.482,4.577
		c-1.289-13.485-8.24-25.318-18.453-33.111l42.375-61.938c10.195,6.437,22.265,10.176,35.213,10.176
		c29.972,0,55.268-19.963,63.354-47.313l44.445,11.351c-0.311,1.751-0.481,3.55-0.481,5.389c0,11.008,5.801,20.676,14.552,26.226
		L1658.292,884.846z M1714.596,771.236c-2.56-0.657-5.245-1.009-8.014-1.009c-13.857,0-25.629,8.761-29.93,20.958l-44.479-11.359
		c0.963-4.488,1.481-9.142,1.481-13.917c0-36.491-29.582-66.072-66.073-66.072c-11.528,0-22.363,2.959-31.798,8.148l-39.36-65.681
		c10.816-7.398,17.916-19.817,17.916-33.896c0-20.813-15.515-37.998-35.629-40.689l6.873-92.96c0.857,0.109,1.726,0.184,2.612,0.184
		c7.475,0,13.999-3.993,17.601-9.945l48.386,21.584c-3.425,8.438-5.328,17.658-5.328,27.327c0,40.167,32.561,72.729,72.728,72.729
		c14.329,0,27.678-4.16,38.938-11.315l62.838,91.958c-8.184,6.161-13.457,15.794-13.457,26.629c0,13.911,8.686,25.851,21.075,30.989
		L1714.596,771.236z M1749.514,660.572c-1.611-0.223-3.257-0.345-4.932-0.345c-6.188,0-11.992,1.581-17.022,4.34l-62.908-92.062
		c17.983-13.24,29.658-34.552,29.658-58.597c0-11.336-2.596-22.065-7.222-31.629l59.304-31.193
		c5.657,8.551,15.184,14.452,26.182,15.37l-0.982,64.83c-18.228,1.002-32.69,15.67-32.69,33.622
		c0,15.287,10.489,28.188,24.857,32.303L1749.514,660.572z M1802.818,412.07c-6.352-7.818-16.187-12.843-27.236-12.843
		c-2.66,0-5.247,0.301-7.736,0.852l-22.225-70.449c11.646-4.906,19.85-16.627,19.85-30.313c0-16.15-11.422-29.563-26.448-32.268
		l10.894-114.325c4.161,0.448,8.386,0.685,12.666,0.685c17.475,0,34.052-3.837,48.942-10.706l63.273,121.754
		c-31.131,17.207-52.216,50.365-52.216,88.451c0,14.455,3.043,28.196,8.513,40.629L1802.818,412.07z"/>
</g>
</svg>
