<?xml version="1.0" encoding="utf-8"?>
<!-- Generator: Adobe Illustrator 16.0.3, SVG Export Plug-In . SVG Version: 6.00 Build 0)  -->
<!DOCTYPE svg PUBLIC "-//W3C//DTD SVG 1.1//EN" "http://www.w3.org/Graphics/SVG/1.1/DTD/svg11.dtd">
<svg version="1.1" id="圖層_1" xmlns="http://www.w3.org/2000/svg" xmlns:xlink="http://www.w3.org/1999/xlink" x="0px" y="0px"
	 width="1920px" height="955px" viewBox="0 0 1920 955" enable-background="new 0 0 1920 955" xml:space="preserve">
<g>
	<path fill-rule="evenodd" clip-rule="evenodd" fill="#DE1B94" d="M1,892.889c0-255.302,0-510.603,0-765.905
		c3.685-0.872,4.508,2.394,5.728,4.41c7.571,12.516,15.309,24.929,22.949,37.401c8.682,14.172,17.167,28.465,26.075,42.501
		c1.911,3.013,4.312,4.3,7.799,4.316c20.281,0.095,40.563-0.191,60.845,0.137c0.32,0.005,0.636-0.178,0.937-0.313
		c5.298-4.55,7.942-10.96,11.466-16.705c30.25-49.303,60.245-98.764,90.479-148.077c8.861-14.453,17.743-28.896,26.421-43.46
		c1.581-2.652,3.496-4.82,6.269-6.194c108.32,0,216.64,0,324.959,0c2.947,1.251,5.236,3.271,7.501,5.553
		c15.017,15.121,29.275,30.96,43.985,46.371c16.774,17.575,33.348,35.344,50.041,53c16.233,17.168,32.382,34.416,48.622,51.579
		c16.581,17.522,33.073,35.127,49.644,52.66c16.341,17.289,32.625,34.633,48.937,51.951c16.312,17.319,32.668,34.598,48.948,51.948
		c16.168,17.23,32.428,34.372,48.609,51.588c16.296,17.34,32.613,34.659,48.938,51.972c5.48,5.811,11.001,11.584,16.485,17.391
		c4.234,4.482,3.719,7.779-1.846,10.573c-23.216,11.657-46.606,22.961-70.038,34.177c-1.052,0.502-2.123,0.968-3.159,1.5
		c-24.306,12.472-49.029,24.096-73.541,36.148c-28.842,14.182-57.744,28.245-86.631,42.333
		c-26.792,13.067-53.588,26.126-80.375,39.204c-29.181,14.247-58.301,28.629-87.562,42.705
		c-18.156,8.734-35.939,18.242-54.405,26.329c-2.388,1.045-4.609,2.889-7.514,1.72c-2.676-2.098-4.437-4.956-6.147-7.793
		c-26.3-43.624-52.988-87.014-79.532-130.488c-24.111-39.489-48.019-79.104-72.451-118.398c-1.303-2.096-1.948-4.633-4.054-6.202
		c-1.05-0.641-2.192-0.625-3.379-0.615c-18.993,0.167-37.988,0.139-56.98,0.005c-4.675-0.033-7.685,1.455-10.165,5.544
		c-14.072,23.204-28.187,46.383-42.407,69.497c-24.863,40.414-49.54,80.943-74.338,121.397
		c-19.838,32.362-39.588,64.779-59.394,97.162c-22.239,36.359-44.532,72.685-66.752,109.054
		c-16.145,26.427-32.406,52.782-48.475,79.254C6.062,890.476,5.147,894.021,1,892.889z"/>
	<path fill-rule="evenodd" clip-rule="evenodd" fill="#DE1B94" d="M654.918,1c421.947,0,843.895,0,1265.842,0
		c1.039,2.644,0.258,5.397,0.489,8.086c-0.377,3.115-2.776,4.344-5.205,5.515c-23.531,11.35-47.029,22.766-70.375,34.491
		c-3.119,1.567-6.703,2.083-9.482,4.353c-8.911,1.646-17.866,0.92-26.809,0.407c-1.477-0.084-2.954-0.545-4.455-0.484
		c-13.331,0.541-26.591-1.582-39.917-1.047c-3.534,0.142-6.92-0.969-10.43-0.972c-2.419-0.002-3.436,0.695-2.373,3.297
		c1.386,3.398,2.98,6.691,4.531,10.01c2.662,5.698,1.945,7.873-3.685,10.837c-17.542,9.237-35.638,17.351-53.39,26.167
		c-32.518,16.151-65.236,31.895-97.836,47.877c-27.364,13.415-54.763,26.763-82.161,40.111
		c-28.744,14.006-57.464,28.066-86.201,42.086c-27.091,13.216-54.189,26.42-81.275,39.647
		c-28.884,14.104-57.761,28.221-86.647,42.316c-26.642,12.999-53.284,25.998-79.931,38.987
		c-29.341,14.302-58.632,28.709-88.012,42.932c-13.043,6.314-25.975,12.847-39.015,19.167c-2.401,1.164-4.881,2.125-7.336,3.158
		c-3.557,1.498-6.387,0.684-9.066-1.932c-9.771-9.54-18.854-19.726-28.06-29.794c-6.177-6.757-12.634-13.255-18.942-19.878
		c-14.463-15.185-28.896-30.41-43.213-45.724c-17.952-19.201-36.347-37.989-53.917-57.55c-5.558-6.188-11.399-12.138-17.191-18.093
		c-14.973-15.396-29.453-31.252-44.309-46.756c-16.576-17.299-32.873-34.873-49.333-52.288
		c-16.344-17.293-32.606-34.663-48.955-51.953c-16.233-17.169-32.339-34.459-48.6-51.605c-10.876-11.469-21.526-23.155-32.558-34.48
		C655.256,5.99,653.038,4.121,654.918,1z"/>
	<path fill-rule="evenodd" clip-rule="evenodd" fill="#97D1F2" d="M654.918,1c0.275,2.015,1.987,3.004,3.199,4.292
		c128.062,135.918,256.167,271.794,384.14,407.795c3.522,3.744,5.993,4.015,10.479,1.824
		c232.943-113.844,465.944-227.567,698.999-341.183c4.378-2.134,5.712-3.803,3.003-8.323c-2.962-4.941-5.119-10.363-7.942-16.229
		c30.104,1.01,59.467,1.995,88.829,2.979c2.771-0.218,5.376-1.37,8.175-1.458c1.129,0.243,2.069,0.847,2.964,1.54
		c1.322,1.581,0.154,3.075-0.156,4.599c-12.342,17.562-25.353,34.645-37.96,52.022c-5.083,7.007-10.223,13.973-15.475,20.855
		c-4.563,5.98-7.16,5.728-10.707-1.065c-1.465-2.806-2.995-5.593-4.236-8.497c-1.609-3.762-4.043-4.492-7.572-2.754
		c-1.191,0.586-2.452,1.047-3.637,1.656c-23.115,11.885-46.654,22.912-69.975,34.383c-30.192,14.853-60.453,29.567-90.684,44.344
		c-25.59,12.507-51.22,24.931-76.813,37.434c-30.382,14.844-60.756,29.706-91.144,44.537c-26.945,13.15-53.897,26.288-80.843,39.437
		c-29.042,14.172-58.065,28.384-87.109,42.552c-26.047,12.708-52.116,25.374-78.157,38.098
		c-29.932,14.626-59.934,29.112-89.795,43.885c-4.621,2.286-9.453,4.155-14.015,6.583c-4.554,2.425-4.749,3.564-1.069,7.355
		c5.217,5.375,10.235,10.955,15.461,16.298c14.669,15.001,28.791,30.513,43.282,45.678c16.9,17.687,33.587,35.582,50.389,53.368
		c16.342,17.3,32.605,34.675,48.955,51.97s32.621,34.662,48.974,51.955c16.353,17.291,32.621,34.663,48.96,51.968
		c16.338,17.304,32.694,34.593,48.979,51.947c16.286,17.354,32.681,34.605,48.962,51.962c16.282,17.358,32.741,34.552,48.936,51.987
		c13.588,14.628,27.674,28.792,40.882,43.777c7.524,6.961,13.865,15.044,21.136,22.251c1.648,1.635,4.473,4-0.336,5.557
		c-22.058,0.002-44.104,0-66.138,0.001c-6.661-0.653-10.463-5.671-14.206-10.156c-6.415-7.689-13.604-14.645-20.468-21.862
		c-14.226-14.956-28.26-30.097-42.531-45.012c-17.142-17.915-33.996-36.109-51.064-54.102
		c-10.308-10.865-20.564-21.784-30.806-32.715c-17.07-18.219-34.214-36.367-51.39-54.486c-10.073-10.626-20.088-21.313-30.108-31.99
		c-17.198-18.328-34.445-36.608-51.741-54.846c-10.075-10.623-20.062-21.337-30.097-32.001
		c-17.223-18.305-34.473-36.582-51.743-54.839c-10.751-11.365-21.528-22.71-32.181-34.164c-14.28-15.354-28.703-30.574-43.076-45.84
		c-5.51-5.852-5.636-5.609-12.799-2.167c-29.729,14.285-59.274,28.943-88.921,43.396c-26.951,13.139-53.885,26.309-80.842,39.435
		c-29.055,14.147-58.054,28.406-87.115,42.538c-27.563,13.403-55.07,26.923-82.634,40.323
		c-28.464,13.838-56.825,27.893-85.359,41.58c-13.66,6.551-26.935,13.916-40.948,19.731c-18.115,8.771-35.799,18.43-54.323,26.355
		c-12.814,6.767-25.916,12.948-38.907,19.356c-21.811,10.758-43.734,21.281-65.539,32.051
		c-31.66,15.638-63.517,30.874-95.165,46.539c-6.708,3.32-13.526,6.448-20.28,9.695c-1.78,0.856-3.558,1.938-5.697,1.216
		c-2.159-0.692-3.572-2.278-4.841-4.045c-6.832-9.505-13.841-18.879-20.718-28.352c-1.451-1.999-2.208-4.014-1.7-6.449
		c0.56-2.261,2.558-2.932,4.311-3.82c40.499-20.509,81.563-39.866,122.239-60.018c24.13-11.954,48.542-23.342,72.592-35.466
		c9.058-4.565,18.352-8.618,27.504-12.978c16.187-8.972,33.296-16.074,49.729-24.547c1.789-0.923,3.501-0.884,5.265-0.058
		c51.769-25.236,103.543-50.462,155.305-75.714c101.879-49.704,203.751-99.422,305.627-149.135c5.678-2.771,5.686-2.782,1.263-7.475
		C860.889,294.61,727.28,152.865,593.705,11.087c-3.052-3.239-6.571-6.102-8.778-10.087C608.257,1,631.587,1,654.918,1z"/>
	<path fill-rule="evenodd" clip-rule="evenodd" fill="#97D1F2" d="M1,892.889c2.076-0.832,2.546-2.962,3.544-4.592
		c97.539-159.367,195.065-318.744,292.42-478.225c2.919-4.783,5.979-6.353,11.423-6.256c19.157,0.341,38.323,0.108,57.486,0.174
		c1.722,0.006,3.678-0.786,5.172,0.85c-0.052,5.353-3.487,9.211-6.051,13.41c-9.091,14.89-18.111,29.823-27.375,44.61
		c-11.933,19.8-23.98,39.528-36.088,59.217c-22.221,36.136-44.233,72.4-66.438,108.546c-18.896,30.761-37.627,61.624-56.508,92.395
		c-22.192,36.167-44.259,72.409-66.466,108.566c-9.928,16.166-19.99,32.256-29.546,48.646c-2.742,4.703-7.062,8.414-8.561,13.861
		c-11.1,17.754-21.886,35.702-32.821,53.559c-2.19,3.575-3.879,7.857-8.84,8.73C21.895,956.08,11.431,956.996,1,955.88
		C1,934.883,1,913.886,1,892.889z"/>
	<path fill-rule="evenodd" clip-rule="evenodd" fill="#DE1B94" d="M1,12.999c0-4-1.561-9.56,0.439-11.56c2-2,7.56-0.439,11.56-0.439
		c58.993,0,117.985,0,176.978,0c2.158,2.356,0.475,4.354-0.687,6.298c-11.171,18.692-22.577,37.243-33.928,55.825
		c-18.977,31.065-37.933,62.144-56.911,93.208c-1.531,2.506-2.741,5.49-6.436,5.537c-2.796-0.565-3.909-2.936-5.193-5.027
		c-27.085-44.1-53.975-88.319-81.14-132.369C3.447,20.849,2.689,16.766,1,12.999z"/>
	<path fill-rule="evenodd" clip-rule="evenodd" fill="#7DBADE" d="M92.077,161.086c1.345-0.582,1.803-1.917,2.481-3.027
		c31.417-51.444,62.819-102.898,94.206-154.361c0.509-0.835,0.813-1.795,1.212-2.698c23.331,0,46.661,0,69.991,0
		c-2.856,4.873-5.639,9.79-8.58,14.611c-40.145,65.822-80.303,131.636-120.516,197.416c-1.061,1.735-1.451,4.191-3.971,4.774
		c-3.131-0.849-4.89-3.195-6.459-5.807c-8.875-14.775-17.953-29.426-26.971-44.114C92.254,165.9,90.276,163.804,92.077,161.086z"/>
	<path fill-rule="evenodd" clip-rule="evenodd" fill="#97D1F2" d="M92.077,161.086c11.608,18.905,23.216,37.81,34.823,56.715
		c-22.281,0.057-44.562,0.041-66.841,0.251c-3.219,0.03-4.255-1.859-5.565-4.003c-16.811-27.512-33.641-55.013-50.479-82.508
		c-0.951-1.552-2.008-3.04-3.016-4.558c0-37.995,0-75.99,0-113.985c0.639,0.724,1.402,1.373,1.898,2.185
		C32.639,63.81,62.357,112.448,92.077,161.086z"/>
	<path fill-rule="evenodd" clip-rule="evenodd" fill="#FEFEFE" d="M1,955.88c11.01-0.042,22.02-0.085,33.03-0.128
		c4.611-3.715,10.249-1.544,15.313-2.686c2.887,0.863,5.732,1.348,8.814,0.691c2.923-0.623,5.977-0.283,8.974-0.283
		c185.559-0.005,371.118,0.004,556.676-0.054c4.638-0.001,9.297,0.89,13.924-0.152c18.926,0.463,37.856,0.136,56.784,0.158
		c4.139,0.005,8.271,0.646,12.411,0.104c3.324-0.271,6.651-0.045,9.976-0.045c250.715-0.016,501.429-0.018,752.144-0.003
		c4.969,0,10.052-0.562,14.604,2.24c23.387,0.008,46.773,0.014,70.16,0.02c1.404-2.112,3.633-2.08,5.779-2.168
		c5.13-0.211,10.27,0.01,15.398-0.287c4.447,1.311,8.937,0.117,13.396,0.121c86.97,0.083,173.94,0.063,260.91,0.062
		c19.659,0,39.32,0.026,58.979-0.013c8.949-0.018,10.063-1.121,10.064-10.095c0.025-103.798,0.028-207.595-0.048-311.394
		c-0.003-4.626,1.171-9.279-0.122-13.895c0.425-19.252,0.125-38.506,0.137-57.76c0.002-3.779,1.185-7.59-0.14-11.354
		c0.276-4.661,0.183-9.327,0.183-13.991c0.005-166.605,0.005-333.211-0.002-499.816c0-4.665-0.028-9.326,0.563-13.959
		c-0.028-1.232,0.044-2.465,0.118-3.693c0.03-0.88-0.034-1.759-0.127-2.636c-0.41-1.928,1.066-3.187,1.692-4.75
		c0.057-3.039,0.112-6.077,0.169-9.116c0.308,0.218,1.043-0.505,1.011,0.5c-0.043,1.332-0.011,2.666-0.011,3.999
		c0,315.572-0.012,631.144,0.121,946.717c0.002,4.231-1.075,4.763-4.954,4.763c-637.143-0.103-1274.286-0.098-1911.428-0.16
		C4.035,956.818,2.108,957.972,1,955.88z"/>
	<path fill-rule="evenodd" clip-rule="evenodd" fill="#7DBADE" d="M335.945,461.747c9.324-15.417,18.596-30.865,28.008-46.227
		c2.228-3.637,3.806-7.736,7.092-10.679c9.014,14.575,18.097,29.108,27.03,43.733c44.103,72.203,88.166,144.43,132.239,216.653
		c0.692,1.134,1.324,2.305,1.984,3.459c-18.02,8.745-36.039,17.49-54.058,26.235c-2.562-0.407-3.875-2.182-5.144-4.271
		c-21.408-35.233-42.907-70.412-64.378-105.606c-23.289-38.173-46.637-76.309-69.904-114.496
		C337.155,467.823,335.514,465.134,335.945,461.747z"/>
	<path fill-rule="evenodd" clip-rule="evenodd" fill="#8F1BA0" d="M1920.591,10.116c0.001,1.628,0.003,3.255,0.004,4.882
		c-0.912,1.439-2.067,2.623-3.722,3.15c-5.255,1.675-10.002,4.427-14.77,7.089c-17.082,9.533-35.586,16.192-52.501,26.058
		c-1.755,1.023-3.86,0.877-5.771,1.4c-2.757,0.157-5.514,0.295-8.206-0.539c6.822-4.533,14.46-7.446,21.771-11.014
		C1878.487,30.854,1899.529,20.465,1920.591,10.116z"/>
	<path fill-rule="evenodd" clip-rule="evenodd" fill="#661BA6" d="M1920.593,20.018c0.056,1.495,0.159,2.99,0.16,4.485
		c0.007,173.341,0.007,346.682,0,520.022c0,1.496-0.093,2.992-0.143,4.488c-1.305,3.695-3.674,6.596-6.431,9.352
		c-21.676,21.669-43.752,42.933-65.697,64.318c-14.789,14.412-29.014,29.415-44.223,43.374
		c-15.724,14.43-30.053,30.266-45.744,44.683c-15.104,13.877-28.873,29.091-43.948,42.95
		c-15.834,14.559-30.294,30.502-46.095,45.049c-15.336,14.116-29.297,29.614-44.632,43.68
		c-15.483,14.203-29.528,29.85-44.991,44.021c-14.385,13.183-27.713,27.397-41.734,40.923c-2.024,1.953-3.871,4.381-7.269,2.867
		c-56.008-59.398-112.024-118.787-168.021-178.195c-91.422-96.995-182.831-194.002-274.242-291.007
		c-2.613-2.772-5.185-5.585-8.068-8.697c2.154-1.12,3.885-2.067,5.656-2.932c228.874-111.726,457.757-223.437,686.594-335.24
		c3.893-1.902,5.897-1.95,7.644,2.518c2.159,5.524,5.089,10.747,8.058,16.865c19.356-26.247,38.286-51.912,57.214-77.578
		c9.048-5.925,19.362-9.438,28.674-14.716c12.472-7.069,25.898-12.064,38.38-19.027
		C1914.393,20.738,1917.207,18.988,1920.593,20.018z"/>
	<path fill-rule="evenodd" clip-rule="evenodd" fill="#661BA6" d="M1483.648,955.723c-2.164,0.053-4.329,0.15-6.492,0.15
		c-254.463,0.007-508.924,0.007-763.386-0.001c-2.163,0-4.325-0.118-6.487-0.183c-2.729-1.134-4.498-3.164-6.03-5.684
		c-31.735-52.182-63.562-104.308-95.417-156.417c-15.8-25.845-31.462-51.773-47.312-77.587c-1.629-2.653-4.426-5.441-1.547-9.016
		c30.537-14.832,61.097-29.618,91.607-44.506c125.954-61.459,251.897-122.941,377.814-184.475c3.267-1.597,5.401-2.198,8.461,1.054
		c149.005,158.313,298.131,316.513,447.236,474.73C1482.662,954.39,1483.133,955.077,1483.648,955.723z"/>
	<path fill-rule="evenodd" clip-rule="evenodd" fill="#671BA6" d="M637.6,955.701c-1.663,0.061-3.326,0.171-4.988,0.171
		c-192.944,0.008-385.887,0.008-578.831,0.003c-1.665,0-3.33-0.072-4.994-0.111c-0.502-2.582,1.36-3.569,3.155-4.459
		c12.983-6.429,25.811-13.164,38.982-19.227c15.581-7.173,30.638-15.434,46.264-22.534c7.716-3.505,15.18-7.563,22.823-11.229
		c5.647-3.329,11.638-5.938,17.736-8.3c1.23-0.476,2.463-0.862,3.476-1.736c6.597-3.564,13.268-6.984,20.144-9.988
		c5.948-3.732,12.529-6.14,18.871-9.047c5.299-2.835,10.596-5.679,16.197-7.894c6.452-3.856,13.251-7.018,20.083-10.118
		c4.491-1.995,8.932-4.104,13.25-6.438c2.653-1.435,5.323-2.269,8.333-1.817c10.189-4.858,20.416-9.643,30.562-14.59
		c63.04-30.745,126.059-61.53,189.097-92.279c1.623-0.792,3.374-1.318,5.066-1.969c2.473,0.197,3.675,1.908,4.842,3.835
		c22.309,36.861,44.831,73.592,67.274,110.371c20.282,33.239,40.476,66.533,60.885,99.695
		C637.234,950.326,639.599,952.555,637.6,955.701z"/>
	<path fill-rule="evenodd" clip-rule="evenodd" fill="#DE1B94" d="M335.945,461.747c12.208,19.844,24.468,39.659,36.616,59.54
		c34.462,56.403,68.881,112.834,103.305,169.261c0.863,1.415,1.587,2.914,2.376,4.374c-25.676,12.625-51.33,25.297-77.034,37.865
		c-48.282,23.61-96.592,47.159-144.885,70.747c-1.484,0.726-2.897,1.597-4.343,2.399c-4.55,6.223-12.005,7.631-18.276,10.994
		c-0.563,0.303-1.245,0.409-1.818,0.736c-6.495,3.842-13.093,7.473-20.281,9.891c-5.489,2.913-10.905,5.979-16.764,8.13
		c-5.722,3.579-11.755,6.536-18.029,9.012c-6.702,3.909-13.855,6.871-20.94,9.973c-6.794,4.31-14.221,7.389-21.373,11.002
		c-19.066,8.771-37.501,18.846-56.667,27.406c-1.97,0.881-3.989,2.008-5.934-0.088c40.09-65.599,80.165-131.205,120.274-196.79
		c46.883-76.66,93.794-153.304,140.705-229.946C333.823,464.704,334.918,463.246,335.945,461.747z"/>
	<path fill-rule="evenodd" clip-rule="evenodd" fill="#7DBADE" d="M1529.847,930.229c2.227-0.953,3.629-2.891,5.28-4.505
		c116.203-113.619,232.385-227.261,348.584-340.886c12.257-11.985,24.598-23.888,36.9-35.827
		c0.007,22.923,0.015,45.845,0.022,68.767c-1.165,5.367-5.767,7.88-9.286,11.34c-10.448,10.272-20.501,20.958-31.172,30.989
		c-17.71,16.651-34.375,34.368-52.104,50.969c-14.47,13.548-27.894,28.14-42.443,41.564c-16.283,15.021-31.237,31.389-47.482,46.409
		c-14.679,13.573-28.137,28.366-42.813,41.897c-16.166,14.904-30.992,31.163-47.123,46.061
		c-14.688,13.565-28.211,28.286-42.82,41.893c-8.039,7.488-15.922,15.121-23.685,22.883c-1.979,1.979-4.511,2.756-6.87,3.945
		c-7.008,0.006-14.017,0.01-21.024,0.014C1545.821,947.238,1537.834,938.734,1529.847,930.229z"/>
	<path fill-rule="evenodd" clip-rule="evenodd" fill="#7DBADE" d="M637.6,955.701c-41.374-67.84-82.753-135.677-124.11-203.527
		c-3.635-5.964-7.113-12.022-10.665-18.036c2.031-2.095,4.785-2.894,7.305-4.129c15.625-7.656,31.235-15.345,46.849-23.022
		c-0.407,2.635,1.515,4.318,2.686,6.24c48.219,79.093,96.479,158.162,144.722,237.241c1.035,1.698,1.933,3.479,2.896,5.222
		C684.055,955.693,660.828,955.697,637.6,955.701z"/>
	<path fill-rule="evenodd" clip-rule="evenodd" fill="#94CEEF" d="M230.978,816.098c6.843-3.713,13.804-7.186,21.002-10.165
		c1.926,5.972,6.593,10.173,9.982,15.183c5.072,7.495,10.73,14.594,16.139,21.86c-6.754,3.912-13.819,7.197-20.958,10.33
		c-2.387-0.542-4.056-1.96-5.503-3.938c-6.581-8.986-13.135-17.993-19.746-26.957C230.522,820.551,229.077,818.519,230.978,816.098z
		"/>
	<path fill-rule="evenodd" clip-rule="evenodd" fill="#801BA3" d="M1843.831,52.694c14.221-8.636,29.603-14.932,44.535-22.138
		c9.854-4.755,19.155-10.631,29.417-14.567c0.927-0.356,1.874-0.662,2.812-0.992c-0.001,0.678-0.002,1.356-0.003,2.035
		c-0.738,2.118-2.614,2.846-4.428,3.703c-21.556,10.193-42.789,21.049-64.319,31.293c-1.694,0.805-3.281,2.434-5.43,1.09
		C1845.553,52.978,1844.691,52.836,1843.831,52.694z"/>
	<path fill-rule="evenodd" clip-rule="evenodd" fill="#731BA5" d="M1846.415,53.119c4.325-2.056,8.686-4.041,12.97-6.18
		c12.603-6.296,25.647-11.659,37.979-18.547c7.513-4.197,15.47-7.6,23.228-11.359c0,0.995,0,1.99,0.001,2.985
		c-23.899,11.54-47.803,23.072-71.688,34.64c-1.363,0.66-2.672,1.333-4.223,1.306C1845.26,55.016,1845.837,54.067,1846.415,53.119z"
		/>
	<path fill-rule="evenodd" clip-rule="evenodd" fill="#7DBADE" d="M71.896,892.988c4.272-0.953,7.892-3.396,11.759-5.248
		c16.747-8.013,33.439-16.14,50.152-24.226c3.512,0.525,5.201,3.313,6.979,5.842c5.794,8.239,11.891,16.253,17.851,24.368
		c1.409,1.918,2.475,3.886,2.604,6.289c-8.603,4.316-17.17,8.703-25.813,12.937c-27.162,13.305-54.356,26.545-81.524,39.838
		c-1.768,0.865-3.75,1.401-5.116,2.976c-4.921-0.004-9.839-0.008-14.758-0.012c2.846-6.979,7.421-12.964,11.259-19.362
		C54.018,921.838,63.01,907.445,71.896,892.988z"/>
	<path fill-rule="evenodd" clip-rule="evenodd" fill="#671BA6" d="M1574.834,955.729c6.226-6.238,12.387-12.544,18.688-18.705
		c107.642-105.249,215.299-210.479,322.966-315.702c1.297-1.267,2.761-2.363,4.146-3.541c0.041,1.663,0.12,3.326,0.12,4.991
		c0.005,109.151-0.021,218.304,0.098,327.455c0.005,4.364-0.838,5.778-5.573,5.771c-111.817-0.152-223.636-0.117-335.453-0.124
		C1578.162,955.874,1576.498,955.779,1574.834,955.729z"/>
	<path fill-rule="evenodd" clip-rule="evenodd" fill="#84C0E3" d="M154.99,853.153c6.998-3.387,13.995-6.772,20.992-10.159
		c4.456,1.877,6.374,6.178,9.005,9.708c5.162,6.927,10.339,13.849,15.295,20.928c1.319,1.885,2.811,3.81,1.917,6.397
		c-6.517,3.736-13.257,7.017-20.206,9.87c-2.598,0.547-4.44-0.505-5.92-2.608c-6.404-9.097-13.235-17.881-19.607-26.999
		C155.003,858.199,152.867,856.065,154.99,853.153z"/>
	<path fill-rule="evenodd" clip-rule="evenodd" fill="#80BDE1" d="M154.99,853.153c5.461,9.922,12.811,18.521,19.457,27.609
		c2.323,3.178,3.909,7.024,7.546,9.135c-6.63,3.96-13.705,7.01-20.751,10.116c-5.805-4.882-9.25-11.634-13.778-17.52
		c-4.75-6.174-9.121-12.641-13.657-18.979C140.868,860.062,147.929,856.607,154.99,853.153z"/>
	<path fill-rule="evenodd" clip-rule="evenodd" fill="#90CBED" d="M230.978,816.098c5.016,8.756,11.521,16.461,17.353,24.643
		c2.97,4.166,5.877,8.375,8.813,12.564c-6.56,3.543-13.183,6.955-20.116,9.726c-1.997-0.183-3.318-1.383-4.404-2.932
		c-6.771-9.656-14.189-18.841-20.819-28.601c-1.18-1.735-2.197-3.382-0.801-5.444C217.377,822.166,224.168,819.113,230.978,816.098z
		"/>
	<path fill-rule="evenodd" clip-rule="evenodd" fill="#88C4E7" d="M202.199,880.027c-8.326-11.271-16.668-22.531-24.945-33.838
		c-0.656-0.896-0.858-2.123-1.271-3.195c6-2.953,12.001-5.906,18.001-8.859c1.726,0.607,3.178,1.421,4.349,3.021
		c6.913,9.447,13.729,18.966,20.802,28.297c1.182,1.561,2.374,3.235,1.823,5.431C214.927,874.389,208.66,877.406,202.199,880.027z"
		/>
	<path fill-rule="evenodd" clip-rule="evenodd" fill="#8CC7E9" d="M220.958,870.884c-6.629-6.573-11.359-14.615-16.938-21.998
		c-3.583-4.742-7.634-9.195-10.036-14.751c5.555-2.943,11.047-6.016,17.02-8.081c7.162,9.953,14.347,19.891,21.467,29.872
		c1.632,2.287,3.044,4.732,4.557,7.104C231.903,866.122,226.521,868.688,220.958,870.884z"/>
</g>
</svg>
