<?xml version="1.0" encoding="utf-8"?>
<!-- Generator: Adobe Illustrator 16.0.3, SVG Export Plug-In . SVG Version: 6.00 Build 0)  -->
<!DOCTYPE svg PUBLIC "-//W3C//DTD SVG 1.1//EN" "http://www.w3.org/Graphics/SVG/1.1/DTD/svg11.dtd">
<svg version="1.1" id="圖層_1" xmlns="http://www.w3.org/2000/svg" xmlns:xlink="http://www.w3.org/1999/xlink" x="0px" y="0px"
	 width="1920px" height="955px" viewBox="0 0 1920 955" enable-background="new 0 0 1920 955" xml:space="preserve">
<g>
	<rect y="0.146" fill="#E2AF54" width="1920" height="955"/>
	<g>
		<defs>
			<rect id="SVGID_1_" width="1920" height="955"/>
		</defs>
		<clipPath id="SVGID_2_">
			<use xlink:href="#SVGID_1_"  overflow="visible"/>
		</clipPath>
		<g clip-path="url(#SVGID_2_)">
			<g opacity="0.3">
				<g>
					
						<line fill="none" stroke="#F7F8F8" stroke-width="2" stroke-miterlimit="10" x1="1931.713" y1="813.91" x2="1925.302" y2="807.594"/>
					
						<line fill="none" stroke="#F7F8F8" stroke-width="2" stroke-miterlimit="10" stroke-dasharray="18.1301,18.1301" x1="1912.386" y1="794.871" x2="498.11" y2="-598.336"/>
					
						<line fill="none" stroke="#F7F8F8" stroke-width="2" stroke-miterlimit="10" x1="491.652" y1="-604.697" x2="485.24" y2="-611.014"/>
				</g>
			</g>
			<g opacity="0.3">
				<g>
					
						<line fill="none" stroke="#F7F8F8" stroke-width="2" stroke-miterlimit="10" x1="1931.713" y1="1074.936" x2="1923.249" y2="1071.875"/>
					
						<line fill="none" stroke="#F7F8F8" stroke-width="2" stroke-miterlimit="10" stroke-dasharray="17.934,17.934" x1="1906.384" y1="1065.776" x2="-716.145" y2="117.424"/>
					
						<line fill="none" stroke="#F7F8F8" stroke-width="2" stroke-miterlimit="10" x1="-724.577" y1="114.375" x2="-733.041" y2="111.314"/>
				</g>
			</g>
			<g opacity="0.3">
				<path fill="none" stroke="#F7F8F8" stroke-width="2" stroke-miterlimit="10" stroke-dasharray="18.0304,18.0304" d="
					M1461.119,944.424c0,259.9,210.691,470.594,470.596,470.594c259.898,0,470.59-210.693,470.59-470.594
					c0-259.902-210.691-470.594-470.59-470.594C1671.811,473.83,1461.119,684.521,1461.119,944.424z"/>
			</g>
			<g opacity="0.3">
				
					<circle fill="none" stroke="#F7F8F8" stroke-width="2" stroke-miterlimit="10" stroke-dasharray="17.9517,17.9517" cx="1931.714" cy="944.424" r="342.839"/>
			</g>
			<g opacity="0.3">
				
					<circle fill="none" stroke="#F7F8F8" stroke-width="2" stroke-miterlimit="10" stroke-dasharray="13.5226,13.5226" cx="94.298" cy="147.221" r="352.944"/>
			</g>
			<g opacity="0.3">
				
					<circle fill="none" stroke="#F7F8F8" stroke-width="2" stroke-miterlimit="10" stroke-dasharray="13.4638,13.4638" cx="94.299" cy="147.221" r="257.129"/>
			</g>
			<circle opacity="0.3" fill="#F7F8F8" cx="1931.714" cy="944.424" r="130.513"/>
		</g>
	</g>
</g>
</svg>
