<?xml version="1.0" encoding="utf-8"?>
<!-- Generator: Adobe Illustrator 16.0.3, SVG Export Plug-In . SVG Version: 6.00 Build 0)  -->
<!DOCTYPE svg PUBLIC "-//W3C//DTD SVG 1.1//EN" "http://www.w3.org/Graphics/SVG/1.1/DTD/svg11.dtd">
<svg version="1.1" id="圖層_1" xmlns="http://www.w3.org/2000/svg" xmlns:xlink="http://www.w3.org/1999/xlink" x="0px" y="0px"
	 width="630px" height="420px" viewBox="0 0 630 420" enable-background="new 0 0 630 420" xml:space="preserve">
<g>
	<g>
		<path fill="#68CCD9" d="M34.954,381.955c6.321,10.615,20.05,14.096,30.665,7.774l21.363-12.722l15.716-9.357l15.716-9.358
			c1.033-0.615,1.372-1.953,0.757-2.987c-0.616-1.034-1.953-1.374-2.985-0.757l-15.717,9.356l-1.901-3.194l20.157-12.003
			c1.034-0.615,1.373-1.953,0.758-2.987c-0.616-1.034-1.953-1.373-2.987-0.757l-20.158,12.003l-1.903-3.193l27.524-16.392
			c1.034-0.615,1.373-1.953,0.757-2.987c-0.615-1.034-1.953-1.373-2.985-0.757l-27.525,16.39l-1.902-3.192l40.762-24.274
			c1.032-0.615,1.372-1.953,0.757-2.987c-0.616-1.033-1.953-1.373-2.986-0.757l-40.761,24.272l-1.903-3.195l34.33-20.442
			c1.034-0.616,1.373-1.952,0.757-2.987c-0.616-1.033-1.953-1.373-2.986-0.757l-34.33,20.442l-1.903-3.192l9.657-5.751
			c1.033-0.615,1.372-1.953,0.756-2.987s-1.953-1.373-2.986-0.757l-9.657,5.75L43.86,350.617l-1.131,0.673
			C32.115,357.611,28.634,371.341,34.954,381.955z"/>
		<path fill="#68CCD9" d="M121.891,344.09c0.664,1.113,2.104,1.478,3.218,0.815l4.048-2.41c1.113-0.664,1.479-2.104,0.814-3.218
			c-0.663-1.114-2.104-1.479-3.217-0.815l-4.048,2.411C121.593,341.536,121.228,342.977,121.891,344.09z"/>
		<path fill="#68CCD9" d="M126.038,332.673c0.663,1.113,2.104,1.478,3.217,0.815l4.048-2.41c1.114-0.664,1.479-2.104,0.815-3.218
			c-0.663-1.112-2.104-1.479-3.217-0.815l-4.05,2.41C125.74,330.119,125.375,331.56,126.038,332.673z"/>
		<path fill="#68CCD9" d="M94.995,322.898c0.663,1.115,2.104,1.479,3.217,0.816l4.048-2.41c1.114-0.665,1.479-2.104,0.815-3.218
			s-2.104-1.479-3.217-0.816l-4.048,2.411C94.697,320.345,94.331,321.784,94.995,322.898z"/>
		<path fill="#68CCD9" d="M123.629,315.009c0.664,1.115,2.104,1.479,3.217,0.815l4.049-2.41c1.113-0.662,1.479-2.103,0.815-3.216
			c-0.663-1.114-2.104-1.479-3.217-0.815l-4.048,2.41C123.331,312.456,122.966,313.896,123.629,315.009z"/>
		<path fill="#68CCD9" d="M134.53,317.927c0.675,1.132,2.139,1.503,3.271,0.829l5.378-3.204c1.133-0.674,1.504-2.139,0.83-3.271
			c-0.674-1.132-2.139-1.503-3.271-0.828l-5.378,3.201C134.228,315.33,133.855,316.795,134.53,317.927z"/>
		<path fill="#68CCD9" d="M136.749,326.296c0.663,1.112,2.104,1.478,3.217,0.813l4.048-2.41c1.114-0.663,1.479-2.104,0.815-3.218
			c-0.663-1.113-2.104-1.478-3.217-0.813l-4.048,2.41C136.452,323.74,136.086,325.181,136.749,326.296z"/>
	</g>
	<path opacity="0.25" fill="#F7F8F8" enable-background="new    " d="M621.297,81.245l-551.6,328.473
		c-17.795,10.597-40.811,4.761-51.407-13.033l-4.225-7.096c-10.597-17.795-4.763-40.812,13.032-51.407L578.699,9.709"/>
	<path fill="#003547" d="M578.699,9.71L24.934,339.473c0,0,2.728-17.339,22.161-28.912C66.529,298.987,571.792-1.892,571.792-1.892
		L578.699,9.71z"/>
	<path fill="#003547" d="M621.297,81.245L67.531,411.007c0,0,16.543,5.861,35.977-5.71
		c19.436-11.573,524.697-312.452,524.697-312.452L621.297,81.245z"/>
</g>
</svg>
