<?xml version="1.0" encoding="utf-8"?>
<!-- Generator: Adobe Illustrator 16.0.3, SVG Export Plug-In . SVG Version: 6.00 Build 0)  -->
<!DOCTYPE svg PUBLIC "-//W3C//DTD SVG 1.1//EN" "http://www.w3.org/Graphics/SVG/1.1/DTD/svg11.dtd">
<svg version="1.1" id="圖層_1" xmlns="http://www.w3.org/2000/svg" xmlns:xlink="http://www.w3.org/1999/xlink" x="0px" y="0px"
	 width="2048px" height="1019px" viewBox="0 0 2048 1019" enable-background="new 0 0 2048 1019" xml:space="preserve">
<g>
	<g>
		<defs>
			<rect id="SVGID_1_" x="0" y="0" width="2048" height="1019"/>
		</defs>
		<clipPath id="SVGID_2_">
			<use xlink:href="#SVGID_1_"  overflow="visible"/>
		</clipPath>
		<g clip-path="url(#SVGID_2_)">
			
				<linearGradient id="g_1_" gradientUnits="userSpaceOnUse" x1="248.5979" y1="239.5994" x2="2005.6172" y2="239.5994" gradientTransform="matrix(1 0 0 -1 -272.5996 749.0991)">
				<stop  offset="0" style="stop-color:#36B06C"/>
				<stop  offset="1" style="stop-color:#24B9D8"/>
			</linearGradient>
			<polygon id="g_4_" fill="url(#g_1_)" points="0,1019 924.313,1019 1733.018,598.854 527.019,0 0,0 			"/>
			
				<linearGradient id="SVGID_3_" gradientUnits="userSpaceOnUse" x1="1171.8176" y1="595.3132" x2="1171.8176" y2="533.1294" gradientTransform="matrix(0.8915 -0.4529 -0.4529 -0.8915 -250.676 1719.0232)">
				<stop  offset="0" style="stop-color:#000000;stop-opacity:0.3"/>
				<stop  offset="1" style="stop-color:#000000;stop-opacity:0"/>
			</linearGradient>
			<polygon fill="url(#SVGID_3_)" points="1465.41,249.067 -360.457,1176.702 -388.54,1121.427 1437.327,193.792 			"/>
			
				<linearGradient id="b_1_" gradientUnits="userSpaceOnUse" x1="235.8376" y1="161.0193" x2="939.1233" y2="161.0193" gradientTransform="matrix(1 0 0 -1 -272.5996 749.0991)">
				<stop  offset="0" style="stop-color:#22AAD1"/>
				<stop  offset="1" style="stop-color:#25B5D8"/>
			</linearGradient>
			<polygon id="b_8_" fill="url(#b_1_)" points="666.521,584.276 0,253.215 0,922.945 			"/>
			
				<linearGradient id="p_1_" gradientUnits="userSpaceOnUse" x1="1363.0344" y1="21.0828" x2="2345.5427" y2="21.0828" gradientTransform="matrix(1 0 0 -1 -272.5996 749.0991)">
				<stop  offset="0" style="stop-color:#C22981"/>
				<stop  offset="1" style="stop-color:#523F95"/>
			</linearGradient>
			<polygon id="p_8_" fill="url(#p_1_)" points="924.421,1019 2048,1019 2048,437.033 			"/>
			
				<linearGradient id="y_1_" gradientUnits="userSpaceOnUse" x1="759.947" y1="370.3386" x2="1846.1709" y2="370.3386" gradientTransform="matrix(1 0 0 -1 -272.5996 749.0991)">
				<stop  offset="0" style="stop-color:#F0881A"/>
				<stop  offset="1" style="stop-color:#F2CB23"/>
			</linearGradient>
			<polygon id="y_8_" fill="url(#y_1_)" points="527.204,0 2048,757.521 2048,0 			"/>
			
				<linearGradient id="r_1_" gradientUnits="userSpaceOnUse" x1="2005.7229" y1="151.8865" x2="2346.1741" y2="151.8865" gradientTransform="matrix(1 0 0 -1 -272.5996 749.0991)">
				<stop  offset="0" style="stop-color:#E6291A"/>
				<stop  offset="1" style="stop-color:#E95118"/>
			</linearGradient>
			<polygon id="r_8_" fill="url(#r_1_)" points="1733.123,599.818 2048,757.461 2048,436.965 			"/>
			
				<linearGradient id="SVGID_4_" gradientUnits="userSpaceOnUse" x1="1878.3752" y1="95.4602" x2="1878.3752" y2="33.2881" gradientTransform="matrix(0.8869 -0.4619 -0.4619 -0.8869 -240.6659 1733.9329)">
				<stop  offset="0" style="stop-color:#000000;stop-opacity:0.3"/>
				<stop  offset="1" style="stop-color:#000000;stop-opacity:0"/>
			</linearGradient>
			<polygon fill="url(#SVGID_4_)" points="2318.039,363.674 501.599,1309.635 472.96,1254.645 2289.402,308.683 			"/>
		</g>
	</g>
	<g>
		<defs>
			<rect id="SVGID_5_" x="0" y="0" width="2048" height="1019"/>
		</defs>
		<clipPath id="SVGID_6_">
			<use xlink:href="#SVGID_5_"  overflow="visible"/>
		</clipPath>
		<g clip-path="url(#SVGID_6_)">
			<g opacity="0.5">
				
					<linearGradient id="SVGID_7_" gradientUnits="userSpaceOnUse" x1="1001.7468" y1="693.6892" x2="1001.7468" y2="600.4586" gradientTransform="matrix(0.933 -0.474 -0.4529 -0.8915 -252.5205 1719.8635)">
					<stop  offset="0" style="stop-color:#000000;stop-opacity:0.3"/>
					<stop  offset="1" style="stop-color:#000000;stop-opacity:0"/>
				</linearGradient>
				<polygon fill="url(#SVGID_7_)" points="1843.198,-18.562 -1023.06,1437.644 -1065.185,1354.729 1801.073,-101.476 				"/>
				
					<linearGradient id="b_2_" gradientUnits="userSpaceOnUse" x1="-264.5437" y1="194.3879" x2="790.3864" y2="194.3879" gradientTransform="matrix(1 0 0 -1 -272.5996 749.0991)">
					<stop  offset="0" style="stop-color:#22AAD1"/>
					<stop  offset="1" style="stop-color:#25B5D8"/>
				</linearGradient>
				<polygon id="b_7_" fill="url(#b_2_)" points="517.781,549.006 -482,52.413 -482,1057.01 				"/>
				
					<linearGradient id="p_2_" gradientUnits="userSpaceOnUse" x1="1425.9319" y1="-15.4714" x2="2900.022" y2="-15.4714" gradientTransform="matrix(1 0 0 -1 -272.5996 749.0991)">
					<stop  offset="0" style="stop-color:#C22981"/>
					<stop  offset="1" style="stop-color:#523F95"/>
				</linearGradient>
				<polygon id="p_7_" fill="url(#p_2_)" points="904.256,1201 2590,1201 2590,328.141 				"/>
				
					<linearGradient id="y_2_" gradientUnits="userSpaceOnUse" x1="521.2371" y1="508.1628" x2="2150.8398" y2="508.1628" gradientTransform="matrix(1 0 0 -1 -272.5996 749.0991)">
					<stop  offset="0" style="stop-color:#F0881A"/>
					<stop  offset="1" style="stop-color:#F2CB23"/>
				</linearGradient>
				<polygon id="y_7_" display="none" fill="url(#y_2_)" points="308.432,-327 2590,808.873 2590,-327 				"/>
				
					<linearGradient id="SVGID_8_" gradientUnits="userSpaceOnUse" x1="2033.7571" y1="-56.9617" x2="2033.7571" y2="-150.2207" gradientTransform="matrix(0.8869 -0.4619 -0.4619 -0.8869 -240.6659 1733.9329)">
					<stop  offset="0" style="stop-color:#000000;stop-opacity:0.3"/>
					<stop  offset="1" style="stop-color:#000000;stop-opacity:0"/>
				</linearGradient>
				<polygon fill="url(#SVGID_8_)" points="2994.684,218.102 270.024,1637.043 227.066,1554.558 2951.729,135.615 				"/>
			</g>
			<g opacity="0.5">
				
					<linearGradient id="SVGID_9_" gradientUnits="userSpaceOnUse" x1="874.1023" y1="925.325" x2="874.1023" y2="832.0944" gradientTransform="matrix(0.933 -0.474 -0.4529 -0.8915 -252.5205 1719.8635)">
					<stop  offset="0" style="stop-color:#000000;stop-opacity:0.3"/>
					<stop  offset="1" style="stop-color:#000000;stop-opacity:0"/>
				</linearGradient>
				<polygon fill="url(#SVGID_9_)" points="1619.198,-164.562 -1247.06,1291.644 -1289.185,1208.729 1577.073,-247.476 				"/>
				
					<linearGradient id="b_3_" gradientUnits="userSpaceOnUse" x1="-488.5437" y1="340.3879" x2="566.3864" y2="340.3879" gradientTransform="matrix(1 0 0 -1 -272.5996 749.0991)">
					<stop  offset="0" style="stop-color:#22AAD1"/>
					<stop  offset="1" style="stop-color:#25B5D8"/>
				</linearGradient>
				<polygon id="b_6_" fill="url(#b_3_)" points="293.782,403.005 -706,-93.587 -706,911.01 				"/>
				
					<linearGradient id="p_3_" gradientUnits="userSpaceOnUse" x1="1201.9309" y1="130.5286" x2="2676.0205" y2="130.5286" gradientTransform="matrix(1 0 0 -1 -272.5996 749.0991)">
					<stop  offset="0" style="stop-color:#C22981"/>
					<stop  offset="1" style="stop-color:#523F95"/>
				</linearGradient>
				<polygon id="p_6_" fill="url(#p_3_)" points="680.256,1055 2366,1055 2366,182.141 				"/>
				
					<linearGradient id="y_3_" gradientUnits="userSpaceOnUse" x1="297.2371" y1="654.1628" x2="1926.8397" y2="654.1628" gradientTransform="matrix(1 0 0 -1 -272.5996 749.0991)">
					<stop  offset="0" style="stop-color:#F0881A"/>
					<stop  offset="1" style="stop-color:#F2CB23"/>
				</linearGradient>
				<polygon id="y_6_" display="none" fill="url(#y_3_)" points="84.432,-473 2366,662.873 2366,-473 				"/>
				
					<linearGradient id="r_2_" gradientUnits="userSpaceOnUse" x1="2166.2854" y1="326.6907" x2="2676.9612" y2="326.6907" gradientTransform="matrix(1 0 0 -1 -272.5996 749.0991)">
					<stop  offset="0" style="stop-color:#E6291A"/>
					<stop  offset="1" style="stop-color:#E95118"/>
				</linearGradient>
				<polygon id="r_6_" fill="url(#r_2_)" points="1893.686,426.318 2366,662.78 2366,182.037 				"/>
				
					<linearGradient id="SVGID_10_" gradientUnits="userSpaceOnUse" x1="1902.5208" y1="176.0032" x2="1902.5208" y2="82.7432" gradientTransform="matrix(0.8869 -0.4619 -0.4619 -0.8869 -240.6659 1733.9329)">
					<stop  offset="0" style="stop-color:#000000;stop-opacity:0.3"/>
					<stop  offset="1" style="stop-color:#000000;stop-opacity:0"/>
				</linearGradient>
				<polygon fill="url(#SVGID_10_)" points="2770.684,72.102 46.024,1491.043 3.066,1408.558 2727.729,-10.385 				"/>
			</g>
		</g>
	</g>
	<g>
		<defs>
			<rect id="SVGID_11_" x="0" y="0" width="2048" height="1019"/>
		</defs>
		<clipPath id="SVGID_12_">
			<use xlink:href="#SVGID_11_"  overflow="visible"/>
		</clipPath>
		<g display="none" clip-path="url(#SVGID_12_)">
			<g display="inline" opacity="0.5">
				
					<linearGradient id="SVGID_13_" gradientUnits="userSpaceOnUse" x1="877.5056" y1="1062.6072" x2="877.5056" y2="969.3756" gradientTransform="matrix(0.933 -0.474 -0.4529 -0.8915 -252.5205 1719.8635)">
					<stop  offset="0" style="stop-color:#000000;stop-opacity:0.3"/>
					<stop  offset="1" style="stop-color:#000000;stop-opacity:0"/>
				</linearGradient>
				<polygon fill="url(#SVGID_13_)" points="1560.198,-288.562 -1306.06,1167.644 -1348.185,1084.729 1518.073,-371.476 				"/>
				
					<linearGradient id="b_4_" gradientUnits="userSpaceOnUse" x1="-547.5437" y1="464.3879" x2="507.3864" y2="464.3879" gradientTransform="matrix(1 0 0 -1 -272.5996 749.0991)">
					<stop  offset="0" style="stop-color:#22AAD1"/>
					<stop  offset="1" style="stop-color:#25B5D8"/>
				</linearGradient>
				<polygon id="b_11_" fill="url(#b_4_)" points="234.782,279.005 -765,-217.587 -765,787.01 				"/>
				
					<linearGradient id="p_4_" gradientUnits="userSpaceOnUse" x1="1142.9309" y1="254.5286" x2="2617.0205" y2="254.5286" gradientTransform="matrix(1 0 0 -1 -272.5996 749.0991)">
					<stop  offset="0" style="stop-color:#C22981"/>
					<stop  offset="1" style="stop-color:#523F95"/>
				</linearGradient>
				<polygon id="p_11_" fill="url(#p_4_)" points="621.256,931 2307,931 2307,58.141 				"/>
				
					<linearGradient id="y_4_" gradientUnits="userSpaceOnUse" x1="238.2371" y1="778.1628" x2="1867.8397" y2="778.1628" gradientTransform="matrix(1 0 0 -1 -272.5996 749.0991)">
					<stop  offset="0" style="stop-color:#F0881A"/>
					<stop  offset="1" style="stop-color:#F2CB23"/>
				</linearGradient>
				<polygon id="y_11_" display="none" fill="url(#y_4_)" points="25.432,-597 2307,538.873 2307,-597 				"/>
				
					<linearGradient id="r_3_" gradientUnits="userSpaceOnUse" x1="2107.2854" y1="450.6907" x2="2617.9612" y2="450.6907" gradientTransform="matrix(1 0 0 -1 -272.5996 749.0991)">
					<stop  offset="0" style="stop-color:#E6291A"/>
					<stop  offset="1" style="stop-color:#E95118"/>
				</linearGradient>
				<polygon id="r_11_" fill="url(#r_3_)" points="1834.686,302.318 2307,538.78 2307,58.037 				"/>
				
					<linearGradient id="SVGID_14_" gradientUnits="userSpaceOnUse" x1="1907.47" y1="313.2395" x2="1907.47" y2="219.9814" gradientTransform="matrix(0.8869 -0.4619 -0.4619 -0.8869 -240.6659 1733.9329)">
					<stop  offset="0" style="stop-color:#000000;stop-opacity:0.3"/>
					<stop  offset="1" style="stop-color:#000000;stop-opacity:0"/>
				</linearGradient>
				<polygon fill="url(#SVGID_14_)" points="2711.684,-51.898 -12.976,1367.043 -55.934,1284.558 2668.729,-134.385 				"/>
			</g>
			<g display="inline" opacity="0.5">
				
					<linearGradient id="SVGID_15_" gradientUnits="userSpaceOnUse" x1="749.8611" y1="1294.2429" x2="749.8611" y2="1201.0103" gradientTransform="matrix(0.933 -0.474 -0.4529 -0.8915 -252.5205 1719.8635)">
					<stop  offset="0" style="stop-color:#000000;stop-opacity:0.3"/>
					<stop  offset="1" style="stop-color:#000000;stop-opacity:0"/>
				</linearGradient>
				<polygon fill="url(#SVGID_15_)" points="1336.198,-434.562 -1530.06,1021.644 -1572.185,938.729 1294.073,-517.476 				"/>
				
					<linearGradient id="b_14_" gradientUnits="userSpaceOnUse" x1="-771.5437" y1="610.3884" x2="283.3865" y2="610.3884" gradientTransform="matrix(1 0 0 -1 -272.5996 749.0991)">
					<stop  offset="0" style="stop-color:#22AAD1"/>
					<stop  offset="1" style="stop-color:#25B5D8"/>
				</linearGradient>
				<polygon id="b_10_" fill="url(#b_14_)" points="10.782,133.005 -989,-363.587 -989,641.01 				"/>
				
					<linearGradient id="p_14_" gradientUnits="userSpaceOnUse" x1="918.9314" y1="400.5286" x2="2393.021" y2="400.5286" gradientTransform="matrix(1 0 0 -1 -272.5996 749.0991)">
					<stop  offset="0" style="stop-color:#C22981"/>
					<stop  offset="1" style="stop-color:#523F95"/>
				</linearGradient>
				<polygon id="p_10_" fill="url(#p_14_)" points="397.256,785 2083,785 2083,-87.859 				"/>
				
					<linearGradient id="y_14_" gradientUnits="userSpaceOnUse" x1="14.2366" y1="924.1628" x2="1643.8396" y2="924.1628" gradientTransform="matrix(1 0 0 -1 -272.5996 749.0991)">
					<stop  offset="0" style="stop-color:#F0881A"/>
					<stop  offset="1" style="stop-color:#F2CB23"/>
				</linearGradient>
				<polygon id="y_10_" display="none" fill="url(#y_14_)" points="-198.568,-743 2083,392.873 2083,-743 				"/>
				
					<linearGradient id="r_4_" gradientUnits="userSpaceOnUse" x1="1883.2854" y1="596.6912" x2="2393.9612" y2="596.6912" gradientTransform="matrix(1 0 0 -1 -272.5996 749.0991)">
					<stop  offset="0" style="stop-color:#E6291A"/>
					<stop  offset="1" style="stop-color:#E95118"/>
				</linearGradient>
				<polygon id="r_10_" fill="url(#r_4_)" points="1610.686,156.318 2083,392.78 2083,-87.963 				"/>
				
					<linearGradient id="SVGID_16_" gradientUnits="userSpaceOnUse" x1="1776.2336" y1="546.2068" x2="1776.2336" y2="452.9468" gradientTransform="matrix(0.8869 -0.4619 -0.4619 -0.8869 -240.6659 1733.9329)">
					<stop  offset="0" style="stop-color:#000000;stop-opacity:0.3"/>
					<stop  offset="1" style="stop-color:#000000;stop-opacity:0"/>
				</linearGradient>
				<polygon fill="url(#SVGID_16_)" points="2487.684,-197.898 -236.976,1221.043 -279.934,1138.558 2444.729,-280.385 				"/>
			</g>
		</g>
	</g>
	<g>
		<defs>
			<rect id="SVGID_17_" x="0" y="0" width="2048" height="1019"/>
		</defs>
		<clipPath id="SVGID_18_">
			<use xlink:href="#SVGID_17_"  overflow="visible"/>
		</clipPath>
		<g display="none" clip-path="url(#SVGID_18_)">
			<g display="inline" opacity="0.5">
				
					<linearGradient id="SVGID_19_" gradientUnits="userSpaceOnUse" x1="2259.7551" y1="-250.2136" x2="2259.7551" y2="-320.4159" gradientTransform="matrix(-0.933 0.474 0.4529 0.8915 3635.8188 -435.2078)">
					<stop  offset="0" style="stop-color:#000000;stop-opacity:0.3"/>
					<stop  offset="1" style="stop-color:#000000;stop-opacity:0"/>
				</linearGradient>
				<polygon fill="url(#SVGID_19_)" points="303.281,898.662 2461.56,-197.853 2493.279,-135.42 335,961.096 				"/>
				
					<linearGradient id="b_15_" gradientUnits="userSpaceOnUse" x1="1560.3772" y1="-68.5627" x2="2354.7344" y2="-68.5627" gradientTransform="matrix(-1 0 0 1 3655.8989 535.5547)">
					<stop  offset="0" style="stop-color:#22AAD1"/>
					<stop  offset="1" style="stop-color:#25B5D8"/>
				</linearGradient>
				<polygon id="b_5_" fill="url(#b_15_)" points="1301.168,471.287 2054,845.219 2054,88.764 				"/>
				
					<linearGradient id="p_15_" gradientUnits="userSpaceOnUse" x1="2833.1438" y1="-226.7556" x2="3943.0767" y2="-226.7556" gradientTransform="matrix(-1 0 0 1 3655.8989 535.5547)">
					<stop  offset="0" style="stop-color:#C22981"/>
					<stop  offset="1" style="stop-color:#523F95"/>
				</linearGradient>
				<polygon id="p_5_" fill="url(#p_15_)" points="1010.3,-20 -259,-20 -259,637.598 				"/>
				
					<linearGradient id="y_15_" gradientUnits="userSpaceOnUse" x1="2151.9231" y1="167.2493" x2="3378.9653" y2="167.2493" gradientTransform="matrix(-1 0 0 1 3655.8989 535.5547)">
					<stop  offset="0" style="stop-color:#F0881A"/>
					<stop  offset="1" style="stop-color:#F2CB23"/>
				</linearGradient>
				<polygon id="y_5_" fill="url(#y_15_)" points="1458.951,1130 -259,275.608 -259,1130 				"/>
				
					<linearGradient id="r_7_" gradientUnits="userSpaceOnUse" x1="3559.2483" y1="-78.8772" x2="3943.7856" y2="-78.8772" gradientTransform="matrix(-1 0 0 1 3655.8989 535.5547)">
					<stop  offset="0" style="stop-color:#E6291A"/>
					<stop  offset="1" style="stop-color:#E95118"/>
				</linearGradient>
				<polygon id="r_5_" fill="url(#r_7_)" points="96.651,453.732 -259,275.678 -259,637.677 				"/>
				
					<linearGradient id="SVGID_20_" gradientUnits="userSpaceOnUse" x1="3098.0217" y1="-826.8562" x2="3098.0217" y2="-897.0811" gradientTransform="matrix(-0.8869 0.4619 0.4619 0.8869 3623.9622 -449.2771)">
					<stop  offset="0" style="stop-color:#000000;stop-opacity:0.3"/>
					<stop  offset="1" style="stop-color:#000000;stop-opacity:0"/>
				</linearGradient>
				<polygon fill="url(#SVGID_20_)" points="-563.782,720.455 1487.873,-348 1520.221,-285.889 -531.437,782.568 				"/>
			</g>
			<g display="inline" opacity="0.5">
				
					<linearGradient id="SVGID_21_" gradientUnits="userSpaceOnUse" x1="2245.8147" y1="-13.9744" x2="2245.8147" y2="-84.1747" gradientTransform="matrix(-0.933 0.474 0.4529 0.8915 3635.8188 -435.2078)">
					<stop  offset="0" style="stop-color:#000000;stop-opacity:0.3"/>
					<stop  offset="1" style="stop-color:#000000;stop-opacity:0"/>
				</linearGradient>
				<polygon fill="url(#SVGID_21_)" points="423.281,1102.662 2581.56,6.147 2613.279,68.58 455,1165.096 				"/>
				
					<linearGradient id="b_16_" gradientUnits="userSpaceOnUse" x1="1440.3772" y1="135.4373" x2="2234.7344" y2="135.4373" gradientTransform="matrix(-1 0 0 1 3655.8989 535.5547)">
					<stop  offset="0" style="stop-color:#22AAD1"/>
					<stop  offset="1" style="stop-color:#25B5D8"/>
				</linearGradient>
				<polygon id="b_9_" fill="url(#b_16_)" points="1421.168,675.287 2174,1049.219 2174,292.764 				"/>
				
					<linearGradient id="p_16_" gradientUnits="userSpaceOnUse" x1="2713.1438" y1="-22.7556" x2="3823.0767" y2="-22.7556" gradientTransform="matrix(-1 0 0 1 3655.8989 535.5547)">
					<stop  offset="0" style="stop-color:#C22981"/>
					<stop  offset="1" style="stop-color:#523F95"/>
				</linearGradient>
				<polygon id="p_9_" fill="url(#p_16_)" points="1130.3,184 -139,184 -139,841.598 				"/>
				
					<linearGradient id="y_16_" gradientUnits="userSpaceOnUse" x1="2031.9231" y1="371.2493" x2="3258.9653" y2="371.2493" gradientTransform="matrix(-1 0 0 1 3655.8989 535.5547)">
					<stop  offset="0" style="stop-color:#F0881A"/>
					<stop  offset="1" style="stop-color:#F2CB23"/>
				</linearGradient>
				<polygon id="y_9_" fill="url(#y_16_)" points="1578.951,1334 -139,479.608 -139,1334 				"/>
				
					<linearGradient id="r_12_" gradientUnits="userSpaceOnUse" x1="3439.2483" y1="125.1228" x2="3823.7856" y2="125.1228" gradientTransform="matrix(-1 0 0 1 3655.8989 535.5547)">
					<stop  offset="0" style="stop-color:#E6291A"/>
					<stop  offset="1" style="stop-color:#E95118"/>
				</linearGradient>
				<polygon id="r_9_" fill="url(#r_12_)" points="216.651,657.732 -139,479.678 -139,841.677 				"/>
				
					<linearGradient id="SVGID_22_" gradientUnits="userSpaceOnUse" x1="3085.8206" y1="-590.488" x2="3085.8206" y2="-660.711" gradientTransform="matrix(-0.8869 0.4619 0.4619 0.8869 3623.9622 -449.2771)">
					<stop  offset="0" style="stop-color:#000000;stop-opacity:0.3"/>
					<stop  offset="1" style="stop-color:#000000;stop-opacity:0"/>
				</linearGradient>
				<polygon fill="url(#SVGID_22_)" points="-443.782,924.455 1607.873,-144 1640.221,-81.889 -411.437,986.568 				"/>
			</g>
		</g>
	</g>
	<g>
		<defs>
			<rect id="SVGID_23_" x="0" y="0" width="2048" height="1019"/>
		</defs>
		<clipPath id="SVGID_24_">
			<use xlink:href="#SVGID_23_"  overflow="visible"/>
		</clipPath>
		<g display="none" clip-path="url(#SVGID_24_)">
			<g display="inline" opacity="0.5">
				
					<linearGradient id="SVGID_25_" gradientUnits="userSpaceOnUse" x1="779.8352" y1="529.697" x2="779.8352" y2="379.4447" gradientTransform="matrix(0.933 -0.474 -0.4529 -0.8915 331.4775 1719.8635)">
					<stop  offset="0" style="stop-color:#000000;stop-opacity:0.3"/>
					<stop  offset="1" style="stop-color:#000000;stop-opacity:0"/>
				</linearGradient>
				<polygon fill="url(#SVGID_25_)" points="2036.35,427.793 -295.838,1524.308 -330.113,1461.875 2002.073,365.359 				"/>
				
					<linearGradient id="b_17_" gradientUnits="userSpaceOnUse" x1="-212.2668" y1="-110.3645" x2="646.097" y2="-110.3645" gradientTransform="matrix(1 0 0 -1 311.3975 749.0991)">
					<stop  offset="0" style="stop-color:#22AAD1"/>
					<stop  offset="1" style="stop-color:#25B5D8"/>
				</linearGradient>
				<polygon id="b_13_" fill="url(#b_17_)" points="957.491,855.169 144,481.236 144,1237.691 				"/>
				
					<linearGradient id="p_17_" gradientUnits="userSpaceOnUse" x1="1163.4797" y1="-268.3293" x2="2362.0288" y2="-268.3293" gradientTransform="matrix(1 0 0 -1 311.3975 749.0991)">
					<stop  offset="0" style="stop-color:#C22981"/>
					<stop  offset="1" style="stop-color:#523F95"/>
				</linearGradient>
				<polygon id="p_13_" fill="url(#p_17_)" points="1272.36,1346 2643,1346 2643,688.857 				"/>
				
					<linearGradient id="y_17_" gradientUnits="userSpaceOnUse" x1="427.5315" y1="125.6755" x2="1752.7764" y2="125.6755" gradientTransform="matrix(1 0 0 -1 311.3975 749.0991)">
					<stop  offset="0" style="stop-color:#F0881A"/>
					<stop  offset="1" style="stop-color:#F2CB23"/>
				</linearGradient>
				<polygon id="y_13_" fill="url(#y_17_)" points="787.557,196 2643,1050.847 2643,196 				"/>
				
					<linearGradient id="SVGID_26_" gradientUnits="userSpaceOnUse" x1="1622.55" y1="-66.7761" x2="1622.55" y2="-214.7288" gradientTransform="matrix(0.8869 -0.4619 -0.4619 -0.8869 343.3331 1733.9329)">
					<stop  offset="0" style="stop-color:#000000;stop-opacity:0.3"/>
					<stop  offset="1" style="stop-color:#000000;stop-opacity:0"/>
				</linearGradient>
				<polygon fill="url(#SVGID_26_)" points="2973.278,606 756.306,1674.455 721.352,1612.344 2938.326,543.887 				"/>
			</g>
			<g display="inline" opacity="0.5">
				
					<linearGradient id="SVGID_27_" gradientUnits="userSpaceOnUse" x1="757.657" y1="770.3171" x2="757.657" y2="620.0638" gradientTransform="matrix(0.933 -0.474 -0.4529 -0.8915 331.4775 1719.8635)">
					<stop  offset="0" style="stop-color:#000000;stop-opacity:0.3"/>
					<stop  offset="1" style="stop-color:#000000;stop-opacity:0"/>
				</linearGradient>
				<polygon fill="url(#SVGID_27_)" points="1906.68,223.792 -425.508,1320.308 -459.783,1257.875 1872.404,161.359 				"/>
				
					<linearGradient id="b_18_" gradientUnits="userSpaceOnUse" x1="-342.2668" y1="93.6355" x2="516.097" y2="93.6355" gradientTransform="matrix(1 0 0 -1 311.3975 749.0991)">
					<stop  offset="0" style="stop-color:#22AAD1"/>
					<stop  offset="1" style="stop-color:#25B5D8"/>
				</linearGradient>
				<polygon id="b_12_" fill="url(#b_18_)" points="827.491,651.169 14,277.236 14,1033.691 				"/>
				
					<linearGradient id="p_18_" gradientUnits="userSpaceOnUse" x1="1033.9094" y1="-64.3293" x2="2233.0435" y2="-64.3293" gradientTransform="matrix(1 0 0 -1 311.3975 749.0991)">
					<stop  offset="0" style="stop-color:#C22981"/>
					<stop  offset="1" style="stop-color:#523F95"/>
				</linearGradient>
				<polygon id="p_12_" fill="url(#p_18_)" points="1142.691,1142 2514,1142 2514,484.857 				"/>
				
					<linearGradient id="y_18_" gradientUnits="userSpaceOnUse" x1="297.844" y1="329.6755" x2="1623.5667" y2="329.6755" gradientTransform="matrix(1 0 0 -1 311.3975 749.0991)">
					<stop  offset="0" style="stop-color:#F0881A"/>
					<stop  offset="1" style="stop-color:#F2CB23"/>
				</linearGradient>
				<polygon id="y_12_" fill="url(#y_18_)" points="657.888,-8 2514,846.847 2514,-8 				"/>
				
					<linearGradient id="SVGID_28_" gradientUnits="userSpaceOnUse" x1="1601.7737" y1="174.0598" x2="1601.7737" y2="26.1062" gradientTransform="matrix(0.8869 -0.4619 -0.4619 -0.8869 343.3331 1733.9329)">
					<stop  offset="0" style="stop-color:#000000;stop-opacity:0.3"/>
					<stop  offset="1" style="stop-color:#000000;stop-opacity:0"/>
				</linearGradient>
				<polygon fill="url(#SVGID_28_)" points="2843.609,402 626.637,1470.455 591.682,1408.344 2808.657,339.887 				"/>
			</g>
		</g>
	</g>
	<g>
		<defs>
			<rect id="SVGID_29_" x="0" y="0" width="2048" height="1019"/>
		</defs>
		<clipPath id="SVGID_30_">
			<use xlink:href="#SVGID_29_"  overflow="visible"/>
		</clipPath>
		<g display="none" opacity="0.5" clip-path="url(#SVGID_30_)">
			<polygon display="inline" fill="#C35B62" points="78.705,-52.313 -23.956,-113.22 -35.333,5.603 			"/>
			<polygon display="inline" fill="#A24659" points="295.398,-49.318 192.739,-110.227 181.362,8.598 			"/>
			<polygon display="inline" fill="#AF6674" points="78.705,-52.313 181.362,8.598 192.739,-110.227 			"/>
			<polygon display="inline" fill="#C17675" points="181.362,8.598 78.705,-52.313 67.324,66.514 			"/>
			<polygon display="inline" fill="#BF6D78" points="-35.333,5.603 67.324,66.514 78.705,-52.313 			"/>
			<polygon display="inline" fill="#C45D68" points="67.324,66.514 -35.333,5.603 -46.711,124.427 			"/>
			<polygon display="inline" fill="#7A6387" points="181.362,8.598 284.02,69.504 295.398,-49.318 			"/>
			<polygon display="inline" fill="#9F7089" points="284.02,69.504 181.362,8.598 169.984,127.42 			"/>
			<polygon display="inline" fill="#986D87" points="67.324,66.514 169.984,127.42 181.362,8.598 			"/>
			<polygon display="inline" fill="#B57281" points="169.984,127.42 67.324,66.514 55.947,185.336 			"/>
			<polygon display="inline" fill="#9F4A6D" points="-46.711,124.427 55.947,185.336 67.324,66.514 			"/>
			<polygon display="inline" fill="#64003E" points="55.947,185.336 -46.711,124.427 -58.091,243.25 			"/>
			<polygon display="inline" fill="#565981" points="386.677,130.411 284.02,69.504 272.64,188.327 			"/>
			<polygon display="inline" fill="#4F5386" points="169.984,127.42 272.64,188.327 284.02,69.504 			"/>
			<polygon display="inline" fill="#7F5F87" points="272.64,188.327 169.984,127.42 158.603,246.243 			"/>
			<polygon display="inline" fill="#8C5B81" points="55.947,185.336 158.603,246.243 169.984,127.42 			"/>
			<polygon display="inline" fill="#A34F71" points="158.603,246.243 55.947,185.336 44.567,304.157 			"/>
			<polygon display="inline" fill="#A23E62" points="-58.091,243.25 44.567,304.157 55.947,185.336 			"/>
			<polygon display="inline" fill="#992B54" points="44.567,304.157 -58.091,243.25 -69.47,362.072 			"/>
			<polygon display="inline" fill="#223183" points="272.64,188.327 375.297,249.236 386.677,130.411 			"/>
			<polygon display="inline" fill="#384187" points="375.297,249.236 272.64,188.327 261.264,307.151 			"/>
			<polygon display="inline" fill="#534B87" points="158.603,246.243 261.264,307.151 272.64,188.327 			"/>
			<polygon display="inline" fill="#7A5985" points="261.264,307.151 158.603,246.243 147.227,365.067 			"/>
			<polygon display="inline" fill="#976D88" points="44.567,304.157 147.227,365.067 158.603,246.243 			"/>
			<polygon display="inline" fill="#AA5F77" points="147.227,365.067 44.567,304.157 33.188,422.982 			"/>
			<polygon display="inline" fill="#B8677A" points="-69.47,362.072 33.188,422.982 44.567,304.157 			"/>
			<polygon display="inline" fill="#AA445D" points="33.188,422.982 -69.47,362.072 -80.849,480.897 			"/>
			<polygon display="inline" fill="#051179" points="477.957,310.147 375.297,249.236 363.92,368.061 			"/>
			<polygon display="inline" fill="#131E7D" points="261.264,307.151 363.92,368.061 375.297,249.236 			"/>
			<polygon display="inline" fill="#4C4688" points="363.92,368.061 261.264,307.151 249.884,425.978 			"/>
			<polygon display="inline" fill="#675485" points="147.227,365.067 249.884,425.978 261.264,307.151 			"/>
			<polygon display="inline" fill="#8E6882" points="249.884,425.978 147.227,365.067 135.849,483.894 			"/>
			<polygon display="inline" fill="#9D5A6B" points="33.188,422.982 135.849,483.894 147.227,365.067 			"/>
			<polygon display="inline" fill="#AE596C" points="135.849,483.894 33.188,422.982 21.813,541.808 			"/>
			<polygon display="inline" fill="#922855" points="-80.849,480.897 21.813,541.808 33.188,422.982 			"/>
			<polygon display="inline" fill="#7C064B" points="21.813,541.808 -80.849,480.897 -92.225,599.724 			"/>
			<polygon display="inline" fill="#A03458" points="512.093,-46.325 409.437,-107.234 398.056,11.589 			"/>
			<polygon display="inline" fill="#890E51" points="295.4,-49.319 398.056,11.589 409.437,-107.234 			"/>
			<polygon display="inline" fill="#911F4E" points="398.056,11.589 295.4,-49.319 284.02,69.505 			"/>
			<polygon display="inline" fill="#992B54" points="728.787,-43.335 626.13,-104.24 614.752,14.58 			"/>
			<polygon display="inline" fill="#AC424F" points="512.093,-46.325 614.752,14.58 626.13,-104.24 			"/>
			<polygon display="inline" fill="#9B1E53" points="614.752,14.58 512.093,-46.325 500.715,72.495 			"/>
			<polygon display="inline" fill="#790049" points="398.056,11.589 500.715,72.495 512.093,-46.325 			"/>
			<polygon display="inline" fill="#6E0042" points="500.715,72.495 398.056,11.589 386.678,130.411 			"/>
			<polygon display="inline" fill="#59003A" points="284.02,69.505 386.678,130.411 398.056,11.589 			"/>
			<polygon display="inline" fill="#7A5985" points="945.484,-40.34 842.823,-101.25 831.447,17.574 			"/>
			<polygon display="inline" fill="#976D88" points="728.787,-43.335 831.447,17.574 842.823,-101.25 			"/>
			<polygon display="inline" fill="#AA5F77" points="831.447,17.574 728.787,-43.335 717.408,75.489 			"/>
			<polygon display="inline" fill="#B8677A" points="614.752,14.58 717.408,75.489 728.787,-43.335 			"/>
			<polygon display="inline" fill="#AA445D" points="717.408,75.489 614.752,14.58 603.371,133.404 			"/>
			<polygon display="inline" fill="#810D51" points="500.715,72.495 603.371,133.404 614.752,14.58 			"/>
			<polygon display="inline" fill="#6C0045" points="603.371,133.404 500.715,72.495 489.335,191.322 			"/>
			<polygon display="inline" fill="#530038" points="386.678,130.411 489.335,191.322 500.715,72.495 			"/>
			<polygon display="inline" fill="#470035" points="489.335,191.322 386.678,130.411 375.299,249.237 			"/>
			<polygon display="inline" fill="#051179" points="1162.18,-37.346 1059.519,-98.255 1048.142,20.569 			"/>
			<polygon display="inline" fill="#131E7D" points="945.484,-40.34 1048.142,20.569 1059.519,-98.255 			"/>
			<polygon display="inline" fill="#4C4688" points="1048.142,20.569 945.484,-40.34 934.104,78.486 			"/>
			<polygon display="inline" fill="#675485" points="831.447,17.574 934.104,78.486 945.484,-40.34 			"/>
			<polygon display="inline" fill="#8E6882" points="934.104,78.486 831.447,17.574 820.069,136.401 			"/>
			<polygon display="inline" fill="#9D5A6B" points="717.408,75.489 820.069,136.401 831.447,17.574 			"/>
			<polygon display="inline" fill="#AE596C" points="820.069,136.401 717.408,75.489 706.033,194.316 			"/>
			<polygon display="inline" fill="#922855" points="603.371,133.404 706.033,194.316 717.408,75.489 			"/>
			<polygon display="inline" fill="#7C064B" points="706.033,194.316 603.371,133.404 591.995,252.232 			"/>
			<polygon display="inline" fill="#590044" points="489.335,191.322 591.995,252.232 603.371,133.404 			"/>
			<polygon display="inline" fill="#44003E" points="591.995,252.232 489.335,191.322 477.96,310.147 			"/>
			<polygon display="inline" fill="#390030" points="375.299,249.237 477.96,310.147 489.335,191.322 			"/>
		</g>
	</g>
	<g>
		<defs>
			<rect id="SVGID_31_" x="0" y="0" width="2048" height="1019"/>
		</defs>
		<clipPath id="SVGID_32_">
			<use xlink:href="#SVGID_31_"  overflow="visible"/>
		</clipPath>
		<g display="none" opacity="0.5" clip-path="url(#SVGID_32_)">
			<polygon display="inline" fill="#AC3043" points="1941.957,1058.438 2045.159,1118.418 2055.467,999.495 			"/>
			<polygon display="inline" fill="#A94349" points="2158.668,1059.475 2055.467,999.495 2045.159,1118.418 			"/>
			<polygon display="inline" fill="#C17675" points="1725.242,1057.4 1828.445,1117.382 1838.754,998.457 			"/>
			<polygon display="inline" fill="#BF6D78" points="1941.957,1058.438 1838.754,998.457 1828.445,1117.382 			"/>
			<polygon display="inline" fill="#C45D68" points="1838.754,998.457 1941.957,1058.438 1952.261,939.518 			"/>
			<polygon display="inline" fill="#7F1B4A" points="2055.467,999.495 1952.261,939.518 1941.957,1058.438 			"/>
			<polygon display="inline" fill="#731039" points="1952.261,939.518 2055.467,999.495 2065.77,880.575 			"/>
			<polygon display="inline" fill="#7A6387" points="1725.242,1057.4 1622.041,997.425 1611.734,1116.344 			"/>
			<polygon display="inline" fill="#9F7089" points="1622.041,997.425 1725.242,1057.4 1735.548,938.48 			"/>
			<polygon display="inline" fill="#986D87" points="1838.754,998.457 1735.548,938.48 1725.242,1057.4 			"/>
			<polygon display="inline" fill="#B57281" points="1735.548,938.48 1838.754,998.457 1849.058,879.537 			"/>
			<polygon display="inline" fill="#9F4A6D" points="1952.261,939.518 1849.058,879.537 1838.754,998.457 			"/>
			<polygon display="inline" fill="#64003E" points="1849.058,879.537 1952.261,939.518 1962.567,820.596 			"/>
			<polygon display="inline" fill="#610036" points="2065.77,880.575 1962.567,820.596 1952.261,939.518 			"/>
			<polygon display="inline" fill="#971F4A" points="1962.567,820.596 2065.77,880.575 2076.075,761.652 			"/>
			<polygon display="inline" fill="#565981" points="1518.837,937.445 1622.041,997.425 1632.347,878.504 			"/>
			<polygon display="inline" fill="#4F5386" points="1735.548,938.48 1632.347,878.504 1622.041,997.425 			"/>
			<polygon display="inline" fill="#7F5F87" points="1632.347,878.504 1735.548,938.48 1745.855,819.56 			"/>
			<polygon display="inline" fill="#8C5B81" points="1849.058,879.537 1745.855,819.56 1735.548,938.48 			"/>
			<polygon display="inline" fill="#A34F71" points="1745.855,819.56 1849.058,879.537 1859.364,760.619 			"/>
			<polygon display="inline" fill="#A23E62" points="1962.567,820.596 1859.364,760.619 1849.058,879.537 			"/>
			<polygon display="inline" fill="#992B54" points="1859.364,760.619 1962.567,820.596 1972.873,701.677 			"/>
			<polygon display="inline" fill="#AC424F" points="2076.075,761.652 1972.873,701.677 1962.567,820.596 			"/>
			<polygon display="inline" fill="#9B1E53" points="1972.873,701.677 2076.075,761.652 2086.382,642.732 			"/>
			<polygon display="inline" fill="#223183" points="1632.347,878.504 1529.143,818.523 1518.837,937.445 			"/>
			<polygon display="inline" fill="#384187" points="1529.143,818.523 1632.347,878.504 1642.649,759.581 			"/>
			<polygon display="inline" fill="#534B87" points="1745.855,819.56 1642.649,759.581 1632.347,878.504 			"/>
			<polygon display="inline" fill="#7A5985" points="1642.649,759.581 1745.855,819.56 1756.158,700.637 			"/>
			<polygon display="inline" fill="#976D88" points="1859.364,760.619 1756.158,700.637 1745.855,819.56 			"/>
			<polygon display="inline" fill="#AA5F77" points="1756.158,700.637 1859.364,760.619 1869.67,641.695 			"/>
			<polygon display="inline" fill="#B8677A" points="1972.873,701.677 1869.67,641.695 1859.364,760.619 			"/>
			<polygon display="inline" fill="#AA445D" points="1869.67,641.695 1972.873,701.677 1983.18,582.754 			"/>
			<polygon display="inline" fill="#810D51" points="2086.382,642.732 1983.18,582.754 1972.873,701.677 			"/>
			<polygon display="inline" fill="#6C0045" points="1983.18,582.754 2086.382,642.732 2096.688,523.809 			"/>
			<polygon display="inline" fill="#051179" points="1425.937,758.541 1529.143,818.523 1539.447,699.601 			"/>
			<polygon display="inline" fill="#131E7D" points="1642.649,759.581 1539.447,699.601 1529.143,818.523 			"/>
			<polygon display="inline" fill="#4C4688" points="1539.447,699.601 1642.649,759.581 1652.955,640.656 			"/>
			<polygon display="inline" fill="#675485" points="1756.158,700.637 1652.955,640.656 1642.649,759.581 			"/>
			<polygon display="inline" fill="#8E6882" points="1652.955,640.656 1756.158,700.637 1766.463,581.714 			"/>
			<polygon display="inline" fill="#9D5A6B" points="1869.67,641.695 1766.463,581.714 1756.158,700.637 			"/>
			<polygon display="inline" fill="#AE596C" points="1766.463,581.714 1869.67,641.695 1879.971,522.771 			"/>
			<polygon display="inline" fill="#922855" points="1983.18,582.754 1879.971,522.771 1869.67,641.695 			"/>
			<polygon display="inline" fill="#7C064B" points="1879.971,522.771 1983.18,582.754 1993.482,463.829 			"/>
			<polygon display="inline" fill="#590044" points="2096.688,523.809 1993.482,463.829 1983.18,582.754 			"/>
			<polygon display="inline" fill="#44003E" points="1993.482,463.829 2096.688,523.809 2106.989,404.886 			"/>
			<polygon display="inline" fill="#911F4E" points="1508.531,1056.364 1611.732,1116.344 1622.041,997.424 			"/>
			<polygon display="inline" fill="#9B1E53" points="1291.816,1055.332 1395.021,1115.307 1405.326,996.389 			"/>
			<polygon display="inline" fill="#790049" points="1508.531,1056.364 1405.326,996.389 1395.021,1115.307 			"/>
			<polygon display="inline" fill="#6E0042" points="1405.326,996.389 1508.531,1056.364 1518.834,937.445 			"/>
			<polygon display="inline" fill="#59003A" points="1622.041,997.424 1518.834,937.445 1508.531,1056.364 			"/>
			<polygon display="inline" fill="#AA5F77" points="1075.104,1054.293 1178.31,1114.272 1188.614,995.351 			"/>
			<polygon display="inline" fill="#B8677A" points="1291.816,1055.332 1188.614,995.351 1178.31,1114.272 			"/>
			<polygon display="inline" fill="#AA445D" points="1188.614,995.351 1291.816,1055.332 1302.123,936.409 			"/>
			<polygon display="inline" fill="#810D51" points="1405.326,996.389 1302.123,936.409 1291.816,1055.332 			"/>
			<polygon display="inline" fill="#6C0045" points="1302.123,936.409 1405.326,996.389 1415.633,877.465 			"/>
			<polygon display="inline" fill="#530038" points="1518.834,937.445 1415.633,877.465 1405.326,996.389 			"/>
			<polygon display="inline" fill="#470035" points="1415.633,877.465 1518.834,937.445 1529.142,818.521 			"/>
			<polygon display="inline" fill="#4C4688" points="858.392,1053.255 961.594,1113.235 971.9,994.312 			"/>
			<polygon display="inline" fill="#675485" points="1075.104,1054.293 971.9,994.312 961.594,1113.235 			"/>
			<polygon display="inline" fill="#8E6882" points="971.9,994.312 1075.104,1054.293 1085.406,935.368 			"/>
			<polygon display="inline" fill="#9D5A6B" points="1188.614,995.351 1085.406,935.368 1075.104,1054.293 			"/>
			<polygon display="inline" fill="#AE596C" points="1085.406,935.368 1188.614,995.351 1198.916,876.427 			"/>
			<polygon display="inline" fill="#922855" points="1302.123,936.409 1198.916,876.427 1188.614,995.351 			"/>
			<polygon display="inline" fill="#7C064B" points="1198.916,876.427 1302.123,936.409 1312.426,817.482 			"/>
			<polygon display="inline" fill="#590044" points="1415.633,877.465 1312.426,817.482 1302.123,936.409 			"/>
			<polygon display="inline" fill="#44003E" points="1312.426,817.482 1415.633,877.465 1425.935,758.541 			"/>
			<polygon display="inline" fill="#390030" points="1529.142,818.521 1425.935,758.541 1415.633,877.465 			"/>
		</g>
	</g>
</g>
</svg>
