<?xml version="1.0" encoding="utf-8"?>
<!-- Generator: Adobe Illustrator 16.0.3, SVG Export Plug-In . SVG Version: 6.00 Build 0)  -->
<!DOCTYPE svg PUBLIC "-//W3C//DTD SVG 1.1//EN" "http://www.w3.org/Graphics/SVG/1.1/DTD/svg11.dtd">
<svg version="1.1" id="圖層_1" xmlns="http://www.w3.org/2000/svg" xmlns:xlink="http://www.w3.org/1999/xlink" x="0px" y="0px"
	 width="2048px" height="1019px" viewBox="0 0 2048 1019" enable-background="new 0 0 2048 1019" xml:space="preserve">
<linearGradient id="SVGID_1_" gradientUnits="userSpaceOnUse" x1="2.441406e-004" y1="509.4998" x2="1730.3342" y2="509.4998">
	<stop  offset="0" style="stop-color:#36B06C"/>
	<stop  offset="1" style="stop-color:#24B9D8"/>
</linearGradient>
<polygon fill="url(#SVGID_1_)" points="0,1019 943.163,1019 1730.334,599.191 518.769,0 0,0 "/>
<linearGradient id="SVGID_2_" gradientUnits="userSpaceOnUse" x1="943.1633" y1="724.3875" x2="2048.0002" y2="724.3875">
	<stop  offset="0" style="stop-color:#C22981"/>
	<stop  offset="1" style="stop-color:#523F95"/>
</linearGradient>
<polygon fill="url(#SVGID_2_)" points="1730.334,599.191 943.163,1019 2048,1019 2048,756.296 2048,429.775 "/>
<linearGradient id="SVGID_3_" gradientUnits="userSpaceOnUse" x1="518.7693" y1="378.1477" x2="2048.0002" y2="378.1477">
	<stop  offset="0" style="stop-color:#F0881A"/>
	<stop  offset="1" style="stop-color:#F2CB23"/>
</linearGradient>
<polygon fill="url(#SVGID_3_)" points="518.769,0 1730.334,599.191 2048,756.296 2048,429.775 2048,0 "/>
<linearGradient id="SVGID_4_" gradientUnits="userSpaceOnUse" x1="1730.3342" y1="593.0349" x2="2048.0002" y2="593.0349">
	<stop  offset="0" style="stop-color:#E6291A"/>
	<stop  offset="1" style="stop-color:#E95118"/>
</linearGradient>
<polygon fill="url(#SVGID_4_)" points="2048,756.296 2048,429.775 1730.334,599.191 "/>
<linearGradient id="b_1_" gradientUnits="userSpaceOnUse" x1="-584.2625" y1="142.5789" x2="119.0242" y2="142.5789" gradientTransform="matrix(1 0 0 1 547.5 445.501)">
	<stop  offset="0" style="stop-color:#22AAD1"/>
	<stop  offset="1" style="stop-color:#25B5D8"/>
</linearGradient>
<polygon id="b_8_" fill="url(#b_1_)" points="666.521,584.276 0,253.215 0,922.945 "/>
</svg>
