<?xml version="1.0" encoding="utf-8"?>
<!-- Generator: Adobe Illustrator 16.0.3, SVG Export Plug-In . SVG Version: 6.00 Build 0)  -->
<!DOCTYPE svg PUBLIC "-//W3C//DTD SVG 1.1//EN" "http://www.w3.org/Graphics/SVG/1.1/DTD/svg11.dtd">
<svg version="1.1" id="圖層_1" xmlns="http://www.w3.org/2000/svg" xmlns:xlink="http://www.w3.org/1999/xlink" x="0px" y="0px"
	 width="216.751px" height="382.526px" viewBox="0 0 216.751 382.526" enable-background="new 0 0 216.751 382.526"
	 xml:space="preserve">
<g>
	<rect x="0.75" y="0.031" fill="#D8DCE0" width="216.001" height="382.502"/>
	<g>
		<defs>
			<rect id="SVGID_1_" x="0.75" y="0.031" width="216.001" height="382.502"/>
		</defs>
		<clipPath id="SVGID_2_">
			<use xlink:href="#SVGID_1_"  overflow="visible"/>
		</clipPath>
		<g clip-path="url(#SVGID_2_)">
			<path fill="#FFFFFF" stroke="#B0BFC1" stroke-width="1" stroke-miterlimit="10" d="M210.751,536.864
				c0,3.132-2.538,5.67-5.669,5.67H11.419c-3.131,0-5.669-2.538-5.669-5.67V321.702c0-3.132,2.538-5.67,5.669-5.67h193.663
				c3.131,0,5.669,2.538,5.669,5.67V536.864z"/>
			<rect x="13.75" y="342.033" fill="#4D9B9D" width="23" height="23"/>
			<rect x="42.75" y="342.033" fill="#BCC3C8" width="64" height="9.5"/>
			<rect x="42.75" y="356.533" fill="#DADEE2" width="40.612" height="5.25"/>
			<rect x="12.5" y="374.033" fill="#BCC3C8" width="187.751" height="8.75"/>
		</g>
	</g>
	<rect x="0.249" y="-0.007" fill="#4366B0" width="216.002" height="42"/>
	<rect x="78.5" y="23.781" fill="#FFFFFF" width="31.75" height="12.25"/>
	<rect x="112" y="23.781" fill="#FFFFFF" width="28.75" height="12.25"/>
	<rect x="91.5" y="4.781" fill="#FFFFFF" width="17.25" height="6.125"/>
	<rect x="112" y="4.781" fill="#FFFFFF" width="12.75" height="6.125"/>
	<g>
		<g>
			<path fill="#FFFFFF" d="M15.43,20.993c-3.266,0-5.923,2.658-5.923,5.924c0,3.265,2.657,5.922,5.923,5.922
				c3.265,0,5.922-2.657,5.922-5.922C21.352,23.651,18.694,20.993,15.43,20.993z M15.43,31.763c-2.672,0-4.847-2.174-4.847-4.846
				c0-2.673,2.175-4.847,4.847-4.847s4.846,2.174,4.846,4.847C20.275,29.589,18.102,31.763,15.43,31.763z"/>
			<path fill="#FFFFFF" d="M24.425,35.15l-3.23-3.23c-0.212-0.21-0.551-0.21-0.762,0s-0.211,0.551,0,0.761l3.231,3.231
				c0.104,0.104,0.242,0.157,0.38,0.157s0.276-0.053,0.381-0.157C24.636,35.701,24.636,35.36,24.425,35.15z"/>
		</g>
	</g>
	<path fill="#FFFFFF" d="M198.688,30.913c-0.061-0.661-0.037-1.122-0.037-1.727c0.299-0.157,0.835-1.16,0.926-2.006
		c0.236-0.02,0.607-0.249,0.716-1.156c0.059-0.487-0.174-0.762-0.316-0.848c0.384-1.153,1.181-4.718-1.473-5.087
		c-0.271-0.479-0.971-0.722-1.879-0.722c-3.633,0.066-4.071,2.743-3.275,5.809c-0.141,0.086-0.374,0.36-0.315,0.848
		c0.108,0.907,0.479,1.137,0.716,1.156c0.09,0.846,0.647,1.849,0.948,2.006c0,0.604,0.022,1.065-0.038,1.727
		c-0.719,1.934-5.569,1.391-5.793,5.118h15.593C204.235,32.304,199.406,32.847,198.688,30.913z"/>
	<rect y="42.156" fill="#FFFFFF" width="216.001" height="29.5"/>
	<rect x="30.75" y="54.906" fill="#B0BFC1" width="26" height="8"/>
	<circle fill="#B2BDC2" cx="16.507" cy="58.906" r="7"/>
	<g>
		<g>
			<rect x="104.605" y="54.906" fill="#B2BDC2" width="26" height="8"/>
			<circle fill="#B2BDC2" cx="90.362" cy="58.906" r="7"/>
		</g>
	</g>
	<g>
		<g>
			<rect x="178.461" y="54.906" fill="#B2BDC2" width="25.999" height="8"/>
			<circle fill="#B2BDC2" cx="164.218" cy="58.906" r="7"/>
		</g>
	</g>
	<g>
		<path fill="#FFFFFF" stroke="#B0BFC1" stroke-width="1" stroke-miterlimit="10" d="M210.751,300.863
			c0,3.131-2.538,5.669-5.669,5.669H11.419c-3.131,0-5.669-2.538-5.669-5.669V85.701c0-3.132,2.538-5.67,5.669-5.67h193.663
			c3.131,0,5.669,2.538,5.669,5.67V300.863z"/>
		<rect x="13.75" y="106.031" fill="#4D9B9D" width="23" height="23"/>
		<rect x="42.75" y="106.031" fill="#BCC3C8" width="64" height="9.5"/>
		<rect x="42.75" y="120.531" fill="#DADEE2" width="40.612" height="5.25"/>
		<rect x="12.5" y="138.031" fill="#BCC3C8" width="187.751" height="8.751"/>
		<rect x="12.5" y="149.782" fill="#BCC3C8" width="122.25" height="8.75"/>
		<rect x="18.75" y="271.532" fill="#BCC4CA" width="63.5" height="9.25"/>
		<rect x="18.75" y="286.782" fill="#BCC4CA" width="40" height="4.75"/>
		<rect x="140" y="271.501" fill="none" stroke="#BEC5CB" stroke-width="1" stroke-miterlimit="10" width="54.75" height="20"/>
		<rect x="145.75" y="276.188" fill="#BEC5CB" width="43.25" height="10.625"/>
		<rect x="12.5" y="164.782" fill="#3A474F" width="191.001" height="100.75"/>
	</g>
	<g>
		<rect x="0.67" y="353.033" fill="#FFFFFF" width="216.001" height="29.5"/>
		<g>
			<circle fill="#B1C5D2" cx="22.51" cy="367.783" r="7"/>
			<circle fill="#B1C5D2" cx="65.59" cy="367.783" r="7"/>
			<circle fill="#B1C5D2" cx="108.67" cy="367.783" r="7"/>
			<circle fill="#B1C5D2" cx="151.751" cy="367.783" r="7"/>
			<circle fill="#B1C5D2" cx="194.831" cy="367.783" r="7"/>
		</g>
	</g>
</g>
</svg>
