<?xml version="1.0" encoding="utf-8"?>
<!-- Generator: Adobe Illustrator 16.0.3, SVG Export Plug-In . SVG Version: 6.00 Build 0)  -->
<!DOCTYPE svg PUBLIC "-//W3C//DTD SVG 1.1//EN" "http://www.w3.org/Graphics/SVG/1.1/DTD/svg11.dtd">
<svg version="1.1" id="圖層_1" xmlns="http://www.w3.org/2000/svg" xmlns:xlink="http://www.w3.org/1999/xlink" x="0px" y="0px"
	 width="800px" height="500px" viewBox="0 0 800 500" enable-background="new 0 0 800 500" xml:space="preserve">
<path fill="#FFF652" d="M678.27,80.402L663.635,7.922l-69.482,25.291l24.638,13.821c-219.859,246.449-517.06,379.187-517.06,379.187
	C437.555,310.044,626.964,99.323,654.527,67.083L678.27,80.402z"/>
<path fill="#FFF652" d="M106,458.032c0-1.358-0.974-3.032-3.014-3.032H69.978c-2.041,0-2.979,1.674-2.979,3.032v30.709
	c0,1.359,0.938,3.259,2.979,3.259h33.008c2.04,0,3.014-1.898,3.014-3.259V458.032z"/>
<path fill="#FFF652" d="M177,440.65c0-1.361-1.13-2.649-3.17-2.649h-33.009c-2.04,0-3.821,1.288-3.821,2.649v48.092
	c0,1.359,1.781,3.259,3.821,3.259h33.009c2.04,0,3.17-1.898,3.17-3.259V440.65z"/>
<path fill="#FFF652" d="M249,423.268c0-1.36-2.288-3.268-4.328-3.268h-33.008c-2.04,0-3.664,1.906-3.664,3.268v65.475
	c0,1.359,1.624,3.259,3.664,3.259h33.008c2.04,0,4.328-1.898,4.328-3.259V423.268z"/>
<path fill="#FFF652" d="M319,397.192c0-1.36-2.429-2.191-4.469-2.191h-33.009c-2.04,0-3.522,0.831-3.522,2.191v91.55
	c0,1.359,1.482,3.259,3.522,3.259h33.009c2.04,0,4.469-1.898,4.469-3.259V397.192z"/>
<path fill="#FFF652" d="M389,362.425c0-1.361-1.586-2.425-3.626-2.425h-33.008c-2.04,0-3.366,1.063-3.366,2.425v126.316
	c0,1.359,1.326,3.259,3.366,3.259h33.008c2.041,0,3.626-1.898,3.626-3.259V362.425z"/>
<path fill="#FFF652" d="M460,327.657c0-1.359-1.742-2.657-3.782-2.657H423.21c-2.04,0-3.21,1.298-3.21,2.657v161.084
	c0,1.359,1.17,3.259,3.21,3.259h33.008c2.04,0,3.782-1.898,3.782-3.259V327.657z"/>
<path fill="#FFF652" d="M531,284.2c0-1.361-1.898-3.2-3.938-3.2h-33.01c-2.039,0-4.053,1.839-4.053,3.2v204.541
	c0,1.359,2.014,3.259,4.053,3.259h33.01c2.039,0,3.938-1.898,3.938-3.259V284.2z"/>
<path fill="#FFF652" d="M601,240.74c0-1.359-1.058-2.739-3.096-2.739h-33.01c-2.039,0-4.896,1.38-4.896,2.739v248.002
	c0,1.359,2.855,3.259,4.896,3.259h33.01c2.038,0,3.096-1.898,3.096-3.259V240.74z"/>
<path fill="#FFF652" d="M672,197.281c0-1.359-1.215-2.281-3.252-2.281h-33.011c-2.038,0-3.737,0.922-3.737,2.281v291.46
	c0,1.359,1.699,3.259,3.737,3.259h33.011c2.037,0,3.252-1.898,3.252-3.259V197.281z"/>
<path fill="#FFF652" d="M742,131.239c0-1.36-1.354-2.238-3.395-2.238h-33.01c-2.038,0-2.597,0.878-2.597,2.238v357.503
	c0,1.359,0.559,3.259,2.597,3.259h33.01c2.04,0,3.395-1.898,3.395-3.259V131.239z"/>
</svg>
