<?xml version="1.0" encoding="utf-8"?>
<!-- Generator: Adobe Illustrator 16.0.3, SVG Export Plug-In . SVG Version: 6.00 Build 0)  -->
<!DOCTYPE svg PUBLIC "-//W3C//DTD SVG 1.1//EN" "http://www.w3.org/Graphics/SVG/1.1/DTD/svg11.dtd">
<svg version="1.1" id="圖層_1" xmlns="http://www.w3.org/2000/svg" xmlns:xlink="http://www.w3.org/1999/xlink" x="0px" y="0px"
	 width="800px" height="500px" viewBox="0 0 800 500" enable-background="new 0 0 800 500" xml:space="preserve">
<path fill="#E04127" d="M678.27,80.402L663.635,7.922l-69.482,25.291l24.638,13.821c-219.86,246.45-517.06,379.187-517.06,379.187
	C437.555,310.044,626.963,99.323,654.527,67.083L678.27,80.402z"/>
<path fill="#E04127" d="M106,458.033c0-1.359-0.974-3.033-3.014-3.033H69.978c-2.041,0-2.978,1.674-2.978,3.033v30.709
	c0,1.359,0.938,3.258,2.978,3.258h33.008c2.04,0,3.014-1.898,3.014-3.258V458.033z"/>
<path fill="#E04127" d="M177,440.65c0-1.361-1.13-2.65-3.17-2.65h-33.009c-2.04,0-3.821,1.289-3.821,2.65v48.092
	c0,1.359,1.781,3.258,3.821,3.258h33.009c2.04,0,3.17-1.898,3.17-3.258V440.65z"/>
<path fill="#E04127" d="M249,423.268c0-1.36-2.288-3.268-4.328-3.268h-33.008c-2.04,0-3.664,1.907-3.664,3.268v65.475
	c0,1.359,1.624,3.258,3.664,3.258h33.008c2.04,0,4.328-1.898,4.328-3.258V423.268z"/>
<path fill="#E04127" d="M319,397.192c0-1.36-2.429-2.192-4.469-2.192h-33.009c-2.04,0-3.522,0.832-3.522,2.192v91.55
	c0,1.359,1.482,3.258,3.522,3.258h33.009c2.04,0,4.469-1.898,4.469-3.258V397.192z"/>
<path fill="#E04127" d="M389,362.425c0-1.361-1.586-2.425-3.626-2.425h-33.008c-2.04,0-3.366,1.063-3.366,2.425v126.317
	c0,1.359,1.326,3.258,3.366,3.258h33.008c2.041,0,3.626-1.898,3.626-3.258V362.425z"/>
<path fill="#E04127" d="M460,327.658c0-1.36-1.743-2.658-3.783-2.658h-33.008c-2.04,0-3.209,1.298-3.209,2.658v161.084
	c0,1.359,1.169,3.258,3.209,3.258h33.008c2.04,0,3.783-1.898,3.783-3.258V327.658z"/>
<path fill="#E04127" d="M531,284.2c0-1.361-1.899-3.2-3.938-3.2h-33.01c-2.039,0-4.052,1.839-4.052,3.2v204.542
	c0,1.359,2.013,3.258,4.052,3.258h33.01c2.039,0,3.938-1.898,3.938-3.258V284.2z"/>
<path fill="#E04127" d="M601,240.74c0-1.36-1.058-2.74-3.096-2.74h-33.01c-2.039,0-4.895,1.38-4.895,2.74v248.002
	c0,1.359,2.855,3.258,4.895,3.258h33.01c2.038,0,3.096-1.898,3.096-3.258V240.74z"/>
<path fill="#E04127" d="M672,197.282c0-1.36-1.215-2.282-3.252-2.282h-33.011c-2.038,0-3.737,0.922-3.737,2.282v291.46
	c0,1.359,1.699,3.258,3.737,3.258h33.011c2.037,0,3.252-1.898,3.252-3.258V197.282z"/>
<path fill="#E04127" d="M742,131.239c0-1.361-1.354-2.239-3.395-2.239h-33.01c-2.038,0-2.596,0.878-2.596,2.239v357.503
	c0,1.359,0.558,3.258,2.596,3.258h33.01c2.04,0,3.395-1.898,3.395-3.258V131.239z"/>
</svg>
