<?xml version="1.0" encoding="utf-8"?>
<!-- Generator: Adobe Illustrator 16.0.3, SVG Export Plug-In . SVG Version: 6.00 Build 0)  -->
<!DOCTYPE svg PUBLIC "-//W3C//DTD SVG 1.1//EN" "http://www.w3.org/Graphics/SVG/1.1/DTD/svg11.dtd">
<svg version="1.1" id="man" xmlns="http://www.w3.org/2000/svg" xmlns:xlink="http://www.w3.org/1999/xlink" x="0px" y="0px"
	 width="390px" height="350px" viewBox="0 0 390 350" enable-background="new 0 0 390 350" xml:space="preserve">
<g>
	<rect fill="none" width="130" height="350"/>
	<g>
		<path fill="#6ACFC4" d="M65,70.684c18.764,0,33.969-15.214,33.969-33.964C98.969,17.951,83.764,2.747,65,2.747
			c-18.759,0-33.969,15.204-33.969,33.973C31.031,55.47,46.241,70.684,65,70.684z"/>
		<path fill="#6ACFC4" d="M125.326,113.421C123.824,75.738,99.58,76.515,99.58,76.515L65,76.514l-34.579,0.001
			c0,0-24.245-0.776-25.748,36.906c-0.045,0.394-0.073,0.792-0.073,1.198v2.537v4.12v97.285c0,5.803,4.704,10.508,10.507,10.508
			c5.804,0,10.508-4.705,10.508-10.508v-97.285h3.313v85.402v13.68v111.113c0,8.715,7.066,15.781,15.783,15.781
			s15.783-7.066,15.783-15.781V220.358H65h4.508v111.113c0,8.715,7.064,15.781,15.781,15.781s15.783-7.066,15.783-15.781V220.358
			v-13.68v-85.402h3.313v97.285c0,5.803,4.705,10.508,10.508,10.508s10.508-4.705,10.508-10.508v-97.285v-4.12v-2.537
			C125.4,114.213,125.371,113.814,125.326,113.421z"/>
		<g>
			<g>
				<circle fill="#F0F0F0" cx="48.522" cy="28.751" r="4.119"/>
				<circle fill="#F0F0F0" cx="81.479" cy="28.751" r="4.119"/>
			</g>
		</g>
	</g>
</g>
<g>
	<rect x="260" fill="none" width="130" height="350"/>
	<g>
		<g>
			<path fill="#43BDB0" d="M325,70.684c18.765,0,33.969-15.214,33.969-33.964c0-18.769-15.204-33.973-33.969-33.973
				c-18.759,0-33.969,15.204-33.969,33.973C291.031,55.47,306.241,70.684,325,70.684z"/>
			<path fill="#1CAB9C" d="M325,73.43c-20.244,0-36.715-16.468-36.715-36.71C288.285,16.473,304.756,0,325,0
				c20.245,0,36.715,16.473,36.715,36.72C361.715,56.962,345.245,73.43,325,73.43z M325,5.493
				c-17.216,0-31.223,14.009-31.223,31.227c0,17.213,14.007,31.218,31.223,31.218s31.222-14.005,31.222-31.218
				C356.222,19.502,342.216,5.493,325,5.493z"/>
		</g>
		<g>
			<path fill="#43BDB0" d="M385.327,113.421c-1.503-37.683-25.748-36.906-25.748-36.906L325,76.514l-34.579,0.001
				c0,0-24.244-0.776-25.747,36.906c-0.045,0.394-0.074,0.792-0.074,1.198v2.537v4.12v97.286c0,5.803,4.705,10.508,10.508,10.508
				s10.508-4.705,10.508-10.508v-97.286h3.313v85.403v13.68v111.112c0,8.716,7.066,15.782,15.783,15.782s15.782-7.066,15.782-15.782
				V220.359H325h4.507v111.112c0,8.716,7.066,15.782,15.783,15.782s15.783-7.066,15.783-15.782V220.359v-13.68v-85.403h3.313v97.286
				c0,5.803,4.704,10.508,10.508,10.508c5.803,0,10.507-4.705,10.507-10.508v-97.286v-4.12v-2.537
				C385.4,114.213,385.372,113.814,385.327,113.421z"/>
			<path fill="#1CAB9C" d="M345.29,350c-10.217,0-18.529-8.312-18.529-18.528V223.106h-3.521v108.365
				c0,10.217-8.313,18.528-18.529,18.528s-18.529-8.312-18.529-18.528V225.838c-2.373,3.599-6.451,5.979-11.074,5.979
				c-7.309,0-13.254-5.945-13.254-13.254V114.619c0-0.447,0.026-0.908,0.08-1.405c0.651-15.919,5.274-27.352,13.741-33.98
				c6.646-5.202,13.356-5.466,14.635-5.466c0.063,0,0.111,0,0.145,0.001L325,73.768l34.547,0.001
				c0.033-0.001,0.081-0.001,0.144-0.001c1.278,0,7.991,0.264,14.637,5.467c8.466,6.629,13.088,18.061,13.74,33.979
				c0.053,0.497,0.079,0.958,0.079,1.405v103.943c0,7.309-5.945,13.254-13.253,13.254c-4.624,0-8.702-2.38-11.074-5.979v105.634
				C363.819,341.688,355.507,350,345.29,350z M320.493,217.613h9.014c1.517,0,2.746,1.229,2.746,2.746v111.112
				c0,7.188,5.849,13.036,13.037,13.036s13.036-5.849,13.036-13.036V121.276c0-1.518,1.229-2.747,2.747-2.747h3.313
				c1.517,0,2.746,1.229,2.746,2.747v97.286c0,4.279,3.481,7.761,7.762,7.761c4.279,0,7.761-3.481,7.761-7.761V114.619
				c0-0.269-0.019-0.56-0.056-0.888c-0.008-0.067-0.013-0.135-0.016-0.201c-0.563-14.083-4.588-24.447-11.643-29.972
				c-5.336-4.178-10.66-4.299-11.25-4.299c-0.029,0.002-0.082,0.002-0.111,0.002L325,79.26l-34.579,0.002
				c-0.029,0-0.059-0.001-0.088-0.002c-0.612,0-5.937,0.121-11.272,4.299c-7.055,5.523-11.081,15.887-11.643,29.972
				c-0.003,0.066-0.008,0.134-0.016,0.201c-0.037,0.328-0.056,0.619-0.056,0.888v103.943c0,4.279,3.481,7.761,7.761,7.761
				s7.762-3.481,7.762-7.761v-97.286c0-1.518,1.229-2.747,2.746-2.747h3.313c1.517,0,2.746,1.229,2.746,2.747v210.195
				c0,7.188,5.848,13.036,13.037,13.036c7.188,0,13.036-5.849,13.036-13.036V220.359
				C317.747,218.843,318.977,217.613,320.493,217.613z"/>
		</g>
		<g>
			<g>
				<circle fill="#C8C8C8" cx="308.522" cy="28.751" r="4.12"/>
				<circle fill="#C8C8C8" cx="341.478" cy="28.751" r="4.12"/>
			</g>
		</g>
	</g>
</g>
<g>
	<rect x="130" fill="none" width="130" height="350"/>
	<g>
		<path fill="#6ACFC4" d="M195,70.851c18.81,0,34.052-15.251,34.052-34.048c0-18.814-15.242-34.057-34.052-34.057
			c-18.805,0-34.053,15.242-34.053,34.057C160.948,55.6,176.196,70.851,195,70.851z"/>
		<path fill="#6ACFC4" d="M255.447,213.015c0,0,0-70.002,0-104.31c0-22.299-14.281-29.938-24.285-31.981l0,0h-6.885
			c-1.639-0.062-2.67,0-2.67,0h-53.205c0,0-1.041-0.062-2.676,0h-6.889l0,0c-10.004,2.044-24.286,9.688-24.286,31.981
			c0,34.308,0,104.31,0,104.31s-1.797,16.233,9.74,16.233c10.198,0,11.124-2.062,11.124-17.158c0-7.876,0-90.403,0-90.403h3.422
			v96.649v2.56v110.525c0,8.749,7.089,15.833,15.828,15.833c8.748,0,15.841-7.084,15.841-15.833V220.896h8.969v110.525
			c0,8.749,7.088,15.833,15.826,15.833c8.75,0,15.838-7.084,15.838-15.833V220.896h0.021v-99.209h3.422c0,0,0,82.527,0,90.403
			c0,15.097,0.926,17.158,11.129,17.158C257.244,229.248,255.447,213.015,255.447,213.015z"/>
		<g>
			<g>
				<circle fill="#F0F0F0" cx="178.482" cy="28.814" r="4.13"/>
				<circle fill="#F0F0F0" cx="211.519" cy="28.814" r="4.13"/>
			</g>
			<path fill="#F0F0F0" d="M176.491,44.313h37.019c0,0-6.563,13.216-18.509,13.216C183.053,57.528,176.491,44.313,176.491,44.313z"
				/>
		</g>
	</g>
</g>
</svg>
