<?xml version="1.0" encoding="utf-8"?>
<!-- Generator: Adobe Illustrator 16.0.3, SVG Export Plug-In . SVG Version: 6.00 Build 0)  -->
<!DOCTYPE svg PUBLIC "-//W3C//DTD SVG 1.1//EN" "http://www.w3.org/Graphics/SVG/1.1/DTD/svg11.dtd">
<svg version="1.1" id="圖層_1" xmlns="http://www.w3.org/2000/svg" xmlns:xlink="http://www.w3.org/1999/xlink" x="0px" y="0px"
	 width="40px" height="40px" viewBox="0 0 40 40" enable-background="new 0 0 40 40" xml:space="preserve">
<path fill-rule="evenodd" clip-rule="evenodd" fill="#730082" d="M14.187,17.277c0-0.1,0-0.167,0-0.232c0-2.931-0.001-5.862,0-8.793
	c0.001-1.298,0.855-2.356,2.123-2.639c0.295-0.065,0.592-0.077,0.894-0.032c0.544,0.081,0.894,0.388,1.069,0.899
	c0.162,0.473,0.188,0.967,0.189,1.461c0.002,3.469,0.002,6.937,0.002,10.406c0,0.075,0,0.149,0,0.255
	c0.349-0.14,0.681-0.272,1.013-0.406c0.098-0.04,0.059-0.129,0.059-0.196c0.007-0.994,0.005-1.987,0.018-2.981
	c0.005-0.388,0.062-0.771,0.207-1.136c0.193-0.488,0.558-0.755,1.071-0.822c0.837-0.109,1.369,0.217,1.655,1.01
	c0.184,0.506,0.234,1.034,0.246,1.565c0.015,0.619,0.013,1.237,0.005,1.856c-0.002,0.146,0.049,0.208,0.182,0.246
	c0.251,0.073,0.5,0.155,0.746,0.246c0.132,0.049,0.157,0.014,0.156-0.116c-0.004-0.6-0.021-1.2,0.079-1.795
	c0.073-0.44,0.188-0.868,0.455-1.235c0.46-0.632,1.123-0.783,1.847-0.712c1.022,0.1,1.585,0.688,1.785,1.808
	c0.098,0.55,0.115,1.104,0.112,1.662c-0.002,0.575-0.001,1.15,0,1.725c0,0.065-0.017,0.134,0.065,0.177
	c0.337,0.176,0.649,0.393,0.958,0.612c0.067-0.048,0.038-0.109,0.041-0.159c0.039-0.736-0.084-1.456-0.218-2.176
	c-0.055-0.294-0.092-0.593-0.059-0.894c0.038-0.346,0.217-0.565,0.561-0.601c1.046-0.11,1.862,0.307,2.467,1.146
	c0.314,0.437,0.461,0.939,0.462,1.478c0.002,2.862,0,5.725,0.001,8.587c0,0.201-0.01,0.403-0.074,0.593
	c-0.215,0.631-0.336,1.29-0.575,1.914c-0.768,2.003-2.197,3.309-4.234,3.924c-1.908,0.576-3.852,0.714-5.808,0.245
	c-1.615-0.388-2.989-1.232-4.22-2.325c-1.453-1.289-2.598-2.831-3.646-4.451c-0.915-1.416-1.709-2.904-2.601-4.333
	c-0.769-1.234-1.553-2.459-2.221-3.753c-0.5-0.972-0.969-1.957-1.24-3.022c-0.084-0.333-0.139-0.672-0.13-1.018
	c0.019-0.731,0.414-1.135,1.145-1.151c0.55-0.012,1.059,0.156,1.55,0.382c1.024,0.47,1.92,1.137,2.783,1.851
	C13.459,16.637,13.804,16.946,14.187,17.277z"/>
</svg>
