<?xml version="1.0" encoding="utf-8"?>
<!-- Generator: Adobe Illustrator 16.0.3, SVG Export Plug-In . SVG Version: 6.00 Build 0)  -->
<!DOCTYPE svg PUBLIC "-//W3C//DTD SVG 1.1//EN" "http://www.w3.org/Graphics/SVG/1.1/DTD/svg11.dtd">
<svg version="1.1" id="mood" xmlns="http://www.w3.org/2000/svg" xmlns:xlink="http://www.w3.org/1999/xlink" x="0px" y="0px"
	 width="200px" height="600px" viewBox="0 0 200 600" enable-background="new 0 0 200 600" xml:space="preserve">
<g>
	<rect y="0" fill="none" width="200" height="200"/>
	<g>
		<path fill="#F0F0F0" d="M112.14,191.179c0,0-6.06-5.971-13.528-15.792c-15.867-0.283-31.769-5.576-45.171-16.187
			C20.966,133.487,15.485,86.318,41.197,53.844C66.909,21.368,114.079,15.886,146.555,41.6
			c32.474,25.712,37.955,72.881,12.243,105.356c-12.166,15.365-29.132,24.681-47.073,27.518
			C111.231,180.365,108.735,188.484,112.14,191.179z"/>
		<g>
			<g id="g4190_1_">
				<path id="path3_1_" fill="#2AC6D1" d="M122.488,71.195c-8.289-2.456-10.893,2.197-22.486,2.197
					c-11.597,0-14.201-4.671-22.491-2.197c-8.291,2.456-12.427,11.151-16.34,27.474c-3.916,16.341-3.195,28.14,1.421,30.336
					c4.616,2.196,9.823-2.843,14.79-9.065c4.024-4.874,6.037-5.188,22.62-5.188c16.559,0,18.277,0.128,22.617,5.188
					c4.967,6.224,10.172,11.262,14.789,9.065c4.615-2.196,5.336-13.995,1.422-30.336C134.916,82.346,130.762,73.668,122.488,71.195z
					 M76.404,101.401c-4.008,0-7.256-3.269-7.256-7.313c0-4.023,3.248-7.31,7.256-7.31c4.006,0,7.256,3.285,7.256,7.31
					C83.66,98.114,80.41,101.401,76.404,101.401z M109.914,97.69c-1.957,0-3.564-1.606-3.564-3.582s1.607-3.582,3.564-3.582
					c1.977,0,3.582,1.606,3.582,3.582C113.479,96.083,111.891,97.69,109.914,97.69z M117.707,105.519
					c-1.957,0-3.564-1.607-3.564-3.582c0-1.994,1.607-3.582,3.564-3.582c1.977,0,3.582,1.604,3.582,3.582
					C121.289,103.931,119.684,105.519,117.707,105.519z M117.707,89.844c-1.957,0-3.564-1.606-3.564-3.582
					c0-1.978,1.607-3.582,3.564-3.582c1.977,0,3.582,1.604,3.582,3.582C121.289,88.237,119.684,89.844,117.707,89.844z
					 M125.518,97.69c-1.977,0-3.563-1.606-3.563-3.582s1.604-3.582,3.563-3.582c1.957,0,3.563,1.606,3.563,3.582
					C129.08,96.083,127.492,97.69,125.518,97.69L125.518,97.69z"/>
			</g>
		</g>
	</g>
</g>
<g>
	<rect y="400" fill="none" width="200" height="200"/>
	<g>
		<path fill="#F0F0F0" d="M44.324,550.796C32.018,537.434,24.5,519.599,24.5,500c0-41.421,33.578-75,75-75s75,33.579,75,75
			c0,41.423-33.578,75-75,75c-17.093,0-32.848-5.722-45.461-15.349c-11.952,3.064-20.409,3.982-20.409,3.982
			C37.97,563.635,41.052,555.721,44.324,550.796z"/>
		<g>
			<path fill="#E23939" d="M114.131,468.897c-5.65,0-10.738,2.517-14.301,6.535c-3.562-4.02-8.651-6.535-14.302-6.535
				c-10.774,0-19.509,9.144-19.509,20.423c0,3.031,0.511,5.947,1.407,8.732c0,0,0.812,2.512,1.532,3.895
				c8.224,17.687,30.872,29.154,30.872,29.154s22.648-11.469,30.872-29.154c0,0,1.062-2.354,1.53-3.895
				c0.855-2.799,1.408-5.701,1.408-8.732C133.641,478.041,124.904,468.897,114.131,468.897z"/>
		</g>
	</g>
</g>
<g>
	<rect y="200" fill="none" width="200" height="200"/>
	<g>
		<path fill="#F0F0F0" d="M44.824,350.796C32.518,337.435,25,319.599,25,300c0-41.421,33.578-75,75-75s75,33.579,75,75
			c0,41.422-33.578,75-75,75c-17.093,0-32.848-5.721-45.461-15.35c-11.952,3.063-20.409,3.983-20.409,3.983
			C38.47,363.635,41.552,355.721,44.824,350.796z"/>
		<g>
			<path fill="#2AC6D1" d="M97.021,313.163c0.051,0.051,0.103,0.102,0.157,0.148c0.016,0.016,0.034,0.029,0.051,0.045
				c0.034,0.03,0.068,0.061,0.104,0.089c0.027,0.021,0.055,0.044,0.083,0.065c0.027,0.02,0.052,0.04,0.078,0.061
				c0.032,0.024,0.066,0.048,0.099,0.071c0.023,0.015,0.046,0.03,0.069,0.047c0.034,0.022,0.071,0.046,0.105,0.066
				c0.022,0.016,0.045,0.028,0.067,0.043c0.035,0.021,0.071,0.04,0.107,0.063c0.024,0.013,0.048,0.027,0.073,0.04
				c0.034,0.018,0.068,0.036,0.103,0.053c0.027,0.016,0.055,0.028,0.082,0.041c0.033,0.016,0.065,0.029,0.097,0.043
				c0.032,0.016,0.063,0.028,0.096,0.042c0.027,0.012,0.057,0.022,0.085,0.033c0.036,0.015,0.073,0.028,0.108,0.042
				c0.026,0.009,0.051,0.017,0.076,0.025c0.041,0.014,0.082,0.025,0.123,0.039c0.022,0.007,0.045,0.013,0.067,0.02
				c0.043,0.012,0.087,0.024,0.131,0.035c0.021,0.005,0.043,0.01,0.065,0.016c0.044,0.01,0.09,0.021,0.136,0.028
				c0.021,0.005,0.044,0.009,0.067,0.013c0.043,0.008,0.089,0.017,0.133,0.022c0.026,0.005,0.052,0.007,0.078,0.01
				c0.042,0.006,0.083,0.011,0.125,0.016c0.035,0.003,0.071,0.007,0.107,0.009c0.032,0.002,0.065,0.005,0.098,0.007
				c0.069,0.004,0.138,0.006,0.208,0.006s0.139-0.002,0.208-0.006c0.033-0.002,0.065-0.004,0.098-0.007
				c0.036-0.003,0.071-0.006,0.107-0.009c0.041-0.005,0.083-0.01,0.124-0.016c0.026-0.003,0.053-0.005,0.08-0.01
				c0.044-0.007,0.089-0.015,0.132-0.022c0.023-0.004,0.046-0.008,0.068-0.013c0.045-0.008,0.088-0.02,0.134-0.028
				c0.022-0.006,0.045-0.011,0.067-0.016c0.043-0.011,0.084-0.023,0.127-0.035c0.024-0.006,0.047-0.013,0.071-0.02
				c0.039-0.014,0.078-0.025,0.118-0.038c0.025-0.011,0.055-0.019,0.08-0.027c0.036-0.012,0.068-0.026,0.104-0.039
				c0.031-0.012,0.062-0.023,0.09-0.036c0.031-0.013,0.062-0.024,0.092-0.039c0.033-0.015,0.066-0.03,0.101-0.046
				c0.027-0.012,0.052-0.023,0.076-0.037c0.037-0.019,0.074-0.037,0.11-0.057c0.021-0.012,0.043-0.024,0.064-0.037
				c0.038-0.021,0.076-0.042,0.114-0.065c0.021-0.012,0.04-0.023,0.06-0.036c0.037-0.022,0.076-0.048,0.113-0.073
				c0.021-0.014,0.041-0.027,0.059-0.04c0.037-0.025,0.072-0.051,0.108-0.077c0.022-0.017,0.045-0.035,0.065-0.052
				c0.033-0.024,0.063-0.048,0.096-0.073c0.029-0.024,0.059-0.051,0.086-0.074c0.023-0.021,0.047-0.04,0.068-0.061
				c0.053-0.048,0.104-0.097,0.154-0.146l14.637-14.638c1.643-1.645,1.643-4.307,0-5.949c-1.645-1.644-4.307-1.644-5.949,0
				l-7.457,7.457v-35.54c0-2.323-1.883-4.207-4.207-4.207s-4.207,1.884-4.207,4.207v35.54l-7.458-7.457
				c-1.642-1.644-4.305-1.644-5.949,0c-1.643,1.644-1.643,4.307,0,5.949L97.021,313.163z"/>
			<path fill="#2AC6D1" d="M134.586,307.078c-2.699,0-4.887,2.188-4.887,4.887v7.746H70.301v-7.746c0-2.698-2.188-4.887-4.887-4.887
				c-2.698,0-4.887,2.188-4.887,4.887v12.634c0,2.698,2.188,4.887,4.887,4.887h69.172c2.698,0,4.887-2.188,4.887-4.887v-12.634
				C139.473,309.266,137.284,307.078,134.586,307.078z"/>
		</g>
	</g>
</g>
</svg>
