<?xml version="1.0" encoding="utf-8"?>
<!-- Generator: Adobe Illustrator 16.0.3, SVG Export Plug-In . SVG Version: 6.00 Build 0)  -->
<!DOCTYPE svg PUBLIC "-//W3C//DTD SVG 1.1//EN" "http://www.w3.org/Graphics/SVG/1.1/DTD/svg11.dtd">
<svg version="1.1" id="圖層_1" xmlns="http://www.w3.org/2000/svg" xmlns:xlink="http://www.w3.org/1999/xlink" x="0px" y="0px"
	 width="40px" height="40px" viewBox="0 0 40 40" enable-background="new 0 0 40 40" xml:space="preserve">
<g>
	<path fill-rule="evenodd" clip-rule="evenodd" fill="#730082" d="M19.987,29.913c-4.526,0-9.052-0.014-13.578,0.014
		c-0.767,0.005-1.849-0.96-1.84-1.841c0.04-4.092,0.018-8.185,0.018-12.277c0-0.644,0.14-0.731,0.715-0.431
		c3.368,1.755,6.736,3.513,10.103,5.27c0.997,0.52,1.989,1.05,2.992,1.557c1.069,0.541,2.159,0.551,3.221-0.001
		c4.345-2.257,8.683-4.526,13.024-6.791c0.147-0.077,0.291-0.161,0.459-0.187c0.18-0.028,0.285,0.05,0.312,0.224
		c0.015,0.098,0.014,0.199,0.014,0.299c0,4.132-0.001,8.265,0.003,12.397c0,0.322-0.089,0.603-0.271,0.859
		c-0.28,0.396-0.637,0.696-1.101,0.855c-0.14,0.048-0.287,0.053-0.434,0.053C29.079,29.913,24.533,29.913,19.987,29.913z"/>
	<path fill-rule="evenodd" clip-rule="evenodd" fill="#730082" d="M20.003,10.073c4.813,0,9.625,0,14.438,0
		c0.194,0,0.386,0.007,0.57,0.077c0.293,0.11,0.421,0.325,0.343,0.628c-0.142,0.553-0.517,0.921-1.002,1.183
		c-1.804,0.972-3.61,1.939-5.417,2.907c-2.427,1.302-4.848,2.615-7.285,3.899c-1.078,0.568-2.206,0.574-3.279,0.004
		c-4.23-2.248-8.446-4.521-12.668-6.783c-0.354-0.19-0.647-0.443-0.865-0.781c-0.086-0.135-0.153-0.279-0.184-0.439
		c-0.055-0.296,0.059-0.508,0.341-0.616c0.19-0.073,0.389-0.079,0.59-0.079C10.392,10.073,15.198,10.073,20.003,10.073z"/>
</g>
</svg>
