<?xml version="1.0" encoding="utf-8"?>
<!-- Generator: Adobe Illustrator 16.0.3, SVG Export Plug-In . SVG Version: 6.00 Build 0)  -->
<!DOCTYPE svg PUBLIC "-//W3C//DTD SVG 1.1//EN" "http://www.w3.org/Graphics/SVG/1.1/DTD/svg11.dtd">
<svg version="1.1" id="圖層_1" xmlns="http://www.w3.org/2000/svg" xmlns:xlink="http://www.w3.org/1999/xlink" x="0px" y="0px"
	 width="40px" height="40px" viewBox="0 0 40 40" enable-background="new 0 0 40 40" xml:space="preserve">
<g>
	<path fill-rule="evenodd" clip-rule="evenodd" fill="#730082" d="M15.774,25.617c0-1.684,0.001-3.367-0.003-5.051
		c0-0.129,0.025-0.168,0.162-0.168c2.937,0.004,5.874,0.004,8.811,0.001c0.128,0,0.17,0.026,0.17,0.163
		c-0.004,3.362-0.003,6.724,0,10.085c0,0.104-0.03,0.18-0.098,0.255c-1.468,1.623-2.935,3.247-4.396,4.875
		c-0.094,0.104-0.124,0.033-0.175-0.024c-1.021-1.13-2.043-2.261-3.065-3.392c-0.434-0.481-0.866-0.964-1.304-1.441
		c-0.073-0.08-0.104-0.158-0.104-0.267C15.776,28.973,15.775,27.295,15.774,25.617C15.775,25.617,15.774,25.617,15.774,25.617z"/>
	<path fill-rule="evenodd" clip-rule="evenodd" fill="#730082" d="M7.919,20.401c0.075,0,0.116,0,0.158,0
		c2.056,0,4.112,0,6.167-0.002c0.114,0,0.163,0.014,0.163,0.15c-0.004,3.288-0.003,6.575-0.003,9.863c0,0.031,0,0.061,0,0.092
		c-0.009,0.003-0.018,0.007-0.027,0.011C12.23,27.153,10.083,23.791,7.919,20.401z"/>
	<path fill-rule="evenodd" clip-rule="evenodd" fill="#730082" d="M26.281,30.489c0-0.051,0-0.103,0-0.154
		c0-3.25,0.001-6.5-0.004-9.75c0-0.157,0.042-0.189,0.193-0.188c2.008,0.005,4.015,0.004,6.022,0.004c0.051,0,0.103,0,0.185,0
		c-2.129,3.379-4.244,6.737-6.359,10.096C26.306,30.495,26.293,30.492,26.281,30.489z"/>
	<path fill-rule="evenodd" clip-rule="evenodd" fill="#730082" d="M12.58,14.224c2.14,0,4.251,0,6.388,0
		c-1.064,1.765-2.12,3.516-3.193,5.295C14.707,17.75,13.65,15.998,12.58,14.224z"/>
	<path fill-rule="evenodd" clip-rule="evenodd" fill="#730082" d="M24.909,19.519c-1.066-1.767-2.123-3.517-3.19-5.287
		c2.132,0,4.244,0,6.379,0C27.034,15.996,25.975,17.75,24.909,19.519z"/>
	<path fill-rule="evenodd" clip-rule="evenodd" fill="#730082" d="M29.476,14.221c1.069,1.773,2.125,3.524,3.189,5.287
		c-2.135,0-4.246,0-6.378,0C27.35,17.744,28.404,15.997,29.476,14.221z"/>
	<path fill-rule="evenodd" clip-rule="evenodd" fill="#730082" d="M23.536,19.516c-0.083,0-0.134,0-0.186,0
		c-2.002,0-4.004,0-6.006-0.001c-0.055,0-0.129,0.032-0.16-0.024c-0.026-0.047,0.035-0.093,0.061-0.137
		c0.999-1.658,1.999-3.315,2.999-4.972c0.03-0.048,0.062-0.096,0.101-0.156C21.408,15.989,22.462,17.737,23.536,19.516z"/>
	<path fill-rule="evenodd" clip-rule="evenodd" fill="#730082" d="M11.207,14.221c0.348,0.576,0.678,1.125,1.01,1.673
		c0.701,1.162,1.402,2.324,2.105,3.486c0.059,0.098,0.073,0.139-0.071,0.139c-2.039-0.003-4.078-0.002-6.117-0.003
		c-0.031,0-0.062-0.003-0.116-0.008C9.082,17.744,10.138,15.993,11.207,14.221z"/>
	<path fill-rule="evenodd" clip-rule="evenodd" fill="#730082" d="M34.66,10.095c0.027,0.022,0.052,0.042,0.074,0.063
		c0.321,0.318,0.639,0.637,0.961,0.953c0.047,0.046,0.062,0.08,0.004,0.125c-0.021,0.016-0.038,0.037-0.057,0.056
		c-1.201,1.194-2.403,2.387-3.601,3.587c-0.101,0.101-0.149,0.094-0.242-0.003c-0.287-0.298-0.583-0.588-0.881-0.877
		c-0.069-0.068-0.086-0.107-0.006-0.186c1.223-1.21,2.441-2.424,3.662-3.637C34.601,10.149,34.629,10.125,34.66,10.095z"/>
	<path fill-rule="evenodd" clip-rule="evenodd" fill="#730082" d="M9.148,13.877c-0.026,0.028-0.047,0.052-0.069,0.074
		c-0.312,0.312-0.625,0.621-0.934,0.936c-0.062,0.062-0.097,0.07-0.163,0.004c-1.223-1.226-2.447-2.45-3.674-3.671
		c-0.068-0.067-0.055-0.1,0.005-0.159c0.311-0.305,0.62-0.611,0.923-0.924c0.079-0.082,0.119-0.062,0.187,0.007
		c1.212,1.214,2.426,2.425,3.639,3.638C9.092,13.811,9.118,13.843,9.148,13.877z"/>
	<path fill-rule="evenodd" clip-rule="evenodd" fill="#730082" d="M12.101,5.7c0.079-0.011,0.077,0.061,0.095,0.103
		c0.237,0.55,0.471,1.101,0.706,1.651c0.432,1.014,0.861,2.028,1.3,3.039c0.061,0.141,0.026,0.186-0.101,0.237
		c-0.378,0.153-0.752,0.315-1.126,0.479c-0.094,0.041-0.14,0.042-0.186-0.068c-0.669-1.581-1.344-3.159-2.019-4.737
		c-0.028-0.065-0.061-0.118,0.041-0.159c0.417-0.171,0.83-0.352,1.244-0.527C12.07,5.712,12.084,5.707,12.101,5.7z"/>
	<path fill-rule="evenodd" clip-rule="evenodd" fill="#730082" d="M27.093,11.281c-0.029-0.012-0.054-0.021-0.079-0.032
		c-0.399-0.169-0.798-0.341-1.2-0.506c-0.089-0.037-0.106-0.069-0.067-0.161c0.682-1.581,1.36-3.163,2.036-4.746
		c0.04-0.094,0.075-0.1,0.161-0.062c0.398,0.173,0.797,0.344,1.2,0.507c0.104,0.042,0.1,0.085,0.063,0.174
		c-0.676,1.572-1.349,3.144-2.025,4.716C27.163,11.213,27.166,11.284,27.093,11.281z"/>
	<path fill-rule="evenodd" clip-rule="evenodd" fill="#730082" d="M19.527,6.879c0-0.849,0.002-1.698-0.002-2.547
		c0-0.117,0.018-0.165,0.151-0.162c0.419,0.01,0.839,0.006,1.258,0.002c0.096-0.001,0.137,0.015,0.137,0.126
		c-0.004,1.72-0.004,3.439,0,5.159c0,0.108-0.034,0.133-0.135,0.131c-0.424-0.005-0.85-0.007-1.273,0
		c-0.119,0.002-0.137-0.042-0.137-0.147C19.529,8.589,19.527,7.734,19.527,6.879z"/>
</g>
</svg>
