<?xml version="1.0" encoding="utf-8"?>
<!-- Generator: Adobe Illustrator 16.0.3, SVG Export Plug-In . SVG Version: 6.00 Build 0)  -->
<!DOCTYPE svg PUBLIC "-//W3C//DTD SVG 1.1//EN" "http://www.w3.org/Graphics/SVG/1.1/DTD/svg11.dtd">
<svg version="1.1" id="圖層_1" xmlns="http://www.w3.org/2000/svg" xmlns:xlink="http://www.w3.org/1999/xlink" x="0px" y="0px"
	 width="150px" height="450px" viewBox="0 0 150 450" enable-background="new 0 0 150 450" xml:space="preserve">
<rect fill="none" width="150" height="150"/>
<g>
	<g id="g4190_3_">
		<path id="path3_3_" fill="#FDF8F9" d="M102.039,40.917c-9.879-2.927-12.982,2.618-26.799,2.618
			c-13.818,0-16.92-5.566-26.799-2.618c-9.88,2.927-14.809,13.289-19.472,32.739c-4.665,19.471-3.807,33.532,1.693,36.149
			c5.501,2.617,11.705-3.388,17.624-10.803c4.796-5.809,7.194-6.183,26.953-6.183c19.734,0,21.783,0.154,26.953,6.183
			c5.918,7.415,12.123,13.42,17.623,10.803s6.359-16.679,1.695-36.149C116.848,54.207,111.896,43.866,102.039,40.917z
			 M47.121,76.914c-4.775,0-8.647-3.896-8.647-8.714c0-4.797,3.872-8.712,8.647-8.712c4.774,0,8.646,3.915,8.646,8.712
			S51.896,76.914,47.121,76.914z M87.055,72.491c-2.332,0-4.246-1.914-4.246-4.269s1.914-4.268,4.246-4.268
			c2.355,0,4.27,1.913,4.27,4.268C91.303,70.577,89.41,72.491,87.055,72.491z M96.34,81.821c-2.332,0-4.246-1.916-4.246-4.27
			c0-2.375,1.914-4.269,4.246-4.269c2.354,0,4.27,1.915,4.27,4.269C100.609,79.927,98.693,81.821,96.34,81.821z M96.34,63.14
			c-2.332,0-4.246-1.914-4.246-4.27c0-2.354,1.914-4.267,4.246-4.267c2.354,0,4.27,1.913,4.27,4.267
			C100.609,61.226,98.693,63.14,96.34,63.14z M105.646,72.491c-2.354,0-4.246-1.914-4.246-4.269s1.914-4.268,4.246-4.268
			c2.334,0,4.248,1.913,4.248,4.268S108.002,72.491,105.646,72.491L105.646,72.491z"/>
	</g>
</g>
<rect y="150" fill="none" width="150" height="150"/>
<g>
	<path fill="#FDF8F9" d="M72.141,243.275c0.051,0.051,0.103,0.102,0.157,0.148c0.016,0.016,0.034,0.029,0.051,0.045
		c0.034,0.031,0.068,0.061,0.104,0.09c0.027,0.021,0.055,0.043,0.083,0.064c0.027,0.02,0.052,0.041,0.078,0.061
		c0.032,0.025,0.066,0.049,0.099,0.072c0.023,0.014,0.046,0.029,0.069,0.047c0.034,0.021,0.071,0.045,0.105,0.066
		c0.022,0.016,0.045,0.027,0.067,0.043c0.035,0.021,0.071,0.039,0.107,0.063c0.024,0.012,0.048,0.027,0.073,0.039
		c0.034,0.018,0.068,0.037,0.103,0.053c0.027,0.016,0.055,0.029,0.082,0.041c0.033,0.016,0.065,0.029,0.097,0.043
		c0.032,0.016,0.063,0.029,0.096,0.043c0.027,0.012,0.057,0.021,0.085,0.033c0.036,0.014,0.073,0.027,0.108,0.041
		c0.026,0.01,0.051,0.018,0.076,0.025c0.041,0.014,0.082,0.025,0.123,0.039c0.022,0.008,0.045,0.014,0.067,0.02
		c0.043,0.012,0.087,0.025,0.131,0.035c0.021,0.006,0.043,0.01,0.065,0.016c0.044,0.01,0.09,0.021,0.136,0.029
		c0.021,0.004,0.044,0.008,0.067,0.012c0.043,0.008,0.089,0.018,0.133,0.023c0.026,0.004,0.052,0.006,0.078,0.01
		c0.042,0.006,0.083,0.01,0.125,0.016c0.035,0.002,0.071,0.006,0.107,0.008c0.032,0.002,0.065,0.006,0.098,0.008
		c0.069,0.004,0.138,0.006,0.208,0.006s0.139-0.002,0.208-0.006c0.033-0.002,0.065-0.004,0.098-0.008
		c0.036-0.002,0.071-0.006,0.107-0.008c0.041-0.006,0.083-0.01,0.124-0.016c0.026-0.004,0.053-0.006,0.08-0.01
		c0.044-0.008,0.089-0.016,0.132-0.023c0.023-0.004,0.046-0.008,0.068-0.012c0.045-0.008,0.088-0.02,0.134-0.029
		c0.022-0.006,0.045-0.01,0.067-0.016c0.043-0.01,0.084-0.023,0.127-0.035c0.024-0.006,0.047-0.012,0.071-0.02
		c0.039-0.014,0.078-0.025,0.118-0.037c0.025-0.012,0.055-0.02,0.08-0.027c0.036-0.012,0.068-0.027,0.104-0.039
		c0.031-0.012,0.062-0.023,0.09-0.037c0.031-0.012,0.062-0.023,0.092-0.039c0.033-0.014,0.066-0.029,0.101-0.045
		c0.027-0.012,0.052-0.023,0.076-0.037c0.037-0.02,0.074-0.037,0.11-0.057c0.021-0.012,0.043-0.025,0.064-0.037
		c0.038-0.021,0.076-0.043,0.114-0.066c0.021-0.012,0.04-0.023,0.06-0.035c0.037-0.023,0.076-0.049,0.113-0.074
		c0.021-0.014,0.041-0.027,0.059-0.039c0.037-0.025,0.072-0.051,0.108-0.078c0.022-0.016,0.045-0.035,0.065-0.051
		c0.033-0.025,0.063-0.049,0.096-0.074c0.029-0.023,0.059-0.051,0.086-0.074c0.023-0.02,0.047-0.039,0.068-0.061
		c0.053-0.047,0.104-0.096,0.154-0.145l14.637-14.639c1.643-1.645,1.643-4.307,0-5.949c-1.645-1.643-4.307-1.643-5.949,0
		l-7.457,7.457v-35.539c0-2.324-1.883-4.208-4.207-4.208s-4.207,1.883-4.207,4.208v35.539l-7.458-7.457
		c-1.642-1.643-4.305-1.643-5.949,0c-1.643,1.645-1.643,4.307,0,5.949L72.141,243.275z"/>
	<path fill="#FDF8F9" d="M109.706,237.191c-2.699,0-4.887,2.188-4.887,4.887v7.746H45.421v-7.746c0-2.699-2.188-4.887-4.887-4.887
		c-2.698,0-4.887,2.188-4.887,4.887v12.633c0,2.699,2.188,4.887,4.887,4.887h69.172c2.698,0,4.887-2.188,4.887-4.887v-12.633
		C114.593,239.379,112.404,237.191,109.706,237.191z"/>
</g>
<rect y="300" fill="none" width="150" height="150"/>
<path fill="#FDF8F9" d="M37.651,375.25c0-20.633,16.722-37.348,37.344-37.348c20.63,0,37.345,16.715,37.345,37.348
	c0,20.612-16.715,37.338-37.345,37.338C54.373,412.588,37.651,395.862,37.651,375.25z M56.88,361.961
	c-2.501,0-4.528,2.027-4.528,4.528s2.027,4.529,4.528,4.529c2.502,0,4.529-2.028,4.529-4.529S59.382,361.961,56.88,361.961z
	 M93.111,361.961c-2.502,0-4.529,2.027-4.529,4.528s2.027,4.529,4.529,4.529s4.529-2.028,4.529-4.529S95.613,361.961,93.111,361.961
	z M74.995,397.978c13.103,0,20.3-14.492,20.3-14.492H54.697C54.697,383.485,61.894,397.978,74.995,397.978z"/>
</svg>
