<svg version="1.1" id="c2p-logo" xmlns="http://www.w3.org/2000/svg" x="0px" y="0px"
	 width="590px" height="100px" viewBox="0 0 590 100" enable-background="new 0 0 590 100">
<g>
	<path fill="#000000" d="M231.235,9.545c-4.155-0.365-7.817,2.709-8.181,6.864l-5.041,57.624c-0.363,4.154,2.71,7.817,6.864,8.182
		c4.154,0.362,7.817-2.711,8.181-6.865h0l1.12-12.8l4.101-3.055c0,0,11.072,18.924,11.221,19.172
		c2.14,3.577,6.777,4.746,10.356,2.604c3.579-2.14,4.745-6.775,2.606-10.355c-0.001-0.003-0.004-0.005-0.005-0.008l0.04-0.025
		L250.464,50.42c0,0,13.403-9.924,13.623-10.088c3.344-2.491,4.037-7.221,1.546-10.566c-2.491-3.345-7.22-4.037-10.566-1.546
		c-0.003,0.002-19.094,13.826-19.094,13.826l2.127-24.319h-0.001C238.463,13.571,235.39,9.908,231.235,9.545z"/>
	<path fill="#000000" d="M323.684,37.439c-0.094,0.072-42.712,31.246-42.712,31.246c-3.366,2.462-4.099,7.187-1.638,10.553
		c2.121,2.9,5.918,3.84,9.083,2.473c0.509-0.22,1.004-0.493,1.47-0.835l0,0.001c0,0,47.577-34.817,48.003-35.174
		c5.145-4.288,8.425-10.735,8.425-17.957c0-3.905-0.962-7.584-2.656-10.82c-0.39-0.749-0.833-1.464-1.301-2.162
		c-2.012-3.004-4.689-5.524-7.838-7.325c-0.629-0.36-1.278-0.688-1.942-0.99c-0.121-0.055-1.02-0.435-1.351-0.562
		c-4.266-1.725-8.917-2.694-13.802-2.694c-12.573,0-23.671,6.283-30.347,15.875c-0.292,0.361-0.551,0.749-0.773,1.161
		c-0.11,0.203-0.212,0.412-0.303,0.625c-0.379,0.896-0.593,1.878-0.598,2.911c-0.018,4.172,3.348,7.567,7.518,7.586
		c2.222,0.01,4.22-0.947,5.608-2.47c0.354-0.387,7.326-8.475,11.266-10.929c0.188-0.123,4.419-1.924,6.632-1.924
		c6.592,0,11.935,5.344,11.935,11.937c0,1.296-0.208,2.543-0.592,3.711C327.016,33.989,325.572,35.99,323.684,37.439z"/>
	<path fill="#000000" d="M331.929,67.24c-0.002,0-0.005,0-0.007,0h-10.233l-20.641,15.103h30.811h0.063v-0.004
		c4.141-0.013,7.504-3.362,7.522-7.512C339.463,70.656,336.098,67.259,331.929,67.24z"/>
	<path fill="#000000" d="M189.923,39.204c3.848,0.119,7.166,1.927,9.308,4.711l0.371,0.515c1.229,1.898,3.282,3.231,5.708,3.442
		c4.179,0.366,7.863-2.725,8.228-6.903c0.017-0.191,0.025-0.381,0.028-0.569c0.016-1.324-0.315-2.582-0.908-3.684
		c-0.299-0.466-0.615-0.921-0.942-1.366c-0.123-0.142-0.253-0.275-0.386-0.408c-4.573-6.002-11.684-9.912-19.945-10.167
		C175.95,24.301,161.5,36.59,159.889,52.926c-1.69,17.142,11.404,30.519,28.306,29.182c6.739-0.533,12.846-3.348,17.67-7.573
		c0.069-0.054,0.142-0.103,0.209-0.158c0.028-0.023,0.056-0.05,0.084-0.073c0.179-0.16,0.347-0.327,0.522-0.491
		c1.161-1.2,1.934-2.79,2.091-4.582c0.363-4.156-2.71-7.818-6.865-8.183c-2.034-0.178-3.947,0.473-5.416,1.665
		c-0.05,0.043-0.101,0.085-0.151,0.124c-0.005,0.005-0.009,0.01-0.014,0.015l-0.011-0.015c-2.194,1.794-4.908,2.978-7.884,3.213
		c-7.912,0.626-14.044-5.637-13.253-13.661C175.931,44.735,182.698,38.982,189.923,39.204z"/>
	<circle fill="#000000" cx="147.544" cy="11.877" r="8.784"/>
	<path fill="#000000" d="M119.258,75.349l5.041-57.624c0.363-4.154-2.71-7.817-6.864-8.18c-4.155-0.364-7.817,2.709-8.181,6.864
		l-5.041,57.624c-0.364,4.154,2.71,7.818,6.864,8.182C115.232,82.576,118.895,79.503,119.258,75.349z"/>
	<path fill="#000000" d="M134.479,74.032c-0.363,4.154,2.709,7.818,6.865,8.182c4.154,0.362,7.816-2.71,8.181-6.865l3.809-42.42
		c0.363-4.154-2.71-7.816-6.864-8.181c-4.155-0.363-7.818,2.71-8.181,6.865L134.479,74.032z"/>
	<path fill="#000000" d="M471.151,82.263c4.64-0.407,8.996-2.378,12.71-5.421c0.859,2.883,3.397,5.094,6.576,5.372
		c4.154,0.362,7.816-2.71,8.181-6.865l3.81-42.42c0.363-4.154-2.71-7.816-6.864-8.181c-4.134-0.361-7.778,2.681-8.174,6.804
		c-3.254-2.906-7.317-4.705-11.894-4.927c-13.187-0.638-25.62,11.88-26.989,28.114C447.128,71.106,457.633,83.45,471.151,82.263z
		 M459.539,55.666c0.763-9.464,7.681-16.761,15.019-16.388c5.883,0.298,10.25,5.496,11.034,12.263l-0.716,7.997
		c-1.93,6.522-6.938,11.639-12.736,12.172C464.619,72.4,458.772,65.207,459.539,55.666z"/>
	<path fill="#000000" d="M555.721,25.703c-3.571-2.152-8.213-1.002-10.364,2.57l-11.41,19.023l-9.278-18.381
		c-1.854-3.735-6.386-5.261-10.12-3.409c-3.736,1.854-5.263,6.385-3.409,10.122L524.76,62.61l-13.705,22.848
		c-2.153,3.57-1.003,8.213,2.569,10.364c3.571,2.153,8.213,1.003,10.366-2.569l34.3-57.184
		C560.442,32.497,559.293,27.856,555.721,25.703z"/>
	<path fill="#000000" d="M438.088,75.449l5.675-64.148c0.363-4.154-2.71-7.817-6.864-8.18c-4.155-0.364-7.817,2.709-8.182,6.864
		l-5.673,64.147c-0.364,4.154,2.71,7.816,6.863,8.181C434.063,82.678,437.726,79.603,438.088,75.449z"/>
	<path fill="#000000" d="M395.973,9.517l-21.952-0.004V9.55c-3.591,0.304-6.552,3.146-6.878,6.858l-5.041,57.624
		c-0.363,4.155,2.71,7.818,6.864,8.182c4.155,0.362,7.817-2.71,8.181-6.863l0,0l1.546-17.673l13.211,0.002
		c13.287-0.034,25.053-10.759,26.219-24.051c1.163-13.268-8.76-24.027-22.003-24.108V9.517H395.973z M403.22,33.626
		c-0.444,5.085-4.848,8.952-9.933,8.952l-13.272-0.002l1.571-17.958l13.208,0.003C399.882,24.621,403.667,28.539,403.22,33.626z"/>
	<path fill="#000000" d="M391.847,57.681h0.056V57.68c-0.021,0-0.042,0.001-0.063,0.001H391.847z"/>
	<path fill="#000000" d="M96.023,22.831c-0.192-0.287-0.405-0.559-0.634-0.816c-5.787-7.298-14.599-12.027-24.801-12.34
		C51.095,9.077,32.845,24.597,30.811,45.229c-2.135,21.648,14.402,38.542,35.749,36.854c8.619-0.682,16.422-4.313,22.549-9.764
		l-0.011-0.012c1.719-1.241,2.911-3.188,3.11-5.463c0.363-4.155-2.709-7.817-6.865-8.182c-2.289-0.199-4.425,0.647-5.946,2.14
		l-0.003-0.003c-3.346,2.779-8.353,6.082-12.891,6.447c-12.066,0.971-21.416-8.741-20.21-21.187
		c1.15-11.867,11.449-21.643,22.468-21.298c5.867,0.185,10.943,1.434,14.209,5.751l0.532,0.752c0.022,0.032,0.045,0.064,0.069,0.097
		l0.088,0.125l0.004-0.003c1.242,1.692,3.172,2.866,5.427,3.063c4.155,0.363,7.817-2.71,8.181-6.864
		c0.15-1.714-0.292-3.339-1.147-4.689l0.018-0.011C96.104,22.93,96.062,22.882,96.023,22.831z"/>
</g>
</svg>
