<?xml version="1.0" encoding="utf-8"?>
<!-- Generator: Adobe Illustrator 16.0.3, SVG Export Plug-In . SVG Version: 6.00 Build 0)  -->
<!DOCTYPE svg PUBLIC "-//W3C//DTD SVG 1.1//EN" "http://www.w3.org/Graphics/SVG/1.1/DTD/svg11.dtd">
<svg version="1.1" id="圖層_2" xmlns="http://www.w3.org/2000/svg" xmlns:xlink="http://www.w3.org/1999/xlink" x="0px" y="0px"
	 width="1024px" height="1024px" viewBox="0 0 1024 1024" enable-background="new 0 0 1024 1024" xml:space="preserve">
<g>
	<g>
		<circle fill="#EFEFEF" cx="512" cy="512" r="484.061"/>
		<circle fill="#1EB2A0" cx="512" cy="512" r="457.113"/>
	</g>
	<g>
		<defs>
			<circle id="SVGID_1_" cx="512" cy="512" r="457.113"/>
		</defs>
		<clipPath id="SVGID_2_">
			<use xlink:href="#SVGID_1_"  overflow="visible"/>
		</clipPath>
		<path opacity="0.1" clip-path="url(#SVGID_2_)" d="M900.343,458.552l268.749,268.749l-494.591,494.591L179.315,726.705
			L97.758,602.328l53.851-95.355l-31.748-54.521c0,0,94.286-324.102,385.126-324.102S888.615,398.012,900.343,458.552z"/>
	</g>
	<g>
		<path fill="#FEFEFE" d="M282.031,487.078l205.888,4.616c0,0,26.862-6.542,16.844,16.254
			c-10.018,22.796-14.691,30.963-54.688,30.963s-100.18,0.339-100.18,0.339s47.36,21.978,30.92,46.775s-20.945,11.016-20.945,11.016
			s14.84,22.873-2.142,42.621s-33.419,14.213-33.419,14.213s12.747,17.615-0.408,30.242s-127.009,6.01-227.415-76.682v-99.487
			l106.04-55.324c0,0,34.153-17.722,95.298-17.722s61.999,3.924,61.999,3.924s17.228-1.017,7.742,16.117
			s-32.818,15.134-54.152,17.134S285.318,474.746,282.031,487.078z"/>
		<path fill="#FEFEFE" d="M741.969,487.078l-205.888,4.616c0,0-26.862-6.542-16.844,16.254
			c10.019,22.796,14.691,30.963,54.688,30.963c39.996,0,100.18,0.339,100.18,0.339s-47.359,21.978-30.92,46.775
			s20.945,11.016,20.945,11.016s-14.84,22.873,2.143,42.621s33.419,14.213,33.419,14.213s-12.747,17.615,0.408,30.242
			s127.009,6.01,227.415-76.682v-99.487l-106.039-55.324c0,0-34.153-17.722-95.299-17.722s-61.999,3.924-61.999,3.924
			s-17.228-1.017-7.742,16.117s32.818,15.134,54.151,17.134C731.922,474.077,738.682,474.746,741.969,487.078z"/>
	</g>
	<g>
		<path fill="#FEFEFE" d="M156.588,432.508c36.268-162.868,181.618-284.629,355.411-284.629
			c176.62,0,323.862,125.75,357.095,292.601c13.027,6.159,25.417,13.369,36.412,21.906
			c-24.413-195.61-191.281-346.97-393.507-346.97c-198.787,0-363.409,146.258-392.138,337.034
			C129.875,445.32,141.974,438.648,156.588,432.508z"/>
		<path fill="#FEFEFE" d="M809.446,722.07c-65.944,93.201-174.588,154.051-297.446,154.051
			c-113.643,0-215.122-52.065-281.896-133.64c-18.657-1.876-35.77-7.315-51.274-15.29
			C249.476,836.346,372.3,908.583,511.999,908.583c149.766,0,280.136-83.02,347.615-205.545
			C843.466,711.557,826.381,717.8,809.446,722.07z"/>
	</g>
	<g>
		<path fill="#FEFEFE" d="M247.508,414.839c39.58-107.726,143.081-184.578,264.533-184.578
			c123.101,0,227.744,78.956,266.095,188.982c11.64,2.794,24.008,6.072,36.463,10.058C778.31,296.234,656.611,198.4,512.041,198.4
			c-142.435,0-262.67,94.967-300.895,225.031C222.203,420.348,234.294,417.479,247.508,414.839z"/>
		<path fill="#FEFEFE" d="M706.474,715.895c-50.563,48.229-119.039,77.844-194.433,77.844c-73.841,0-141.035-28.421-191.275-74.903
			c-12.018,4.918-23.603,8.38-34.739,10.544c57.055,59.307,137.22,96.22,226.014,96.22c93.875,0,178.104-41.262,235.576-106.622
			C732.193,719.556,718.085,718.417,706.474,715.895z"/>
	</g>
	<g>
		<path fill="#FEFEFE" d="M367.405,396.727c33.884-42.447,86.059-69.652,144.594-69.652c53.714,0,102.069,22.908,135.854,59.477
			c16.607,0.479,32.151,2.796,46.829,5.794c-39.018-59.45-106.259-98.717-182.684-98.717c-78.723,0-147.707,41.663-186.131,104.136
			C340.754,396.824,354.574,396.527,367.405,396.727z"/>
		<path fill="#FEFEFE" d="M602.058,673.536c-26.651,14.89-57.36,23.388-90.059,23.388c-31.302,0-60.781-7.788-86.624-21.517
			c-10.812,4.95-22.927,10.575-36.487,16.964c35.052,23.97,77.44,37.999,123.11,37.999c47.487,0,91.429-15.165,127.261-40.906
			C627.203,684.034,614.538,678.65,602.058,673.536z"/>
	</g>
</g>
</svg>
