<?xml version="1.0" encoding="utf-8"?>
<!-- Generator: Adobe Illustrator 16.0.3, SVG Export Plug-In . SVG Version: 6.00 Build 0)  -->
<!DOCTYPE svg PUBLIC "-//W3C//DTD SVG 1.1//EN" "http://www.w3.org/Graphics/SVG/1.1/DTD/svg11.dtd">
<svg version="1.1" id="圖層_1" xmlns="http://www.w3.org/2000/svg" xmlns:xlink="http://www.w3.org/1999/xlink" x="0px" y="0px"
	 width="1024px" height="1024px" viewBox="0 0 1024 1024" enable-background="new 0 0 1024 1024" xml:space="preserve">
<g>
	<path fill-rule="evenodd" clip-rule="evenodd" fill="#EFEFEF" d="M70.008,704.998c-9.524-21.622-16.979-43.944-23.026-66.777
		c-6.067-22.903-10.55-46.112-13.774-69.557c-1.239-9.004-1.391-18.152-2.239-27.217c-0.838-8.944-0.946-17.896-1-26.869
		c-0.239-39.639,4.997-78.574,14.278-117.067c9.036-37.477,22.136-73.421,39.862-107.634c13.706-26.452,30.207-51.146,48.305-74.784
		c15.698-20.504,33.175-39.45,52.107-56.925c27.509-25.391,57.643-47.335,90.119-66.061c29.071-16.762,59.65-30.05,91.648-39.972
		c26.431-8.196,53.33-14.493,80.808-18.255c13.954-1.91,27.936-3.03,41.967-4.116c14.159-1.096,28.305-1.186,42.373-0.573
		c32.783,1.427,65.165,6.147,97.08,14.056c30.539,7.568,60.123,17.645,88.761,30.76c33.575,15.377,64.378,35.125,93.632,57.442
		c20.525,15.658,39.465,33.149,56.95,52.079c25.407,27.504,47.435,57.593,65.995,90.161c3.454,6.061,6.759,12.207,10.132,18.314
		c-0.602,1.479-1.463,2.613-3.284,2.471c-4.688-4.053-6.353-10.016-9.244-15.148c-13.188-23.41-28.411-45.416-44.884-66.594
		c-1.229-1.581-2.428-3.171-3.31-4.975c-0.914-2.678-2.911-4.434-5.14-5.992c-7.77-8.555-16.138-16.581-22.986-25.953
		c-1.729-2.549-3.92-4.619-6.514-6.278c-16.279-13.456-31.583-28.045-48.703-40.524c-43.933-32.024-91.394-57.049-143.485-72.904
		c-28.979-8.82-58.466-15.417-88.604-19.032c-13.034-1.563-26.096-2.463-39.187-3.211c-10.076-2.665-20.15-2.613-30.224-0.013
		c-6.751,1.044-13.592,0.663-20.394,1.206c-16.107,1.285-32.035,3.581-47.936,6.295c-20.542,3.506-40.74,8.602-60.639,14.584
		c-32.947,9.904-64.205,23.952-94.102,41.008c-21.16,12.072-41.1,25.932-60.279,40.909c-11.151,8.708-21.557,18.298-32.196,27.61
		c-1.508,1.319-3.089,2.536-4.64,3.788c-2.771,2.239-5.197,4.839-7.632,7.428c-4.258,5.409-8.597,10.749-13.499,15.606
		c-19.701,22.217-37.392,45.92-52.887,71.25c-16.644,27.207-30.32,55.841-41.11,85.85c-10.216,28.414-17.458,57.622-22.335,87.375
		c-2.141,13.061-3.546,26.258-4.835,39.47c-1.136,11.651,0.207,23.479-3.082,35.063c-1.323,4.663,1.8,9.964,1.931,15.143
		c0.045,1.792,0.515,3.61,0.529,5.446c0.235,29.505,5.22,58.376,11.549,87.077c5.457,24.747,12.897,48.875,22.136,72.469
		c1.564,3.993,4.107,7.663,4.363,12.137C72.696,705.095,71.5,705.392,70.008,704.998z"/>
	<path fill-rule="evenodd" clip-rule="evenodd" fill="#EFEFEF" d="M70.008,704.998c0.997-0.333,1.995-0.665,2.992-0.998
		c2.794,3.579,4.439,7.797,6.247,11.868c8.398,18.919,18.659,36.802,29.725,54.248c7.938,12.516,16.182,24.855,25.599,36.286
		c8.445,10.253,16.811,20.614,26.189,30.071c3.993,4.026,6.833,9.034,10.952,12.946c35.122,33.368,73.183,62.664,116.041,85.65
		c41.728,22.381,85.862,37.682,132.149,47.015c14.984,3.021,30.088,5.339,45.331,6.922c5.856,0.608,11.995-0.055,17.665,2.329
		c1.071,0.45,2.284,0.236,3.45-0.002c7.532-1.534,14.925-0.146,22.228,1.438c3.36,0.729,6.418,0.759,9.786,0.02
		c7.298-1.603,14.689-2.99,22.223-1.462c0.993,0.201,1.986,0.344,2.972,0.155c16.294-3.104,32.907-3.771,49.247-6.682
		c38-6.768,74.896-17.109,110.418-32.311c26.256-11.235,51.243-24.805,74.963-40.647c17.576-11.739,34.467-24.424,50.417-38.354
		c3.626-3.166,7.115-6.449,10.606-9.741c7.837-5.617,14.779-12.184,20.78-19.735c6.164-7.755,13.628-14.38,19.453-22.427
		c21.425-25.217,39.692-52.547,55.805-81.451c11.164-20.027,19.234-41.33,27.536-62.531c7.466-19.065,12.604-38.909,17.296-58.858
		c3.157-13.421,5.516-26.988,7.78-40.553c1.632-9.77,2.648-19.689,3.164-29.638c0.335-6.457,0.764-12.919,1.26-19.38
		c0.65-2.579,0.016-5.256,0.525-7.802c0.57-2.854,0.243-6.373,4.185-7.371c0.024,38.45-5.257,76.211-14.259,113.551
		c-9.034,37.475-22.138,73.414-39.864,107.621c-13.706,26.448-30.212,51.135-48.313,74.768
		c-15.701,20.498-33.171,39.448-52.104,56.917c-27.51,25.383-57.638,47.329-90.117,66.044
		c-29.072,16.752-59.643,30.05-91.641,39.965c-26.43,8.19-53.326,14.486-80.801,18.25c-13.952,1.912-27.934,3.029-41.963,4.116
		c-14.158,1.096-28.303,1.182-42.369,0.57c-32.78-1.425-65.158-6.146-97.07-14.054c-30.537-7.567-60.118-17.643-88.753-30.756
		c-33.573-15.374-64.371-35.123-93.627-57.434c-20.525-15.652-39.459-33.146-56.945-52.071
		c-25.408-27.499-47.349-57.635-66.041-90.122C84.488,736.364,76.584,721.018,70.008,704.998z"/>
	<path fill-rule="evenodd" clip-rule="evenodd" fill="#EFEFEF" d="M996.989,514.005c-2.531,2.861-2.952,6.322-3.036,9.964
		c-0.047,2.021,0.832,4.262-0.953,6.031c-2.165-2.43-1.638-5.483-1.219-8.115c1.008-6.328,0.039-12.565,0.052-18.835
		c0.062-30.254-4.041-60.019-10.475-89.428c-8.161-37.308-19.563-73.615-36.534-108.003c-1.794-3.635-4.316-7.171-3.824-11.619
		c0.995-0.665,1.99-1.331,2.986-1.996C978.963,361.872,996.693,435.857,996.989,514.005z"/>
	<path fill-rule="evenodd" clip-rule="evenodd" fill="#EFEFEF" d="M941,294c17.755,36.325,31.514,74.015,40.254,113.587
		c3.958,17.92,7.158,35.927,9.56,54.074c1.342,10.141,1.619,20.433,2.14,30.669c0.303,5.949,0.164,11.885,0.904,17.853
		c0.814,6.564-1.552,13.154-0.857,19.817c0.015,12.08-1.302,24.031-2.678,36.031c-1.646,14.36-4.2,28.479-7.115,42.619
		c-4.282,20.775-9.438,41.237-16.584,61.229c-6.95,19.443-14.098,38.815-23.307,57.297c-15.738,31.583-34.868,61.027-57.248,88.344
		c-1.891,2.308-3.392,4.928-6.068,6.479c-0.974,0.911-1.377,3.201-3.463,1.434c-0.301-1.899,0.945-3.087,2.01-4.359
		c19.18-22.937,36.287-47.339,50.902-73.412c22.211-39.621,38.521-81.542,48.574-125.906c5.05-22.288,9.358-44.676,11.267-67.454
		c0.569-6.784,1.369-13.571,1.378-20.413c0.017-12.471,0.392-24.939-0.021-37.411c-0.907-27.381-4.824-54.359-10.702-81.087
		c-6.962-31.653-16.385-62.504-29.676-92.118c-2.595-5.781-2.51-5.819-7.309-1.993c-0.656,0.523-1.364,0.952-2.175,1.188
		c-3.075,0.159-4.186-3.45-7.064-3.684c-2.751-2.058-4.026-4.917-4.452-8.231c1.122-3.607-0.213-5.961-3.706-7.215
		c-1.533-1.379-2.403-3.069-2.442-5.151c0.943-3.468-0.313-6.15-2.136-9.225c-5.73-9.668-10.877-19.737-17.262-28.959
		c-10.163-14.683-19.693-29.899-32.479-42.618c-2.082-2.07-2.306-6.182-6.577-5.74c-0.454-0.158-0.837-0.42-1.143-0.793
		c-1.004-3.538-0.654-8.331-6.692-7.196c-1.825-0.447-2.985-1.571-3.456-3.396c0.625-3.555-0.431-6.495-3.174-8.864
		c-4.879-4.215-9.367-8.82-13.664-13.625c-2.068-2.313-4.521-3.919-7.878-3.071c-2.268-0.052-3.617-1.271-4.277-3.364
		c1.048-5.662-2.969-6.125-6.887-6.692c-0.431-0.244-0.725-0.603-0.911-1.057c-0.223-1.636-0.196-3.462-1.839-4.411
		c-6.925-4-12.137-10.103-18.451-14.882c-16.272-12.314-33.333-23.398-50.75-33.977c-2.216-1.346-5.962-0.888-6.074-4.887
		c0.311-1.363,1.215-2.347,2.099-3.349c3.82-4.327,3.792-4.281-1.477-7.157c-52.862-28.859-109.546-45.92-168.957-54.301
		c-15.973-2.253-32.105-2.933-48.273-3.454c-48.969-1.577-96.589,6.251-143.369,19.74c-52.514,15.143-100.858,39.001-145.126,71.164
		c-21.894,15.907-42.283,33.5-61.538,52.467c-3.805,3.748-6.755,8.265-10.789,11.792c-1.471,1.287-2.672,3.078-5.015,2.839
		c-0.647-0.717-0.569-1.443-0.024-2.173c4.333-5,8.667-10,13-15c2.729-1.938,5.062-4.271,7-7
		c18.316-16.51,36.961-32.609,57.005-47.039c21.335-15.36,43.822-28.854,67.384-40.384c18.438-9.023,37.356-17.047,56.992-23.365
		c20.991-6.754,42.266-12.319,63.838-16.686c14.553-2.946,29.229-5.286,44.065-6.647C476.851,33.909,487.375,32.755,498,33
		c10.333-2.174,20.667-2.174,31,0c23.422,0.071,46.474,3.366,69.452,7.613c25.97,4.8,51.413,11.494,76.328,20.213
		c27.048,9.466,52.874,21.544,77.735,35.823c24.223,13.913,47.089,29.746,68.773,47.289c9.872,7.987,18.563,17.366,28.711,25.063
		c1.615,2.385,3.615,4.385,6,6c6.857,9.382,15.29,17.372,23,26c1.33,2.281,3.625,3.757,5,6
		c10.978,14.697,22.129,29.272,32.119,44.675c8.021,12.366,15.551,25.027,22.304,38.14C939.171,291.268,940.136,292.608,941,294z"/>
	<path fill-rule="evenodd" clip-rule="evenodd" fill="#EFEFEF" d="M157,191c0,0.667,0,1.333,0,2
		c-0.983,5.346-5.638,8.08-8.731,11.83c-21.587,26.177-40.678,53.969-56.752,83.901c-27.547,51.295-43.57,106.188-51.801,163.536
		c-2.149,14.978-3.577,30.081-3.388,45.268c0.038,3.007-0.089,5.993-0.732,8.948c-0.863,3.963-0.931,7.922,0.125,11.88
		c0.519,1.942,0.605,3.948,0.597,5.954c-0.112,29.801,4.165,59.09,10.455,88.123c6.933,32.003,16.573,63.13,29.813,93.149
		c13.577,30.784,30.431,59.608,50.126,86.84c15.362,21.24,32.142,41.3,50.848,59.635c29.881,29.289,63.013,54.397,99.269,75.347
		c55.031,31.8,114.562,50.156,177.206,58.983c15.31,2.156,30.756,3.141,46.269,3.508c8.601,0.203,17.123,0.191,25.724,0.035
		c29.629-0.537,58.742-4.532,87.612-10.767c32.012-6.913,63.124-16.633,93.134-29.858c30.776-13.564,59.648-30.361,86.818-50.151
		c15.097-10.996,29.524-22.807,43.457-35.237c0.713-0.437,1.474-0.594,2.295-0.385c0.219,0.152,0.437,0.307,0.655,0.461
		c-5.865,8.21-14.456,13.438-21.912,19.893c-11.799,10.213-24.592,19.164-37.508,27.872c-11.557,7.791-23.437,15.11-35.68,21.831
		c-24.545,13.473-50.042,24.796-76.584,33.635c-21.393,7.124-43.221,12.631-65.391,16.967c-15.597,3.05-31.337,5.127-47.051,6.864
		c-6.077,0.673-12.289,2.664-18.952,1.225c-6.375-1.377-13.189,0.181-19.594,2.101c-2.65,0.794-5.139,0.606-7.819-0.026
		c-7.738-1.825-15.531-3.489-23.544-1.552c-0.789,0.19-1.693,0.259-2.474,0.079c-13.979-3.224-28.36-3.379-42.479-5.713
		c-25.057-4.143-49.719-9.743-73.96-17.281c-24.811-7.714-48.738-17.606-71.891-29.345c-28.969-14.688-56.012-32.48-81.447-52.587
		c-14.898-11.777-29.636-23.921-42.743-37.709c-10.708-11.264-20.184-23.689-30.657-35.189
		c-9.213-10.116-16.806-21.364-24.586-32.521c-7.889-11.312-15.072-23.06-21.923-35.014c-7.37-12.858-13.614-26.289-19.899-39.697
		c-0.58-1.236-0.995-2.462-0.906-3.832c-9.019-20.377-16.184-41.392-22.032-62.892c-4.741-17.431-8.698-35.038-11.573-52.843
		c-1.445-8.948-2.487-18.02-3.681-27.02c-0.838-6.321,0.263-12.867-2.092-18.997c-0.286-0.744-0.566-1.702-0.342-2.397
		c2.197-6.812,1.014-13.982-0.768-20.147c-2.226-7.706,1.205-14.336,0.938-21.465c-0.054-1.464,0.521-2.945,0.525-4.419
		c0.103-30.996,5.537-61.272,12.358-91.352c7.441-32.81,18.385-64.385,32.746-94.849c15.725-33.356,35.077-64.365,57.947-93.249
		C143.398,206.324,149.811,198.336,157,191z"/>
	<path fill-rule="evenodd" clip-rule="evenodd" fill="#EFEFEF" d="M529,33c-10.333-0.979-20.667-0.979-31,0
		C508.333,29.532,518.667,29.532,529,33z"/>
	<path fill-rule="evenodd" clip-rule="evenodd" fill="#EFEFEF" d="M177,169c-1.17,3.496-3.504,5.83-7,7
		C171.932,173.265,174.265,170.932,177,169z"/>
	<path fill-rule="evenodd" clip-rule="evenodd" fill="#EFEFEF" d="M856,175c-3.161-0.839-5.161-2.839-6-6
		C852.396,170.604,854.396,172.604,856,175z"/>
	<path fill-rule="evenodd" clip-rule="evenodd" fill="#EFEFEF" d="M884,207c-2.131-1.613-4.528-3.004-5-6
		C881.131,202.613,883.527,204.004,884,207z"/>
	<path fill-rule="evenodd" clip-rule="evenodd" fill="#EFEFEF" d="M877,824c1-0.667,2-1.333,3-2
		c-1.435,4.454-5.18,7.307-8.158,10.404c-7.813,8.123-14.147,17.589-22.75,24.949c-2.848,2.436-5.365,5.389-9.092,6.646
		c-0.541-2.623,1.761-3.542,3.032-5.082c0.343-0.313,0.718-0.586,1.101-0.846c5.181-4.399,10.404-8.757,14.049-14.632
		c4.071-6.71,10.531-11.391,15.063-17.724C874.044,824.601,875.199,823.356,877,824z"/>
	<path fill-rule="evenodd" clip-rule="evenodd" fill="#CD4459" d="M929.915,308.038c0.617,2.987,2.209,5.523,3.747,8.083
		c3.646,2.839,4.396,7.336,6.174,11.178c5.043,10.889,9.026,22.214,13.11,33.492c1.337,3.404,2.566,6.844,3.501,10.385
		c8.11,25.263,13.795,51.077,17.646,77.313c1.609,9.974,2.198,20.058,3.29,30.087c0.267,2.448,0.329,4.965-0.473,7.381
		c-0.382,0.73-0.804,1.411-1.813,1.142c-2.454-1.746-4.291-4.147-6.402-6.257c-77.965-77.925-155.907-155.874-233.855-233.814
		c-1.764-1.763-3.426-3.643-5.529-5.036c-2.198-1.531-3.996-3.5-5.875-5.379c-24.565-24.557-49.138-49.108-73.671-73.699
		c-2.602-2.608-5.312-5.013-8.615-6.693c-6.619-3.346-13.925-4.503-20.96-6.442c-12.199-3.362-24.476-6.461-36.66-9.878
		c-3.806-1.067-5.389-0.199-6.354,3.619c-3.143,12.431-6.512,24.805-9.948,37.16c-1.951,7.013-2.447,7.315-9.736,6.287
		c-27.386-3.864-53.874-0.68-78.896,11.311c-26.998,12.937-45.442,34.267-57.725,61.202c-6.595,14.462-11.523,29.475-13.641,45.286
		c-3.603,26.896,3.009,51.194,19.015,72.988c12.097,16.472,27.279,29.547,44.656,40.167c1.837,1.123,3.856,2.012,5.143,3.864
		c0.301,1.995,1.937,3.013,3.207,4.283c18.722,18.729,37.458,37.443,56.153,56.199c1.716,1.721,4.002,3.134,4.156,5.981
		c-0.275,1.431-1.263,2.302-2.444,2.955c-12.733,7.034-25.068,14.763-37.88,21.659c-0.589,0.317-1.226,0.487-1.895,0.529
		c-0.844-0.135-1.561-0.551-2.153-1.136c-10.899-10.792-21.854-21.528-32.505-32.57c1.626-5.89,5.954-10.267,8.719-15.521
		c0.913-1.733,2.466-3.129,2.823-5.525c-6.637-1.243-12.757,0.596-18.869,2.592c-2.65,0.866-5.048,2.604-8.027,2.376
		c-6.556-4.521-11.503-10.754-17.078-16.303c-2.088-2.079-5.432-2.998-6.23-6.338c0.477-0.493,1.02-0.854,1.733-0.837
		c-10.094,0.034-20.104-1.271-30.131-2.051c-13.768-1.07-27.567-1.785-41.306-3.221c-2.558-0.268-3.559,0.854-4.061,3.207
		c-1.162,5.446-0.694,10.961-0.941,16.444c-0.094,2.093,1.153,2.5,2.946,2.17c2.452-0.452,4.804-1.428,7.344-1.401
		c2.949,1.408,4.184,4.487,6.385,6.654c14.552,14.326,28.945,28.814,43.368,43.271c1.513,1.517,3.268,2.848,4.167,4.897
		c0.447,2.634-1.418,4.322-2.64,6.23c-10.572,16.511-21.43,32.837-32.47,50.219c3.842-1.804,6.61-3.692,9.463-5.394
		c10.134-6.044,20.179-12.242,30.403-18.129c4.303-2.478,7.818-5.515,10.212-9.888c0.767-1.399,1.4-3.096,3.331-3.449
		c5.02,3.824,10.293,7.416,12.636,13.711c-5.094,5.499-12.061,8.169-18.338,11.78c-37.536,21.597-74.984,43.345-112.551,64.887
		c-6.443,3.694-6.798,3.6-12.058-1.203c-26.502-24.199-62.558-28.537-93.89-6.165c-5.413,3.864-10.524,8.048-14.553,13.551
		c-7.412,10.119-9.492,21.08-6.34,33.111c2.374,9.061,7.287,16.759,13.191,23.866c2.994,3.604,7.568,4.689,11.52,6.755
		c7.236,7.143,15.58,12.957,23.434,19.356c31.323,25.522,63.078,50.511,94.451,75.972c1.646,1.336,3.599,2.474,4.343,4.688
		c-0.14,2.771,1.916,4.033,3.729,5.493c33.471,26.943,67.077,53.721,100.522,80.695c27.869,22.477,55.994,44.636,83.693,67.321
		c3.241,2.655,6.723,4.31,10.91,4.214c11.306-0.259,22.755,1.342,33.878-1.103c8.646-1.899,17.265-3.011,26.064-3.37
		c2.805-0.114,5.565-1.002,8.106-2.358c0.734-0.392,1.533-0.831,2.337-0.85c10.881-0.248,20.868-4.892,31.483-6.349
		c4.447-0.61,8.252-2.368,11.911-4.771c2.401-1.576,2.43-3.347,0.772-5.421c-0.729-0.913-1.574-1.72-2.397-2.545
		c-3.531-3.536-7.037-7.098-10.604-10.597c-22.471-22.044-43.632-45.378-66.253-67.274c-0.837-0.811-1.636-1.66-2.351-2.586
		c-1.69-2.192-1.556-4.311,0.308-6.301c1.891-2.02,4.11-2.868,6.72-1.437c1.773,0.974,3.071,2.544,4.482,3.954
		c23.445,23.435,46.865,46.895,70.343,70.297c3.546,3.533,6.312,7.745,10.081,11.075c6.349,5.606,9.883,5.651,17.632,2.313
		c6.511-2.805,13.111-5.537,19.881-7.749c5.373-1.756,10.302-4.547,15.436-6.826c9.215-4.091,18.2-8.787,26.972-13.759
		c7.044-3.992,14.304-7.703,20.878-12.498c1.929-1.406,3.916-2.508,6.28-2.875c8.512-4.119,15.949-9.904,23.603-15.333
		c7.143-5.067,13.994-10.532,20.839-15.995c0.524-0.419,0.75-1.087,1.131-1.63c0.392-0.586,0.883-1.069,1.483-1.438
		c2.664-0.851,4.527-2.683,6.019-4.966c4.203-3.904,8.549-7.643,13.032-11.224c4.985-2.538,8.174-7.144,12.131-10.821
		c6.494-6.035,12.846-12.279,18.267-19.358c0.33-0.602,0.752-1.132,1.258-1.593c1.878-1.485,3.653-3.069,4.873-5.181
		c0.231-0.379,0.498-0.73,0.782-1.07c2.036-2.041,3.988-4.145,5.257-6.78c0.248-0.372,0.549-0.697,0.879-0.996
		c2.133-1.302,3.273-3.395,4.371-5.521c0.888-1.274,1.785-2.542,2.957-3.582c2.775-2.22,5.288-4.66,6.75-7.993
		c0.221-0.405,0.483-0.779,0.771-1.14c4.975-6.637,10.272-13.046,14.155-20.435c0.175-0.433,0.399-0.839,0.657-1.226
		c1.641-1.885,3.351-3.721,4.348-6.068c0.217-0.403,0.474-0.778,0.756-1.137c1.878-1.929,3.594-3.963,4.262-6.671
		c0.146-0.434,0.333-0.848,0.541-1.255c1.748-3.107,4.669-6.159,0.364-9.494c-1.609-1.204-3.021-2.621-4.436-4.035
		c-30.988-30.987-61.977-61.976-92.965-92.965c-0.824-0.824-1.686-1.618-2.432-2.515c-2.733-3.281-2.602-4.886,1.072-7.203
		c6.622-4.177,13.522-7.891,20.346-11.729c9.918-5.579,10.058-6.505,2.038-14.526c-28.629-28.635-57.274-57.252-85.866-85.924
		c-1.787-1.792-4.984-3.392-3.876-6.375c0.96-2.582,4.314-2.269,6.659-2.461c6.757-0.557,13.35-3.131,20.268-1.752
		c4.41,3.001,7.736,7.165,11.495,10.859c9.662,9.5,19.15,19.176,28.804,28.686c0.354,0.309,0.68,0.643,1.002,0.981
		c39.046,39.252,78.279,78.316,117.425,117.467c3.306,3.718,7.09,6.896,11.114,9.798c3.663,1.741,4.856-0.425,5.494-3.465
		c0.147-0.44,0.353-0.854,0.596-1.249c2.062-2.278,3.425-4.821,3.021-8.035c-0.543-5.51,3.24-9.449,5.08-14.097
		c1.209-1.881,0.852-4.195,1.713-6.171c0.913-2.098,1.513-4.527,4.632-4.17c1.368,1.912,0.499,3.875,0.031,5.767
		c-9.801,39.679-24.38,77.479-44.088,113.329c-16.692,30.365-36.543,58.47-59.396,84.465c-24.09,27.4-51.275,51.353-81.065,72.403
		c-36.462,25.766-75.892,45.725-118.114,60.061c-29.098,9.879-58.927,16.796-89.489,20.538c-21.35,2.614-42.729,4.147-64.238,3.863
		c-41.861-0.555-82.938-6.365-123.225-17.882c-30.72-8.781-60.093-20.847-88.538-35.283c-10.816-6.528-21.909-12.59-32.614-19.329
		c-19.616-12.349-37.998-26.313-55.538-41.433c-28.288-23.898-52.574-51.454-74.139-81.45
		c-15.203-21.147-28.38-43.526-39.732-66.975c-21.67-44.761-35.693-91.81-42.333-141.085c-3.521-26.133-4.967-52.408-3.867-78.711
		c1.67-39.913,8.059-79.118,19.693-117.42c13.317-43.84,32.721-84.796,58.051-122.931c13.106-19.731,27.904-38.141,43.803-55.731
		c32.81-36.299,70.63-66.314,113.03-90.506c53.155-30.329,110.132-49.425,170.938-57.128c25.177-3.189,50.431-4.716,75.726-3.662
		c40.749,1.699,80.801,8.059,119.852,20.215c27.599,8.591,54.213,19.504,79.834,32.858c27.114,14.885,53.229,31.305,76.963,51.248
		c3.611,3.034,8.17,5.203,10.368,9.781l0.049,0.041c3.239,1.683,6.51,3.331,7.862,7.103c0.879,1.57,2.038,2.821,3.82,3.367
		c1.934-0.196,2.972,1.234,4.113,2.363c6.093,6.029,12.128,12.116,18.206,18.161c1.436,1.428,2.502,3.01,2.911,5.005
		c0.511,1.47,1.611,2.376,2.93,3.075c3.766,1.366,5.427,4.624,7.089,7.882l0.045,0.053c4.234,2.055,6.396,6.196,9.206,9.567
		c18.875,22.648,34.954,47.206,49.188,73c0.835,1.513,1.048,3.097,1.409,4.691c0.204,1.879,1.214,3.363,2.354,4.783
		C928.458,302.829,929.801,305.113,929.915,308.038z"/>
	<path fill-rule="evenodd" clip-rule="evenodd" fill="#EFEFEF" d="M975.971,486.995c0.159-11.224-1.433-22.301-2.755-33.403
		c-0.214-1.791-0.22-3.607-0.321-5.412c1.752-5.709-1.782-10.962-1.491-16.479c0.462-8.791-2.896-16.886-4.744-25.139
		c-2.183-9.745-5.026-19.431-7.669-29.119c-0.654-2.399-2.608-4.216-3.792-6.405c-1.29-3.274-2.687-6.514-3.198-10.036
		c-0.393-9.302-4.728-17.401-8.113-25.743c-1.283-3.161-2.2-6.575-4.514-9.361c-1.562-1.88-0.942-4.069,0.627-5.897
		c1.251-1.084,2.562-2.107,3.741-3.263c4.287-4.203,4.391-4.165,6.746,1.261c11.59,26.693,21.127,54.063,27.837,82.419
		c4.879,20.618,9.198,41.354,11.463,62.4c1.381,12.824,2.312,25.737,2.369,38.711c0.047,10.414,0.073,20.837-0.261,31.227
		c-0.722,22.516-3.514,44.843-8.041,66.913c-4.665,22.737-10.065,45.304-17.722,67.255c-11.746,33.674-26.537,65.888-45.51,96.18
		c-11.82,18.873-24.948,36.764-38.575,54.327c-1.692,2.182-4.669,3.382-5.048,6.571c-6.389,6.316-12.361,13.009-18,20
		c-4.613,5.387-9.612,10.388-15,15c-2.283,1.326-3.753,3.63-6,5c-5.215,6.799-12.273,11.636-18.746,17.004
		c-16.086,13.345-32.945,25.72-50.646,36.86c-28.769,18.106-59.107,32.971-91.127,44.546c-27.535,9.955-55.83,16.852-84.491,22.3
		c-14.763,2.807-29.785,4.068-44.768,5.566c-11.205,1.121-22.544-0.674-33.694,2.369c-3.631,0.991-8.061-1.315-12.159-1.578
		c-7.776-0.5-15.563-0.326-23.373-0.857c-18.368-1.25-36.515-3.796-54.526-7.349c-21.96-4.331-43.673-9.736-64.903-16.881
		c-21.118-7.106-41.732-15.515-61.625-25.561c-30.031-15.166-58.047-33.573-84.319-54.512c-15.309-12.2-30.074-25.139-43.557-39.396
		c-16.99-17.966-32.785-36.923-47.179-57.065c-14.424-20.186-27.306-41.308-38.299-63.497
		c-16.863-34.034-29.521-69.617-37.602-106.797c-4.357-20.049-8.375-40.112-10.118-60.618c-1.012-11.909-0.761-23.949-2.232-35.695
		c-1.59-12.696,0.205-25.094,0.693-37.513c1.072-27.284,5.655-54.211,11.91-80.851c5.852-24.924,13.154-49.359,22.809-73.065
		c13.46-33.049,30.389-64.196,51.161-93.262C132.393,222.494,143.887,207.113,157,193c4.989-3.696,8.559-8.757,12.783-13.192
		c8.823-9.264,18.494-17.64,27.987-26.211c17.533-15.831,36.604-29.576,56.246-42.575c23.595-15.615,48.597-28.556,74.702-39.496
		c23.628-9.903,47.862-17.782,72.732-23.833c20.58-5.007,41.336-9.191,62.375-11.478c10.997-1.195,22.058-2.636,33.202-2.223
		c8.906,0.33,17.801-0.309,26.726-0.193c28.104,0.364,55.747,3.978,83.186,9.683c19.807,4.118,39.429,9.014,58.559,15.59
		c23.883,8.211,47.343,17.49,69.461,29.863c4.036,2.258,8.269,4.166,12.781,6.42c-2.735,3.056-5.237,5.851-7.739,8.646
		c-3.497-0.186-6.643-2.293-10.25-1.876c-14.563-6.895-28.965-14.127-43.974-20.059c-39.199-15.489-79.648-25.891-121.616-30.207
		c-112.261-11.545-216.021,13.006-309.386,76.359c-103.263,70.07-168.148,166.977-194.87,289.084
		c-8.084,36.942-11.306,74.415-9.624,112.152c5.054,113.42,45.618,212.371,121.915,296.584
		c11.87,13.102,24.833,25.068,37.769,37.072c3.442,6.253,9.354,10.051,14.645,14.382c8.2,6.714,16.89,12.809,25.491,19.001
		c11.31,8.142,23.377,15.041,35.628,21.66c3.714,2.007,6.736,5.407,11.516,4.725c35.874,18.149,73.113,32.574,112.422,41.412
		c42.312,9.513,85.07,13.353,128.423,10.988c84.911-4.631,163.039-30.074,233.318-77.812
		c99.975-67.908,164.284-161.073,193.333-278.468c0.157-0.633,0.101-1.318,0.143-1.979c-1.441-3.712,0.821-7.035,1.19-10.557
		c0.323-3.086,1.268-6.112,1.645-9.223c3.43-19.666,6.069-39.397,7.001-59.379c0.324-6.951,0.984-13.885,0.789-20.86
		c-0.069-3.658-0.054-7.315-0.007-10.973c0.01-5.119,0.543-10.25-0.446-15.346C974.799,489.357,974.898,488.033,975.971,486.995z"/>
	<path fill-rule="evenodd" clip-rule="evenodd" fill="#EFEFEF" d="M729.75,102.124c3.987-2.492,7.136-0.4,10.25,1.876
		c5.425,3.214,10.944,6.28,16.251,9.678c8.178,5.237,16.574,10.048,24.394,15.97c7.195,5.448,14.83,10.433,21.839,16.179
		c3.071,2.518,7.104,4.113,8.784,8.181c0.465,1.127,1.691,0.808,2.589,1.124c3.329,1.17,5.069,3.131,3.208,6.776
		c-18.479-15.181-37.31-29.893-57.765-42.366C749.539,113.589,739.605,107.921,729.75,102.124z"/>
	<path fill-rule="evenodd" clip-rule="evenodd" fill="#EFEFEF" d="M923.893,296.214c-9.57-16.487-19.056-33.018-30.013-48.66
		c-9.339-13.332-19.553-25.969-29.79-38.597c3.664-1.24,5.893-0.234,6.971,3.75c0.853,3.15,4.178,4.571,6.15,7.057
		c6.157,7.765,12.04,15.68,17.786,23.76c5.063,7.118,10.542,13.95,14.614,21.691c3.349,6.368,8.176,11.885,10.598,18.783
		c0.413,1.174,1.527,2.128,2.402,3.109C925.074,289.872,925.839,292.845,923.893,296.214z"/>
	<path fill-rule="evenodd" clip-rule="evenodd" fill="#EFEFEF" d="M940,320c-1.324,5.07,2.479,8.64,4.318,12.485
		c3.246,6.787,4.605,14.268,8.437,20.818c1.3,2.222-0.069,5.152-0.755,7.698c-5.903-15.045-11.672-30.146-18.337-44.881
		C937.084,315.275,938.213,318.175,940,320z"/>
	<path fill-rule="evenodd" clip-rule="evenodd" fill="#EFEFEF" d="M854.026,197.946c-8.41-8.51-16.82-17.02-25.23-25.53
		c2.347-2.88,4.744-1.072,6.396,0.485c6.113,5.759,12.022,11.741,17.864,17.779C855.017,192.707,855.735,195.254,854.026,197.946z"
		/>
	<path fill-rule="evenodd" clip-rule="evenodd" fill="#EFEFEF" d="M824.976,169.05c-2.621-2.368-5.241-4.735-7.862-7.103
		c2.221,0.307,4.732-0.728,6.64,0.698C825.88,164.235,826.601,166.528,824.976,169.05z"/>
	<path fill-rule="evenodd" clip-rule="evenodd" fill="#EFEFEF" d="M864.045,208.903c-2.363-2.627-4.726-5.254-7.089-7.882
		C862.695,199.269,863.92,200.63,864.045,208.903z"/>
	<path fill-rule="evenodd" clip-rule="evenodd" fill="#EFEFEF" d="M929.915,308.038c-1.224-2.347-2.446-4.694-3.669-7.041
		C931.173,302.276,931.767,303.415,929.915,308.038z"/>
	<path fill-rule="evenodd" clip-rule="evenodd" fill="#EFEFEF" d="M838,864c1.613-2.13,3.004-4.528,6-5
		c-1.333,1.667-2.667,3.333-4,5C839.333,864,838.667,864,838,864z"/>
	<path fill-rule="evenodd" clip-rule="evenodd" fill="#EFEFEF" d="M844,859c4.587-5.413,9.587-10.413,15-15
		C855.214,850.214,850.214,855.214,844,859z"/>
	<path fill-rule="evenodd" clip-rule="evenodd" fill="#B83E53" d="M333,790c-31.072-24.932-62.15-49.856-93.214-74.798
		c-8.767-7.039-17.51-14.108-26.218-21.22c-1.004-0.819-1.717-1.994-2.564-3.005c2.387-1.473,4.906-0.299,7.295-0.162
		c19.547,1.12,37.477-4.76,55.024-12.386c26.497-11.515,51.016-26.695,75.915-41.154c43.059-25.003,85.577-50.915,128.075-76.854
		c33.826-20.646,67.585-41.399,101.29-62.245c6.965-4.307,13.896-8.503,19.524-14.574c7.406-7.991,11.617-17.364,12.531-28.197
		c0.149-1.776,0.623-4.109-1.02-5.134c-1.49-0.93-3.057,0.832-4.436,1.634c-20.148,11.721-40.338,23.371-60.606,34.884
		c-1.688,0.958-3.266,2.468-5.499,1.521c-0.743-1.958-2.439-3.126-3.833-4.522c-18.91-18.946-37.862-37.85-56.724-56.844
		c-1.038-1.045-3.455-1.618-2.34-4.033c10.6,3.567,20.663-0.247,30.809-2.354c33.607-6.982,67.253-13.778,100.874-20.693
		c13.686-2.815,27.394-5.536,41.664-8.532c-13.005-8.781-25.842-16.75-38.532-24.936c-21.561-13.908-42.945-28.102-64.831-41.489
		c-6.561-4.014-10.062-9.283-11.45-16.545c-0.788-4.122-1.259-8.227-1.06-12.411c0.535-11.276,8.152-18.684,19.512-19.319
		c11.905-0.665,23.147,2.095,34.197,6.08c10.274,3.706,19.755,8.721,27.94,16.123c9.713,8.783,15.386,19.577,16.736,32.549
		c0.419,4.017,1.771,5.464,6.031,4.78c8.721-1.402,17.608-0.778,26.408-1.207c11.452-0.557,22.924-1.32,34.418-1.478
		c8.801-0.121,17.61-0.831,26.436-0.98c5.384-0.091,6.066-1.167,5.453-6.323c-2.492-20.964-9.232-40.525-19.476-58.928
		c-0.57-1.024-1.08-2.066-1.343-3.21c-0.172-3.9-2.222-6.614-5.452-8.58c-4.074-4.577-8.014-9.296-12.139-13.799
		c-5.687-6.208-12.378-11.401-19.284-16.315c-9.965-7.09-21.126-11.75-32.15-16.729c-1.938-2.848-4.725-3.033-7.76-2.449
		c-3.766-0.104-5.783-1.94-4.588-5.697c3.895-12.246,5.644-25.093,10.468-37.068c1.297-1.972,2.869-1.995,4.638-0.643
		c1.194,0.914,2.226,2.002,3.284,3.061c21.538,21.532,43.074,43.067,64.604,64.607c1.645,1.645,3.396,3.207,4.438,5.356
		c1.054,2.567,3.217,4.222,5.088,6.093c52.063,52.079,104.137,104.147,156.202,156.223c29.918,29.923,59.793,59.889,89.836,89.685
		c3.763,3.731,5.566,7.591,5.101,12.811c-0.446,4.985-0.948,9.873-2.899,14.592c-1.727,4.174-1.975,8.734-2.106,13.216
		c-0.153,5.16-0.122,10.33-0.015,15.492c0.123,5.882-0.022,11.539-3.747,16.678c-2.123,2.929-1.281,6.783-1.252,10.258
		c0.044,5.029,0.084,9.878-3.469,14.168c-2.075,2.505-1.653,6.02-1.54,9.188c0.129,3.609-0.399,6.982-2.914,9.787
		c-0.222,0.248-0.526,0.52-0.56,0.817c-0.904,8.039-4.872,15.273-6.302,23.065c-0.908,4.954-4.019,8.285-5.911,12.446
		c-0.647,1.424-2.006,0.818-3.008,0.141c-1.806-1.222-3.227-2.881-4.756-4.41c-49.716-49.714-99.431-99.429-149.152-149.136
		c-1.762-1.761-3.385-3.692-5.641-4.887c-0.441-0.227-0.861-0.486-1.274-0.756c-2.284-1.438-4.864-1.137-7.245-0.79
		c-9.132,1.332-18.294,2.459-27.396,3.983c-4.437,0.743-5.05,1.972-3.688,6.37c1.598,2.142,3.553,3.951,5.432,5.83
		c28.663,28.67,57.334,57.332,85.989,86.011c1.638,1.639,3.462,3.122,4.666,5.16c1.276,4.035-2.456,4.54-4.425,6.295
		c-0.372,0.279-0.771,0.519-1.177,0.744c-2.03,1.012-4.122,1.915-5.938,3.313c-0.367,0.272-0.756,0.508-1.156,0.727
		c-2.021,0.998-4.091,1.908-5.892,3.304c-0.369,0.274-0.761,0.511-1.163,0.73c-2.051,1.012-4.143,1.947-5.958,3.378
		c-0.376,0.282-0.774,0.526-1.182,0.758c-4.081,2.853-4.467,5.272-1.359,8.893c1.085,1.264,2.318,2.393,3.497,3.57
		c29.824,29.795,59.593,59.645,89.426,89.43c6.506,6.495,6.43,6.459,1.64,14.307c-6.483,10.626-13.028,21.235-20.666,31.057
		c-5.621,7.226-10.896,14.699-16.501,21.933c-0.451,0.584-0.975,1.093-1.552,1.55c-2.93,2.242-5.309,5.055-7.666,7.829
		c-11.571,13.614-24.709,25.625-37.709,37.824c-11.449,10.744-23.776,20.38-36.466,29.441
		c-11.428,8.161-23.086,16.092-35.418,23.018c-7.761,4.358-15.633,8.606-23.376,13.007c-4.471,2.54-9.597,4.556-14.169,6.988
		c-5.553,2.954-11.929,3.972-16.992,7.816c-0.398,0.302-0.82,0.714-1.28,0.755c-7.412,0.664-13.061,6.563-20.571,6.916
		c-0.497,0.023-1.093,0.054-1.443,0.351c-5.064,4.29-8.704,1.128-12.422-2.226c-1.858-1.676-3.683-3.378-5.45-5.145
		c-24.514-24.509-49.005-49.038-73.563-73.501c-2.254-2.246-4.293-6.082-8.162-4.504c-4.697,1.915-8.14,5.714-10.359,10.327
		c-0.763,1.585,0.317,3.235,1.21,4.667c1.247,2.001,3.005,3.558,4.625,5.233c21.895,22.641,45.296,43.754,67.265,66.318
		c1.881,1.932,5.407,3.739,3.992,6.821c-1.581,3.446-4.775,5.966-8.942,6.396c-2.487,0.257-4.997,0.086-7.496,0.114
		c-2.541,0.028-5.124,0.248-7.144,1.846c-3.676,2.908-7.848,3.362-12.273,3.154c-7.08-0.333-13.995,0.179-20.288,3.976
		c-1.45,0.875-3.176,1.041-4.853,0.977c-15.331-0.593-30.595,1.401-45.928,1.148c-4.798-0.079-8.623-1.374-12.313-4.347
		c-44.503-35.854-89.162-71.513-133.633-107.404c-8.558-6.906-17.193-13.718-25.747-20.63c-2.13-1.721-4.266-3.268-7.229-2.312
		C342.574,800.091,337.374,795.577,333,790z"/>
	<path fill-rule="evenodd" clip-rule="evenodd" fill="#FEFEFE" d="M641.002,207.727c9.291,3.485,18.462,7.394,26.827,12.652
		c7.301,4.589,14.339,9.703,20.611,15.808c6.047,5.883,11.266,12.442,16.727,18.813c2.83,2.192,4.652,5.063,5.688,8.461
		c5.582,10.259,10.516,20.782,14.273,31.885c3.687,10.895,6,22.037,7.644,33.382c0.5,3.454-0.374,4.699-3.925,4.834
		c-17.145,0.655-34.281,1.513-51.421,2.284c-13.979,0.629-27.964,1.126-41.932,1.935c-3.593,0.208-4.753-0.462-4.864-4.409
		c-0.411-14.538-6.976-26.301-18.168-35.232c-16.104-12.85-34.78-19.483-55.276-20.25c-16.665-0.623-24.418,8.761-21.972,25.412
		c0.266,1.81,0.704,3.593,1.024,5.396c1.156,6.521,4.36,11.062,10.291,14.797c33.662,21.206,67.018,42.897,100.475,64.429
		c1.795,1.155,3.56,2.356,6.096,4.039c-11.865,2.442-22.914,4.719-33.964,6.99c-43.293,8.896-86.59,17.778-129.877,26.703
		c-4.801,0.99-9.114,0.116-13.059-2.744c-15.237-9.322-29.704-19.61-41.766-32.966c-19.539-21.634-30.179-46.503-29.531-76.152
		c1.288-58.884,44.498-113.482,100.671-126.205c17.377-3.936,34.969-4.762,52.571-1.72c4.88,0.843,6.785-0.321,7.957-5.265
		c3.18-13.418,7.136-26.651,10.502-40.029c0.78-3.101,1.836-3.455,4.704-2.669c19.076,5.231,38.209,10.257,57.299,15.443
		c1.374,0.373,3.615,0.107,3.502,2.653c0.474,0.88,0.251,1.784,0.108,2.688c-0.066,1.721-1.356,2.857-2.048,4.281
		c-2.602,9.563-6.003,18.898-7.404,28.808c-0.385,2.713-1.878,5.466-2.896,8.174c-1.602,4.261-0.146,5.468,3.859,5.144
		C636.193,205.861,639.142,205.29,641.002,207.727z"/>
	<path fill-rule="evenodd" clip-rule="evenodd" fill="#FEFEFE" d="M539.098,488.312c21.366-12.21,42.733-24.42,64.099-36.633
		c2.433-1.391,4.854-2.799,7.614-4.393c2.145,9.152,0.445,17.319-3.337,25.109c-4.955,10.205-12.928,17.693-22.465,23.518
		c-59.063,36.073-118.043,72.283-177.297,108.039c-39.701,23.957-79.218,48.272-120.576,69.36
		c-16.655,8.493-33.965,15.355-52.506,18.218c-7.753,1.197-15.785,1.117-23.625-0.552c-30.021-12.594-36.163-51.917-11.499-73.62
		c31.942-28.107,73.649-27.346,104.572,1.957c1.904,1.805,3.188,3.08,6.238,1.308c43.996-25.563,88.096-50.947,132.165-76.385
		c0.558-0.322,1.036-0.783,1.551-1.18c0.894-1.464,2.228-2.42,3.693-3.235c14.761-8.211,29.113-17.118,43.705-25.618
		c1.694-0.986,3.302-2.354,5.505-1.492C510.988,504.579,525.043,496.445,539.098,488.312z"/>
	<path fill-rule="evenodd" clip-rule="evenodd" fill="#CD4458" d="M333,790c5.579,3.672,10.098,8.758,15.998,12.002
		c2.944,0.957,5.08,3.114,7.414,4.982c55.026,44.03,109.901,88.25,164.843,132.385c5.736,4.607,11.528,6.263,18.458,5.09
		c14.444-2.446,29.073-3.707,43.491-6.071c11.768-1.93,23.77-3.205,35.233-6.949c6.015-1.964,12.457-2.2,18.425-4.503
		c6.681-2.578,6.856-2.961,1.894-7.926c-24.506-24.516-49.019-49.022-73.528-73.534c-1.178-1.179-2.368-2.345-3.515-3.555
		c-0.574-0.606-1.285-1.186-1.532-1.957c-1.897-5.923,3.926-7.325,6.429-10.619c1.753-2.308,4.189-2.515,6.512-0.367
		c1.347,1.245,2.643,2.54,3.938,3.836c27.104,27.101,54.205,54.206,81.312,81.305c4.903,4.9,4.972,4.663,11.25,2.276
		c10.105-3.843,20.228-7.589,30.144-11.944c21.701-9.531,42.501-20.723,62.446-33.46c24.064-15.367,46.326-33.049,67.281-52.487
		c11.262-10.446,22.045-21.247,31.854-33.043c15.81-17.444,29.718-36.318,42.199-56.256c1.501-2.397,3.244-4.624,4.591-7.138
		c1.818-3.394,1.748-6.308-1.263-8.957c-1.123-0.987-2.125-2.114-3.186-3.174c-30.863-30.864-61.729-61.725-92.587-92.593
		c-5.959-5.961-5.928-6.497,1.258-10.68c7.628-4.441,15.337-8.742,22.979-13.158c5.199-3.005,5.339-3.551,1.007-7.891
		c-27.66-27.706-55.356-55.374-83.036-83.061c-3.416-3.417-6.878-6.788-10.22-10.277c-1.121-1.171-2.676-2.343-2.108-4.23
		c0.575-1.912,2.441-2,4.105-2.246c8.727-1.292,17.484-2.37,26.186-3.826c4.055-0.679,6.985,0.965,9.755,3.753
		c15.498,15.602,31.073,31.125,46.623,46.674c36.754,36.752,73.507,73.506,110.261,110.259c0.942,0.942,1.92,1.853,2.824,2.83
		c2.06,2.226,3.774,2.665,5.068-0.718c0.653-1.708,1.765-3.241,2.288-4.992c6.521-21.802,14.151-43.235,18.253-65.79
		c2.204-12.122,3.88-24.269,5.691-36.426c0.899-6.041,3.449-11.812,2.934-18.119c-0.085-1.046,0.195-2.424,1.865-2.411
		c-0.02,27.256-2.584,54.262-7.964,80.99c-1.623,2.225-2.15,4.879-2.492,7.474c-0.653,4.965-1.395,9.743-4.661,13.907
		c-1.869,2.383-0.845,5.771-1.717,8.593c-1.913,4.579-5.838,8.439-5,14c-0.517,3.075-2.023,5.655-4,8c-0.942,3.614-2.159,6.844-7,5
		c-3.991-2.976-8.16-5.758-11-10c-1.04-1.74-2.549-3.068-3.96-4.479C892.52,604,856,567.479,819.479,530.96
		c-1.41-1.41-2.73-2.929-4.479-3.96c-9.112-10.3-19.275-19.569-28.898-29.367c-3.588-3.652-6.939-7.572-11.102-10.633
		c-8.331-0.082-16.41,1.896-24.601,2.977c-2.337,0.308-2.566,1.181-1.082,2.8c0.9,0.982,1.865,1.905,2.808,2.847
		c29.458,29.459,58.918,58.915,88.373,88.378c6.173,6.174,6.023,8.013-1.524,12.577c-7.67,4.639-15.412,9.173-23.277,13.471
		c-3.345,1.828-2.934,3.286-0.623,5.565c8.186,8.074,16.281,16.239,24.412,24.37c23.802,23.803,47.601,47.608,71.418,71.396
		c1.286,1.285,2.728,2.416,4.097,3.618c3.3,3.997,0.898,7.476-1,11c-0.941,3.12-3.011,5.535-5,8c-1.369,2.546-3.273,4.709-5,7
		c-1.231,4.643-4.914,7.796-7.482,11.553c-2.399,3.508-4.468,7.367-7.518,10.447c-1.587,3.581-4.834,5.87-7,9c-1,1-2,2-3,3
		c-1.471,2.163-2.481,4.71-5,6c-1.455,3.075-4.047,5.298-6,8c-1.371,2.246-3.673,3.718-5,6c-0.333,0.333-0.667,0.667-1,1
		c-9.8,10.866-20.134,21.199-31,31c-4.333,3.667-8.667,7.333-13,11c-1.763,1.951-3.575,3.843-6,5c-0.333,0.333-0.667,0.667-1,1
		c-5.503,4.848-11.166,9.518-17.172,13.712c-5.756,4.02-11.385,8.228-17.095,12.303c-3.857,2.754-8.664,4.122-11.733,7.985
		c-5.744,0.254-8.92,5.274-13.701,7.453c-5.438,2.479-10.362,6.058-15.787,8.735c-3.646,1.799-7.476,3.547-10.792,5.724
		c-8.024,5.267-17.029,8.508-25.583,12.394c-5.784,2.627-11.718,5.958-18.342,6.985c-2.397,0.372-4.657,1.55-6.786,2.996
		c-4.096,2.782-9.725,2.183-13.884-0.493c-4.887-3.144-7.903-7.996-11.864-11.975c-24.564-24.68-49.212-49.276-73.847-73.886
		c-1.377-1.376-2.552-3.266-4.946-2.84c-1.973,0.351-3.178,1.82-4.073,3.411c-0.946,1.684,0.43,2.762,1.46,3.843
		c0.345,0.362,0.706,0.708,1.057,1.063c26.205,26.538,52.406,53.079,78.616,79.611c5.159,5.223,4.821,5.917-1.004,9.886
		c-4.514,3.076-9.234,4.23-14.436,4.063c-4.292-0.139-7.269,2.995-11.065,4.114c-4.274,1.261-8.895-0.212-12.815,1.209
		c-9.657,3.499-20.015,3.029-29.524,5.368c-14.911,3.668-29.623,2.806-44.466,3.335c-4.678,0.167-8.543-1.381-12.279-4.419
		c-19.405-15.773-39.029-31.278-58.537-46.927c-17.572-14.097-35.075-28.28-52.642-42.384
		c-14.335-11.509-28.733-22.938-43.079-34.435c-10.858-8.702-21.679-17.45-32.512-26.184C332.623,793.402,331.575,792.005,333,790z"
		/>
	<path fill-rule="evenodd" clip-rule="evenodd" fill="#B83E53" d="M413.245,510.104c-2.713-1.417-4.486-3.888-6.583-5.974
		c-14.557-14.485-29.08-29.004-43.543-43.582c-1.097-1.106-3.542-1.849-2.122-4.312c1.024-1.821,2.902-2.082,4.664-2.478
		c16.358-3.672,32.617-7.765,48.949-11.542c2.954-0.683,6.017-2.257,9.133-0.364c1.305,0.177,2.693,0.089,3.716,1.162
		c6.525,6.846,13.856,12.913,19.709,20.407c-12.182,12.135-18.955,28.021-28.925,41.688
		C416.846,507.027,416.289,509.822,413.245,510.104z"/>
	<path fill-rule="evenodd" clip-rule="evenodd" fill="#FEFEFE" d="M413.245,510.104c8.598-12.566,17.087-25.205,24.783-38.352
		c2.206-3.767,5.013-6.739,9.141-8.331c13.104-6.019,19.637-7.355,29.665-5.82c-4.616,7.614-9.1,15.01-13.584,22.406
		c0.344,2.043-1.009,3.479-1.94,4.986c-8.669,14.029-17.55,27.927-26.196,41.972c-0.775,1.259-1.499,2.633-3.065,3.153
		c-4.263,8.896-12.246,13.514-20.368,18.175c-11.797,6.771-23.36,13.949-35.881,20.193
		C388.281,549.026,400.763,529.565,413.245,510.104z"/>
	<path fill-rule="evenodd" clip-rule="evenodd" fill="#B83E53" d="M432.048,530.119c10.4-16.704,20.801-33.407,31.201-50.111
		c0.858,0.442,1.898,0.703,2.548,1.353c10.408,10.421,20.767,20.892,31.136,31.351c-13.705,7.966-27.397,15.956-41.123,23.886
		c-3.876,2.24-7.851,4.311-11.78,6.459C440.036,538.745,436.042,534.432,432.048,530.119z"/>
	<path fill-rule="evenodd" clip-rule="evenodd" fill="#CD4458" d="M641.166,158.032c0.314-0.676,0.629-1.353,0.943-2.03
		c3.07,0.344,4.93,2.533,6.925,4.528c25.621,25.626,51.242,51.252,76.88,76.862c1.283,1.282,2.721,2.409,4.086,3.607
		c1.123,1.889,2.785,3.301,4.311,4.827c78.619,78.623,157.24,157.244,235.862,235.862c1.526,1.526,2.938,3.188,4.827,4.311
		c0.323,0.332,0.646,0.664,0.971,0.995c1.035,6.285,1.141,12.612,0.857,18.956c-2.986-0.938-2.126-3.56-1.92-5.395
		c0.619-5.512-1.691-9.291-5.509-13.102C861.679,379.9,754.057,272.248,646.424,164.605
		C644.431,162.612,642.195,160.801,641.166,158.032z"/>
	<path fill-rule="evenodd" clip-rule="evenodd" fill="#FEFEFE" d="M423.744,441.853c-13.86,3.119-27.727,6.21-41.579,9.368
		c-7.069,1.611-14.112,3.34-21.167,5.016c-3.4,0.748-6.835,1.367-10.188,2.286c-2.545,0.697-3.68,0.538-3.356-2.632
		c0.66-6.454,1.114-12.94,1.328-19.424c0.1-3.021,1.294-3.469,3.975-3.249c25.686,2.102,51.38,4.091,77.123,6.117
		C428.349,441.406,425.517,440.386,423.744,441.853z"/>
	<path fill-rule="evenodd" clip-rule="evenodd" fill="#CD4459" d="M975,486c-2.141,0.028-3.159-1.683-4.418-2.941
		c-79.226-79.201-158.439-158.414-237.641-237.641c-1.258-1.259-2.97-2.277-2.941-4.418c1.249,1.083,2.571,2.092,3.736,3.257
		c79.347,79.324,158.682,158.659,238.005,238.005C972.907,483.429,973.917,484.75,975,486z"/>
	<path fill-rule="evenodd" clip-rule="evenodd" fill="#EFEFEF" d="M297.245,922.878c-2.523,1.479-5.608,1.989-7.411-0.154
		c-2.929-3.481-7.253-4.141-10.716-6.485c-11.192-7.576-23.149-13.857-34.057-22.068c-9.09-6.842-18.454-13.488-27.206-20.727
		c-2.945-2.436-9.588-3.747-7.89-10.333c19.848,16.392,40.255,32.017,62.4,45.233C280.613,913.265,288.949,918.038,297.245,922.878z
		"/>
	<path fill-rule="evenodd" clip-rule="evenodd" fill="#CD4459" d="M815,527c2.127,0.001,3.164,1.687,4.428,2.949
		c36.888,36.861,73.762,73.735,110.623,110.623c1.263,1.264,2.948,2.301,2.949,4.428c-1.016-0.849-2.104-1.625-3.035-2.557
		c-37.481-37.457-74.951-74.927-112.408-112.408C816.625,529.103,815.849,528.016,815,527z"/>
	<path fill-rule="evenodd" clip-rule="evenodd" fill="#EFEFEF" d="M955.198,371.037c3.029,2.555,4.472,5.575,5.842,9.571
		c2.841,8.287,4.169,16.948,6.813,25.268c2.025,6.375,4.9,13.27,4.628,20.013c-0.244,6.043,1.402,11.428,2.4,17.068
		c0.409,2.312-0.515,3.792-1.986,5.223c-2.101-11.255-4.094-22.532-6.328-33.761C963.645,399.736,959.287,385.419,955.198,371.037z"
		/>
	<path fill-rule="evenodd" clip-rule="evenodd" fill="#CD4459" d="M775,487c1.699-0.037,2.662,1.166,3.711,2.214
		c11.36,11.356,22.719,22.715,34.075,34.075c1.048,1.049,2.251,2.012,2.214,3.711C801.253,514.08,787.92,500.747,775,487z"/>
	<path fill-rule="evenodd" clip-rule="evenodd" fill="#CD4459" d="M765,878c3.109-5.297,9.188-6.649,13.668-10.159
		c8.599-6.736,18.054-12.349,26.104-19.851c1.774-1.654,4.137-2.677,6.229-3.99c-1.014,4.099-5.312,4.958-7.835,7.606
		c-4.01,4.209-9.226,7.309-14.078,10.666c-7.639,5.286-15.396,10.4-23.117,15.567C765.722,878.006,765.326,877.951,765,878z"/>
	<path fill-rule="evenodd" clip-rule="evenodd" fill="#CD4459" d="M831,827c10.333-10.333,20.667-20.667,31-31
		c-0.28,0.758-0.354,1.72-0.871,2.242c-9.253,9.338-18.549,18.634-27.887,27.887C832.72,826.646,831.758,826.72,831,827z"/>
	<path fill-rule="evenodd" clip-rule="evenodd" fill="#CD4459" d="M960,628c-0.324-4.41,0.388-8.5,3.047-12.232
		c2.744-3.853,1.499-8.69,2.736-12.972c0.591-2.043,1.193-3.729,3.087-4.77c-0.814,6.438-2.13,12.772-3.986,18.993
		C960.311,619.369,962.012,624.511,960,628z"/>
	<path fill-rule="evenodd" clip-rule="evenodd" fill="#CD4459" d="M889,763c2.595-5.966,7.217-10.595,10.6-16.045
		c1.297-2.091,2.924-3.977,4.4-5.955c0.45,4.648-3.593,6.896-5.714,10.044C895.485,755.201,893.352,760.008,889,763z"/>
	<path fill-rule="evenodd" clip-rule="evenodd" fill="#CD4459" d="M914,726c0.689-3.635,3.266-7.097,1-11
		C919.945,719.146,916.977,722.573,914,726z"/>
	<path fill-rule="evenodd" clip-rule="evenodd" fill="#CD4459" d="M882,772c1.278-3.82,4.638-6.022,7-9
		C888.299,767.27,885.086,769.585,882,772z"/>
	<path fill-rule="evenodd" clip-rule="evenodd" fill="#CD4459" d="M868,789c1.063-3.369,3.705-5.555,6-8
		C873.438,784.744,870.875,786.989,868,789z"/>
	<path fill-rule="evenodd" clip-rule="evenodd" fill="#CD4459" d="M944,655c4.124,0.84,5.448-2.239,7-5
		C950.575,656.136,949.386,656.985,944,655z"/>
	<path fill-rule="evenodd" clip-rule="evenodd" fill="#CD4459" d="M909,734c0.963-3.106,3.332-5.334,5-8
		C914.023,729.723,911.94,732.13,909,734z"/>
	<path fill-rule="evenodd" clip-rule="evenodd" fill="#CD4459" d="M904,741c0.795-2.956,2.898-4.978,5-7
		C908.537,737.193,906.654,739.372,904,741z"/>
	<path fill-rule="evenodd" clip-rule="evenodd" fill="#CD4459" d="M951,650c1.333-2.667,2.667-5.333,4-8
		C955.194,645.431,954.121,648.228,951,650z"/>
	<path fill-rule="evenodd" clip-rule="evenodd" fill="#CD4459" d="M874,781c1.699-1.973,2.766-4.474,5-6
		C878.355,777.853,877.426,780.466,874,781z"/>
	<path fill-rule="evenodd" clip-rule="evenodd" fill="#CD4459" d="M812,843c1.835-1.864,3.532-3.896,6-5
		C816.958,840.816,815.136,842.696,812,843z"/>
	<path fill-rule="evenodd" clip-rule="evenodd" fill="#CD4459" d="M863,795c0.472-2.996,2.87-4.387,5-6
		C867.528,791.996,865.13,793.387,863,795z"/>
	<path fill-rule="evenodd" clip-rule="evenodd" fill="#B93E53" d="M641.166,158.032c1.469,1.346,2.99,2.638,4.397,4.044
		C753.593,270.089,861.59,378.134,969.717,486.048c4.429,4.419,7.375,8.704,6.342,15.139c-0.248,1.543-0.555,3.355,0.77,4.765
		c0.002,3.695,0.004,7.389,0.006,11.084c-0.267,0.59-0.695,1.159-0.776,1.773c-2.4,18.3-5.188,36.519-8.4,54.713
		c-2.895,16.389-7.782,32.142-12.289,47.997c-2.506,8.817-5.167,17.814-9.359,26.158c-1.207,2.401-2.301,2.553-4.048,0.778
		c-0.936-0.95-1.888-1.882-2.83-2.824c-51.707-51.706-103.587-103.241-154.908-155.329c-6.678-6.778-12.822-7.835-21.099-5.947
		c-5.776,1.318-11.744,1.809-17.632,2.629c-1.281,0.178-3.001-0.394-3.613,1.031c-0.773,1.801,1.21,2.518,2.165,3.476
		c29.175,29.245,58.392,58.449,87.602,87.659c2.474,2.474,4.995,4.901,7.407,7.433c3.447,3.618,3.219,4.515-1.102,6.962
		c-8.954,5.072-17.729,10.483-26.844,15.245c-3.994,2.086-3.722,3.222-0.828,6.097c26.944,26.764,53.763,53.655,80.617,80.51
		c5.535,5.535,10.867,11.298,16.679,16.528c3.866,3.479,4.102,6.718,1.541,10.912c-5.869,9.616-12.066,19.01-18.623,28.169
		c-7.619,10.645-15.687,20.943-24.118,30.953c-1.269,1.506-2.909,2.698-4.377,4.036c-4.449-2.961-4.288-4.411,1.002-8.995
		c0.333-0.333,0.667-0.667,1-1c9.049-12.591,19.163-24.365,27.602-37.459c3.97-6.158,7.425-12.765,12.379-18.35
		c2.47-2.784,1.399-5.465-1.309-8.157c-31.644-31.446-63.147-63.032-94.679-94.591c-1.271-1.273-2.906-2.303-3.408-4.203
		c-1.041-3.936,1.47-5.725,4.415-7.24c2.177-1.607,4.871-2.309,7-4c2.177-1.607,4.871-2.309,7-4c2.177-1.607,4.871-2.309,7-4
		c1.335-0.996,2.865-1.643,4.336-2.391c1.84-0.937,1.76-2.164,0.664-3.609c-0.896-0.73-1.866-1.388-2.68-2.201
		c-30.386-30.36-60.759-60.733-91.119-91.119c-0.813-0.814-1.471-1.783-2.201-2.68c-2.59-5.201-1.93-7.38,3.227-8.212
		c9.701-1.565,19.461-2.769,29.186-4.207c2.553-0.377,5.345-0.56,7.588,1.418c1.982,1.28,3.521,3.05,5.169,4.697
		c50.556,50.549,101.108,101.102,151.662,151.653c1.061,1.061,2.113,2.129,3.196,3.167c1.413,1.356,2.061,0.846,2.827-0.798
		c2.2-4.717,4.07-9.421,5.536-14.517c1.699-5.905,2.933-12.204,5.287-17.656c2.731-6.325,3.872-12.479,4.383-19.046
		c0.065-0.844,0.182-1.801,0.695-2.371c5.412-6.018,3.274-13.575,4.191-20.486c0.265-1.993,0.055-4.249,1.306-5.752
		c3.403-4.09,3.132-8.828,3.325-13.661c0.369-9.283-0.474-18.708,1.59-27.809c1.537-6.779,3.611-13.337,3.478-20.448
		c-0.068-3.668-1.209-6.152-3.744-8.684c-82.661-82.544-165.25-165.162-247.85-247.768c-1.764-1.764-3.67-3.405-5.052-5.522
		c-1.084-1.251-2.097-2.574-3.264-3.743c-22.259-22.287-44.52-44.572-66.852-66.785c-1.221-1.214-2-3.868-4.715-2.501
		C640.502,161.325,640.834,159.679,641.166,158.032z"/>
	<path fill-rule="evenodd" clip-rule="evenodd" fill="#FEFEFE" d="M553.919,570.701c1.349-1.415,2.35-2.502,3.389-3.551
		c31.186-31.481,62.419-62.917,93.493-94.508c2.885-2.934,4.358-2.979,7.297-0.079c11.051,10.908,21.218,22.516,30.539,34.947
		c27.926,37.244,26.515,84.823,2.731,121.121c-14.984,22.87-35.034,40.383-57.658,55.223c-9.606,6.302-19.548,12.067-30.036,16.771
		c-3.188,1.43-4.044,2.699-3.025,6.289c4.397,15.507,8.298,31.154,12.603,46.688c0.816,2.945,0.438,3.911-2.656,4.719
		c-20.743,5.417-41.437,11.024-62.104,16.72c-3.042,0.839-4.219,0.394-5.05-2.886c-3.592-14.175-7.573-28.25-11.265-42.401
		c-0.597-2.288-1.058-3.457-3.873-2.841c-37.161,8.141-70.327-2.846-101.812-21.557c-4.142-2.461-7.914-5.544-12.06-7.996
		c-3.439-2.033-3.35-3.307-0.292-5.875c22.699-19.068,45.522-38.004,67.69-57.677c7.579-6.726,14.942-9.68,25.226-9.219
		c18.807,0.844,37.597-0.863,55.76-6.596c7.532-2.377,14.617-5.606,20.206-11.413c8.604-8.938,7.806-17.594-2.271-24.76
		c-6.743-4.796-14.449-7.43-22.279-9.765C557.096,571.646,555.722,571.238,553.919,570.701z"/>
	<path fill-rule="evenodd" clip-rule="evenodd" fill="#FEFEFE" d="M302.785,728.054c2.746-24.34,12.41-46.244,23.783-67.547
		c0.544-1.02,1.051-2.054,2.241-2.563c11.226-4.806,22.442-9.636,34.986-15.029c-3.288,6.57-5.813,11.906-8.613,17.093
		c-1.412,2.614-1.156,3.809,1.759,5.145c10.951,5.02,20.861,11.621,29.655,19.962c14.592,13.839,15.951,30.683,11.291,48.799
		c-4.771,18.545-14.752,32.906-33.744,39.289c-3.26,1.095-6.793,1.376-10.201,2.033c-3.301,0.377-6.601,0.455-9.897-0.058
		c-8.762-0.379-17.303-2.423-24.741-6.759c-10.214-5.953-15.643-15.52-16.5-27.467C302.32,736.652,302.362,732.354,302.785,728.054z
		"/>
	<path fill-rule="evenodd" clip-rule="evenodd" fill="#B83E53" d="M863,777c-1.735,2.842-5.201,5.492-1.002,8.995
		c-2.963,5.7-7.772,9.961-12.11,14.419c-26.708,27.443-55.885,51.964-88.302,72.464c-13.183,8.336-26.879,15.769-40.767,22.915
		c-12.548,6.457-25.532,11.828-38.438,17.418c-5.458,2.365-11.287,3.865-16.792,6.135c-2.99,1.231-4.303-0.564-5.927-2.188
		c-12.727-12.717-25.446-25.441-38.168-38.163c-16.021-16.021-32.115-31.968-47.993-48.128c-2.846-2.896-4.43-2.669-7.093,0.1
		c-6.832,7.104-6.958,6.984,0.149,14.091c25.09,25.091,50.184,50.178,75.268,75.274c4.105,4.107,4.167,4.346-1.242,6.342
		c-12.296,4.537-25.041,7.402-37.985,9.295c-8.186,1.197-16.066,3.927-24.376,4.478c-13.542,0.897-26.89,3.317-40.241,5.594
		c-8.797,1.499-14.688-3.387-20.837-8.348c-19.591-15.809-39.34-31.42-58.962-47.19c-19.496-15.67-38.879-31.479-58.371-47.154
		c-16.132-12.973-32.355-25.831-48.512-38.771c-0.886-0.71-1.54-1.709-2.302-2.574c1.996-1.725,3.465-1.847,5.868,0.117
		c18.208,14.881,36.609,29.526,54.978,44.211c17.463,13.959,34.985,27.846,52.436,41.82c16.032,12.839,32,25.756,48.003,38.629
		c3.227,2.596,6.553,5.072,9.7,7.76c1.401,1.196,2.872,1.505,4.59,1.469c16.949-0.351,33.898-0.722,50.85-0.979
		c2.929-0.044,4.783-2.152,7.228-3.107c6.086-2.379,12.417-2.001,18.715-1.885c3.45,0.063,6.406-0.512,9.197-2.907
		c3.412-2.928,7.916-2.526,11.972-2.013c4.743,0.601,7.786-1.925,11.059-4.449c1.754-1.353,1.122-2.499-0.113-3.679
		c-11.675-11.14-22.487-23.142-34.602-33.863c-8.219-7.273-15.66-15.427-23.442-23.192c-5.188-5.179-10.446-10.29-15.527-15.572
		c-5.025-5.225-4.962-7.72-0.112-12.655c9.62-9.79,9.62-9.79,19.424,0.014c24.385,24.385,48.77,48.77,73.154,73.154
		c0.825,0.824,1.545,1.806,2.495,2.443c3.863,2.592,6.037,6.212,13.034,3.693c6.669-2.399,13.569-5.398,20.356-7.712
		c5.354-1.826,11.342-4.129,16.701-7.237c4.589-2.661,9.399-5.896,14.926-7.058c3.92-0.823,7.1-3.712,10.107-5.694
		c4.22-2.782,9.072-4.293,13.212-7.332c3.658-2.687,7.782-5.388,12.273-7.046c3.582-1.322,6.352-4.12,9.382-6.197
		c16.361-11.213,32.707-22.574,47.503-35.828c11.945-10.7,23.222-22.159,34.608-33.47c4.316-4.287,8.152-9.064,12.118-13.695
		C860.191,778.453,861.084,777.047,863,777z"/>
	<path fill-rule="evenodd" clip-rule="evenodd" fill="#B83E53" d="M715,236c1.486,1.319,3.045,2.566,4.447,3.968
		c81.868,81.845,163.614,163.813,245.783,245.354c6.757,6.706,8.299,13.784,6.391,21.416c-3.705,14.82-3.975,29.808-4.657,44.841
		c-0.073,1.628-0.212,3.484-1.024,4.802c-2.258,3.66-3.438,7.524-3.124,11.773c0.808,10.953-6.81,20.278-5.987,31.27
		c0.109,1.468-1.13,3.071-1.857,4.557c-0.509,1.037-1.74,1.977-1.745,2.965c-0.044,8.449-5.337,15.489-6.218,23.673
		c-0.484,4.495-4.77,7.123-5.452,11.552c-0.148,0.968-1.411,0.317-2.033-0.215c-0.758-0.648-1.444-1.38-2.151-2.087
		c-51.823-51.821-103.647-103.643-155.459-155.478c-1.05-1.051-1.944-2.258-2.912-3.392c2.51,0.094,3.645,2.186,5.127,3.667
		c50.699,50.652,101.376,101.328,152.021,152.034c1.275,1.278,2.158,2.947,3.598,4.955c3.008-6.573,7.599-10.909,6.499-17.53
		c-0.191-1.148,1.267-2.604,2.042-3.87c0.518-0.844,1.743-1.647,1.684-2.392c-0.706-8.867,6.273-15.821,6.017-24.525
		c-0.126-4.256,0.281-8.229,3.475-11.554c1.853-1.929,1.546-4.622,1.554-7.139c0.021-6.569-0.996-13.279,3.842-19.005
		c1.446-1.711,1.124-4.406,1.181-6.766c0.236-9.792-0.563-19.586,0.813-29.391c0.609-4.341,3.476-7.786,3.514-12.363
		c0.022-2.711,0.354-5.591,0.688-8.374c0.467-3.885-1.174-6.505-3.855-9.141c-28.399-27.916-56.419-56.215-84.697-84.255
		c-51.475-51.038-102.426-102.604-153.597-153.947c-3.765-3.777-7.553-7.533-11.307-11.321C716.443,238.919,714.975,237.926,715,236
		z"/>
	<path fill-rule="evenodd" clip-rule="evenodd" fill="#B83E53" d="M809,606c-5.614,5.576-5.61,5.889,0.202,11.702
		c31.074,31.075,62.15,62.148,93.223,93.226c4.719,4.72,4.397,6.435,0.525,11.778c-5.973,8.242-11.211,17.015-17.037,25.369
		c-4.345,6.231-9.085,12.192-13.73,18.21c-2.587,3.352-4.081,7.638-8.183,9.715c3.498-6.575,8.127-12.406,12.785-18.115
		c6.896-8.452,12.602-17.635,18.5-26.748c2.221-3.433,3.898-7.412,6.731-10.239c3.618-3.61,2.679-5.808-0.451-8.922
		c-31.482-31.334-62.865-62.768-94.259-94.191c-1.489-1.491-3.184-2.752-3.368-5.288C803.655,608.609,805.132,606.469,809,606z"/>
	<path fill-rule="evenodd" clip-rule="evenodd" fill="#B83E53" d="M779,481c-7.983-2.776-15.598,1.083-23.417,1.367
		c-3.748,0.136-7.458,1.134-11.2,1.635c-6.238,0.834-6.988,1.902-5.383,7.999c-3.432-4.11-2.923-7.413,1.797-8.302
		c11.104-2.091,22.267-3.945,33.569-4.688C776.217,478.889,778.066,478.917,779,481z"/>
	<path fill-rule="evenodd" clip-rule="evenodd" fill="#B93E53" d="M710.855,263.461c-2.367-2.504-4.114-5.425-5.688-8.461
		C709.188,256.391,711.063,259.227,710.855,263.461z"/>
	<path fill-rule="evenodd" clip-rule="evenodd" fill="#B83E53" d="M835,588c1.855,1.017,2.646,2.315,0.462,3.674
		c-1.67,1.039-3.384,2.161-5.462,2.326C830.837,591.309,835.663,591.941,835,588z"/>
	<path fill-rule="evenodd" clip-rule="evenodd" fill="#CD4459" d="M302.785,728.054c0.006,4.299,0.012,8.599,0.019,12.897
		C301.466,736.653,301.491,732.354,302.785,728.054z"/>
	<path fill-rule="evenodd" clip-rule="evenodd" fill="#B93E53" d="M641.002,207.727c-2.424-0.876-4.849-1.753-7.273-2.629
		C636.626,204.665,639.755,203.592,641.002,207.727z"/>
	<path fill-rule="evenodd" clip-rule="evenodd" fill="#B83E53" d="M816,602c-1.654,2.522-4.316,3.279-7,4
		C810.654,603.478,813.316,602.721,816,602z"/>
	<path fill-rule="evenodd" clip-rule="evenodd" fill="#CD4459" d="M344.044,775.177c3.299,0.02,6.599,0.038,9.897,0.058
		C350.636,776.471,347.336,776.527,344.044,775.177z"/>
	<path fill-rule="evenodd" clip-rule="evenodd" fill="#B83E53" d="M823,598c-1.654,2.522-4.316,3.279-7,4
		C817.654,599.478,820.316,598.721,823,598z"/>
	<path fill-rule="evenodd" clip-rule="evenodd" fill="#B83E53" d="M830,594c-1.654,2.522-4.316,3.279-7,4
		C824.654,595.478,827.316,594.721,830,594z"/>
	<path fill-rule="evenodd" clip-rule="evenodd" fill="#B83E53" d="M225.599,672.26c-5.136-0.184-12.527-0.329-15.914-8.096
		c-4.392-10.071-8.289-20.358,0.741-30.26c13.457-14.757,29.52-20.289,49.1-14.519c12.254,3.612,23.414,9.351,34.179,16.093
		c3.357,2.102,2.357,3.564,0.286,5.623c-12.648,12.572-27.796,21.01-44.479,26.878C242.423,670.474,235.166,672.27,225.599,672.26z"
		/>
	<path fill-rule="evenodd" clip-rule="evenodd" fill="#B83E53" d="M355.843,756.047c-7.489-0.264-14.497-2.421-20.512-6.763
		c-8.448-6.098-9.002-15.08-7.221-24.295c2.838-14.68,10.519-27.11,18.965-39.13c1.012-1.439,1.851-1.387,3.162-0.346
		c11.152,8.859,21.493,18.492,27.479,31.725c6.646,14.69-1.607,33.902-15.954,38.056
		C359.803,755.861,357.858,756.034,355.843,756.047z"/>
</g>
</svg>
