<?xml version="1.0" encoding="utf-8"?>
<!-- Generator: Adobe Illustrator 16.0.3, SVG Export Plug-In . SVG Version: 6.00 Build 0)  -->
<!DOCTYPE svg PUBLIC "-//W3C//DTD SVG 1.1//EN" "http://www.w3.org/Graphics/SVG/1.1/DTD/svg11.dtd">
<svg version="1.1" xmlns="http://www.w3.org/2000/svg" xmlns:xlink="http://www.w3.org/1999/xlink" x="0px" y="0px" width="1024px"
	 height="1024px" viewBox="0 0 1024 1024" enable-background="new 0 0 1024 1024" xml:space="preserve">
<g id="圖層_1">
</g>
<g id="圖層_2">
	<g>
		<g>
			<circle fill="#EFEFEF" cx="512" cy="512" r="484.061"/>
			<circle fill="#1EB2A0" cx="512" cy="512" r="457.113"/>
		</g>
		<g>
			<defs>
				<circle id="SVGID_1_" cx="512" cy="512" r="457.113"/>
			</defs>
			<clipPath id="SVGID_2_">
				<use xlink:href="#SVGID_1_"  overflow="visible"/>
			</clipPath>
			<path opacity="0.1" clip-path="url(#SVGID_2_)" d="M637.365,156.002l489.92,489.92l-94.432,94.432L775.74,483.24l-34.76,4.807
				l97.736,97.736l-29.588,29.588l176.744,176.744L758.998,1018.99L571.054,831.046l-9.339,9.339l184.2,184.2l-93.051,93.051
				l-453.05-453.05c0,0-13.981-42.392,23.353-51.572s86,23.805,86,23.805L393.834,594l-21.774-21.773l47.107-58.223l-64.365-64.365
				l75.078-10.303l79.226,79.226l28.062-28.062l-60.65-60.65L474.501,241L637.365,156.002z"/>
		</g>
		<g>
			<path fill="#FFFFFF" d="M610.811,447.286L305.834,621.167c-43.333-46.667-111.333-14.667-121.615,14s11.615,76,76.749,49.586
				S564.854,508.23,590.802,492.002S610.811,447.286,610.811,447.286z M235.167,672.26c-35.333,11.094-42.667-30.427-11.461-49.349
				s72.186,13.588,72.186,13.588C289.283,649.166,270.5,661.167,235.167,672.26z"/>
			<path fill="#FFFFFF" d="M353.941,663.167l9.854-20.251l-34.986,15.028c-41.691,46.11-28.691,95.428-20.975,105.056
				c11.22,14,64,32.167,88.763-18.5S353.941,663.167,353.941,663.167z M375.8,743.807c-18.633,30.026-58.623,2.493-46.628-23.407
				s19.824-35.595,19.824-35.595S394.433,713.781,375.8,743.807z"/>
			<path fill="#FFFFFF" d="M654.58,470.415L553.918,570.701c0,0,47.248-6.868,34.929,25.299s-91.914,29.445-91.914,29.445
				l-85.084,70.388c52.682,44.667,115.318,32.222,115.318,32.222L544.916,775l68.683-18.952l-13.318-50.892
				c21.114-9.344,68.558-49.2,68.558-49.2C769.843,561.412,654.58,470.415,654.58,470.415z"/>
			<path fill="#FFFFFF" d="M438.028,471.752c-12.907,20.697-62.228,96.734-62.228,96.734l50.517-30.375l50.517-80.51
				C476.834,457.601,450.934,451.055,438.028,471.752z"/>
			<polygon fill="#FFFFFF" points="348.996,433.171 347.4,458.861 429.88,439.336 			"/>
			<path fill="#FFFFFF" d="M483.833,427.727L653.1,391.963c0,0-97.934-62.796-109.934-71.463s-29.333-56,32.133-40.282
				s53.867,58.267,53.867,58.267l103.735-4.652C721.97,223.833,629.533,204,629.533,204l12.575-47.998L578.5,137.549l-17.422,46.871
				c-87.422-12.747-156.176,49.413-156.176,129.374S483.833,427.727,483.833,427.727z"/>
		</g>
	</g>
</g>
</svg>
