<?xml version="1.0" encoding="utf-8"?>
<!-- Generator: Adobe Illustrator 16.0.3, SVG Export Plug-In . SVG Version: 6.00 Build 0)  -->
<!DOCTYPE svg PUBLIC "-//W3C//DTD SVG 1.1//EN" "http://www.w3.org/Graphics/SVG/1.1/DTD/svg11.dtd">
<svg version="1.1" id="圖層_1" xmlns="http://www.w3.org/2000/svg" xmlns:xlink="http://www.w3.org/1999/xlink" x="0px" y="0px"
	 width="1024px" height="1024px" viewBox="0 0 1024 1024" enable-background="new 0 0 1024 1024" xml:space="preserve">
<g>
	<path fill-rule="evenodd" clip-rule="evenodd" fill="#EFEFEF" d="M219.991,898.005c-7.906-3.997-14.162-10.245-21.017-15.64
		c-16.361-12.877-31.324-27.341-45.5-42.533c-21.889-23.459-41.17-48.98-58.208-76.195c-8.477-13.541-16.349-27.412-23.295-41.783
		c-16.758-34.673-29.124-70.832-37.215-108.527c-3.405-15.865-6.421-31.782-8.493-47.835c-1.225-9.487-1.752-19.119-2.446-28.698
		c-0.975-13.474-1.133-26.938-0.694-40.374c0.713-21.827,2.735-43.552,6.552-65.117c5.212-29.448,12.219-58.411,22.312-86.563
		c10.964-30.586,24.723-59.845,42.063-87.407c10.351-16.453,21.188-32.567,33.29-47.744c16.478-20.666,34.466-39.934,54.093-57.75
		c21.83-19.817,45.308-37.331,70.131-53.098c21.502-13.658,44.124-25.167,67.646-35.012c20.425-8.549,41.334-15.584,62.727-21.092
		c21.305-5.485,42.837-9.923,64.712-12.751c24.92-3.222,49.92-4.633,74.979-3.737c16.837,0.601,33.638,2.138,50.383,4.534
		c23,3.29,45.587,8.308,67.951,14.379c22.305,6.055,43.933,14.081,65.086,23.426c22.87,10.105,44.649,22.226,65.48,35.951
		c17.856,11.765,34.851,24.741,51.201,38.601c13.615,11.542,26.419,23.907,38.518,36.921c20.924,22.508,39.765,46.715,55.758,73.041
		c-0.563,1.435-1.64,1.804-3.054,1.476c-2.23-1.1-3.244-3.285-4.534-5.198c-16.135-23.91-33.423-46.858-53.164-68.009
		c-32.682-35.014-70.313-63.563-111.552-87.581c-12.381-7.21-25.043-13.901-38.2-19.62c-1.841-0.8-3.662-1.594-5.635-2.015
		c-23.981-10.117-48.411-18.892-73.726-25.086c-23.486-5.748-47.118-10.645-71.262-12.682c-1.512-0.127-2.951-0.505-4.34-1.101
		c-3.391-1.505-6.979-0.555-10.468-0.827c-2.255-0.149-4.445-0.749-6.698-0.91c-4.678-0.116-9.354-0.056-14.028-0.016
		c-0.83,0.071-1.718,0.186-2.477-0.085c-7.702-2.759-15.379-1.474-23.063,0.054c-4.981,0.001-9.963-0.063-14.941,0.054
		c-1.689,0.22-3.347,0.639-5.041,0.832c-4.099,0.521-8.361-0.852-12.338,1.085c-3.268,1.612-6.87,1.096-10.307,1.516
		c-11.901,1.454-23.683,3.646-35.525,5.438c-3.993-0.029-8.003-0.138-11.511,2.296c-2.252,0.916-4.597,1.45-7.012,1.689
		c-7.342,0.347-14.346,2.043-20.965,5.268c-9.23,2.827-18.436,5.74-27.671,8.552c-4.434,0.45-8.664,1.482-12.247,4.344
		c-11.108,4.915-22.451,9.258-33.482,14.395c-17.401,8.102-33.902,17.748-50.28,27.66c-1.28,0.775-2.476,1.693-3.886,2.238
		c-4.166,0.983-7.628,3.047-10.11,6.614c-11.808,8.928-24.269,16.974-35.687,26.429c-5.133,3.058-9.441,7.121-13.695,11.25
		c-0.321,0.336-0.673,0.635-1.036,0.924c-3.431,2.009-5.803,5.246-8.872,7.675c-8.972,6.436-16.697,14.103-22.962,23.221
		c-28.743,30.439-52.535,64.378-72.421,101.188c-18.074,33.456-31.481,68.661-40.794,105.453
		c-6.005,23.722-10.467,47.722-13.054,72.104c-0.639,6.023-1.66,12.3-1.835,18.169c-0.304,10.126-1.354,20.093-2.063,30.135
		c-0.406,5.756,2.068,12.087,2.121,18.187c0.254,29.351,5.077,58.088,11.318,86.619c6.597,30.16,16.032,59.426,28.45,87.737
		c12.957,29.542,29.087,57.229,47.444,83.71c14.072,20.298,30.564,38.588,46.664,57.202c5.763,6.663,12.917,11.985,19.323,18.014
		c10.8,10.164,22.445,19.242,33.933,28.543c2.315,1.874,5.025,3.275,6.849,5.74C222.377,897.328,221.805,898.251,219.991,898.005z"
		/>
	<path fill-rule="evenodd" clip-rule="evenodd" fill="#EFEFEF" d="M913,254c1.002-0.334,2.003-0.668,3.005-1.002
		c5.311,6.851,9.24,14.562,13.461,22.063c16.033,28.496,28.763,58.463,38.252,89.723c7.072,23.298,12.641,46.995,16.348,71.105
		c2.518,16.371,4.076,32.795,5.188,49.334c0.964,14.327,1.172,28.641,0.551,42.876c-1.604,36.811-7.588,73.016-17.161,108.63
		C965.6,662.935,956.338,688.273,945.12,713c-15.89,35.024-36.682,66.962-60.084,97.251c-14.851,19.222-31.462,36.996-49.355,53.413
		c-27.586,25.309-57.62,47.382-90.103,66.104c-28.78,16.588-59.026,29.806-90.689,39.713c-24.524,7.674-49.49,13.605-74.907,17.586
		c-16.2,2.537-32.461,4.072-48.833,5.175c-13.991,0.941-27.969,1.147-41.875,0.548c-20.465-0.882-40.878-2.823-61.124-6.492
		c-29.096-5.274-57.751-12.12-85.617-22.031c-30.937-11.003-60.507-24.886-88.327-42.437c-10.538-6.647-20.856-13.601-31.07-20.725
		c-1.252-0.873-2.459-1.696-3.145-3.101c0.956-0.381,1.627-1.048,2.009-2.005c2.297-0.829,3.755,0.737,5.343,1.893
		c19.692,14.325,40.335,27.165,62.047,38.141c28.438,14.374,58.074,25.79,88.858,34.171c22.816,6.211,45.911,11.112,69.34,14.198
		c14.647,1.93,29.407,2.794,44.195,3.509c11.833,0.573,23.563-0.058,35.328-0.31c19.636-0.42,39.077-2.958,58.401-6.358
		c37.335-6.569,73.661-16.708,108.555-31.592c11.913-5.081,24-9.925,34.973-16.982c11.098-5.528,21.529-12.235,32.25-18.431
		c3.047-1,5.648-2.756,8.071-4.812c1.018-0.898,2.063-1.758,3.316-2.317c2.694-1.119,4.97-2.833,6.973-4.935
		c10.667-7.948,21.335-15.892,31.86-24.026c7.768-5.427,14.855-11.648,21.539-18.347c1.29-1.292,2.545-2.621,3.908-3.841
		c0.343-0.311,0.714-0.585,1.097-0.843c5.216-4.063,9.786-8.774,13.956-13.887c0.244-0.394,0.523-0.758,0.818-1.112
		c6.043-5.944,11.836-12.117,17.106-18.766c0.242-0.391,0.521-0.754,0.814-1.107c1.657-1.837,3.637-3.428,4.479-5.89
		c7.985-10.618,15.849-21.328,23.845-31.938c2.346-1.772,3.936-4.105,5.015-6.815c0.525-1.272,1.195-2.45,2.192-3.418
		c2.9-3.19,5.409-6.627,6.818-10.765c5.383-10.167,11.273-20.045,16.944-30.049c3.028-2.957,4.481-6.778,5.828-10.658
		c6.87-14.9,13.184-30.035,19.211-45.292c2.246-2.95,2.724-6.604,3.937-9.967c0.12-0.449,0.277-0.883,0.439-1.316
		c1.575-4.897,3.569-9.661,4.578-14.73c0.354-2.753,0.294-5.61,1.934-8.056c1.976-2.974,2.175-6.503,3.046-9.823
		c0.091-0.471,0.222-0.928,0.36-1.385c1.255-5.157,2.849-10.232,3.613-15.497c0.404-3.502,0.939-6.983,1.974-10.375
		c1.609-2.774,1.683-5.904,2.073-8.967c0.079-0.521,0.213-1.021,0.375-1.519c2.373-13.283,4.752-26.558,5.44-40.067
		c0.064-0.578,0.187-1.14,0.336-1.698c0.385-7.298,1.642-14.527,1.449-21.865c-0.123-4.653-0.149-9.306,0.92-13.909
		c0.752-3.238,0.735-6.505,0.163-9.853c-2.053-12.009-0.718-24.22-2.047-36.303c-1.637-14.866-3.491-29.688-6.181-44.39
		c-0.199-0.498-0.339-1.021-0.439-1.547c-0.399-3.183-0.412-6.459-2.105-9.36c-1.375-1.973-0.625-4.255-0.946-6.386
		c-1.012-6.577-3.115-12.896-4.55-19.368c-0.175-0.447-0.305-0.91-0.416-1.375c-0.813-3.374-1.12-6.902-3.046-9.937
		c-1.613-2.465-1.658-5.301-1.926-8.086c-0.945-5.031-3.026-9.71-4.515-14.569c-0.176-0.416-0.319-0.846-0.449-1.277
		c-0.775-2.506-1.223-5.15-3.065-7.207c-1.505-3.996-3.144-7.95-4.065-12.146c-9.514-24.947-21.46-48.687-35.134-71.592
		C915.203,260.119,912.341,257.777,913,254z"/>
	<path fill-rule="evenodd" clip-rule="evenodd" fill="#EFEFEF" d="M976,605c-1.541,2.806-0.928,6.09-2,9
		c-1.222,5.693-2.839,11.293-4,17c-1.29,3.588-1.769,7.396-3,11c-1.827,2.002-1.168,4.714-2,7c-1.499,5.386-3.576,10.591-5,16
		c-1.683,3.54-2.398,7.431-4,11c-5.781,15.233-12.318,30.147-19,45c-2.442,3.425-3.65,7.523-6,11c-5.667,10-11.333,20-17,30
		c-2.261,3.713-4.815,7.239-7,11c-0.667,1-1.333,2-2,3c-1.81,2.231-3.255,4.723-5,7c-8,10.667-16,21.333-24,32
		c-1.375,2.243-3.67,3.72-5,6c-5.64,6.991-12.049,13.289-18,20c-4.612,5.388-9.613,10.387-15,15c-8.461,7.899-17.063,15.639-26,23
		c-10.332,8.446-21,16.444-32,24c-2.272,1.752-4.772,3.186-7,5c-1,0.667-2,1.333-3,2c-2.69,1.628-5.355,3.298-8,5
		c-10.496,6.303-20.568,13.36-32,18c-24.43,13.653-50.276,23.966-76.887,32.434c-23.598,7.51-47.607,13.272-72.09,17.166
		c-14.028,2.23-28.073,3.845-42.23,5.067c-19.913,1.721-39.843,1.747-59.663,0.582c-28.656-1.685-56.95-6.42-84.911-13.278
		c-33.809-8.292-66.402-19.67-97.723-34.911c-24.611-11.976-47.622-26.452-70.053-42.039c-13.663-9.493-26.583-19.886-39.071-30.784
		c-14.388-12.557-27.642-26.266-40.194-40.738c-13.734-15.834-26.516-32.316-38.28-49.625
		c-16.032-23.59-29.822-48.399-41.315-74.532c-12.694-28.864-22.023-58.771-28.921-89.482c-4.191-18.662-7.143-37.51-9.3-56.529
		c-1.497-13.196-1.144-26.47-2.574-39.597c-0.897-8.237,0.727-16.144,0.755-24.213c0.094-26.992,4.259-53.52,9.696-79.853
		c4.572-22.142,10.537-43.927,18.108-65.258c12.018-33.855,27.88-65.797,47.321-95.998c11.966-18.587,25.239-36.196,39.283-53.238
		c5.065-6.147,10.917-11.605,15.918-17.813c0.332-0.667,0.723-1.295,1.282-1.796c5.479-5.228,10.818-10.604,16.08-16.058
		c0.437-0.55,0.965-0.992,1.574-1.34c4.514-2.527,7.554-6.678,11.195-10.166c4.969-3.647,9.79-7.467,14-12
		c11.525-9.324,23.421-18.135,36-26c2.556-3.444,6.299-5.192,10-7c26.974-17.587,55.515-32.107,85.553-43.691
		c0.745-0.287,1.628-0.214,2.447-0.309c3.262-3.438,8.013-3.301,12-5c9.33-2.679,18.286-6.666,28-8c6.501-3.746,14.038-3.869,21-6
		c2.333-0.333,4.667-0.667,7-1c3.229-2.605,7.418-1.69,11-3c14.743-2.262,29.354-5.489,44.328-6.097
		c0.569-0.023,1.116-0.59,1.672-0.903c4.277-1.061,8.733,0.197,13-1c1.333-0.333,2.667-0.667,4-1
		c1.219,1.034,2.764,0.178,4.074,0.699c5.075,3.413,8.864,8.18,13.08,12.49c0.833,0.852,1.878,2.04,0.452,3.371
		c-4.694,1.222-9.56,1.413-14.32,1.624c-36.979,1.637-73.079,8.197-108.483,18.813c-43.719,13.11-84.538,32.429-122.479,57.757
		c-19.695,13.147-38.164,27.859-55.701,43.826c-45.191,41.143-80.646,89.452-106.654,144.621
		c-20.603,43.702-33.846,89.627-39.863,137.654c-3.092,24.675-4.623,49.415-3.667,74.211c1.375,35.697,6.519,70.899,15.913,105.443
		c8.823,32.443,20.957,63.576,36.578,93.322c16.483,31.388,36.317,60.509,59.523,87.356c15.059,17.422,31.174,33.735,48.707,48.661
		c1.5,1.276,3.162,2.48,4.023,4.373c-2.713,6.956-2.274,6.738,4.184,12.223c6.913,5.87,14.414,10.898,21.463,16.538
		c1.983,1.587,3.925,2.159,6.304,1.879c11.774,9.58,25.071,16.834,38.043,24.511c9.868,5.84,20.096,11.313,30.684,15.618
		c5.756,2.34,11.653,4.879,17.078,7.572c6.222,3.089,13.33,4.114,18.956,8.388c1.356,1.03,2.999,1.521,4.688,1.532
		c3.807,0.024,7.176,1.191,10.231,3.447c1.364,1.007,3,1.505,4.691,1.541c4.288,0.091,8.21,1.183,11.663,3.821
		c0.936,0.715,2.099,1.097,3.272,1.125c6.069,0.146,11.629,1.541,17.209,4.314c4.166,2.07,9.465,1.316,14.258,1.804
		c2.705,0.275,5.145,0.851,7.535,2.267c4.788,2.835,10.335,2.241,15.567,2.646c4.825,0.374,9.478,0.879,14.209,2.17
		c7.621,2.08,15.599,1.274,23.363,0.658c5.995-0.477,11.98-0.333,17.948-0.738c13.135-0.893,26.251,0.033,39.375,0.082
		c9.149,0.034,18.25,1.458,27.433,1.013c3.526-0.171,6.921-0.577,10.275-1.771c6.389-2.276,13.234-0.886,19.768-2.214
		c1.616-0.328,3.488,0.021,4.861-0.917c4.218-2.883,9.024-3.106,13.837-3.554c5.117-0.476,10.267-0.785,14.795-3.802
		c1.491-0.993,3.49-1.171,5.305-1.304c4.855-0.356,9.612-0.875,13.61-4.087c0.63-0.507,1.556-0.875,2.337-0.8
		c7.41,0.718,13.943-2.935,19.592-6.252c5.619-3.301,11.177-7.164,16.715-10.849c0.24-0.159,0.295-0.585,0.412-0.899
		c0.368-0.747,0.886-1.369,1.561-1.856c2.869-1.116,5.425-3.475,8.892-2.301c2.602,5.135,2.286,4.24,7.471,2.415
		c9.247-3.257,16.718-10.041,26.522-12.254c3.696-0.834,7.133-3.843,10.624-5.872c9.571-5.564,19.053-11.378,27.993-17.982
		c2.797-2.065,6.09-3.295,9.053-5.163c6.447-4.063,12.646-8.743,18.35-13.447c16.98-14.003,34.886-26.883,50.385-42.811
		c13.83-14.213,26.41-29.43,39.052-44.573c7.037-8.43,13.524-17.569,19.069-27.254c3.198-5.587,7.213-10.715,10.729-16.146
		c3.438-5.311,5.157-11.447,9.07-16.47c5.798-7.44,8.516-16.652,13.685-24.505c2.426-3.685,3.254-8.23,5.055-12.29
		c2.57-5.794,5.893-11.432,7.324-17.727c0.455-2.001,1.034-3.841,2.432-5.371c0.448-0.491,1.125-0.997,1.152-1.602
		c0.357-7.898,5.988-14.229,6.515-22.064c0.079-1.17,0.034-2.535,0.768-3.369c4.039-4.591,4.158-10.268,4.769-15.865
		c0.27-2.475,1.389-4.558,2.969-6.677c2.805-3.761,1.457-8.656,2.215-13.017c0.632-3.639,1.306-6.955,3.102-10.322
		c2.009-3.767,1.902-8.349,2.063-12.643c0.232-6.274,0.276-12.216,3.301-18.346c2.146-4.35,1.689-10.373,1.725-15.695
		c0.066-10.161,0.03-20.322,0.013-30.483c-0.005-3.338,0.017-6.626,1.37-9.809c1.551-3.646-1.034-5.914-3.164-8.24
		c-1.107-1.21-3.054-1.453-3.75-3.178c-1.274-5.431-0.412-10.938-0.637-16.403c-0.318-3.697,1.697-7.47-0.378-11.114
		c-2.447-15.439-3.43-31.063-6.159-46.48c-4.536-25.629-10.845-50.765-19.597-75.284c-1.057-2.959-2.415-5.87-2.41-9.122
		c1.854-5.581,6.552-8.661,10.787-12.127c0.632-0.517,1.552-0.347,2.241,0.26c1.333,3.667,2.667,7.333,4,11
		c1.236,2.578,1.682,5.453,3,8c1.424,5.409,3.501,10.614,5,16c0.832,2.286,0.173,4.998,2,7c1.231,3.604,1.71,7.412,3,11
		c1.449,7.052,3.497,13.961,5,21c1.118,1.51-1.193,3.705,1,5c0.979,3.271,1.192,6.695,2,10c2.908,17.185,5.341,34.396,6.76,51.813
		c0.941,11.557,1.277,23.221,1.55,34.685c0.241,10.173,0.305,20.839-1.686,31.146c-0.719,3.727,0.463,7.614-0.624,11.356
		c-1.002,9.054-1.928,18.114-3.482,27.101c-0.858,4.962-1.688,9.932-2.518,14.899C977.192,598.306,976.979,601.729,976,605z"/>
	<path fill-rule="evenodd" clip-rule="evenodd" fill="#EFEFEF" d="M953,335c-5.301,2.464-8.584,7.088-12.18,11.377
		c-2.396-0.584-2.666-2.796-3.374-4.577c-8.739-22.003-18.909-43.301-30.743-63.825c-14.1-24.455-30.492-47.256-48.756-68.74
		c-31.744-37.339-68.714-68.596-110.378-94.298c-17.439-10.758-35.616-20.185-54.358-28.501c-1.616-0.717-3.574-1.063-4.485-2.925
		C691.548,78.099,696.128,74.406,701,71c13.84,5.345,26.892,12.324,39.811,19.522c21.787,12.14,42.389,26.101,62.049,41.436
		c10.327,8.055,20.481,16.32,30.009,25.346c7.956,7.537,15.801,15.129,23.342,23.119c15.198,16.103,28.71,33.482,41.638,51.366
		C903.097,239.05,907.961,246.588,913,254c8.561,14.413,17.229,28.782,24.399,43.949c5.317,11.245,10.111,22.737,15.087,34.142
		C952.869,332.968,952.838,334.026,953,335z"/>
	<path fill-rule="evenodd" clip-rule="evenodd" fill="#EFEFEF" d="M701,71c-3.583,4.406-7.588,8.391-11.977,11.992
		c-3.04,1.622-5.491-0.482-7.972-1.485c-28.518-11.525-57.815-20.379-88.085-25.925c-20-3.665-40.108-6.254-60.456-7.336
		c-10.326-0.549-20.63-0.637-30.948-0.833c-1.958-0.038-4.061,0.238-5.563-1.539c-4.667-4.958-9.333-9.916-14-14.874
		c3.915-1.352,8.09,0.413,12-1c8.333-2.595,16.667-1.908,25,0c5,0.839,10,0.839,15,0c2,0.333,4,0.667,6,1
		c3.57,1.398,7.426-0.345,11,1c7.164,0.995,14.322,2.041,21.494,2.975c23.301,3.037,46.113,8.337,68.729,14.601
		C661.683,55.243,681.417,62.903,701,71z"/>
	<path fill-rule="evenodd" clip-rule="evenodd" fill="#EFEFEF" d="M159,180c-0.03,1.049-0.435,1.917-1.179,2.665
		c-18.577,18.646-34.207,39.679-49.052,61.288c-8.55,12.447-16.294,25.444-23.601,38.679
		c-12.805,23.193-23.231,47.471-31.593,72.551c-8.702,26.1-15.283,52.779-19.703,79.996c-3.646,22.449-5.689,44.945-6.017,67.71
		c-0.418,29.04,1.825,57.747,6.934,86.323c4.382,24.517,10.311,48.633,18.031,72.268c5.774,17.677,12.81,34.894,20.706,51.779
		c9.526,20.371,20.696,39.799,33.067,58.492c10.421,15.747,21.574,31.02,33.937,45.375c10.3,11.96,20.593,23.923,31.997,34.841
		c19.313,18.49,39.909,35.437,61.868,50.728c18.151,12.64,36.944,24.274,56.677,34.185c28.705,14.417,58.627,25.842,89.72,34.132
		c19.846,5.292,39.898,9.618,60.183,12.703c10.609,1.614,21.393,2.248,32.046,3.522c10.936,1.308,21.938,1.105,32.766,1.193
		c10.298,0.082,20.828,0.229,31.263-1.06c10.32-1.273,20.735-1.879,31.076-3.271c16.748-2.255,33.263-5.583,49.687-9.5
		c33.552-8.003,65.916-19.249,96.987-34.318c5.038-2.444,9.638-5.915,15.2-7.28c-2.318,3.024-5.739,4.428-9.013,5.984
		c-23.281,11.076-47.04,20.962-71.756,28.408c-22.06,6.646-44.424,11.942-67.177,15.704c-21.775,3.601-43.635,5.363-65.703,6.184
		c-17.134,0.638-34.189,0.013-51.091-1.554c-43.554-4.036-86.027-13.708-127.067-28.915c-29.805-11.045-58.29-24.93-85.186-42.051
		C242.5,910.072,232.523,902.637,222,896c-8.169-4.831-15.246-11.125-22.525-17.113c-9.431-7.758-18.76-15.662-27.783-23.887
		c-5.238-4.774-9.989-10.13-14.609-15.524c-9.374-10.947-19.245-21.464-28.061-32.898c-13.082-16.968-25.359-34.477-36.172-52.977
		c-8.049-13.771-15.678-27.75-22.299-42.307c-10.746-23.624-19.772-47.825-26.515-72.886c-4.732-17.587-8.684-35.354-11.765-53.293
		c-1.537-8.946-1.582-18.177-3.491-27.021c-1.327-6.145,0.508-12.585-2.394-18.43c-1.098-2.21,0.618-4.178,0.629-6.32
		c0.039-7.313-0.774-14.505-2.171-21.691c-1.017-5.231,1.766-10.258,1.639-15.521c-0.031-1.303,0.494-2.616,0.492-3.925
		c-0.048-32.662,5.836-64.51,13.184-96.153c7.156-30.818,17.514-60.508,30.848-89.22c15.88-34.196,35.571-65.975,59.054-95.436
		C138.217,201.167,145.952,190.563,156,182C156.917,181.209,157.111,179.333,159,180z"/>
	<path fill-rule="evenodd" clip-rule="evenodd" fill="#EFEFEF" d="M159,180c-1,0.667-2,1.333-3,2c5.726-9.607,13.393-17.274,23-23
		c0.633,1.866-1.198,2.09-2,3c-0.333,0.333-0.667,0.667-1,1c-5.759,4.907-11.093,10.241-16,16
		C159.667,179.333,159.333,179.667,159,180z"/>
	<path fill-rule="evenodd" clip-rule="evenodd" fill="#EFEFEF" d="M202,139c-3.244,5.66-7.944,9.621-14,12
		C191.824,146.017,196.819,142.4,202,139z"/>
	<path fill-rule="evenodd" clip-rule="evenodd" fill="#EFEFEF" d="M397,43c-6.625,3.311-14.169,3.409-21,6
		c0.103-1.102,0.619-1.794,1.762-2.065C384.136,45.43,390.286,42.84,397,43z"/>
	<path fill-rule="evenodd" clip-rule="evenodd" fill="#EFEFEF" d="M177,162c0.667-1,1.333-2,2-3c2.475-3.257,5.129-6.313,9-8
		C185.533,155.866,181.866,159.533,177,162z"/>
	<path fill-rule="evenodd" clip-rule="evenodd" fill="#EFEFEF" d="M248,106c-3.333,2.333-6.667,4.667-10,7
		C239.75,108.405,243.517,106.69,248,106z"/>
	<path fill-rule="evenodd" clip-rule="evenodd" fill="#EFEFEF" d="M348,57c-4,1.667-8,3.333-12,5
		C338.825,57.513,343.644,57.811,348,57z"/>
	<path fill-rule="evenodd" clip-rule="evenodd" fill="#EFEFEF" d="M494,30c-3.854,2.085-8.015,0.489-12,1
		c-1.381-0.142-2.949,0.464-4-1C483.333,30,488.667,30,494,30z"/>
	<path fill-rule="evenodd" clip-rule="evenodd" fill="#EFEFEF" d="M415,39c-3.349,2.166-7.41,1.72-11,3
		C406.883,38.125,411.113,39.192,415,39z"/>
	<path fill-rule="evenodd" clip-rule="evenodd" fill="#EFEFEF" d="M474,31c-4.242,1.518-8.606,1.447-13,1
		C465.19,29.806,469.685,31.567,474,31z"/>
	<path fill-rule="evenodd" clip-rule="evenodd" fill="#EFEFEF" d="M534,30c-5,1.627-10,1.627-15,0C524,30,529,30,534,30z"/>
	<path fill-rule="evenodd" clip-rule="evenodd" fill="#EFEFEF" d="M551,32c-3.649-0.524-7.497,1.136-11-1
		C543.649,31.524,547.497,29.864,551,32z"/>
	<path fill-rule="evenodd" clip-rule="evenodd" fill="#EFEFEF" d="M984,553c0.719-13.059,1.584-26.161,1.637-39.186
		c0.048-11.848-0.108-23.819-1.336-35.71c-0.779-7.553-1.194-15.138-2.102-22.701c-1.082-9.028-2.419-17.991-4.084-26.92
		c-0.271-1.451-0.088-2.987-0.115-4.483c2.997,9.122,3.701,18.657,4.971,28.08c2.121,15.757,2.157,31.681,3.421,47.473
		c1.171,14.63-0.905,28.871-1.407,43.283C984.866,546.218,986.051,549.788,984,553z"/>
	<path fill-rule="evenodd" clip-rule="evenodd" fill="#EFEFEF" d="M812,879c8.186-8.21,16.782-15.956,26-23
		C830.387,864.857,821.717,872.521,812,879z"/>
	<path fill-rule="evenodd" clip-rule="evenodd" fill="#EFEFEF" d="M978,595c0.231-8.472,2.475-16.66,3.59-25.01
		c0.757-5.665,0.564-11.479,2.41-16.99C983.582,567.226,981.587,581.227,978,595z"/>
	<path fill-rule="evenodd" clip-rule="evenodd" fill="#EFEFEF" d="M853,841c0.179-0.627,0.155-1.479,0.565-1.847
		C859.837,833.54,864.345,826.236,871,821C866.242,828.785,859.829,835.08,853,841z"/>
	<path fill-rule="evenodd" clip-rule="evenodd" fill="#EFEFEF" d="M838,856c4.587-5.413,9.587-10.413,15-15
		C849.214,847.214,844.214,852.214,838,856z"/>
	<path fill-rule="evenodd" clip-rule="evenodd" fill="#EFEFEF" d="M975,409c-2.436-6.817-4.471-13.729-5-21
		C972.436,394.817,974.471,401.729,975,409z"/>
	<path fill-rule="evenodd" clip-rule="evenodd" fill="#EFEFEF" d="M970,631c0.338-5.9,1.809-11.535,4-17
		C973.662,619.9,972.191,625.535,970,631z"/>
	<path fill-rule="evenodd" clip-rule="evenodd" fill="#EFEFEF" d="M960,665c0.582-5.672,2.521-10.921,5-16
		C964.418,654.672,962.479,659.921,960,665z"/>
	<path fill-rule="evenodd" clip-rule="evenodd" fill="#EFEFEF" d="M965,370c-2.479-5.08-4.418-10.328-5-16
		C962.479,359.08,964.418,364.328,965,370z"/>
	<path fill-rule="evenodd" clip-rule="evenodd" fill="#EFEFEF" d="M907,773c1.17-4.407,3.989-7.765,7-11
		C912.83,766.407,910.011,769.765,907,773z"/>
	<path fill-rule="evenodd" clip-rule="evenodd" fill="#EFEFEF" d="M931,732c1.431-3.978,2.667-8.061,6-11
		C935.569,724.978,934.333,729.061,931,732z"/>
	<path fill-rule="evenodd" clip-rule="evenodd" fill="#EFEFEF" d="M956,676c0.691-3.9,1.454-7.774,4-11
		C959.309,668.9,958.546,672.774,956,676z"/>
	<path fill-rule="evenodd" clip-rule="evenodd" fill="#EFEFEF" d="M967,642c0.286-3.861,0.866-7.643,3-11
		C969.714,634.861,969.134,638.643,967,642z"/>
	<path fill-rule="evenodd" clip-rule="evenodd" fill="#EFEFEF" d="M970,388c-2.135-3.357-2.714-7.139-3-11
		C969.135,380.357,969.714,384.139,970,388z"/>
	<path fill-rule="evenodd" clip-rule="evenodd" fill="#EFEFEF" d="M762,915c2.159-2.479,4.716-4.322,8-5
		C767.841,912.479,765.284,914.322,762,915z"/>
	<path fill-rule="evenodd" clip-rule="evenodd" fill="#EFEFEF" d="M976,605c-0.064-3.479,0.505-6.832,2-10
		C978.094,598.485,977.904,601.914,976,605z"/>
	<path fill-rule="evenodd" clip-rule="evenodd" fill="#EFEFEF" d="M900,783c0.885-2.892,2.347-5.371,5-7
		C904.115,778.892,902.653,781.371,900,783z"/>
	<path fill-rule="evenodd" clip-rule="evenodd" fill="#EFEFEF" d="M978,424c-1.496-3.167-2.064-6.521-2-10
		C977.904,417.086,978.094,420.515,978,424z"/>
	<path fill-rule="evenodd" clip-rule="evenodd" fill="#EFEFEF" d="M773,908c1.629-2.653,4.108-4.115,7-5
		C778.371,905.653,775.892,907.115,773,908z"/>
	<path fill-rule="evenodd" clip-rule="evenodd" fill="#EFEFEF" d="M871,821c0.472-2.996,2.87-4.387,5-6
		C875.528,817.996,873.13,819.387,871,821z"/>
	<path fill-rule="evenodd" clip-rule="evenodd" fill="#EFEFEF" d="M960,354c-2.141-2.239-2.697-5.072-3-8
		C959.141,348.239,959.697,351.072,960,354z"/>
	<path fill-rule="evenodd" clip-rule="evenodd" fill="#B83E53" d="M680.907,938.953c-0.35,0.21-0.698,0.421-1.048,0.631
		c-1.092,2.162-3.271,2.723-5.266,3.495c-30.226,11.709-61.33,20.16-93.332,25.383c-30.66,5.003-61.542,7.167-92.528,5.826
		c-41.411-1.792-82.069-8.5-121.666-21.159c-9.844-3.147-19.542-6.65-29.211-10.262c-2.002-0.748-4.147-1.368-5.432-3.337
		c-0.383-0.804-0.505-1.655-0.458-2.535c12.139-55.74,23.832-111.581,35.827-167.356c0.738-3.432,2.788-6.891,0.808-10.563
		c-2.053-1.131-4.265-0.638-6.388-0.64c-38.055-0.031-76.111-0.021-114.166-0.027c-2.159,0-4.323,0.089-6.474-0.188
		c-2.032-0.262-3.616-1.334-3.73-3.398c-0.419-7.582-1.483-15.2,0.667-22.712c2.522-2.275,5.654-1.64,8.581-1.644
		c39.479-0.047,78.958-0.029,118.437-0.031c1.666,0,3.339-0.104,4.996,0.003c3.786,0.245,5.773-1.383,6.583-5.161
		c3.141-14.658,6.218-29.33,9.443-43.97c0.949-4.309-1.423-4.753-4.678-4.751c-14.825,0.012-29.651,0.078-44.476-0.016
		c-11.822-0.075-23.649,0.395-35.456-0.27c-2.653-0.447-4.28-2.419-6.038-4.175c-12.136-12.118-24.27-24.238-36.376-36.386
		c-2.354-2.362-4.776-4.634-7.402-6.695c-1.921-2.428-2.516-5.425-3.421-8.256c-10.15-31.73-20.579-63.368-30.995-95.012
		c-5.677-17.245-11.164-34.553-16.955-51.762c-0.582-1.728-1.302-3.439-1.167-5.328c1.354-2.406,2.803-0.833,4.062,0.03
		c1.507,1.032,2.691,2.469,3.984,3.762c37.048,37.043,74.093,74.088,111.136,111.136c1.999,2,3.999,3.997,6.148,5.839
		c3.599,6.346,4.117,13.617,6.053,20.461c1.949,6.888,1.751,6.894,8.044,3.736c5.502-2.76,11.011-5.498,16.309-8.643
		c2.994-1.777,5.536-1.637,7.787,1.412c9.731,13.178,19.781,26.118,29.047,38.442c-4.833-15.408-10.15-31.676-15.211-48.022
		c-1.821-5.882-4.006-11.651-5.614-17.586c-0.817-3.015-2.285-3.668-4.959-2.794c-2.085-0.507-3.294-2.19-4.688-3.583
		c-37.099-37.071-74.201-74.14-111.193-111.317c-1.471-1.478-5.277-2.563-2.7-6.096c3.449-0.056,5.866,2.267,8.476,3.912
		c49.348,31.104,103.137,50.148,160.591,59.227c16.604,2.623,33.314,4.14,50.104,5.278c16.993,1.152,33.987,1.261,50.912,0.596
		c33.467-1.314,66.632-5.555,99.332-13.128c42.922-9.94,83.928-25.007,122.731-45.854c32.392-17.402,62.773-37.745,89.468-63.258
		c3.369-3.219,7.153-5.981,10.423-9.313c2.06-1.784,3.924-1.184,5.682,0.5c8.584,8.217,17.563,16.007,26.209,24.156
		c1.306,1.23,2.716,2.473,2.873,4.477c-2.757,5.845-7.821,9.847-12.035,14.443c-11.024,12.025-21.513,24.527-32.612,36.473
		c-5.665,6.097-11.085,12.421-16.958,18.328c-3.354,3.373-3.229,3.938,1.13,5.828c8.863,3.843,17.848,7.401,26.686,11.309
		c5.76,2.548,6.209,3.626,3.108,8.865c-13.914,23.513-27.781,47.054-41.657,70.588c-9.646,16.358-19.336,32.691-28.932,49.079
		c-1.087,1.857-2.104,3.771-3.631,5.328c12.176-13.947,24.788-27.507,37.086-41.347c13.707-15.427,27.671-30.62,41.408-46.02
		c10.745-12.044,21.694-23.915,32.486-35.919c9.472-10.535,8.198-7.509-1.603-13.966c-7.366-4.852-14.902-9.467-22.384-14.154
		c-4.81-3.013-4.988-4.075-2.803-9.416c6.753-16.495,13.833-32.853,20.802-49.256c1.003-2.359,1.444-5.211,4.046-6.665
		c1.698-0.182,2.786,0.907,3.87,1.927c13.066,12.285,26.363,24.321,39.604,36.413c13.729,12.539,27.235,25.326,41.233,37.572
		c2.731,2.389,5.604,4.724,7.376,8.035c1.014,6.296,0.732,12.658,0.387,18.946c-2.38,43.259-9.385,85.713-23.133,126.893
		c-10.318,30.907-23.73,60.424-40.12,88.625c-15.299,26.324-33.286,50.657-53.289,73.531
		c-13.938,15.939-28.993,30.779-45.175,44.458c-1.38,1.166-2.611,2.644-4.694,2.537c-1.881-0.649-2.218-2.411-2.875-3.95
		c-5.975-25.788-11.101-51.761-16.728-77.626c-1.274-5.855-2.884-11.658-3.671-17.596c-0.609-4.598-2.894-5.933-7.36-5.903
		c-25.141,0.164-50.282,0.08-75.424,0.079c-15.651,0-31.302-0.011-46.953,0.005c-6.91,0.007-7.075,0.31-5.603,7.145
		c11.82,54.846,23.386,109.746,35.079,164.619c0.313,1.464,0.646,2.928,0.785,4.428C682.139,936.925,681.813,938.04,680.907,938.953
		z"/>
	<path fill-rule="evenodd" clip-rule="evenodd" fill="#CD4459" d="M239.006,732.105c-0.002,6.657,0.236,13.327-0.096,19.969
		c-0.204,4.082,1.285,5.007,5.125,4.996c40.779-0.121,81.558-0.09,122.337-0.027c1.831,0.003,4.058-1.011,5.464,1.212
		c-2.765,1.552-5.8,1.256-8.781,1.257c-40.098,0.01-80.195,0.003-120.293,0.008c-8.742,0.001-8.824-0.005-10.692,8.691
		c-5.765,26.839-11.392,53.707-17.151,80.546c-0.803,3.742-1.582,7.488-2.614,11.173c-0.783,1.777-0.796,3.947-2.595,5.224
		c-0.279-0.024-0.559-0.05-0.838-0.074c-21.558-18.683-41.867-38.604-59.967-60.7c-49.237-60.11-81.796-128.134-97.003-204.403
		c-6.799-34.099-9.91-68.537-8.743-103.266C46.612,393.948,79.606,301.7,143.725,221.235
		c64.443-80.872,147.161-134.298,247.213-160.689c34.424-9.08,69.548-13.313,105.062-14.672c16.976,0.152,33.931,0.442,50.874,1.896
		c47.584,4.084,93.362,15.392,137.495,33.538c1.524,0.627,3.102,1.126,4.654,1.685c14.052,6.817,28.316,13.191,41.93,20.904
		c97.115,55.023,166.457,134.284,207.855,237.966c0.61,1.528,1.339,3.01,2.012,4.514c5.913,18.12,12.104,36.143,16.407,54.76
		c4.441,19.21,8.007,38.538,9.809,58.184c0.572,6.247,1.401,12.471,2.113,18.706c1.69,3.318-0.718,6.939,0.76,10.273
		c0.085,5.9,0.169,11.801,0.254,17.701c0.425,0.584,0.623,1.227,0.507,1.953c-0.143,0.458-0.428,0.803-0.834,1.053
		c-9.979-9.201-19.907-18.456-29.946-27.59c-17.495-15.919-35.063-31.759-52.587-47.646c-2.819-2.556-5.57-5.188-8.353-7.785
		c-1.429-3.27,1.42-5.516,1.856-8.405c-2.333,1.339-3.443,4.608-6.703,4.659c-5.768-7.735-13.858-13.07-20.627-19.78
		c-2.655-2.632-5.414-5.274-8.285-7.731c-1.12-0.958-1.831-3.081-3.985-1.722c-6.575-7.077-11.804-15.218-17.908-22.677
		c-10.761-13.15-22-25.848-33.472-38.386c-27.659-30.23-58.219-57.154-91.338-81.167c-37.357-27.087-77.595-48.695-122.064-61.711
		c-19.687-5.762-39.778-9.44-60.336-10.963c-50.614-3.751-98.267,6.828-143.929,28.161c-38.075,17.788-71.953,41.721-103.01,69.813
		c-34.614,31.311-65.38,65.989-91.271,104.898c-4.127,6.203-4.043,6.713,0.924,12.47c17.607,20.408,37.527,38.257,59.465,53.886
		c1.595,1.136,3.563,1.958,4.052,4.185c-1.382,3.01,0.273,4.945,2.269,6.928c10.735,10.665,21.402,21.398,32.12,32.081
		c28.384,28.291,56.56,56.789,85.096,84.928c0.832,0.819,1.752,1.565,1.729,2.89c-3.238,6.044-9.37,8.758-14.647,12.345
		c-2.613,1.776-4.14-1.036-5.382-2.965c-7.121-11.063-14.198-22.153-21.194-33.295c-3.185-5.072-6.745-9.917-9.51-15.402
		c3.334,13.514,7.155,26.784,10.296,40.227c0.41,1.755,1.192,3.513,0.404,5.371c-2.372,1.443-3.251-0.706-4.165-1.985
		c-3.604-5.05-8.124-9.231-12.47-13.58c-32.689-32.703-65.375-65.411-98.113-98.066c-2.5-2.493-4.722-5.892-9.191-4.716
		c-0.155-0.064-0.311-0.125-0.459-0.201c-2.306-1.18-1.021-5.492-4.26-5.447c-2.458,0.034-4.422,2.158-6.682,3.209
		c-8.765,4.077-16.999,9.176-25.704,13.385c-3.374,1.631-5.751,1.544-8.139-1.668c-14.312-19.247-28.781-38.377-42.917-56.876
		c8.26,25.473,16.437,51.743,24.763,77.965c2.016,6.35,4.379,12.595,6.042,19.052c0.81,3.146,2.229,3.202,4.568,1.43
		c7.569-5.735,15.175-11.421,22.788-17.099c6.307-4.704,7.138-4.495,10.94,2.129c21.723,37.849,43.174,75.853,65.134,113.566
		c2.559,4.395,4.002,9.419,7.514,13.268c1.481,0.025,2.372,1.037,3.309,1.975c14.045,14.048,28.094,28.092,42.123,42.155
		c0.569,0.57,0.945,1.333,1.411,2.006c-1.964,1.713-4.379,1.312-6.659,1.322c-11.452,0.053-22.905,0.002-34.358,0.031
		c-7.133,0.019-7.464,0.307-8.881,7.166c-2.955,14.304-6.011,28.585-9.167,42.845C240.496,728.431,240.087,730.382,239.006,732.105z
		"/>
	<path fill-rule="evenodd" clip-rule="evenodd" fill="#EFEFEF" d="M332.911,939.042c19.013,8.546,38.901,14.543,59.026,19.677
		c43.65,11.135,88.059,15.934,133.066,14.032c52.268-2.207,102.878-12.66,151.577-31.98c1.08-0.429,2.186-0.792,3.279-1.186
		c0.709,4.845-3.385,5.01-6.24,6.283c-1.02,0.455-2.896,0.044-3.288,0.69c-3.432,5.662-9.269,7.224-14.777,9.747
		c-2.91,1.333-5.435,2.902-8.745,2.714c-3.788-0.215-7.286,0.544-9.933,3.582c-1.539,1.767-3.632,1.281-5.597,1.412
		c-4.942,0.329-9.52,1.086-14.096,3.828c-4.269,2.557-9.954,1.604-15.015,2.05c-2.73,0.24-5.13,0.618-7.44,2.2
		c-4.963,3.398-10.896,1.881-16.354,2.787c-4.005,0.665-7.983,0.5-12.077,1.872c-8.154,2.733-16.891,1.586-25.27,0.96
		c-5.809-0.435-11.604-0.33-17.388-0.729c-13.583-0.938-27.163-0.091-40.738,0.095c-9.122,0.126-18.216,1.303-27.372,0.962
		c-3.691-0.138-7.288-0.382-10.516-2.372c-1.544-0.951-3.252-0.778-4.868-0.628c-6.022,0.561-11.878-1.369-17.874-1.067
		c-0.484,0.024-1.141,0.027-1.444-0.254c-6.295-5.833-14.3-3.746-21.639-4.697c-1.15-0.149-2.45,0.11-3.309-0.809
		c-3.944-4.217-9.101-4.299-14.259-4.17c-2.652,0.066-4.96-0.31-6.654-2.549c-0.197-0.26-0.469-0.602-0.746-0.644
		c-7.911-1.191-15.028-5.11-22.773-6.698c-3.009-0.616-5.903-0.79-8.025-3.24c-1.314-1.519-2.97-1.793-4.886-1.986
		c-3.458-0.351-6.924-0.944-9.24-4.089c-1.06-1.439-2.602-1.971-4.406-1.845c-2.635,0.186-4.924-0.375-6.447-2.862
		c-0.925-1.512-2.396-2.134-4.24-2.158c-3.076-0.04-5.479-2.139-8.131-3.031c-5.354-1.803-9.155-6.762-15.125-6.987
		c-0.644-0.024-1.653-0.121-1.859-0.517c-2.698-5.155-8.491-5.919-12.858-7.99c-4.747-2.251-8.131-6.408-13.396-7.925
		c-3.184-0.918-6.224-3.597-8.96-5.657c-4.665-3.512-10.667-5.49-13.875-10.862c-2.817-1.836-2.455-3.9-0.446-6.085
		c2.484-0.764,4.061,1.032,5.768,2.2c17.006,11.641,34.665,22.205,53.078,31.431c8.74,4.379,17.502,8.779,26.637,12.354
		C327.795,935.979,330.679,936.918,332.911,939.042z"/>
	<path fill-rule="evenodd" clip-rule="evenodd" fill="#EFEFEF" d="M970.17,507.999c-0.002-0.667-0.004-1.333-0.007-2
		c6.059,1.47,8.963,6.627,6.693,12.2c-0.723,1.776-0.861,3.521-0.859,5.354c0.007,9.161-0.26,18.331,0.089,27.479
		c0.261,6.854-1.364,13.544-1.104,20.36c0.02,0.493,0.111,1.161-0.154,1.463c-6.885,7.825-2.182,17.733-4.682,26.379
		c-0.676,2.336-0.881,4.555-2.348,6.785c-3.13,4.758-2,10.563-2.711,15.907c-0.354,2.66-0.377,4.919-2.657,7.086
		c-2.58,2.45-2.512,6.295-2.396,9.753c0.111,3.301-0.327,6.31-2.914,8.656c-0.244,0.221-0.589,0.492-0.617,0.768
		c-0.749,7.373-4.828,13.727-6.377,20.805c-0.718,3.283-0.861,6.565-3.57,8.961c-1.218,1.077-1.593,2.44-1.588,4.029
		c0.004,0.977,0.055,2.25-0.498,2.885c-4.514,5.188-3.986,12.747-8.574,17.912c-1.31,1.474-1.608,3.587-1.911,5.576
		c-0.171,1.131-0.317,2.38-0.896,3.315c-3.742,6.054-7.405,12.077-9.682,18.946c-0.924,2.785-3.638,4.896-5.274,7.635
		c-6.02,10.068-11.457,20.454-18.169,30.194c-4.224,6.129-9.259,11.876-12.801,18.651c-2.843,5.438-7.294,10.077-11.272,14.87
		c-7.047,8.487-14.089,16.993-21.483,25.174c-7.466,8.26-15.581,15.91-23.462,23.776c-6.684,6.67-13.621,13.148-21.241,18.423
		c-9.86,6.822-18.202,15.533-28.572,21.693c-3.612,2.146-6.599,5.521-10.36,7.73c-4.577,2.688-9.084,5.497-13.578,8.323
		c-3.606,2.269-7.077,4.761-10.736,6.938c-5.503,3.273-10.127,8.157-16.92,9.119c-2.354,0.333-2.141,4.137-4.528,4.229
		c-10.189,0.396-16.579,9.779-26.395,10.979c-0.57,0.07-1.095,0.715-1.592,1.147c-1.704,1.485-3.324,4.007-5.799,2.775
		c-2.2-1.096-2.364-3.821-2.225-6.234c0.222-1.05,0.914-1.811,1.815-2.199c6.02-2.598,11.801-5.7,17.804-8.327
		c0.759-0.331,1.604-0.298,2.425-0.149c4.216,0.521,8.395-0.981,11.737-2.617c7.11-3.479,14.264-7.158,20.797-11.689
		c9.02-6.255,18.506-11.818,27.35-18.288c7.893-5.774,16.607-10.47,23.448-17.682c4.647-4.898,11.413-6.62,16.662-10.81
		c14.632-11.681,27.792-24.895,40.521-38.509c10.786-11.538,20.92-23.75,30.055-36.629c10.744-15.146,21.688-30.152,30.639-46.582
		c5.948-10.92,12.111-21.784,17.68-32.879c2.678-5.335,5.011-11.109,7.295-16.765c2.535-6.274,4.651-12.775,7.949-18.743
		c0.322-0.583,0.84-1.132,0.901-1.771c0.78-8.042,6.483-14.592,6.867-22.759c0.079-1.69,0.939-3.186,1.829-4.604
		c1.817-2.901,2.555-6.123,2.87-9.474c0.047-0.497-0.099-1.07,0.097-1.487c4.544-9.681,3.805-20.727,7.882-30.51
		c1.507-3.614,2.219-7.314,2.079-11.197c-0.26-7.224,0.317-14.27,3.364-21.008c1.153-2.55,1.493-5.461,1.592-8.307
		c0.442-12.802,1.537-25.585,1.06-38.413c-0.068-1.829-0.257-3.716,0.17-5.482C974.987,514.608,973.646,510.976,970.17,507.999z"/>
	<path fill-rule="evenodd" clip-rule="evenodd" fill="#EBC7CD" d="M711.006,926.021c-7.335,3.34-14.671,6.681-22.006,10.021
		c-2.697,0.971-5.395,1.94-8.093,2.911c0.028-0.983,0.058-1.967,0.086-2.949c7.69-4.957,16.495-7.496,24.689-11.362
		c3.725-1.757,7.061-4.144,10.8-5.958c10.397-5.046,20.569-10.603,30.441-16.712c11.874-7.349,23.379-15.21,34.56-23.531
		c7.441-5.538,15.41-10.484,21.611-17.568c1.152,0.822,0.372,2.751,1.917,3.349c0.214,2.072-1.503,2.831-2.723,3.85
		c-24.23,20.23-50.354,37.639-78.334,52.234C719.785,922.479,716.07,925.824,711.006,926.021z"/>
	<path fill-rule="evenodd" clip-rule="evenodd" fill="#EFEFEF" d="M239.999,889.088c-1.32,1.971-1.204,3.941,0.001,5.912
		c-0.842,3.197-2.426,1.906-3.885,0.583c-7.218-6.551-16.25-10.749-22.967-18.054c-1.703-1.852-4.641-2.489-6.155-5.239
		c-1.855-3.368-1.436-5.502,1.88-7.211l0.13-0.087c3.933,0.85,6.412,3.928,9.375,6.221c5.901,4.566,11.652,9.326,17.83,13.53
		C237.834,885.851,239.643,886.85,239.999,889.088z"/>
	<path fill-rule="evenodd" clip-rule="evenodd" fill="#EFEFEF" d="M160,179c4.123-6.543,9.457-11.877,16-16
		C171.078,168.745,165.745,174.078,160,179z"/>
	<path fill-rule="evenodd" clip-rule="evenodd" fill="#EEEEEF" d="M969.909,488.299c-1.114-3.36-0.842-6.824-0.76-10.273
		C973.01,481.184,968.678,484.947,969.909,488.299z"/>
	<path fill-rule="evenodd" clip-rule="evenodd" fill="#FEFEFE" d="M242.159,451.945c-17.735-13.011-34.99-26.587-50.358-42.415
		c-5.575-5.741-10.764-11.815-16.068-17.795c-2.943-3.318-3.01-5.738-0.517-9.43c26.417-39.125,56.999-74.624,91.994-106.301
		c33.039-29.907,69.173-55.226,109.985-73.506c42.126-18.869,86.161-28.488,132.421-26.21
		c44.733,2.203,86.644,15.071,126.511,35.016c43.831,21.927,82.781,50.806,118.694,83.93c30.692,28.309,58.694,59.069,83.59,92.618
		c1.161,1.565,2.812,2.926,2.796,5.154c-68.717,67.153-151.761,106.01-245.297,124.065c-39.747,7.673-79.926,10.318-120.312,8.666
		c-80.855-3.309-156.534-24.011-224.958-68.39c-1.113-0.722-2.183-1.539-3.614-1.474
		C244.75,455.371,242.801,454.468,242.159,451.945z"/>
	<path fill-rule="evenodd" clip-rule="evenodd" fill="#FEFEFE" d="M210.891,860.896c5.842-27.614,11.683-55.229,17.529-82.844
		c1.204-5.686,2.499-11.354,3.604-17.058c0.41-2.118,1.198-3.15,3.557-3.146c45.094,0.103,90.188,0.139,135.283,0.197
		c0.325,0.001,0.649,0.136,0.974,0.208c-6.608,30.704-13.236,61.404-19.816,92.114c-5.815,27.138-11.561,54.291-17.407,81.422
		c-0.375,1.744-0.396,3.677-1.677,5.157c-1.691,0.889-3.301,0.226-4.767-0.477c-12.521-5.989-25.202-11.616-37.479-18.149
		c-12.249-6.518-24.259-13.382-35.885-20.931c-11.125-7.224-22.031-14.764-32.372-23.089c-2.327-1.873-4.7-3.668-7.113-5.43
		C212.758,867.002,209.509,865.123,210.891,860.896z"/>
	<path fill-rule="evenodd" clip-rule="evenodd" fill="#FEFEFE" d="M803.095,860.872c-0.081,1.917-0.928,3.113-2.501,4.465
		c-12.127,10.418-25.242,19.58-38.42,28.473c-9.421,6.356-19.388,12.155-29.378,17.79c-8.181,4.614-16.896,8.239-24.968,13.184
		c-4.311,2.64-9.17,6.463-15.138,6.585c-1.703,0.035-3.498,0.854-4.871,2.278c-1.832,1.9-4.171,2.669-6.826,2.357
		c-3.89-17.858-7.846-35.702-11.655-53.578c-8.556-40.155-16.981-80.34-25.648-120.472c-0.768-3.556-0.022-4.138,3.318-4.132
		c43.475,0.089,86.95,0.063,130.425,0.049c2.223-0.001,4.014-0.172,4.667,2.964c6.877,33.034,13.931,66.032,20.93,99.041
		C803.098,860.198,803.074,860.54,803.095,860.872z"/>
	<path fill-rule="evenodd" clip-rule="evenodd" fill="#FEFEFE" d="M239.006,732.105c-0.068-7.687,2.67-14.873,4.048-22.298
		c1.847-9.955,4.251-19.806,6.183-29.747c0.679-3.496,2.04-4.845,5.853-4.801c14.964,0.173,29.934-0.059,44.901-0.14
		c22.967,0.086,45.933,0.176,68.9,0.255c5.66,0.02,11.323,0.099,16.98-0.038c2.738-0.066,3.483,0.816,2.889,3.521
		c-3.669,16.714-7.311,33.435-10.742,50.197c-0.634,3.095-2.416,2.981-4.667,2.978c-18.479-0.027-36.958-0.025-55.438-0.013
		C291.611,732.04,265.309,732.076,239.006,732.105z"/>
	<path fill-rule="evenodd" clip-rule="evenodd" fill="#FEFEFE" d="M705.965,732.018c-21.313,0-42.627-0.106-63.938,0.1
		c-3.764,0.037-5.069-1.165-5.784-4.719c-3.18-15.8-6.607-31.55-10.032-47.299c-0.684-3.147-0.579-4.814,3.538-4.802
		c43.457,0.132,86.916,0.102,130.374,0.031c2.55-0.004,3.859,0.553,4.419,3.278c3.442,16.764,6.91,33.525,10.694,50.214
		c0.886,3.903-1.27,3.188-3.335,3.189C749.923,732.021,727.943,732.018,705.965,732.018z"/>
	<path fill-rule="evenodd" clip-rule="evenodd" fill="#FEFEFE" d="M874.104,422.237c2.716-2.824,5.431-5.649,8.872-9.229
		c-0.204,5.505-3.41,8.839-4.025,12.975c-8.381,19.541-16.701,39.109-25.211,58.594c-1.283,2.938,0.693,3.449,2.291,4.458
		c9.851,6.223,19.719,12.419,29.576,18.631c1.38,0.869,2.732,1.78,4.335,2.827c-40.861,45.304-81.516,90.379-122.171,135.454
		c-0.235-0.159-0.472-0.318-0.708-0.478c0.938-1.681,1.841-3.382,2.818-5.039c24.341-41.287,48.615-82.613,73.144-123.789
		c2.581-4.332,1.516-5.576-2.583-7.206c-10.808-4.3-21.454-9.005-32.864-13.845C829.939,470.934,852.021,446.585,874.104,422.237z"
		/>
	<path fill-rule="evenodd" clip-rule="evenodd" fill="#FEFEFE" d="M253.148,628.984c-1.865-0.624-1.873-0.619-3.126-2.813
		c-21.709-37.973-43.417-75.947-65.124-113.921c-2.311-4.042-4.853-7.975-6.859-12.164c-1.594-3.327-3.023-2.853-5.475-0.95
		c-8.812,6.836-17.765,13.491-26.659,20.221c-1.651,1.248-2.963,2.848-4.097-0.761c-10.806-34.397-21.76-68.748-32.653-103.117
		c-0.089-0.28,0.075-0.641,0.214-1.627c1.755,2.3,3.236,4.219,4.695,6.154c13.732,18.208,27.513,36.379,41.131,54.671
		c2.02,2.713,3.391,3.525,6.716,1.636c9.973-5.665,20.302-10.698,30.326-16.276c3.509-1.953,5.56-2.352,6.253,2.372
		c0.185,1.257,0.979,2.425,1.494,3.634c0.56,0.61,0.627,1.266,0.188,1.971c17.242,52.575,34.482,105.15,51.732,157.722
		C252.265,626.837,252.731,627.903,253.148,628.984z"/>
	<path fill-rule="evenodd" clip-rule="evenodd" fill="#FEFEFE" d="M510.168,766.954c-1.379-30.668-2.79-60.426-3.969-90.193
		c-0.154-3.876-0.878-4.918-5.022-4.257c-11.001,1.756-22.104,2.881-33.165,4.265c-1.793,0.224-3.36,0.518-2.722-2.353
		c7.869-35.372,15.672-70.759,23.507-106.138c0.099-0.447,0.396-0.851,0.895-1.887c3.154,25.466,6.375,50.276,9.172,75.136
		c0.508,4.513,1.996,5.671,6.326,5.727c11.484,0.147,22.96,0.876,34.443,1.277c2.653,0.093,3.98,0.576,3.086,3.754
		c-10.588,37.589-21.081,75.205-31.607,112.812C511.032,765.389,510.838,765.65,510.168,766.954z"/>
	<path fill-rule="evenodd" clip-rule="evenodd" fill="#EEEEEF" d="M711.006,926.021c33.541-17.245,65.309-37.188,94.006-61.801
		c34.836-29.676,65.036-63.456,89.989-101.856c35.668-54.89,58.867-114.603,69.139-179.29c3.896-24.535,6.218-49.193,5.696-74.069
		c0.111-0.335,0.223-0.67,0.334-1.006c4.776,0.256,5.98,4.287,5.545,7.39c-1.402,9.975,0.204,19.978-0.855,29.857
		c-0.866,8.073,1.002,16.688-2.106,24.129c-4.265,10.209-2.043,21.098-4.969,31.122c-1.902,6.521-2.326,13.454-4.471,19.462
		c-3.248,9.099-3.08,19.23-8.532,27.556c-1.376,2.102-0.016,4.803-1.113,6.789c-3.972,7.186-5.407,15.317-8.563,22.837
		c-2.496,5.947-4.941,12.232-7.558,18.103c-2.683,6.017-3.958,12.767-8.257,18.193c-2.713,3.424-3.896,7.896-6.049,11.803
		c-7.946,14.425-15.613,28.948-25.186,42.446c-7.513,10.594-14.61,21.463-22.639,31.709c-14.646,18.691-30.597,36.175-47.86,52.443
		c-6.381,6.012-12.549,13.101-20.221,16.691c-11.168,5.228-19.17,14.229-29.091,20.837c-11.717,7.804-23.775,15.199-35.17,23.566
		c-4.018,2.951-9.487,4.854-13.463,7.788c-4.899,3.616-10.961,3.034-15.511,6.546C712.572,928.447,711.701,927.284,711.006,926.021z
		"/>
	<path fill-rule="evenodd" clip-rule="evenodd" fill="#FEFEFE" d="M617.171,641.249c6.708-15.881,13.239-31.839,20.248-47.585
		c1.759-3.951,1.189-5.682-2.439-7.732c-6.653-3.76-13.007-8.049-19.486-12.117c-1.415-0.889-3.103-1.509-0.981-3.578
		c19.891-19.4,39.725-38.858,60.21-57.905c-0.731,1.564-1.407,3.157-2.203,4.688c-8.66,16.665-17.235,33.376-26.1,49.932
		c-1.833,3.425-1.317,4.72,2.199,6.044c6.68,2.516,13.167,5.54,19.794,8.204c2.457,0.987,3.108,1.755,1.02,4.026
		c-17.233,18.74-34.366,37.574-51.529,56.379C617.658,641.486,617.415,641.367,617.171,641.249z"/>
	<path fill-rule="evenodd" clip-rule="evenodd" fill="#FEFEFE" d="M322.998,585c-3.819-15.296-7.633-30.593-11.47-45.884
		c-0.282-1.125-0.788-2.201-0.128-3.948c1.614,2.467,3.058,4.627,4.454,6.816c9.657,15.146,19.367,30.259,28.895,45.485
		c1.689,2.699,2.821,3.463,5.512,1.121c4.129-3.593,8.602-6.791,12.929-10.157c0.343-1.543,1.382-2.191,2.884-2.247
		c1.405-0.848,2.81-1.694,4.703-2.835c8.09,25.46,16.104,50.681,24.119,75.901c-0.219,0.135-0.438,0.27-0.658,0.405
		c-4.217-5.577-8.434-11.154-12.651-16.73c-6.423-8.494-12.992-16.885-19.189-25.541c-2.028-2.832-3.562-2.945-6.388-1.333
		c-6.638,3.784-13.533,7.116-20.19,10.869c-2.853,1.608-4.041,1.6-4.885-2.021c-1.956-8.39-4.395-16.667-6.638-24.989
		C322.875,588.535,322.206,586.961,322.998,585z"/>
	<path fill-rule="evenodd" clip-rule="evenodd" fill="#CD4459" d="M366.073,576.187c-0.961,0.749-1.923,1.498-2.884,2.247
		c-40.274-40.189-80.56-80.369-120.786-120.609c-1.626-1.626-4.935-3.742-0.244-5.88c1.528,1.425,4.021,1.654,4.865,3.926
		c0.769,1.948,2.478,3.106,3.874,4.503c37.082,37.115,74.188,74.207,111.271,111.322
		C363.567,573.096,364.775,574.686,366.073,576.187z"/>
	<path fill-rule="evenodd" clip-rule="evenodd" fill="#CD4459" d="M322.998,585c1.066,1.47,1.121,3.207,1.297,4.911
		c-2.095-0.536-3.188-2.34-4.574-3.724c-38.168-38.127-76.307-76.284-114.482-114.405c-1.482-1.48-2.598-3.571-5.068-3.768
		c-0.063-0.657-0.125-1.314-0.188-1.971c0.318-2.179,1.539-2.441,3.129-1.298c1.876,1.349,3.791,2.708,5.418,4.333
		c35.534,35.473,71.048,70.967,106.502,106.521C317.924,578.497,320.354,581.855,322.998,585z"/>
	<path fill-rule="evenodd" clip-rule="evenodd" fill="#E8BAC1" d="M210.891,860.896c-0.241,3.596,2.542,5.39,4.8,7.082
		c12.212,9.152,24.276,18.564,37.046,26.882c6.245,4.067,12.89,7.844,19.281,11.711c7.184,4.348,14.712,8.165,21.993,12.25
		c4.963,2.785,10.006,5.964,15.707,7.793c5.675,1.82,10.976,4.937,16.242,7.845c2.256,1.246,4.766,1.363,6.977,2.489
		c-0.009,0.698-0.018,1.396-0.026,2.094c-6.8-1.653-12.959-4.933-19.258-7.795c-25.86-11.753-50.28-26.051-73.654-42.16
		c-10.563-7.734-21.103-15.499-30.996-24.095C210.728,864.132,209.435,861.881,210.891,860.896z"/>
	<path fill-rule="evenodd" clip-rule="evenodd" fill="#B83E53" d="M534.196,507.048c74.922-19.981,117.228-82.146,121.706-143.846
		c5.349-73.702-39.256-140.108-108.101-164.037c7.981,0.873,15.668,3.128,23.328,5.416c48.1,14.367,90.291,39.601,129.193,70.728
		c39.613,31.696,74.359,68.127,104.921,108.608c2.554,3.383,2.369,5.145-0.627,8.064c-36.887,35.933-79.939,62.286-127.257,81.925
		c-41.913,17.396-85.557,28.016-130.747,32.239c-3.313,0.31-6.628,0.616-9.944,0.891
		C535.85,507.106,535.021,507.048,534.196,507.048z"/>
	<path fill-rule="evenodd" clip-rule="evenodd" fill="#B83E53" d="M443.528,200.343c-69.981,26.061-109.576,90.842-106.282,158.434
		c3.334,68.407,49.78,129.083,121.72,148.436c-9.548-1.111-19.135-1.959-28.638-3.378c-46.308-6.914-90.363-20.772-131.409-43.534
		c-34.228-18.98-64.886-42.433-90.099-72.662c-2.617-3.138-2.657-5.184-0.389-8.493c40.913-59.703,90.248-110.635,153.27-147.28
		c24.287-14.122,50.056-24.737,77.433-31.296C440.416,200.262,441.653,199.706,443.528,200.343z"/>
	<path fill-rule="evenodd" clip-rule="evenodd" fill="#B83E53" d="M382.834,286.745c0.931-15.858,6.09-30.266,15.875-42.772
		c8.349-10.671,20.299-14.549,33.262-15.964c1.158-0.126,2.328-0.138,3.492-0.198c24.498-1.259,37.783,9.539,41.362,33.825
		c2.002,13.588,0.691,26.922-4.143,39.797c-7.153,19.052-25.352,33.054-43.334,33.571c-22.557,0.648-40.775-13.958-45.313-36.313
		C383.237,294.76,382.718,290.81,382.834,286.745z"/>
</g>
</svg>
