<?xml version="1.0" encoding="utf-8"?>
<!-- Generator: Adobe Illustrator 16.0.3, SVG Export Plug-In . SVG Version: 6.00 Build 0)  -->
<!DOCTYPE svg PUBLIC "-//W3C//DTD SVG 1.1//EN" "http://www.w3.org/Graphics/SVG/1.1/DTD/svg11.dtd">
<svg version="1.1" id="圖層_1" xmlns="http://www.w3.org/2000/svg" xmlns:xlink="http://www.w3.org/1999/xlink" x="0px" y="0px"
	 width="1024px" height="1024px" viewBox="0 0 1024 1024" enable-background="new 0 0 1024 1024" xml:space="preserve">
<g>
	<path fill-rule="evenodd" clip-rule="evenodd" fill="#EFEFEF" d="M390.991,977.005c-8.956-0.932-17.414-3.939-25.92-6.564
		c-19.653-6.066-38.756-13.561-57.528-22.046c-27.023-12.217-52.112-27.632-76.424-44.42c-3.899-2.692-8.182-5.041-11.13-8.969
		c-3.211-5.559-8.997-8.261-13.722-12.063c-33.832-27.231-62.824-58.92-88.051-94.195c-14.575-20.381-27.628-41.688-38.736-64.101
		c-16.108-32.502-28.437-66.425-36.674-101.819c-5.861-25.184-10.035-50.573-12.404-76.351c-1.078-11.735,0.142-23.564-2.239-35.226
		c-0.891-4.362,0.495-8.934,1.034-13.39c0.2-1.654,0.489-3.295,0.482-4.967c-0.123-30.632,5.106-60.588,11.62-90.355
		c8.087-36.956,20.495-72.474,37.266-106.353c17.064-34.471,38.071-66.459,62.826-95.952c6.854-8.165,13.921-16.126,21.31-23.802
		c5.424-4.235,10.135-9.197,14.579-14.43c31.646-30.141,66.647-55.615,105.233-76.207c20.749-11.073,42.073-20.763,64.255-28.567
		c4.944-1.74,9.425-5.229,15.153-4.009c2.788,2.76-0.501,2.918-1.694,3.388c-6.659,2.624-13.448,4.907-20.142,7.447
		c-38.998,14.795-75.216,34.705-108.97,59.154c-21.476,15.556-41.947,32.374-60.357,51.44
		c-31.836,32.971-59.128,69.384-80.775,109.914c-1.918,3.592-1.665,5.931,1.328,8.654c2.384,2.169,5.415,4.02,6.145,7.613
		c-3.701,9.822-8.66,19.081-12.727,28.742c-17.378,41.278-28.485,84.159-33.479,128.665c-2.492,22.21-3.65,44.492-2.753,66.788
		c1.416,35.197,6.34,69.943,15.52,104.021c8.873,32.939,21.175,64.54,36.941,94.792c6.781,13.011,14.478,25.486,22.219,37.936
		c1.049,1.687,2.348,3.261,2.625,5.327c-0.193,3.811-3.331,5.621-5.633,7.882c-2.405,2.36-2.987,4.242-0.791,7.244
		c13.67,18.689,27.912,36.85,43.741,53.833c34.151,36.643,73.482,66.519,116.991,90.999c34.567,19.449,71.262,33.758,109.603,43.882
		c1.994,0.525,4.438,0.348,5.573,2.724C394.678,975.834,393.479,977.248,390.991,977.005z"/>
	<path fill-rule="evenodd" clip-rule="evenodd" fill="#EFEFEF" d="M362,54c-7.502-0.406-13.554,4.036-20.188,6.342
		c-17.529,6.094-34.437,13.798-50.929,22.29c-29.988,15.44-58.101,33.799-84.244,55.16c-9.86,8.056-19.405,16.451-28.64,25.208
		c-5.085,4.248-9.752,8.915-14,14c-8.197,8.208-15.81,16.958-23.205,25.871c-12.181,14.682-23.378,30.116-33.777,46.114
		C88.301,277.779,72.938,308.267,61,340.478c-11.034,29.772-18.934,60.354-24.089,91.679c-2.257,13.714-3.682,27.499-5.179,41.306
		c-1.277,11.777-0.106,23.633-2.429,35.401c-1.066,5.403,1.637,11.435,1.589,17.173c-0.186,22.211,3.194,44.003,6.889,65.79
		c4.528,26.698,11.259,52.837,20.191,78.378c11.056,31.613,25.304,61.75,42.981,90.227c14.192,22.863,30.204,44.36,47.676,64.852
		c20.073,23.542,42.578,44.387,67.1,63.146c1.578,1.206,3.03,2.583,4.644,3.734c1.816,1.296,1.08,2.077-0.385,2.842
		c-6.595-2.979-11.503-8.264-17.044-12.649c-16.195-12.817-31.047-27.144-45.146-42.181c-22.065-23.535-41.402-49.215-58.556-76.554
		c-6.274-9.999-12.247-20.169-17.683-30.626c-18.789-36.14-32.574-74.132-41.556-113.868c-4.415-19.531-7.915-39.185-10.183-59.114
		c-2.6-22.839-3.617-45.728-2.674-68.612c1.681-40.849,8.911-80.868,20.243-120.144c8.317-28.826,19.366-56.592,33.158-83.209
		c14.238-27.479,31.275-53.164,50.314-77.596c15.063-19.329,31.535-37.332,49.37-54.029c23.421-21.927,48.983-41.162,76.199-58.2
		c13.966-8.743,28.294-16.821,43.122-23.968C336.37,56.508,374.966,44.101,414.988,35.9c16.217-3.323,32.527-6.061,48.955-7.73
		c21.66-2.202,43.458-3.044,65.213-2.065c39.338,1.77,77.95,8.516,115.827,19.14c23.364,6.553,45.997,15.193,68.155,25.207
		c35.195,15.904,67.303,36.74,97.748,60.209c19.636,15.135,37.684,32.176,54.494,50.382c20.402,22.095,38.419,46.102,54.631,71.447
		c0.902,1.411,1.854,2.766,1.996,4.499c0.407,1.664-0.616,2.229-1.955,2.555c-1.941-0.15-2.742-1.656-3.623-3.064
		c-14.635-23.39-31.228-45.324-49.281-66.163c-3.676-4.243-8.331-7.641-10.979-12.77c-3.705-5.672-8.363-10.373-14.168-13.911
		c-10.84-8.302-20.406-18.074-31.098-26.573c-21.969-17.463-45.252-32.901-69.757-46.513
		c-23.645-13.133-48.291-24.045-73.938-32.667c-32.139-10.804-64.94-18.6-98.633-22.851c-9.357-1.18-18.859-1.265-28.098-3.422
		c-2.146-0.501-4.308-0.19-6.448,0.229c-3.338,0.653-6.627,0.668-9.786-0.832c-9.398-2.924-18.775-2.573-28.139,0.151
		c-2.042,0.788-4.174,1.439-6.337,1.138c-10.509-1.461-20.832,0.778-31.149,1.844c-19.699,2.034-39.193,5.599-58.449,10.304
		c-10.993,2.686-22.04,5.196-32.795,8.769C365.599,53.804,363.792,53.754,362,54z"/>
	<path fill-rule="evenodd" clip-rule="evenodd" fill="#EFEFEF" d="M920,259c0.958-0.382,1.625-1.055,2.007-2.011
		c5.17,5.115,7.926,11.809,11.373,17.979c22.018,39.402,37.766,81.214,47.676,125.254c4.359,19.376,7.835,38.86,10.101,58.617
		c2.639,22.999,3.685,46.058,2.678,69.102c-1.55,35.457-7.138,70.379-16.149,104.764c-7.261,27.702-16.78,54.512-28.698,80.568
		c-15.358,33.576-35.074,64.394-57.416,93.638c-15.979,20.917-33.784,40.253-53.171,57.967
		c-27.25,24.899-56.939,46.613-89.027,65.022c-29.102,16.695-59.628,30.076-91.64,39.965c-26.438,8.167-53.328,14.486-80.802,18.247
		c-13.951,1.91-27.931,3.051-41.963,4.124c-14.157,1.082-28.298,1.146-42.369,0.567c-26.949-1.107-53.726-4.359-80.12-10.164
		c-7.229-1.59-14.585-2.769-21.487-5.635c1.336-1.002,2.672-2.003,4.009-3.005c1.554-0.406,3.066-0.104,4.578,0.258
		c10.479,2.782,21.044,5.148,31.796,6.643c0.555,0.074,1.093,0.202,1.628,0.354c14.449,2.626,28.973,4.608,43.644,5.414
		c3.751,0.206,7.459,1.77,11.261,0.337c1.753-0.35,3.506-0.343,5.258,0.001c11.53,1.779,23.062,1.716,34.593,0.02
		c1.748-0.363,3.499-0.368,5.252-0.039c5.822,1.7,11.623-0.154,17.317-0.633c12.553-1.055,25.104-2.587,37.497-5.023
		c0.521-0.187,1.061-0.314,1.604-0.417c10.903-1.444,21.597-3.906,32.199-6.786c3.913-1.222,7.997-1.785,11.894-3.075
		c3.636-0.526,7.193-1.384,10.656-2.626c0.459-0.182,0.932-0.317,1.408-0.44c18.288-4.675,35.805-11.545,53.158-18.835
		c40.973-17.212,78.388-40.355,112.989-68.143c13.508-10.847,26.505-22.289,38.605-34.682c25.323-25.936,47.581-54.28,66.809-85.053
		c20.327-32.534,36.03-67.158,48.1-103.497c1.575-4.741,2.914-9.553,4.036-14.429c6.812-24.574,12.24-49.41,15.554-74.729
		c1.315-10.048,2.924-20.202,2.947-30.181c0.035-15.216,3.16-30.405,0.259-45.704c-1.22-6.43-0.436-13.17-0.935-19.801
		c-1.237-16.453-3.48-32.729-6.478-48.907c-6.938-37.458-17.744-73.758-33.166-108.638c-7.547-17.067-16.181-33.568-25.66-49.638
		C920.615,263.734,918.395,261.831,920,259z"/>
	<path fill-rule="evenodd" clip-rule="evenodd" fill="#CD4459" d="M125.158,767.668c-10.429-16.823-20.821-33.66-29.62-51.431
		C71.244,667.167,55.854,615.5,49.94,561.035c-9.889-91.082,5.637-177.626,46.3-259.693c0.218-0.44,0.351-0.922,0.524-1.385
		c-0.249-3.417,1.871-5.999,3.34-8.705c16.641-30.663,35.985-59.459,59.035-85.734c12.297-14.017,24.878-27.721,39.021-39.915
		c2.469-2.455,5.035-4.802,7.813-6.909c0.325-0.34,0.67-0.655,1.016-0.972c24.195-21.052,50.332-39.323,78.447-54.757
		c2.774-1.523,5.434-3.234,8.153-4.847c6.048-3.389,12.211-6.546,18.584-9.284c3.442-1.345,6.944-2.551,10.176-4.395
		c0.414-0.25,0.844-0.462,1.283-0.664c11.48-5.062,23.29-9.282,34.988-13.783c3.111-1.72,6.581-2.322,9.958-3.216
		c3.203-0.607,6.171-1.978,9.291-2.87c0.5-0.155,1.006-0.262,1.521-0.345c15.509-5.107,31.531-8.107,47.422-11.64
		c3.772-1.702,7.944-0.97,11.832-1.967c2.294-0.421,4.67-0.07,6.937-0.75c0.49-0.151,0.992-0.248,1.499-0.316
		c2.233-0.296,4.532,0.042,6.719-0.714c0.488-0.148,0.986-0.241,1.49-0.309c2.261-0.269,4.58-0.018,6.787-0.776
		c1.029-0.244,2.069-0.379,3.125-0.402c2.657-0.174,5.361,0.243,7.958-0.674c1.39-0.319,2.8-0.39,4.219-0.394
		c4.083-0.358,8.247,0.577,12.267-0.797c13.878-0.638,27.754-0.66,41.629-0.019c4.009,1.4,8.18,0.46,12.261,0.811
		c1.418-0.005,2.831,0.064,4.22,0.376c2.588,0.94,5.3,0.525,7.958,0.692c1.058,0.012,2.1,0.147,3.128,0.383
		c2.2,0.779,4.525,0.524,6.787,0.792c0.505,0.047,1,0.148,1.49,0.274c2.157,0.8,4.448,0.462,6.666,0.753
		c0.507,0.049,1.002,0.152,1.491,0.283c2.194,0.725,4.539,0.397,6.761,0.941c2.019,0.521,4.114,0.573,6.149,1.004
		c18.01,3.178,35.905,6.845,53.349,12.43c0.512,0.073,1.018,0.187,1.518,0.314c3.097,0.993,6.142,2.156,9.274,3.049
		c3.307,1.019,6.712,1.735,9.882,3.18c11.795,4.244,23.544,8.604,35.025,13.646c0.443,0.183,0.87,0.404,1.289,0.635
		c3.2,1.976,6.892,2.886,10.196,4.641c6.155,3.08,12.274,6.229,18.486,9.194c32.487,17.368,62.563,38.237,90.42,62.324
		c1.634,1.413,3.11,2.992,4.632,4.521c1.107,1.161,2.187,2.352,3.474,3.326c9.209,7.989,17.876,16.521,25.802,25.794
		c0.918,1.255,2.036,2.329,3.152,3.403c2.447,2.303,4.615,4.854,6.682,7.498c0.338,0.318,0.651,0.655,0.967,0.995
		c21.077,24.222,39.37,50.386,54.789,78.551c1.521,2.777,3.348,5.378,4.701,8.25c3.02,6.332,6.273,12.545,9.434,18.808
		c6.873,15.117,13.392,30.376,18.682,46.133c1.457,3.284,2.232,6.788,3.327,10.19c3.613,10.266,6.265,20.806,8.941,31.337
		c0.484,1.902,1.142,3.809,0.642,5.823c-1.915,2.406-1.147,4.417,0.951,6.231c1.898,4.345,2.598,8.93,2.775,13.616
		c-0.35,1.989-1.857,4.108,0.648,5.792c0.18,0.425,0.228,0.864,0.175,1.319c-1.985,2.664,0.911,4.021,1.61,5.969
		c1.799,7.187,2.009,14.598,3.182,21.865c0.653,2.72-3.03,5.665,0.438,8.248c0.525,1.128,0.635,2.329,0.65,3.548
		c0.007,1.143,0.119,2.438-0.513,3.333c-1.796,2.549-0.774,4.497,1.007,6.405c0.748,2.013,0.587,4.112,0.633,6.192
		c-0.222,4.357,0.334,8.76-2.149,12.852c-1.611,2.654,1.158,4.424,2.326,6.459c0.382,1.062,0.348,2.099-0.176,3.107
		c-2.473,1.95-3.782,4.55-2.268,7.411c2.303,4.352,2.239,8.925,2.263,13.564c-0.046,2.087,0.109,4.192-0.546,6.223
		c-5.032,6.748-5.033,6.75-10.961,0.826c-11.996-11.989-23.948-24.023-35.999-35.957c-4.363-4.32-9.193-7.774-15.908-6.408
		c-6.516-1.674-12.301-5.109-18.246-8.005c-30.096-14.66-60.569-28.54-90.464-43.611c-16.49-8.313-34.066-12.263-52.315-13.799
		c-31.348-2.64-62.503,0.25-93.651,3.251c-5.318,0.513-5.949,1.563-4.902,6.746c2.599,12.875,14.391,21.798,29.545,22.249
		c5.494,0.164,10.997-0.051,16.492,0.081c2.056,0.049,4.451-0.535,5.764,1.912c-2.286,2.886-5.502,1.406-8.314,1.694
		c-2.104,0.215-4.248,0.087-6.622-0.169c3.931,3.586,7.399,7.109,10.783,10.704c1.126,1.196,3.084,2.374,1.564,4.596
		c-2.266,1.439-4.817,1.21-7.282,1.149c-21.614-0.534-43.196,0.877-64.793,1.252c-25.902,0.449-51.803,1.461-77.715,1.928
		c-7.465,0.135-14.887,0.875-22.355-0.086c-4.872-0.627-9.56,0.862-14.26,1.883c-4.764-1.462-9.526-1.156-14.287,0.098
		c-4.925-0.973-9.897-1.217-14.9-1.068c-23.125,0.691-46.208-1.555-69.332-1.029c-1.83,0.042-3.664-0.079-5.393-0.765
		c-1.864-0.823-3.127-2.391-4.525-3.791c-11.694-11.712-23.464-23.351-35.055-35.166c-2.071-2.111-4.909-3.328-6.505-5.927
		c0.56-4.607-1.944-6.039-6.087-6.397c-14.912-1.292-29.815-2.518-44.775-3.312c-11.322-0.601-22.626-0.919-33.925-0.685
		c-20.604,0.428-40.794,3.395-59.924,11.627c-5.812,2.501-11.382,5.515-17.038,8.32c-27.598,13.684-55.551,26.636-83.113,40.396
		c-6.698,3.344-13.585,6.314-20.3,9.644c-3.214,1.593-4.688,3.783-4.681,7.429c0.058,29.144,0.05,58.289,0.011,87.433
		c-0.004,3.229,1.209,5.66,3.371,7.997c4.89,5.288,11.269,8.822,16.172,14.053c0.098,2.255,1.964,3.304,3.315,4.655
		c65.648,65.667,131.313,131.317,196.91,197.035c1.893,1.896,5.423,3.3,3.842,7.207c-2.294,0.92-3.796-0.731-5.409-1.774
		c-19.339-12.508-37.552-26.406-54.585-41.993c-13.829-12.655-26.252-26.478-37.847-41.087c-3.364-4.238-7.124-6.432-12.41-7.163
		c-10.423-1.442-20.497-4.394-30.09-8.045c8.996,14.212,19.357,27.816,30.434,40.896c22.411,26.467,47.888,49.554,76.348,69.349
		c28.755,20.001,59.732,35.701,92.643,47.629c2.034,1.13,4.644,1.149,6.216,3.186c0.637,1.807,2.11,2.947,3.397,4.233
		c24.097,24.092,48.187,48.191,72.287,72.279c2.23,2.229,4.368,4.558,7.038,6.314c1.018,0.67,1.933,1.583,0.252,2.632
		c-3.73,0.948-7.323-0.772-11.018-0.537c-0.548-0.048-1.083-0.157-1.612-0.299c-25.384-3.215-50.414-8.129-74.933-15.523
		c-3.18-0.959-6.344-1.948-9.476-3.036c-26.077-8.083-50.979-19.002-75.323-31.266c-22.756-12.799-45.072-26.293-65.68-42.414
		c-10.202-7.98-20.474-15.887-29.785-24.937c-27.173-24.208-50.574-51.717-71.338-81.535
		C126.125,770.787,125.432,769.336,125.158,767.668z"/>
	<path fill-rule="evenodd" clip-rule="evenodd" fill="#EFEFEF" d="M294.244,919.879c24.196,12.16,49.028,22.799,74.757,31.298
		c6.135,5.848,14.535,5.961,21.954,8.445c8.126,2.721,16.666,4.097,24.984,6.227c3.37,0.863,6.782,1.566,10.316,1
		c4.056-0.651,7.824,1.071,11.631,1.858c5.428,1.122,10.752,1.937,16.262,1.239c0.299-0.146,0.583-0.122,0.853,0.072
		c1.258,1.164,2.654,2.133,4.451,1.846c2.042-0.325,3.505,0.541,4.911,1.851c2.622,2.444,5.855,3.296,9.274,2.7
		c5.968-1.038,11.98-0.408,17.947-0.815c13.966-0.953,27.915,0.185,41.868,0.018c8.503-0.102,16.914,1.67,25.432,1.049
		c1.492-0.109,3.106,0.325,4.479-0.13c9.619-3.188,20.076-1.337,29.468-4.243c8.365-2.589,17.49-2.098,25.036-5.325
		c8.35-3.57,17.899-2.114,25.446-7.605c1.443-1.051,3.487-1.182,5.297-1.314c4.06-0.296,7.853-1.047,11.075-3.845
		c1.247-1.082,3.055-1.404,4.729-1.393c3.489,0.025,6.506-1.019,9.18-3.286c1.286-1.09,2.938-1.651,4.63-1.693
		c3.151-0.079,5.849-1.103,8.097-3.334c0.468-0.465,1.078-1.03,1.687-1.02c6.672,0.122,11.452-4.792,17.46-6.614
		c4.581-1.39,8.94-4.177,13.271-6.511c7.723-4.16,15.469-8.333,23.145-12.575c10.037-5.547,19.734-11.605,29.163-18.002
		c13.464-9.135,26.733-18.591,39.007-29.396c7.73-6.805,16.177-12.797,23.244-20.371c0.794-0.852,2.068-1.522,2.281-2.6
		c1.349-6.809,6.678-10.473,11.289-14.738c2.42-2.238,4.051-4.871,3.385-8.394c0.467-2.715,2.252-4.253,4.662-5.238
		c2.661-0.252,4.562-1.714,6.215-3.721c11.633-14.113,23.381-28.161,33.439-43.452c6.644-10.099,13.241-20.223,19.141-30.85
		c5.871-10.576,11.431-21.331,17.391-31.861c2.275-4.021,3.656-8.548,5.315-12.816c2.387-6.14,4.822-12.407,7.697-18.183
		c3.439-6.906,4.989-14.34,7.375-21.4c2.697-7.979,7.313-15.625,7.26-24.481c-0.004-0.664-0.105-1.464,0.243-1.964
		c6.358-9.127,3.197-20.808,8.326-30.434c2.331-4.374,2.614-9.909,1.813-15.147c-0.594-3.88,0.118-7.724,1.539-11.24
		c3.028-7.493,4.406-14.933,1.374-22.749c-0.538-1.388-0.388-2.96-0.468-4.462c0.126-2.808-0.565-5.742,1.286-8.276
		c0.076-2.235,0.152-4.471,0.228-6.706c0.661-3.921,0.649-7.798-0.19-11.728c-0.688-3.223-1.046-6.545,0.936-9.568
		c0-1.009,0.001-2.019,0.001-3.028c-1.372-2.584-1.609-5.253-0.873-8.1c0.957-3.693,0.786-7.438,0.129-11.17
		c-0.077-2.234-0.153-4.469-0.229-6.703c-2.535-2.903,0.891-6.303-0.773-9.278c-0.07-1.241-0.142-2.481-0.212-3.722
		c-2.138-2.221,0.609-4.971-0.788-7.271c-1.025-7.909-2.05-15.818-3.075-23.728c-1.21-1.38-1.395-2.916-0.703-4.582
		c0.507-7.285,1.211-14.555-2.401-21.429c-1.884-3.586-1.09-7.768-2.14-11.666c-2.063-7.665-5.235-15.054-6.143-23.026
		c-0.379-3.335-3.066-5.449-4.438-8.262c-1.69-3.147-2.367-6.616-3.187-10.039c-0.667-9.34-5.024-17.534-8.078-26.137
		c-1.803-5.077-5.51-9.326-6.137-14.945c-0.277-2.484-2.635-3.689-4.632-4.914c-3.383-6.107-6.668-12.264-9.281-18.751
		c1.142-6.201-3.794-10.063-6.254-14.616c-5.108-9.455-10.166-19.065-16.609-27.714c-8.912-11.961-16.826-24.704-26.899-35.743
		c-3.008-3.296-5.252-7.726-10.019-9.218l-0.047-0.055c-1.263-3.62-2.094-7.627-7.094-7.885c-1.315-0.699-2.415-1.603-2.924-3.071
		c-0.424-4.814-3.041-8.373-6.715-11.177c-3.072-2.345-5.736-5.008-8.081-8.08c-2.805-3.675-6.361-6.293-11.177-6.716
		c-1.469-0.506-2.37-1.61-3.073-2.921c-0.702-6.411-7.003-8.003-10.734-11.5c-4.507-4.224-9.541-8.159-14.396-12.125
		c-9.421-7.696-19.458-14.52-29.409-21.412c-9.378-6.497-19.333-12.211-29.563-17.422c-3.643-1.855-6.629-4.876-11.13-4.468
		c-6.484-2.618-12.646-5.887-18.747-9.279c-1.896-4.712-5.786-5.172-10.097-4.734l0.018,0.017c-1.163-1.886-2.808-2.995-4.857-3.966
		c-7.615-3.608-15.785-5.81-23.374-9.443c-2.518-1.205-5.115-0.799-7.716-0.706c-3.393-0.852-6.853-1.489-9.976-3.184
		c-2.703-1.886-4.716-5.921-8.997-2.888c-0.351-0.058-0.702-0.117-1.053-0.175c-1.733-1.241-3.494-2.287-5.591-3.003
		c-11.822-4.037-24.026-6.531-36.173-9.262c-4.073-0.916-8.243,0.205-12.342-0.42c-1.981-0.213-4.06,0.431-5.942-0.667
		c-1.854-3.196-4.662-1.221-7.091-1.307l-0.421,0.082L574,50.01c-2.011-3.142-4.895,0.272-7.16-0.954l-0.432,0.096l-0.41-0.164
		c-2.194-2.174-4.754-1.231-7.248-0.852c-0.917-0.069-1.834-0.138-2.751-0.207c-2.456-3.483-5.614,0.122-8.321-0.824
		c-1.227-0.063-2.452-0.126-3.679-0.189c-1.956-1.803-3.914-2.786-6.571-1.04c-1.705,1.121-3.779,0.802-5.713,0.21
		c-14.143,0-28.286,0-42.428,0c-1.934,0.591-4.009,0.911-5.714-0.21c-2.657-1.746-4.615-0.764-6.571,1.039
		c-1.221,0.064-2.441,0.129-3.662,0.193c-2.713,0.949-5.875-2.663-8.338,0.82c-0.919,0.069-1.838,0.139-2.757,0.208
		c-2.493-0.384-5.052-1.325-7.243,0.855l-0.413,0.159l-0.432-0.097c-2.264,1.226-5.149-2.188-7.156,0.958l-0.393,0.176l-0.423-0.082
		c-2.484-0.327-5.062-1.356-7.197,0.952c-3.7,2.238-8.201-0.039-11.916,2.115c-2.407-0.957-4.938-0.913-7.334-0.321
		c-12.245,3.025-24.724,5.101-36.738,9.062c-1.647,0.543-2.732,1.818-3.999,2.863c-0.334,0.055-0.668,0.109-1.002,0.165
		c-4.148-2.622-6.342,0.852-8.997,2.886c-3.331,1.063-6.662,2.127-9.992,3.191c-6.142-2.027-10.563,2.87-15.924,4.064
		c-5.787,1.29-10.877,4.735-16.518,6.647c-1.67,0.566-2.542,2.04-3.485,3.399l0.016-0.015c-4.315-0.447-8.204,0.016-10.098,4.734
		c-6.295,3.126-12.591,6.252-18.886,9.379c-3.502-0.391-6.393,0.607-9.052,3.085c-2.655,2.475-6.282,3.572-9.435,5.333
		c-20.926,11.691-40.456,25.385-58.699,40.857c-3.583,3.038-8.809,4.9-9.975,10.396l-0.061,0.049
		c-3.741,1.084-6.979,2.736-7.911,6.996c-12.962,12.635-25.912,25.268-37.812,38.95c-24.539,28.213-45.431,58.877-62.651,92.056
		c-0.534,1.028-1.167,2.004-1.754,3.004c-0.518-0.415-1.071-0.793-1.547-1.251c-10.002-9.631-9.817-9.526-2.901-21.354
		c12.577-21.505,26.064-42.376,41.469-61.987c8.295-10.561,16.951-20.793,25.982-30.739c8.272-9.11,17.023-17.678,26.028-26.058
		c14.473-13.469,29.933-25.693,45.864-37.314c21.638-15.784,44.583-29.514,68.623-41.308c19.836-9.731,40.29-18.05,61.309-24.928
		c0.151-0.049,0.419-0.089,0.429-0.161c0.038-0.28-0.007-0.571-0.021-0.858c10.739-5.019,22.401-6.935,33.733-9.923
		c16.321-4.303,32.933-7.338,49.606-9.811c7.762-1.151,15.666-3.029,23.352-2.814c7.04,0.197,13.922-3.295,20.985-0.524
		c2.042,0.801,4.219-0.516,6.324-0.928c9.667-2.073,19.333-2.073,29,0c1.491,0.868,3.152,1.327,4.799,0.967
		c10.472-2.285,20.849,0.349,31.03,1.545c14.369,1.688,28.777,3.802,43.004,6.852c20.254,4.343,40.335,9.332,59.989,15.837
		c15.11,5.001,29.896,10.924,44.458,17.402c23.881,10.624,46.494,23.54,68.309,37.83c14.396,9.431,28.098,19.839,41.406,30.813
		c8.539,7.042,16.092,15.175,25.005,21.753c5.049,4.284,9.716,8.951,14,14c8.021,10.293,17.275,19.521,25.419,29.732
		c7.849,9.84,15.306,19.941,22.532,30.225C910.065,244.235,914.99,251.647,920,259c1.67,5.664,5.404,10.25,8.263,15.253
		c13.473,23.585,24.474,48.257,33.631,73.794c9.195,25.642,15.772,51.988,20.78,78.712c2.541,13.563,5.108,27.269,5.656,40.99
		c0.262,6.579,3.209,13.19,0.795,19.979c-0.668,1.878-0.071,4.226,0.351,6.396c1.977,10.174,0.976,20.397,0.105,30.602
		c-0.098,1.147-0.558,2.28-0.55,3.418c0.266,38.21-8.03,75.104-17.221,111.853c-0.343,1.372-0.487,3.001-1.811,4.003
		c-6.709,22.899-15.164,45.113-25.108,66.826c-11.729,25.611-25.879,49.769-41.979,72.809
		c-10.258,14.68-21.117,28.902-33.169,42.205c-6.687,7.382-13.086,15.032-20.173,22.039c-18.44,18.235-38.222,34.908-59.241,50.091
		c-22.253,16.073-45.663,30.294-70.387,42.215C695.773,951.838,670.857,961.675,645,969c-3.604,1.232-7.413,1.709-11,3
		c-3.792,1.832-7.918,2.328-12,3c-10.937,2.633-21.925,5.02-33,7c-11.473,1.834-22.979,3.364-34.521,4.732
		c-5.359,0.636-10.865-0.109-16.151,1.639c-1.557,0.515-3.609,0.564-5.327-0.371c-1.667,0-3.333,0-5,0
		c-11.667,1.43-23.333,1.43-35,0c-1.667,0-3.333,0-5,0c-6.268,1.482-12.433-0.532-18.598-0.934
		c-6.793-0.441-13.661-1.289-20.446-2.479c-5.621-0.986-11.326-1.569-16.957-2.588c-11.075-1.98-22.063-4.367-33-7
		c-1.381-0.142-2.949,0.464-4-1c-12.183-3.671-24.485-6.991-36.529-11.073c-49.621-16.818-95.442-40.831-136.998-72.875
		c-13.535-10.438-26.512-21.46-39.147-32.996c-24.782-22.628-45.417-48.689-65.133-75.612c-1.63-2.227-1.786-3.748,0.503-5.787
		c2.704-2.407,5.61-4.736,7.461-7.987c10.938,15.041,21.789,30.144,34.033,44.187c12.029,13.797,24.64,27.016,38.186,39.335
		c0.603,0.548,1.072,1.244,1.603,1.871c1.167,4.171,4.972,5.547,7.78,8.112c3.954,3.613,7.772,7.562,11.989,10.874
		c16.207,12.731,32.421,25.446,50.549,35.515c6.033,3.35,12.329,6.402,17.796,10.755C289.195,919.99,291.813,919.57,294.244,919.879
		z"/>
	<path fill-rule="evenodd" clip-rule="evenodd" fill="#EFEFEF" d="M164,177c3.446-5.888,8.112-10.554,14-14
		C173.746,168.079,169.079,172.746,164,177z"/>
	<path fill-rule="evenodd" clip-rule="evenodd" fill="#EFEFEF" d="M525,30c-9.667-0.943-19.333-0.943-29,0
		C505.667,26.74,515.333,26.74,525,30z"/>
	<path fill-rule="evenodd" clip-rule="evenodd" fill="#EFEFEF" d="M857,177c-5.079-4.254-9.746-8.921-14-14
		C848.888,166.446,853.554,171.112,857,177z"/>
	<path fill-rule="evenodd" clip-rule="evenodd" fill="#EFEFEF" d="M645,969c8.734-3.061,17.478-6.098,26.202-9.185
		c46.404-16.418,89.029-39.748,128.174-69.589c18.907-14.413,37.146-29.604,53.534-46.795c26.513-27.812,49.871-58.096,69.53-91.208
		c17.982-30.287,32.006-62.309,43.251-95.62c1.42-4.205,1.758-8.786,4.309-12.604c-0.811,7.499-3.6,14.46-6.039,21.487
		c-7.581,21.833-16.383,43.174-27.074,63.677c-14.454,27.718-31.338,53.87-50.813,78.365c-12.615,15.868-25.86,31.164-40.433,45.237
		c-18.981,18.333-39.297,35.092-61.004,50.146c-20.503,14.22-41.818,27.07-64.305,37.879c-23.067,11.089-46.813,20.522-71.41,27.705
		C647.673,968.862,646.311,968.842,645,969z"/>
	<path fill-rule="evenodd" clip-rule="evenodd" fill="#EFEFEF" d="M432,982c8.997,1.058,18.027,1.888,26.981,3.233
		c9.635,1.448,19.333,1.995,29.019,2.767c-2.019,1.832-4.461,1.077-6.662,0.831c-13.614-1.521-27.208-3.21-40.812-4.824
		C437.604,983.66,434.663,983.431,432,982z"/>
	<path fill-rule="evenodd" clip-rule="evenodd" fill="#EFEFEF" d="M533,988c14.476-0.916,28.893-2.373,43.237-4.558
		c4.229-0.645,8.507-0.971,12.763-1.442c-6.804,2.817-14.171,2.702-21.271,3.839c-9.606,1.538-19.356,2.204-29.06,3.08
		C536.8,989.088,534.649,989.731,533,988z"/>
	<path fill-rule="evenodd" clip-rule="evenodd" fill="#EFEFEF" d="M493,988c11.667,0,23.333,0,35,0
		c-7.428,1.309-14.975,2.869-22.415,1.486C501.375,988.704,496.925,990.473,493,988z"/>
	<path fill-rule="evenodd" clip-rule="evenodd" fill="#EFEFEF" d="M399,975c9.504,0.876,18.554,4.05,27.936,5.585
		c1.656,0.271,3.743-0.294,5.064,1.415C420.728,980.947,409.71,978.7,399,975z"/>
	<path fill-rule="evenodd" clip-rule="evenodd" fill="#EFEFEF" d="M589,982c10.888-2.863,21.87-5.28,33-7
		C611.29,978.7,600.271,980.947,589,982z"/>
	<path fill-rule="evenodd" clip-rule="evenodd" fill="#EFEFEF" d="M634,972c3.357-2.135,7.139-2.714,11-3
		C641.643,971.135,637.861,971.714,634,972z"/>
	<path fill-rule="evenodd" clip-rule="evenodd" fill="#B83E53" d="M501.009,486.775c3.991-2.328,7.984-3.15,11.984-0.022
		c-2.722,7.229-0.216,13.311,4.155,18.992c0.508,0.659,0.998,1.34,1.423,2.054c9.646,16.236,23.774,22.558,42.686,22.071
		c33.307-0.857,66.651-0.259,99.98-0.205c2.568,0.004,6.634-1.014,7.244,1.538c0.753,3.153-3.573,3.622-5.863,4.947
		c-8.96,5.187-17.89,10.358-24.196,18.94c-4.823,6.565-5.605,13.541-1.61,20.617c4.027,7.133,9.347,12.553,18.628,11.768
		c4.228-0.357,4.901,0.83,3.217,5.116c-2.65,6.739-4.695,13.68-3.9,20.917c1.495,13.605,11.384,24.01,25.83,27.953
		c3.709,1.013,7.525,1.448,11.289,2.161c3.047,0.576,3.975,2.055,2.632,4.907c-0.852,1.808-1.723,3.611-2.365,5.51
		c-3.576,10.573,0.663,20.011,10.746,24.851c4.775,2.293,10.058,2.064,14.892,3.804c6.355,8.206,14.834,14.255,22.122,21.524
		c3.398,3.391,7.129,6.505,10.451,10c2.06,2.167,3.728,4.702,7.057,5.127c0.802,0.102,1.481,0.783,1.934,1.499
		c5.446,8.618,14.562,13.599,21.031,21.205c0.858,1.009,2.021,1.727,3.127,2.476c2.183,1.477,3.915,1.244,5.496-1.035
		c6.818-9.829,15.589-18.243,21.236-28.906c3.379-6.378,9.385-7.597,15.537-8.225c2.358-0.24,4.282-0.469,6.357-1.83
		c3.663-2.404,6.117-1.335,7.259,2.571c-3.029,3.321-7.324,3.904-11.301,4.54c-7.259,1.161-11.998,4.796-15.966,11.077
		c-7.354,11.64-16.438,22.07-25.308,32.608c-5.007,4.579-9.149,9.954-13.717,14.945c-29.54,29.306-62.642,53.727-100.004,72.123
		c-38.584,18.997-79.326,30.895-122.076,35.785c-19.209,2.198-38.526,3.047-57.797,2.034
		c-47.839-2.515-93.809-13.069-137.455-33.243c-10.446-4.828-20.64-10.052-30.575-15.816c-2.402-2.021-6.334-2.238-7.208-6.073
		c-0.069-2.724-2.362-3.913-3.95-5.502c-65.693-65.748-131.424-131.458-197.082-197.241c-1.164-1.165-3.728-1.776-2.818-4.396
		c1.655-0.393,2.896,0.532,4.122,1.369c22.83,15.596,47.602,27.321,73.381,37.104c27.746,10.529,55.838,19.951,84.857,26.295
		c9.938,2.172,20.006,2.764,30.221,0.525c12.316-2.698,22.295-14.868,14.98-29.777c-0.146-0.299-0.287-0.602-0.421-0.906
		c-2.506-5.7-2.272-6.127,4.053-7.315c3.272-0.614,6.621-0.9,9.784-1.985c13.59-4.664,23.109-13.008,25.136-28.052
		c0.923-6.853-1.365-13.169-3.326-19.517c-1.958-6.334-1.784-6.839,4.928-7.008c8.97-0.225,13.955-5.637,17.153-13.093
		c3.16-7.369,2.164-14.344-3.345-20.425c-7.125-7.864-15.379-14.221-24.964-18.85c-1.833-0.886-4.932-1.619-4.373-3.967
		c0.557-2.341,3.653-1.66,5.722-1.663c35.311-0.054,70.624-0.205,105.933,0.05c14.584,0.104,26.346-4.608,34.683-16.917
		c1.865-2.754,3.919-5.39,5.771-8.156C502.343,499.804,505.359,493.779,501.009,486.775z"/>
	<path fill-rule="evenodd" clip-rule="evenodd" fill="#FEFEFE" d="M501.009,486.775c4.147,3.031,4.962,7.096,2.864,11.483
		c-5.299,11.08-12.168,21.085-22.259,28.35c-6.319,4.549-13.908,5.346-21.468,5.364c-35.815,0.087-71.63,0.077-107.445,0.102
		c-1.811,0.001-3.621,0-6.74,0c2.836,1.573,4.617,2.586,6.42,3.558c7.646,4.124,14.943,8.746,21.113,14.946
		c6.991,7.025,11.479,14.788,7.104,25.044c-4.778,11.201-10.828,14.88-24.307,14.508c5.229,13.175,9.182,26.507,0.307,39.419
		c-8.545,12.432-21.476,16.668-35.868,17.415c-0.532,1.648,0.724,2.541,1.284,3.618c8.483,16.33,0.913,31.4-17.332,34.474
		c-16.261,2.739-31.715-1.257-47.169-5.495c-27.88-7.647-55.241-16.901-81.917-27.966c-17.604-7.303-34.71-15.846-50.716-26.358
		c-3.619-2.378-7.168-4.861-10.75-7.295c-6.036-5.214-12.656-9.721-18.356-15.353c-1.894-1.872-2.85-3.704-2.84-6.484
		c0.105-30.32,0.133-60.643-0.027-90.962c-0.019-3.45,1.271-4.883,4.176-6.279c36.42-17.505,73.22-34.293,109.015-53.002
		c32.594-17.036,67.05-19.001,102.444-17.434c16.47,0.729,32.907,1.887,49.302,3.654c8.416,0.907,8.423,0.833,7.333,8.888
		c1.331,2.642-0.125,4.882-1.191,7.063c-5.958,12.183-16.603,16.591-29.326,17.411c-11.942,0.77-23.945,0.554-35.837,2.146
		c-3.799,0.508-7.57,1.2-11.143,2.67c-2.179,0.897-4.234,2.017-5.653,3.967c-1.859,2.555-1.276,4.257,1.779,4.184
		c6.688-0.161,13.259,1.284,19.927,1.123c21.308-0.515,42.572,1.676,63.882,1.034c1.497-0.045,2.995,0.094,4.474,0.393
		c5.062,1.207,10.182,0.544,15.285,0.486c5.061-0.061,10.119-0.021,15.177-0.018c2.315,0.001,4.572,0.209,6.492,1.708
		c0.479,0.133,0.956,0.377,1.436,0.381c24.625,0.2,49.221,2.096,73.862,1.266C490.017,484.591,495.656,484.411,501.009,486.775z"/>
	<path fill-rule="evenodd" clip-rule="evenodd" fill="#FEFEFE" d="M718.266,683.836c-3.759-0.627-7.595-0.963-11.262-1.934
		c-15.559-4.119-21.711-17.798-14.633-32.217c0.722-1.471,1.515-2.905,2.322-4.446c-30.132-1.69-51.861-21.652-35.879-56.843
		c-10.985,2.195-18.26-2.552-23.3-11.79c-4.314-7.91-3.603-15.296,1.747-22.371c6.383-8.443,15.123-13.907,24.152-18.986
		c2.117-1.191,4.295-2.273,6.271-4.13c-1.571,0-3.143,0.001-4.714,0c-35.806-0.036-71.611-0.22-107.415-0.036
		c-14.45,0.074-25.827-5.156-34.117-17.064c-3.513-5.047-7.615-9.723-9.993-15.474c-1.715-4.147-2.504-8.328,1.547-11.792
		c5.086-2.428,10.486-3.156,16.033-2.718c17.481,1.38,34.938-0.259,52.403-0.438c20.817-0.214,41.628-1.06,62.442-1.596
		c17.985-0.463,35.972-0.869,53.957-1.332c1.143-0.029,2.277-0.329,3.416-0.502c1.636-1.964,3.936-1.526,6.036-1.552
		c7.66-0.093,15.323,0.025,22.983-0.078c1.432-0.02,3.274,0.289,3.876-1.495c0.542-1.609-0.685-2.821-1.741-3.894
		c-2.043-2.074-4.599-3.289-7.351-4.072c-5.302-1.509-10.695-2.485-16.222-2.686c-1.948-0.071-4.065,0.278-5.54-1.554
		c-7.246-1.408-14.578-0.585-21.869-0.821c-15.328-0.496-27.196-8.124-30.684-21c-3.123-11.532-3.393-9.703,7.181-10.934
		c24.48-2.851,49.063-4.2,73.717-4.077c26.612,0.132,51.946,4.994,76.056,17.2c33.049,16.732,66.733,32.21,100.154,48.209
		c1.335,0.639,2.751,1.108,4.129,1.657c4.44,1.007,8.811,2.132,11.136,6.683c0.415,2.332,0.435,4.678,0.339,7.036
		c0.265,28.864,0.253,57.723,0.033,86.577c-0.194,3.35-2.004,5.77-4.516,7.779c-1.188,0.88-2.479,1.63-3.537,2.689
		c-11.83,10.61-25.321,18.806-38.973,26.771c-0.83,0.443-1.675,0.861-2.514,1.292c-7.234,3.488-14.366,7.183-21.546,10.781
		c-0.857,0.448-1.721,0.881-2.587,1.313c-12.647,5.656-25.539,10.708-38.454,15.709c-0.69,0.305-1.401,0.547-2.131,0.735
		c-8.589,2.819-17.129,5.785-25.733,8.562c-0.479,0.162-0.971,0.272-1.469,0.355c-7.183,2.246-14.46,4.168-21.648,6.392
		c-0.706,0.241-1.431,0.413-2.162,0.55c-3.091,0.716-6.092,1.758-9.162,2.556c-0.717,0.231-1.445,0.41-2.186,0.549
		c-4.222,1.051-8.536,1.612-12.791,2.504c-0.512,0.151-1.031,0.244-1.56,0.309c-3.466,0.43-7.003-0.312-10.432,0.687
		C720.664,685.062,719.264,685.163,718.266,683.836z"/>
	<path fill-rule="evenodd" clip-rule="evenodd" fill="#FEFEFE" d="M120.189,436.736c30.224-172.111,186.776-325.468,395.061-322.582
		c205.702,2.852,358.792,158.239,385.093,331.559c-9.789-6.586-19.652-12.42-29.94-17.488c-2.258-1.112-2.222-3.107-2.69-4.988
		c-17.002-68.226-50.338-127.246-100.705-176.283C711.503,192.916,645.499,158.596,568.783,147
		c-118.076-17.848-222.021,13.566-310.323,94.03c-51.699,47.11-86.105,105.303-104.572,172.823
		c-0.741,2.709-2.002,4.601-4.542,6.066c-9.511,5.485-18.876,11.223-28.303,16.855C120.925,436.845,120.716,436.765,120.189,436.736
		z"/>
	<path fill-rule="evenodd" clip-rule="evenodd" fill="#B83E53" d="M466.999,970.835c-2.227-1.094-4.197-2.462-5.986-4.257
		c-25.167-25.26-50.408-50.444-75.557-75.721c-1.009-1.014-3.589-1.579-2.142-4.039c1.863-0.979,3.587-0.071,5.294,0.467
		c27.428,8.651,55.531,13.718,84.125,16.581c17.44,1.747,34.911,2.483,52.343,1.638c62.495-3.033,121.48-18.854,176.271-49.552
		c30.538-17.11,58.478-37.646,83.461-62.181c1.305-1.28,2.556-2.64,4.313-3.334c2.116-0.649,3.483,0.533,4.685,1.997
		c12.622,15.389,24.91,31.045,37.227,46.679c1.036,1.315,1.841,2.8,1.089,4.6c-6.706,8.121-14.55,15.069-22.589,21.799
		c-31.703,26.537-66.229,48.689-103.761,66.031c-40.294,18.617-82.419,31.224-126.356,37.758
		c-28.381,4.22-56.915,5.788-85.562,4.934c-7.443-0.222-14.952-0.492-22.354-1.65C469.903,972.334,468.116,972.396,466.999,970.835z
		"/>
	<path fill-rule="evenodd" clip-rule="evenodd" fill="#FEFEFE" d="M814.974,404.625c-12.68-4.021-24.817-7.918-36.993-11.695
		c-2.51-0.779-3.02-2.917-3.935-4.809c-23.467-48.512-57.551-87.803-102.55-117.458c-41.982-27.667-88.115-43.321-138.322-46.89
		c-117.436-8.348-227.388,53.892-280.188,158.787c-1.643,3.264-3.37,4.54-7.087,4.533c-9.911-0.019-19.853-0.975-30.002,1.154
		c38.284-96.069,141.988-193.451,288.554-196.882C653.11,187.885,772.265,283.551,814.974,404.625z"/>
	<path fill-rule="evenodd" clip-rule="evenodd" fill="#E4E5E7" d="M790.072,791.018c-14.983,14.21-30.399,27.903-47.146,40.044
		c-52.551,38.098-110.907,62.094-175.08,71.698c-45.17,6.761-90.215,5.432-135.087-3.095c-16.781-3.188-33.195-7.677-49.446-12.846
		c-2.108-0.934-4.217-1.866-6.326-2.798c-16.305-16.036-32.393-32.289-48.54-48.482c-1.527-1.531-3.981-2.685-3.443-5.571
		c14.874,7.771,29.705,15.617,45.306,21.898c33.223,13.376,67.56,22.229,103.279,25.317
		c107.869,9.326,202.317-22.103,283.467-93.666c5.358-4.727,10.468-9.735,15.693-14.613c0.846-0.46,1.731-0.294,2.263,0.354
		c5.429,6.616,11.606,12.667,15.559,20.411C790.543,790.169,790.375,790.619,790.072,791.018z"/>
	<path fill-rule="evenodd" clip-rule="evenodd" fill="#FEFEFE" d="M325.004,829.968c5.252,6.456,11.515,11.934,17.336,17.836
		c10.735,10.884,21.628,21.611,32.359,32.5c0.964,0.979,3.304,1.415,2.287,3.718c-25.372-8.38-49.213-20.059-72.026-33.843
		c-51.991-31.414-94.531-72.668-127.844-123.45c-0.636-0.969-1.206-1.98-2.257-3.716c9.975,3.451,19.236,7.333,29.036,8.146
		c9.306,0.771,14.848,5.512,20.44,12.49c25.516,31.834,55.938,58.278,90.577,79.852c0.973,0.605,2.043,1.057,3.068,1.581
		C320.321,826.71,322.663,828.339,325.004,829.968z"/>
	<path fill-rule="evenodd" clip-rule="evenodd" fill="#EFEFEF" d="M466.999,970.835c124.465,10.698,235.67-22.872,333.821-100.004
		c11.002-8.646,21.396-17.978,31.126-28.04c5.089-7.064,11.979-12.417,17.849-18.741c0.341-0.367,0.891-0.276,1.251,0.185
		c1.84,2.757,0.771,5.207-1.136,7.236c-2.265,2.41-4.37,5.021-7.298,6.768c-1.733,1.032-3.432,2.436-3.855,4.435
		c-1.97,9.284-10.185,13.191-16.138,19.023c-6.707,6.571-14.76,11.521-21.477,18.186c-4.827,4.791-11.067,8.164-16.707,12.128
		c-6.534,4.593-13.045,9.222-19.674,13.675c-3.881,2.606-8.221,4.577-11.901,7.42c-4.141,3.198-9.458,4.251-13.291,7.838
		c-3.063,2.866-7.213,4.003-10.768,5.731c-5.093,2.477-10.625,4.85-15.21,7.736c-4.952,3.117-11.307,3.018-15.348,7.635
		c-0.78,0.893-2.355,1.451-3.597,1.512c-4.121,0.203-7.801,1.047-10.492,4.57c-0.477,0.624-1.797,0.659-2.752,0.843
		c-0.644,0.123-1.469-0.218-1.974,0.069c-6.716,3.816-14.945,3.86-21.313,8.301c-3.65,2.546-7.89,0.762-11.523,2.528
		c-0.849,0.412-2.396-0.066-2.863,0.495c-3.299,3.973-7.911,3.397-12.269,4.055c-3.794,0.573-7.311,1.59-10.936,3.697
		c-3.776,2.195-9.291,1.575-14.064,1.815c-3.056,0.154-5.958,0.215-8.403,2.391c-2.711,2.413-6.529,2.5-9.473,2.352
		c-13.198-0.667-25.809,5.384-38.986,3.264c-12.209-1.965-24.573-1.295-36.757-1.434c-12.495-0.143-25.215-0.499-37.75,1.278
		c-4.578,0.648-9.019,0.404-12.314-3.565c-0.691-0.832-0.961-1.971-2.652-1.018c-3.296,1.858-4.368-0.566-5.126-3.18
		C459,970.29,462.999,970.563,466.999,970.835z"/>
	<path fill-rule="evenodd" clip-rule="evenodd" fill="#B83E53" d="M371.667,482.128c-25.476-0.533-50.952-1.059-76.427-1.606
		c-4.497-0.097-9-0.53-13.484-0.359c-3.85,0.146-3.683-1.71-2.726-4.27c1.399-3.746,4.465-5.682,7.98-7.017
		c7.092-2.693,14.553-3.455,22.037-3.838c8.483-0.434,16.988-0.454,25.471-0.901c16.215-0.855,25.315-7.816,30.661-23.168
		c1.546-1.052,2.393,0.091,3.335,1.035c13.256,13.287,26.521,26.564,39.77,39.859c0.339,0.339,0.512,0.844,0.762,1.272
		c-7.37-0.12-14.739-0.24-22.109-0.36C381.874,481.902,376.724,483.108,371.667,482.128z"/>
	<path fill-rule="evenodd" clip-rule="evenodd" fill="#B93E53" d="M703.287,464.838c8.169-0.166,16.215,0.744,23.958,3.379
		c3.953,1.345,7.567,3.345,8.926,7.885c0.774,2.587,0.193,3.681-2.634,3.697c-10.765,0.061-21.528,0.236-32.292,0.368
		c-5.437-4.159-9.72-9.483-14.489-15.329C692.266,464.838,697.776,464.838,703.287,464.838z"/>
	<path fill-rule="evenodd" clip-rule="evenodd" fill="#EFEFEF" d="M726.748,99.125c2.716-1.612,5.871-1.881,7.841,0.393
		c3.182,3.673,7.849,4.387,11.588,6.911c8.18,5.521,17.29,9.742,25.118,15.682c8.762,6.647,18.152,12.4,26.584,19.596
		c4.498,3.838,8.909,8.1,14.116,11.372c2.917,1.833,5.118,4.962,8.661,6.55c2.459,1.102,1.052,4.206,1.325,6.424
		C792.899,139.954,760.993,117.876,726.748,99.125z"/>
	<path fill-rule="evenodd" clip-rule="evenodd" fill="#EFEFEF" d="M294.244,919.879c-2.93,1.73-5.814,1.506-8.344-0.638
		c-5.351-4.537-11.826-7.238-17.703-10.903c-7.573-4.723-15.441-8.963-22.641-14.297c-8.421-6.238-17.406-11.825-25.201-18.757
		c-4.643-4.129-10.921-6.82-13.567-13.068c-0.393-0.928-1.139-1.145-1.988-1.178c-5.314-0.206-6.036-3.746-5.821-7.977
		c18.641,16.076,37.83,31.427,58.5,44.87C269.458,905.723,281.931,912.662,294.244,919.879z"/>
	<path fill-rule="evenodd" clip-rule="evenodd" fill="#EFEFEF" d="M206.954,158.902c-0.39-1.891-1.188-3.677,0.923-5.324
		c15.648-12.21,31.099-24.688,47.831-35.426c7.566-4.856,15.074-9.875,23.027-14.018c3.015-1.57,5.743-3.366,8.559-5.169
		c2.122-1.358,4.628-1.845,6.819,0.264c-21.484,12.071-42.575,24.768-62.14,39.822C223.537,145.542,215.288,152.277,206.954,158.902
		z"/>
	<path fill-rule="evenodd" clip-rule="evenodd" fill="#EFEFEF" d="M861.092,205.958c4.006-0.593,5.022,2.643,7.41,4.78
		c5.188,4.646,9.166,10.145,13.083,15.585c7.79,10.819,16.147,21.228,23.138,32.664c3.765,6.16,6.823,12.728,10.998,18.704
		c1.932,2.766,3.601,5.979,5.514,8.928c1.419,2.188,0.826,4.474-0.361,6.628c-11.369-20.067-23.053-39.945-37.012-58.356
		C876.447,225.113,868.692,215.594,861.092,205.958z"/>
	<path fill-rule="evenodd" clip-rule="evenodd" fill="#CD4459" d="M922.17,501.038c-2.757-3.088-7.172-3.34-10.199-5.966
		c6.688-2.691,11.049,1.746,15.029,5.592c12.995,12.558,25.653,25.465,38.4,38.278c1.157,1.164,2.017,2.624,3.477,4.561
		c1.501-2.659,1.059-5.589,3.983-5.502c0.014,2.905,0.027,5.812,0.04,8.717c-0.653,1.047-0.166,2.34-0.734,3.407
		c-2.443,0.534-3.577-1.419-4.918-2.751c-14.014-13.935-27.967-27.929-41.954-41.889C923.98,504.174,922.889,502.747,922.17,501.038
		z"/>
	<path fill-rule="evenodd" clip-rule="evenodd" fill="#EFEFEF" d="M454.147,969.946c-4.712,3.862-9.55,0.705-14.405,0.489
		c-4.862-0.216-9.154-4.66-14.336-1.776c-0.964,0.537-1.901-0.102-2.862-0.299c-14.462-2.967-28.854-6.136-42.9-10.834
		c-4.165-1.394-9.047-0.898-10.644-6.35c22.998,6.895,46.241,12.735,70.005,16.355C444.058,968.302,449.101,969.14,454.147,969.946z
		"/>
	<path fill-rule="evenodd" clip-rule="evenodd" fill="#EFEFEF" d="M952.188,368.035c3.544,2.644,5.597,5.642,6.176,10.54
		c0.794,6.712,3.749,13.136,5.22,19.807c2.249,10.2,6.064,20.13,5.782,30.791c-0.027,1.023-0.948,2.022-1.455,3.032l-0.479,0.138
		l-0.256-0.429c0.115-0.334,0.063-0.639-0.157-0.915c-1.466-1.479-1.291-3.245-0.882-5.052c-1.034-4.982-2.067-9.965-3.102-14.947
		c-1.307-1.475-1.877-3.095-0.987-5.003c-1.791-11.164-5.311-21.886-8.369-32.726C953.185,371.525,952.684,369.78,952.188,368.035z"
		/>
	<path fill-rule="evenodd" clip-rule="evenodd" fill="#EFEFEF" d="M587.844,52.081c6.547-2.097,12.97-1.175,19.443,0.548
		c7.298,1.941,14.793,3.215,21.967,5.514c4.492,1.439,10.328,0.909,12.695,6.624C624.117,59.673,605.99,55.832,587.844,52.081z"/>
	<path fill-rule="evenodd" clip-rule="evenodd" fill="#EFEFEF" d="M379,64.779c1.612-6.841,8.3-4.431,12.463-6.575
		c1.819-0.937,4.387-1.214,6.63-1.713c8.143-1.812,16.314-3.491,24.466-5.261c2.021-0.439,3.623-0.135,4.511,1.944
		C410.977,56.75,394.872,60.28,379,64.779z"/>
	<path fill-rule="evenodd" clip-rule="evenodd" fill="#EFEFEF" d="M930.154,312c2.608-0.328,4.659,0.477,5.402,3.158
		c2.565,9.264,7.856,17.445,10.585,26.585c0.83,2.779,1.583,5.198,3.254,7.643c1.756,2.571,0.323,5.743-0.395,8.61
		C943.076,342.517,936.939,327.125,930.154,312z"/>
	<path fill-rule="evenodd" clip-rule="evenodd" fill="#EFEFEF" d="M825.055,168.973c3.754-2.074,6.659,0.31,8.755,2.551
		c4.733,5.062,9.605,9.933,14.667,14.667c2.242,2.097,4.623,5.003,2.551,8.756C842.37,186.289,833.712,177.631,825.055,168.973z"/>
	<path fill-rule="evenodd" clip-rule="evenodd" fill="#EFEFEF" d="M323.082,85.132c-0.314-2.477,0.726-4.139,3.049-4.993
		c8.358-3.074,16.792-5.938,24.797-9.924c2.672-1.331,5.661-2.152,8.081,0.806C347.033,75.725,335.058,80.428,323.082,85.132z"/>
	<path fill-rule="evenodd" clip-rule="evenodd" fill="#EFEFEF" d="M661.975,71.013c2.737-2.855,5.842-1.604,8.705-0.508
		c8.085,3.093,16.08,6.419,24.13,9.606c2.336,0.925,3.412,2.514,3.112,5.016C685.939,80.423,673.957,75.718,661.975,71.013z"/>
	<path fill-rule="evenodd" clip-rule="evenodd" fill="#CD4459" d="M973.833,510c0.029,7.107,0.707,14.237-0.745,21.293
		c-0.327-4.686,0.34-9.339-2.518-13.85C969.004,514.972,968.909,510.799,973.833,510z"/>
	<path fill-rule="evenodd" clip-rule="evenodd" fill="#CD4459" d="M973.09,487.702c1.397,6.379,0.794,12.835,0.744,19.27
		c-4.115-2.105-5.069-4.979-2.09-8.762C974.299,494.966,972.345,491.165,973.09,487.702z"/>
	<path fill-rule="evenodd" clip-rule="evenodd" fill="#EFEFEF" d="M697.904,85.111c5.628-2.729,9.55-0.89,10.097,4.735
		C704.509,88.539,701.054,87.151,697.904,85.111z"/>
	<path fill-rule="evenodd" clip-rule="evenodd" fill="#EFEFEF" d="M313,89.851c0.545-5.631,4.469-7.471,10.098-4.735
		C319.948,87.157,316.494,88.548,313,89.851z"/>
	<path fill-rule="evenodd" clip-rule="evenodd" fill="#EFEFEF" d="M853.951,198.018c6.554-1.849,7.631,1.123,7.094,7.885
		C858.681,203.274,856.315,200.646,853.951,198.018z"/>
	<path fill-rule="evenodd" clip-rule="evenodd" fill="#EFEFEF" d="M643.002,64.941c0.759-4.09,3.195-3.041,5.464-1.621
		c1.649,1.033,3.311,2.263,3.533,4.509C649,66.866,646.001,65.904,643.002,64.941z"/>
	<path fill-rule="evenodd" clip-rule="evenodd" fill="#EFEFEF" d="M477.001,46.917c1.415-4.196,3.645-5.503,7.106-1.905
		c1.526,1.586,3.456,0.707,5.178,1.076C485.253,47.287,481.116,46.933,477.001,46.917z"/>
	<path fill-rule="evenodd" clip-rule="evenodd" fill="#EFEFEF" d="M531.715,46.088c1.72-0.369,3.65,0.51,5.177-1.076
		c3.462-3.598,5.692-2.293,7.107,1.905C539.885,46.928,535.747,47.291,531.715,46.088z"/>
	<path fill-rule="evenodd" clip-rule="evenodd" fill="#EFEFEF" d="M198.982,165.947c0.07-6.865,0.07-6.865,7.911-6.996
		C204.256,161.283,201.62,163.615,198.982,165.947z"/>
	<path fill-rule="evenodd" clip-rule="evenodd" fill="#EFEFEF" d="M369.001,67.829c2.892-5.763,5.981-6.753,8.997-2.886
		C374.999,65.905,372,66.867,369.001,67.829z"/>
	<path fill-rule="evenodd" clip-rule="evenodd" fill="#EFEFEF" d="M547.678,47.107c2.854-0.537,6.201-6.053,8.321,0.824
		C553.194,47.965,550.358,48.318,547.678,47.107z"/>
	<path fill-rule="evenodd" clip-rule="evenodd" fill="#EFEFEF" d="M465.001,47.931c2.124-6.915,5.464-1.476,8.336-0.821
		C470.651,48.31,467.811,47.97,465.001,47.931z"/>
	<path fill-rule="evenodd" clip-rule="evenodd" fill="#CD4459" d="M972.087,471.721c1.254,3.009,0.838,6.158,0.773,9.278
		c-2.901-0.571-3.7-2.403-2.062-4.642C971.915,474.833,971.928,473.335,972.087,471.721z"/>
	<path fill-rule="evenodd" clip-rule="evenodd" fill="#EFEFEF" d="M438.987,51.06c1.855-4.425,4.391-3.704,7.197-0.953
		C443.904,51.325,441.429,51.064,438.987,51.06z"/>
	<path fill-rule="evenodd" clip-rule="evenodd" fill="#EFEFEF" d="M455.001,48.994c1.92-4.46,4.478-3.532,7.242-0.855
		C459.936,49.32,457.449,48.991,455.001,48.994z"/>
	<path fill-rule="evenodd" clip-rule="evenodd" fill="#EFEFEF" d="M558.75,48.137c2.763-2.662,5.323-3.615,7.248,0.852
		C563.548,48.994,561.061,49.32,558.75,48.137z"/>
	<path fill-rule="evenodd" clip-rule="evenodd" fill="#EFEFEF" d="M574.811,50.106c2.938-2.682,5.585-3.787,7.091,1.306
		C579.587,50.715,577.006,51.459,574.811,50.106z"/>
	<path fill-rule="evenodd" clip-rule="evenodd" fill="#EFEFEF" d="M566.84,49.057c2.371,0.439,5.577-5.4,7.16,0.954
		C571.574,49.988,569.113,50.225,566.84,49.057z"/>
	<path fill-rule="evenodd" clip-rule="evenodd" fill="#EFEFEF" d="M447,50.013c1.577-6.354,4.786-0.523,7.156-0.958
		C451.885,50.225,449.425,49.991,447,50.013z"/>
	<path fill-rule="evenodd" clip-rule="evenodd" fill="#CD4459" d="M971.087,460.728c1.168,2.326,0.884,4.809,0.788,7.271
		c-2.559-0.587-3.895-1.714-1.674-4.165C971.05,462.897,970.948,461.805,971.087,460.728z"/>
	<path fill-rule="evenodd" clip-rule="evenodd" fill="#CD4459" d="M962.047,405.998c0.996,1.536,1.155,3.238,0.987,5.003
		C959.586,409.949,958.326,408.465,962.047,405.998z"/>
	<path fill-rule="evenodd" clip-rule="evenodd" fill="#CD4459" d="M966.136,425.948c1.146,1.535,0.866,3.319,0.882,5.052
		C963.102,429.948,962.988,428.233,966.136,425.948z"/>
	<path fill-rule="evenodd" clip-rule="evenodd" fill="#CD4459" d="M967.175,431.915c0.256,0.07,0.501,0.167,0.735,0.29
		c0.034,1.599,0.067,3.197,0.102,4.795C964.019,435.916,964.046,434.17,967.175,431.915z"/>
	<path fill-rule="evenodd" clip-rule="evenodd" fill="#CC4458" d="M851.046,824.234c-6.549,5.998-11.942,13.186-19.1,18.557
		c-7.16-9.272-14.251-18.6-21.503-27.8c-5.929-7.522-12.066-14.88-18.06-22.352c-0.65-0.812-1.189-1.576-2.312-1.622
		c0.016-0.277,0.02-0.555,0.014-0.832c0.598-2.608,2.653-4.148,4.439-5.817c3.978-3.719,7.348-8.019,11.354-11.705
		c0.479-0.083,0.939-0.029,1.383,0.173c11.915,11.569,24.101,22.854,36.477,33.931c4.077,3.649,7.439,8.104,12.245,10.939
		c0.689,1.205-0.221,1.718-0.991,2.291C853.369,821.123,852.05,822.532,851.046,824.234z"/>
	<path fill-rule="evenodd" clip-rule="evenodd" fill="#EBEBEB" d="M854.992,819.997c0.349-0.661,0.698-1.322,1.048-1.983
		c2.018-5.092,6.132-8.659,9.516-12.699c35.363-42.222,62.046-89.343,80.575-141.187c11.494-32.159,18.895-65.235,23.347-99.03
		c0.667-5.06,0.321-10.281,2.447-15.104c0.326-1.091,0.651-2.183,0.977-3.275c-0.688,3.326,1.909,5.92,2.058,9.019
		c0.305,6.337-0.281,12.434-3.223,18.353c-3.188,6.413,0.012,13.644-1.651,20.414c-0.745,3.029-0.907,6.132-2.681,8.898
		c-2.128,3.317-2.708,7.093-2.404,11.005c0.331,4.269-0.468,8.196-3.02,11.78c-1.345,1.888-2.174,4.069-2.004,6.552
		c0.329,4.8-0.562,9.266-4.035,12.903c-0.873,0.914-0.951,2.079-0.942,3.265c0.008,0.998,0.354,2.212-0.082,2.961
		c-4.307,7.389-3.872,16.543-8.875,23.649c-0.285,0.405-0.671,0.807-0.771,1.263c-1.99,9.009-7.05,16.803-10.095,25.327
		c-4.402,12.326-11.118,23.41-17.344,34.682c-8.646,15.654-18.426,30.666-28.929,45.247c-8.505,11.808-18.158,22.635-26.816,34.273
		C860.379,818.605,858.313,820.612,854.992,819.997z"/>
	<path fill-rule="evenodd" clip-rule="evenodd" fill="#B83E53" d="M782.001,670.207c0.334-0.061,0.667-0.12,1-0.181
		c7.775,1.49,21.63-3.201,26.001-8.804c0.528-0.135,1.057-0.27,1.584-0.404c3.309,0.305,6.344-0.127,9.61-1.331
		c8.724-3.218,17.088-7.274,25.796-10.487c2.152-0.795,2.835-2.657,3.898-4.3c0.466-0.832,1.281-0.776,2.062-0.811
		c9.277,0.148,16.875-3.015,21.955-11.139c0.408-0.865,1.25-0.855,2.015-0.998c1.965,1.049,3.69,0.652,5.567-0.493
		c10.439-6.373,20.666-13.039,30.442-20.415c2.197-1.658,2.481-3.698,3.05-5.884c0.494-1.324,1.491-2.038,2.833-2.333
		c5.18-0.708,5.494-1.115,4.353-5.627c0-29.657,0-59.314,0-88.972c2.187-0.404,3.349,1.224,4.602,2.468
		c11.347,11.262,22.539,22.682,33.985,33.841c4.078,3.976,3.943,8.702,3.298,13.448c-0.745,5.486-0.811,10.952-0.744,16.439
		c0.058,4.711-0.525,9.032-2.914,13.399c-2.297,4.201-2.218,9.325-2.092,14.174c0.098,3.735-0.378,7.17-2.622,10.413
		c-2.135,3.086-2.436,6.867-2.381,10.57c0.048,3.27-0.626,6.275-2.642,8.917c-0.402,0.527-0.948,1.108-0.979,1.721
		c-0.409,8.174-4.609,15.279-6.421,23.051c-0.148,0.64,0.07,1.428-0.245,1.968c-3.365,5.763-4.421,12.399-7.012,18.426
		c-2.867,6.67-5.969,13.236-8.417,20.081c-1.838,5.139-4.504,9.927-6.746,14.873c-5.543,12.228-12.585,23.747-19.535,35.206
		c-7.916,13.051-16.381,25.831-25.924,37.823c-6.102,7.668-11.633,15.79-18.36,22.961c-3.483,3.713-5.263,3.998-8.762,0.667
		c-10.726-10.211-21.844-20.003-32.42-30.369c-5.039-4.938-4.321-6.632-0.233-12.13c7.905-10.632,17.404-20.035,23.548-32.086
		c3.663-7.183,9.624-13.087,13.545-20.295c1.564-2.877,1.968-6.401,4.769-8.653c1.328-1.068,2.408-2.684,0.874-4.299
		c-1.691-1.779-3.652-1.231-5.362,0.162c-0.771,0.628-0.947,1.747-1.635,2.49c-3.749,2.448-7.578,4.636-12.343,3.661
		c-0.743-2.871-2.977-3.509-4.897-1.994c-4.86,3.833-10.85,2.318-16.142,3.987c-4.344,1.37-6.083,5.143-7.955,8.398
		c-4.897,8.512-11.7,15.513-17.456,23.328c-0.284,0.386-0.84,0.564-1.147,0.939c-5.938,7.225-5.889,7.182-12.653,0.659
		c-5.251-5.063-10.955-9.693-15.869-15.057c-6.013-6.563-13.161-11.832-19.548-17.965c-6.542-6.281-12.735-13.03-19.979-18.641
		c-2.104-1.629-5.438-3.02-5.086-6.777c1.127,0.022,2.255,0.046,3.382,0.068c1.889-0.566,3.858-0.799,5.628,0.097
		c2.273,1.15,3.998,0.309,5.728-1.02c0.233-0.236,0.493-0.271,0.778-0.103c4.774,0.978,9.537,1.898,13.186-2.674
		c0.609-0.094,1.219-0.187,1.828-0.279c3.21-0.429,7.14,1.577,9.206-2.721c0.546-0.124,1.091-0.248,1.637-0.372
		C767.961,677.557,775.436,675.416,782.001,670.207z"/>
	<path fill-rule="evenodd" clip-rule="evenodd" fill="#E4E5E7" d="M746.854,732.982c-21.666,23.627-46.644,43.109-74.343,59.135
		c-38.091,22.039-79.041,36.027-122.75,40.565c-98.166,10.192-184.097-17.886-257.26-84.398
		c-6.034-5.485-11.821-11.209-17.514-17.813c7.533-2.172,15.099-3.468,21.87-6.525c8.806-3.979,14.392-1.747,21.425,4.648
		c43.275,39.348,94.057,63.719,152.094,71.434c94.404,12.55,176.221-14.619,245.222-80.237c2.453-2.334,4.579-3.131,7.917-2.34
		c4.816,1.143,9.789,1.623,14.694,2.386c-1.347,1.862,0.167,2.973,1.118,4.222C741.688,727.158,744.334,730.017,746.854,732.982z"/>
	<path fill-rule="evenodd" clip-rule="evenodd" fill="#E4E5E7" d="M387.485,677.281c5.857-4.529,11.707-8.917,17.39-13.511
		c2.488-2.012,3.938-0.204,5.644,0.988c20.462,14.293,42.869,24.336,67.35,29.03c51.761,9.927,99.53,0.049,142.737-30.438
		c3.35-2.363,5.241-2.889,8.04,0.691c3.057,3.909,6.793,7.341,10.526,10.649c2.532,2.243,2.423,3.31-0.33,5.364
		c-27.741,20.704-58.562,34.078-92.854,39.086c-55.831,8.153-106.718-4.335-152.661-37.051c-1.626-1.158-3.191-2.402-4.763-3.635
		C388.203,678.172,387.93,677.772,387.485,677.281z"/>
	<path fill-rule="evenodd" clip-rule="evenodd" fill="#E4E5E7" d="M838.999,706.958c4-1.329,8.001-2.658,12.001-3.987
		c1.374-1.351,2.963-2.615,4.771-1.102c1.638,1.371,0.51,3.071-0.252,4.527c-6.654,12.721-14.8,24.506-23,36.239
		c-6.585,9.42-13.97,18.239-21.292,27.094c-1.158,1.4-2.246,2.937-4.237,3.28c-0.275,0.043-0.552,0.066-0.83,0.07
		c-3.934,0.273-5.397-3.34-7.835-5.249c-4.751-3.722-9.43-7.658-12.572-12.999c10.671-12.959,21.364-25.903,30.468-40.049
		c1.173-1.823,3.009-1.974,4.696-2.436C826.986,710.689,833.187,709.48,838.999,706.958z"/>
	<path fill-rule="evenodd" clip-rule="evenodd" fill="#FEFEFE" d="M785.753,754.832c6.981,5.883,13.046,12.789,20.407,18.247
		c-4.769,6.257-10.19,11.899-16.075,17.106c-5.394-7.407-10.69-14.893-17.335-21.28
		C777.084,764.214,781.419,759.523,785.753,754.832z"/>
	<path fill-rule="evenodd" clip-rule="evenodd" fill="#FCFBFC" d="M746.854,732.982c-5.356-2.051-7.431-7.252-10.572-11.339
		c-1.873-2.436,1.349-1.08,1.929-1.807c6.097,0.355,12.194,0.71,18.924,1.102C754.003,725.767,750.513,729.443,746.854,732.982z"/>
	<path fill-rule="evenodd" clip-rule="evenodd" fill="#CD4459" d="M371.667,482.128c5.094,0.124,10.241-1.008,15.27,0.647
		C381.835,482.827,376.717,483.274,371.667,482.128z"/>
	<path fill-rule="evenodd" clip-rule="evenodd" fill="#B83E53" d="M806.99,773.01c16.489-19.919,32.32-40.312,45.147-62.861
		c1.385-2.434,2.758-4.875,4.144-7.325c-2.061-1.788-3.588,0.606-5.281,0.147c0.986-4.43,3.79-6.319,7.283-4.636
		c2.645,1.274,4.088,3.86,1.639,5.984c-4.79,4.154-5.745,10.437-9.332,15.281c-2.21,2.984-4.347,6.169-6.506,9.275
		c-5.639,8.115-9.767,17.296-16.76,24.443c-4.617,4.719-7.184,11.03-12.573,15.21c-1.944,1.507-2.535,4.448,0.146,6.938
		c11.803,10.964,23.494,22.05,35.186,33.134c1.902,1.805,3.502,1.609,5.046-0.31c8.811-10.952,17.509-21.973,25.814-33.336
		c6.618-9.054,13.414-18.142,18.77-27.801c5.838-10.529,12.883-20.412,17.591-31.686c2.703-6.475,6.026-12.846,9.01-19.278
		c3.057-6.593,5.212-13.593,8.818-19.965c0.803-1.419,1.726-3.089,1.674-4.611c-0.141-4.117,1.277-7.383,3.968-10.386
		c0.795-0.888,1.225-2.48,1.146-3.707c-0.282-4.4,0.522-8.279,4.146-11.18c0.125-0.1,0.297-0.277,0.282-0.397
		c-1.067-8.408,4.873-15.126,5.579-23.052c0.432-4.839,0.47-9.643,4.067-13.459c1.299-1.378,1.091-3.114,0.98-4.742
		c-0.352-5.175,0.502-10.254,1.05-15.359c0.069-0.652,0.027-1.547,0.423-1.9c4.845-4.336,3.709-10.102,3.464-15.451
		c-0.307-6.688,1.241-13.214,1.116-19.861c-0.039-2.05-0.196-3.857-1.814-5.45c-13.05-12.844-26.038-25.752-39.045-38.64
		c0.001-2.331,0.002-4.661,0.003-6.991c15.11,14.988,30.215,29.981,45.339,44.954c1.41,1.396,2.941,2.671,4.417,4.002
		c-0.751,17.834-3.747,35.378-7.354,52.792c-16.441,79.376-51.382,149.647-104.396,210.946c-1.296,1.499-2.754,2.857-4.136,4.281
		c-1.791,0.171-3.106-0.612-4.393-1.83c-11.39-10.792-22.892-21.467-34.217-32.326C813.815,780.391,808.662,778.355,806.99,773.01z"
		/>
	<path fill-rule="evenodd" clip-rule="evenodd" fill="#B83E53" d="M914.981,604.961c1.789,3.086,0.674,4.678-2.161,6.81
		c-10.02,7.533-20.672,14.082-31.111,20.962c-2.142,1.411-4.467,2.921-5.787-0.979C889.469,623.589,902.88,615.229,914.981,604.961z
		"/>
	<path fill-rule="evenodd" clip-rule="evenodd" fill="#B83E53" d="M849.891,644.7c0.151,2.349,0.342,4.356-2.745,5.465
		c-7.315,2.628-14.466,5.716-21.681,8.624c-2.567,1.034-5.223,1.904-7.666,3.179c-2.816,1.471-5.009,0.479-7.212-1.149
		C823.688,655.445,836.789,650.073,849.891,644.7z"/>
	<path fill-rule="evenodd" clip-rule="evenodd" fill="#B83E53" d="M809.002,661.223c0.502,2.555-0.875,4.277-2.965,5.035
		c-5.689,2.064-11.426,4.07-17.278,5.573c-1.742,0.447-4.753,1.599-5.758-1.805C791.668,667.092,800.335,664.157,809.002,661.223z"
		/>
	<path fill-rule="evenodd" clip-rule="evenodd" fill="#B83E53" d="M873.907,632.751c0.576,3.245-0.754,5.354-3.734,6.683
		c-4.063,1.812-8.071,3.751-12.083,5.678c-2.381,1.144-4.442,0.949-6.138-1.222C859.271,640.177,866.589,636.464,873.907,632.751z"
		/>
	<path fill-rule="evenodd" clip-rule="evenodd" fill="#B83E53" d="M782.001,670.207c0.059,2.706-1.201,4.465-3.913,4.732
		c-3.49,0.344-6.662,1.685-9.841,2.926c-3.161,1.235-5.987,1.415-8.609-1.031C766.925,674.061,774.501,672.262,782.001,670.207z"/>
	<path fill-rule="evenodd" clip-rule="evenodd" fill="#B83E53" d="M746.967,680.206c-2.405,5.594-8.042,6.737-13.185,2.674
		C738.177,681.988,742.571,681.097,746.967,680.206z"/>
	<path fill-rule="evenodd" clip-rule="evenodd" fill="#B83E53" d="M922.167,597.001c2.229,0.741,3.463,2.19,1.864,4.29
		c-1.522,1.999-3.426,4.309-6.217,1.337C918.923,600.487,921.675,599.618,922.167,597.001z"/>
	<path fill-rule="evenodd" clip-rule="evenodd" fill="#B83E53" d="M758.001,677.206c-0.371,4.41-2.421,5.741-6.475,3.604
		c-0.834-0.439-1.816-0.597-2.731-0.884C751.863,679.02,754.933,678.113,758.001,677.206z"/>
	<path fill-rule="evenodd" clip-rule="evenodd" fill="#B83E53" d="M733.003,682.982c-1.365,2.875-2.923,5.124-6.169,1.901
		c-1.506-1.494-3.46-0.622-5.184-0.979C725.379,682.932,729.202,683.099,733.003,682.982z"/>
</g>
</svg>
