<?xml version="1.0" encoding="utf-8"?>
<!-- Generator: Adobe Illustrator 16.0.3, SVG Export Plug-In . SVG Version: 6.00 Build 0)  -->
<!DOCTYPE svg PUBLIC "-//W3C//DTD SVG 1.1//EN" "http://www.w3.org/Graphics/SVG/1.1/DTD/svg11.dtd">
<svg version="1.1" id="圖層_1" xmlns="http://www.w3.org/2000/svg" xmlns:xlink="http://www.w3.org/1999/xlink" x="0px" y="0px"
	 width="1024px" height="1024px" viewBox="0 0 1024 1024" enable-background="new 0 0 1024 1024" xml:space="preserve">
<g>
	<path fill-rule="evenodd" clip-rule="evenodd" fill="#EFEFEF" d="M510.996,28.01c45.228-0.445,89.419,6.625,132.929,18.484
		c24.399,6.65,47.98,15.506,71.057,25.896c35.217,15.855,67.323,36.703,97.771,60.172c19.637,15.135,37.792,32.075,54.501,50.372
		c27.849,30.496,51.765,63.854,71.458,100.265c17.888,33.072,31.39,67.811,40.784,104.12c5.509,21.291,10.12,42.812,12.615,64.739
		c1.312,11.519,2.129,23.06,3.109,34.597c1.146,13.49,1.076,26.96,0.583,40.376c-0.612,16.666-2.06,33.308-4.474,49.885
		c-3.683,25.295-9.303,50.11-16.301,74.646c-5.656,19.834-12.934,39.089-21.278,57.938c-12.558,28.365-28.155,55.01-46.047,80.308
		c-11.012,15.569-22.882,30.458-35.566,44.738c-8.975,10.103-18.506,19.63-28.251,28.912c-22.279,21.22-46.699,39.784-72.595,56.383
		c-36.45,23.363-75.39,41.263-116.933,53.601c-23.537,6.99-47.401,12.481-71.61,16.296c-14.854,2.341-29.868,3.581-44.93,4.508
		c-12.985,0.799-25.948,1.014-38.875,0.606c-21.657-0.684-43.237-2.619-64.619-6.518c-13.196-2.405-26.344-4.949-39.321-8.344
		c0.14-3.993,2.824-3.928,5.619-3.396c8.825,1.678,17.527,3.938,26.37,5.558c16.684,3.058,33.472,5.104,50.358,6.786
		c10.741,1.069,21.717-0.965,32.242,2.528c0.931,0.309,2.021,0.254,2.979,0.003c8.666-2.271,17.54-1.348,26.323-1.884
		c20.746-1.266,41.341-3.886,61.754-7.919c31.752-6.274,62.824-14.864,92.829-27.076c37.823-15.395,73.004-35.444,105.664-59.989
		c11.177-8.4,22.478-16.706,32.618-26.268c11.086-10.451,22.684-20.327,32.51-32.255c9.065-11.004,18.746-21.523,27.486-32.857
		c13.239-17.168,25.143-35.189,36.059-53.9c16.093-27.583,28.882-56.666,38.756-86.973c10.122-31.066,17.315-62.851,21.235-95.334
		c1.733-14.366,2.601-28.766,3.105-43.238c0.312-8.912,0.24-17.708,0.013-26.616c-0.779-30.405-4.983-60.264-11.75-89.832
		c-7.339-33.922-18.34-66.591-32.911-98.117c-9.934-21.494-21.86-41.813-34.521-61.753c-0.63-0.992-1.495-1.784-2.144-2.748
		c-10.689-16.33-22.79-31.571-35.39-46.465c-5.694-6.731-12.055-12.847-17.423-19.892c-4.024-5.281-9.446-9.339-14.366-13.833
		c-22.669-20.703-46.535-39.83-72.416-56.399c-13.339-8.54-27.103-16.329-41.137-23.667c-40.88-20.425-83.836-34.606-128.698-43.161
		c-17.797-3.394-35.701-5.633-53.755-7.247c-11.069-0.99-22.331,0.736-33.241-2.475c-2.467-0.726-5.185,1.517-7.791-0.056
		c-1.281-1.473-0.018-1.999,1.018-2.312C507.91,28.747,509.587,28.902,510.996,28.01z"/>
	<path fill-rule="evenodd" clip-rule="evenodd" fill="#EFEFEF" d="M980,407c3.255,8.709,4.375,17.914,5.924,26.979
		c3.74,21.887,5.409,43.945,6.406,66.164c0.863,19.236-0.769,38.173-2.343,57.19c-3.036,36.654-11.351,72.252-22.769,107.102
		c-10.11,30.857-23.519,60.259-39.958,88.356c-14.881,25.432-31.834,49.35-50.845,71.73c-9.287,10.934-18.516,22.085-29.232,31.749
		c-19.284,17.39-39.083,34.128-60.47,48.966c-19.559,13.567-39.818,25.93-61.155,36.401
		c-33.942,16.656-69.348,29.299-106.353,37.374c-20.209,4.409-40.461,8.281-61.111,10.17c-10.916,0.998-21.784,2.094-32.743,1.772
		c-2.721-0.08-5.239,0.814-7.869,1.01c-12.388,0.92-24.638-1.374-36.98-1.703c-7.929-0.211-15.816-1.202-23.71-2.146
		c-17.766-2.121-35.282-5.456-52.697-9.487c-2.993-0.692-6.73-3.375-9.092,1.361c-36.23-8.421-70.765-21.483-103.805-38.452
		C269.036,930.154,247.953,916.959,228,902c-0.673-0.835,0.972-1.788-0.817-2.98c-14.023-9.348-26.571-20.548-39.248-31.613
		c-22.694-19.811-42.155-42.517-60.265-66.426c-18.046-23.825-33.822-49.123-47.061-75.934
		c-23.067-46.715-37.355-96.124-45.002-147.573c-1.786-12.014-3.868-24.19-3.958-36.133c-0.113-14.889-3.408-29.857-0.125-44.753
		c0.178-0.809,0.151-1.659,0.146-2.492c-0.164-28.608,4.547-56.655,10.471-84.47c6.641-31.179,16.013-61.553,28.871-90.819
		c13.86-31.547,30.952-61.178,51.033-89.167c15.575-21.708,32.607-42.251,51.568-60.944c33.382-32.908,71.04-60.228,112.501-82.286
		c23.751-12.636,48.333-23.325,73.86-31.624c30.933-10.056,62.619-17.097,94.933-21.198c15.871-2.014,31.797-2.955,47.777-3.247
		c0.852-0.016,1.661,0.028,2.316,0.659c17.832-0.043,35.576,1.341,53.329,2.917c36.648,3.252,72.17,11.696,107.107,22.821
		c20.602,6.56,40.396,15.205,59.917,24.459c1.622,0.77,3.464,1.267,4.646,2.803c-1.873,2.629-3.908,0.835-5.74,0.065
		c-7.369-3.102-14.513-6.708-21.843-9.908c-43.848-19.14-89.651-30.976-137.051-36.936c-14.88-1.871-29.799-2.593-44.8-2.997
		c-51.17-1.376-100.768,7.31-149.539,21.999c-25.282,7.614-49.65,17.549-73.155,29.457c-36.132,18.305-69.391,40.979-99.894,67.656
		c-14.028,12.269-27.955,24.663-40.114,38.842c-25.22,29.409-48.1,60.449-66.392,94.75c-12.185,22.849-22.602,46.455-30.712,71.003
		c-10.528,31.864-17.837,64.503-22.447,97.781c-3.745,27.034-3.67,54.202-2.702,81.293c0.951,26.644,5.441,52.972,11.523,78.984
		c6.882,29.433,15.718,58.216,27.812,85.949c10.951,25.643,24.153,50.056,40.007,73.019c12.705,19.408,26.864,37.748,42.277,55.02
		c9.823,11.008,20.058,21.636,31.103,31.625c24.447,22.107,50.645,41.688,78.59,58.958c25.856,15.979,53.262,28.906,81.906,39.129
		c34.157,12.19,69.203,20.807,105.158,25.579c14.843,1.971,29.734,3.524,44.755,3.446c7.124-0.038,14.249,0.151,21.375,0.143
		c26.601-0.036,52.809-3.299,78.834-8.329c42.566-8.226,83.622-21.238,122.577-40.352c34.99-17.168,67.314-38.574,97.3-63.465
		c11.787-9.783,23.346-19.878,33.936-30.949c29.019-30.338,54.15-63.604,74.977-100.123c20.6-36.121,35.763-74.398,46.266-114.561
		c7.049-26.953,12.066-54.297,14.529-82.058c1.825-20.572,1.962-41.239,0.916-61.829c-1.2-23.622-4.578-47.037-9.493-70.205
		c-0.549-2.588-1.381-5.169-1.086-7.89C979.014,408.271,979.331,407.541,980,407z"/>
	<path fill-rule="evenodd" clip-rule="evenodd" fill="#EFEFEF" d="M505,31c-2.106,0.413-4.131,1.053-6.356,1.042
		c-32.151-0.149-63.611,5.078-94.856,12.13c-24.91,5.622-49.208,13.127-72.871,22.717c-26.864,10.888-52.447,24.23-76.956,39.701
		c-17.418,10.996-34.176,23.008-49.827,36.272c-14.962,12.681-30.021,25.327-42.678,40.718
		c-10.829,13.168-22.646,25.561-32.81,39.307c-14.624,19.775-28.055,40.298-39.696,62.022
		c-14.101,26.314-25.702,53.647-34.389,82.166c-6.662,21.867-12.122,44.057-15.638,66.699c-2.184,14.061-3.71,28.173-5.233,42.314
		c-1.27,11.791-0.341,23.632-2.256,35.415c-1,6.154,1.464,12.787,1.47,19.204c0.019,19.369,2.939,38.39,5.916,57.439
		c4.725,30.234,12.284,59.759,22.639,88.509c9.586,26.615,21.595,52.136,35.979,76.573c13.167,22.367,28.163,43.404,44.191,63.745
		c8.522,10.814,17.617,21.305,27.29,30.946c18.027,17.971,37.181,34.871,58.05,49.635c1.763,1.247,3.187,2.38,1.031,4.445
		c-13.868-9.719-26.769-20.608-39.477-31.795c-9.645-8.491-18.692-17.562-27.503-26.834c-22.692-23.881-42.416-50.094-59.921-78.006
		c-6.184-9.86-12.08-19.884-17.439-30.19c-18.87-36.287-32.721-74.425-41.706-114.342c-4.361-19.377-7.838-38.864-10.109-58.623
		c-2.606-22.669-3.622-45.393-2.688-68.113c1.169-28.451,4.708-56.685,11.094-84.507c4.902-21.353,10.264-42.577,17.794-63.177
		c11.097-30.356,24.765-59.467,41.901-86.946c13.018-20.873,27.205-40.908,43.022-59.692c16.276-19.329,34.055-37.234,53.282-53.748
		c22.606-19.417,46.724-36.636,72.221-51.954c22.707-13.641,46.618-24.841,71.406-34.165c32.228-12.124,65.415-20.562,99.402-25.991
		c16.195-2.587,32.434-4.322,48.835-5.161c7.631-0.39,15.255-0.494,22.881-0.747C509.646,30.309,506.638,29.281,505,31z"/>
	<path fill-rule="evenodd" clip-rule="evenodd" fill="#EFEFEF" d="M74,703c-11.088-25.122-19.423-51.148-26.034-77.786
		c-5.309-21.392-9.185-43.021-11.932-64.863c-2.789-22.172-2.071-44.471-2.009-66.734c0.057-20.262,2.981-40.257,6.367-60.164
		c4.2-24.696,10.364-48.958,17.966-72.809c4.991-15.66,10.998-31,17.836-45.96c11.628-25.438,25.162-49.821,41.249-72.746
		c10.938-15.59,22.485-30.672,34.939-45.12c5.81-6.74,11.743-13.431,17.695-20.006c7.202-7.955,15.783-14.695,23.812-21.895
		c12.081-10.833,24.909-20.826,38.052-30.387c16.809-12.228,34.356-23.271,52.556-33.301c24.816-13.675,50.777-24.764,77.622-33.701
		c25.976-8.648,52.581-15.078,79.604-19.329c21.261-3.344,42.674-5.552,64.322-5.351c15.217,0.142,30.471-0.25,45.593,1.304
		c22.038,2.265,43.91,5.743,65.54,10.787c25.101,5.853,49.669,13.255,73.594,22.846c11.576,4.642,22.816,10.014,34.161,15.166
		c1.593,0.724,3.061,2.242,5.065,1.049c20.812,10.031,40.193,22.427,59.129,35.585c11.974,8.322,23.775,16.966,34.485,26.775
		c13.745,12.589,28.415,24.092,40.52,38.665c11.823,14.236,24.214,28.018,35.226,42.922c3.808,5.153,8.228,9.954,10.641,16.052
		c11.292,17.841,22.458,35.779,31.771,54.742c16.616,33.829,29.178,69.134,37.443,105.942c0.323,1.438-0.26,3.03,0.785,4.316
		c2.179,12.368,4.5,24.713,6.493,37.11c1.679,10.446,2.353,21.03,3.669,31.514c1.33,10.586,1.366,21.279,1.254,31.753
		c-0.109,10.175,0.407,20.509-1.068,30.774c-1.124,7.818-1.334,15.804-2.215,23.708c-2.296,20.599-6.305,40.85-11.24,60.951
		c-7.621,31.037-18.076,61.034-31.727,89.969c-16.947,35.925-38.173,69.067-63.208,99.854
		c-11.22,13.796-22.821,27.271-35.722,39.484c-18.551,17.562-38.173,33.86-59.161,48.525c-19.922,13.918-40.599,26.54-62.31,37.384
		c-29.798,14.883-60.954,26.315-93.216,34.564c-20.515,5.245-41.23,9.769-62.279,12.259c-15.288,1.809-30.616,3.241-46.085,3.339
		c-9.584,0.06-19.159-0.075-28.733-0.229c-16.568-0.268-32.96-2.368-49.361-4.687c-28.472-4.023-56.198-11.135-83.552-19.695
		c-15.677-4.905-31.003-10.959-45.956-17.813c-25.422-11.653-49.762-25.233-72.736-41.238
		c-14.276-9.945-28.212-20.346-41.532-31.515c-9.732-8.16-19.519-16.411-28.196-25.642c-18.116-19.272-35.547-39.198-50.505-61.111
		c-2.97-4.35-6.836-8.133-8.614-13.26c2.505-4.345,5.975-7.73,10.253-10.317c4.427,2.747,6.387,7.536,9.219,11.526
		c11.664,16.438,24.188,32.137,37.808,47.011c8.996,9.823,18.1,19.492,28.176,28.217c1.146,0.992,2.081,2.154,2.495,3.661
		c0.287,3.442,1.776,5.581,5.27,6.999c3.58,1.452,5.597,5.249,8.591,7.775c8.892,7.504,18.217,14.381,27.571,21.27
		c7.099,5.229,14.243,10.329,21.87,14.752c6.449,3.739,12.7,7.799,19.382,11.165c3.726,1.876,6.551,5.867,11.54,4.177
		c1.861,0.139,3.604,0.737,5.226,1.587c21.434,11.232,43.982,19.826,66.622,28.206c1.091,0.403,2.192,0.796,3.193,1.41
		c2.795,3.96,7.089,4.81,11.426,6.189c12.364,3.933,25.043,6.508,37.611,9.563c2.907,0.707,5.772,0.941,8.851,0.396
		c4.712-0.834,8.847,2.268,13.439,2.77c3.998,0.438,7.968,2.469,11.963,0.02c0.723-0.207,1.444-0.196,2.16,0.038
		c2.185,2.707,4.612,3.349,7.403,0.852c0.715-0.104,1.396,0.001,2.041,0.336c2.968,4.97,6.207,0.92,9.344,0.265
		c1.252-0.095,2.463,0.037,3.588,0.644c2.305,2.655,4.752,3.764,7.948,1.203c1.427-1.144,3.375-1.037,5.172-1.151
		c6.419-0.075,12.831-0.177,19.24,0.051c1.159-0.023,2.271,0.187,3.326,0.666c1.89,1.922,3.969,2.441,6.749,1.852
		c5.296-1.122,10.628,0.327,15.864,0.883c9.67,1.023,19.518,1.7,28.893,0.217c8.867-1.403,17.698-2.395,26.607-3.12
		c1.984-0.161,3.928-0.782,5.703-1.761c3.754-2.07,7.776-2.792,12.038-2.713c5.063,0.095,9.96-0.684,14.385-3.419
		c1.586-0.98,3.376-1.463,5.239-1.472c5.101-0.022,9.934-0.884,14.188-3.975c1.239-0.9,2.812-0.966,4.315-1.087
		c4.025-0.323,7.955-0.938,11.222-3.632c0.512-0.423,1.142-0.843,1.779-0.87c7.694-0.331,13.961-5.025,21.176-6.96
		c5.168-1.385,10.063-4.146,15.048-6.333c6.612-2.902,13.47-5.443,19.699-9.022c4.591-2.638,9.405-4.793,14.034-7.316
		c4.779-2.605,9.425-5.449,14.251-7.978c6.758-3.54,13.002-7.964,19.481-11.983c9.302-5.771,18.099-12.291,26.997-18.654
		c9.629-6.886,18.353-14.89,27.52-22.346c15.023-12.219,28.62-26.011,41.333-40.521c10.609-12.109,20.813-24.632,30.271-37.747
		c5.832-8.088,11.023-16.594,16.99-24.597c5.351-7.178,8.501-15.784,13.381-23.296c5.265-8.104,9.762-16.68,13.689-25.384
		c2.554-5.66,5.859-11.164,7.331-17.31c1.022-4.27,3.544-7.881,5.315-11.746c3.395-7.406,5.609-15.259,8.156-22.83
		c2.749-8.171,7.236-16.075,7.315-25.097c0.015-1.675-0.002-3.492,0.975-4.846c3.746-5.188,4.255-11.072,4.082-17.161
		c-0.033-1.165-0.023-2.486,0.597-3.418c5.844-8.792,3.693-19.044,5.291-28.601c0.331-1.985,0.573-3.931,1.525-5.743
		c1.661-3.166,2.349-6.643,2.396-10.138c0.159-11.817,1.666-23.586,1.133-35.43c-0.232-5.154-0.077-10.289,1.221-15.386
		c1.435-5.633-2.024-9.427-5.667-13.014c-1.146-5.016-1.276-10.184-1.506-15.242c-0.533-11.734-1.718-23.386-3.043-35.038
		c-0.131-1.151-0.136-2.31,0.008-3.453c2.145-4.467,1.839-8.803-0.77-13.002c-0.276-0.38-0.449-0.805-0.544-1.264
		c0.522-2.043,0.549-4.015-0.834-5.79c-0.022-0.492,0.046-0.968,0.204-1.435c1.589-3.909,0.001-7.697-1.238-11.093
		c-2.453-6.724-2.451-13.876-4.552-20.667c-1.797-5.812-4.057-11.578-4.644-17.759c-0.218-2.286-1.817-3.846-3.907-4.82
		c-3.099-3.567-3.348-8.159-4.482-12.433c0.789-4.161,0.061-7.623-2.105-11.65c-2.321-4.315-3.42-9.55-5.035-14.391
		c-1.769-5.303-5.577-9.704-6.339-15.457c-0.297-2.246-2.582-3.3-4.581-4.211c-4.438-5.87-7.688-12.342-9.782-19.398
		c0.799-3.297-0.145-5.894-2.193-8.723c-3.28-4.53-5.842-9.609-8.515-14.531c-10.682-19.669-24.55-37.096-38.271-54.587
		c-2.506-3.195-4.344-8.108-9.599-8.639c-0.432-0.22-0.781-0.537-1.064-0.927c-0.584-3.881-1.845-7.117-6.667-6.948
		c-1.771-0.636-2.983-1.831-3.634-3.593c-0.11-5.413-2.698-9.341-7.161-12.253c-2.508-1.636-4.603-3.79-6.236-6.297
		c-2.825-4.333-6.726-6.672-11.912-6.839c-1.796-0.619-3.018-1.824-3.687-3.593c-0.376-3.755-1.911-6.11-5.86-7.634
		c-3.088-1.191-5.607-4.344-7.955-6.753c-7.943-8.152-17.324-14.371-26.358-21.026c-6.922-5.1-13.616-10.619-21.423-14.448
		c-7.521-3.688-13.689-9.869-22.071-11.982c-0.651-0.165-1.155-0.667-1.532-1.219c-2.385-3.496-5.698-4.277-9.622-3.325
		c-2.41-0.195-4.42-1.443-6.489-2.495c-46.176-23.465-94.937-38.669-146.233-45.754c-26.447-3.653-53.054-5.336-79.703-4.168
		c-42.611,1.868-84.358,8.896-125.071,22.071c-40.714,13.176-78.849,31.531-114.429,55.191
		c-19.721,13.114-38.186,27.846-55.728,43.817c-45.074,41.039-80.455,89.226-106.479,144.204
		c-20.75,43.834-34.055,89.932-40.079,138.144c-3.084,24.683-4.621,49.432-3.646,74.234c1.391,35.369,6.399,70.278,15.674,104.516
		c5.148,19.004,11.528,37.578,18.896,55.824c0.622,1.539,1.314,3.07,1.416,4.77c-1.961,4.753-6.147,7.512-9.763,10.769
		C75.95,703.71,74.896,703.761,74,703z"/>
	<path fill-rule="evenodd" clip-rule="evenodd" fill="#EFEFEF" d="M980,409c-2.977-10.817-5.895-21.652-8.943-32.449
		c-5.239-18.555-11.918-36.602-19.449-54.337c-11.205-26.386-25.29-51.204-40.943-75.169c-0.558-0.855-1.766-1.75-0.664-3.044
		c3.079,1.334,3.732,4.584,5.322,7.015c20.142,30.797,36.441,63.49,48.681,98.235c6.275,17.814,11.404,35.922,15.687,54.292
		c0.261,1.116,0.214,2.303,0.311,3.458C980,407.667,980,408.333,980,409z"/>
	<path fill-rule="evenodd" clip-rule="evenodd" fill="#EFEFEF" d="M124.035,764.891c-2.864,3.847-6.292,7.135-10.035,10.109
		c-5.487-5.647-9.033-12.654-13.006-19.288c-9.133-15.246-17.334-31.016-24.732-47.188C75.435,706.716,74.75,704.843,74,703
		c5.211-1.803,7.466-7.074,11.725-9.994c2.055,0.318,2.369,2.142,3.02,3.603c9.685,21.739,20.68,42.774,33.619,62.772
		C123.419,761.014,124.716,762.682,124.035,764.891z"/>
	<path fill-rule="evenodd" clip-rule="evenodd" fill="#E0465E" d="M124.035,764.891c-13.046-21.184-25.469-42.703-35.387-65.576
		c-0.922-2.126-1.946-4.207-2.923-6.309c-12.111-29.612-21.828-59.942-27.904-91.41c-7.356-38.099-10.189-76.455-8.069-115.238
		c3.669-67.125,20.329-130.806,52.277-189.907C168.129,174.17,268.762,95.446,403.604,61.023
		c41.547-10.606,83.941-14.483,126.744-12.728c69.335,2.844,134.969,19.981,196.537,52.236c0.569,0.298,1.242,0.4,1.866,0.593
		c6.041,0.674,10.421,4.903,15.377,7.657c21.982,12.217,42.598,26.537,61.983,42.574c4.663,3.857,9.016,8.084,13.972,11.597
		c1.801,1.276,2.888,3.177,3.897,5.099c0.706,1.314,1.609,2.42,3.083,2.927c2.149,0.852,4.104,1.91,5.776,3.632
		c5.435,5.595,10.953,11.113,16.549,16.549c1.721,1.672,2.779,3.626,3.632,5.776c0.506,1.474,1.613,2.377,2.927,3.083
		c3.61,1.509,5.536,4.535,7.096,7.889l0.042,0.052c4.219,1.82,6.208,5.895,8.91,9.145c18.962,22.807,35.177,47.483,49.495,73.434
		c0.836,1.515,1.055,3.098,1.389,4.701c2.602,6.496,5.89,12.652,9.275,18.76c4.244,3.086,4.505,8.363,6.683,12.557
		c4.591,8.838,7.422,18.462,11.132,27.7c0.765,1.903,0.145,3.945,1.022,5.764c1.01,4.099,1.924,8.229,3.787,12.06
		c2.492,2.057,3.073,5.083,3.713,7.942c2.371,10.601,6.439,20.755,7.587,31.723c0.369,3.532,1.79,7.282,2.715,10.938
		c0.461,1.82,0.553,3.582,0.044,5.379c-0.102,0.341-0.046,0.653,0.17,0.937c1.697,1.483,0.42,3.484,0.901,5.179
		c-0.13,0.295-0.095,0.568,0.105,0.821c2.056,3.838,2.137,7.981,1.884,12.177c1.926,18.588,3.637,37.192,4.254,55.88
		c-0.23,0.055-0.462,0.11-0.694,0.166c-8.827-12.798-21.311-22.064-31.989-33.075c-1.03-1.062-2.375-1.833-3.408-2.923
		c-12.731-13.42-26.556-25.717-39.785-38.626c-18.706-18.253-37.682-36.232-56.465-54.41c-15.309-14.815-30.809-29.438-46.15-44.226
		c-18.219-17.562-36.46-35.102-54.699-52.643c-16.197-15.578-32.318-31.247-48.717-46.604
		c-10.935-10.241-21.011-21.38-32.573-30.962c-5.192-4.303-5.062-4.454-9.647,0.528c-0.465,0.505-1.128,0.687-1.778,0.894
		c-2.475,0.53-4.976,0.383-7.464,0.394c-10.663,0.048-10.2-0.641-10.203,10.462c-0.006,21.273,0.017,42.547-0.022,63.82
		c-0.005,2.623,0.399,5.355-1.237,7.74c-1.893,0.887-2.01-0.713-2.514-1.782c-0.858-8.261-0.334-16.549-0.373-24.824
		c-0.063-13.255-0.149-26.513,0.049-39.762c0.145-1.113,0.057-2.243,0.106-3.357c0.751-4.069-0.343-7.374-3.807-9.896
		c-1.444-1.051-2.578-2.521-3.866-3.788c-5.284-5.195-6.43-5.147-11.261,0.461c-5.532,1.479-11.18,0.713-16.753,0.625
		c-4.539-0.072-7.419,1.51-9.558,5.5c-1.681,3.136-3.054,6.667-6.416,8.616c-2.574,0.614-3.961-1.268-5.466-2.731
		c-4.278-4.159-8.436-8.44-12.685-12.629c-4.973-4.902-6.028-4.862-10.588,0.196c-0.332,0.369-0.817,0.556-1.283,0.752
		c-6.043,1.044-12.13,0.388-18.193,0.482c-6.336,0.099-7.552,0.359-7.48,6.144c0.01,0.814-0.403,1.582-0.915,2.251
		c-2.403,1.01-3.691-0.861-5.073-2.131c-2.447-2.247-5.286-4.158-7.436-6.584c-3.613-4.081-7.899-4.771-12.936-4.732
		c-19.428,0.152-38.857,0.061-58.286,0.063c-1.494,0-2.994-0.072-4.481,0.068c-4.34,0.408-4.869,1.367-3.25,5.792
		c1.09,7.5,1.01,15.006,0.106,22.508c-2.509,3.077-3.69,0.134-4.727-1.307c-3.885-5.399-7.302-11.132-11.206-16.513
		c-2.367-3.262-3.336-8.302-9.19-7.769c-4.085,0.373-8.333-0.563-12.106,1.86c-1.636,0.433-3.306,0.394-4.97,0.466
		c-5.682,0.247-6.077,0.643-6.173,6.513c-0.083,4.997,0.145,10-0.104,14.99c-0.249,4.999-1.401,6.184-6.334,6.405
		c-5.157,0.232-10.325,0.065-15.489,0.053c-4.114-0.01-6.118-1.945-6.182-6.074c-0.083-5.331,0.032-10.662-0.075-15.991
		c-0.106-5.306-0.556-5.787-5.672-5.873c-4.997-0.083-9.997,0.06-14.992-0.041c-3.535-0.071-5.166,1.322-5.166,4.975
		c0.003,23.655,0.017,47.309-0.01,70.964c-0.004,3.716,1.686,4.995,5.177,4.943c5.162-0.077,10.328-0.051,15.491,0.004
		c2.152,0.023,4.354-0.155,6.325,1.027c1.348,2.23-0.696,2.328-1.848,2.633c-2.334,0.619-4.76,0.377-7.145,0.311
		c-1.625-0.099-3.264-0.125-5.461-0.506c11.964,11.938,23.507,23.476,35.027,35.038c2.025,2.033,4.263,3.067,7.146,2.543
		c16.17-0.253,32.325-0.112,48.479-0.115c100.258-0.016,200.516-0.023,300.774,0.057c3.279,0.002,7.105-1.349,9.654,2.229
		c-1.171,1.833-3.102,1.734-4.903,1.853c-2.327,0.153-4.663,0.069-6.995,0.069c-144.623,0.002-289.245,0.001-433.868,0.002
		c-9.383,0-9.613,0.023-8.808,9.438c2.07,24.219,4.373,48.418,6.564,72.626c2.146,23.712,4.283,47.425,6.445,71.136
		c2.117,23.215,4.182,46.435,6.399,69.642c2.282,23.867,4.354,47.754,6.544,71.631c2.221,24.207,4.425,48.416,6.615,72.627
		c2.146,23.715,4.368,47.423,6.415,71.146c0.43,4.977,1.202,9.928,1.134,14.927c-1.076,4.064,0.888,6.778,3.674,9.553
		c31.836,31.699,63.583,63.488,95.347,95.261c27.761,27.769,55.548,55.51,83.263,83.323c1.668,1.674,4.211,2.925,3.958,5.943
		c-6.901,0.027-13.802,0.055-20.704,0.082c-1.767-0.75-3.462-0.375-5.242,0.115c-2.421,0.669-4.865,0.691-7.024-0.954
		c-1.249-0.056-2.497-0.11-3.745-0.166c-3.04-0.77-6.405,1.861-9.256-0.886c-0.594-0.049-1.188-0.097-1.783-0.146
		c-2.41-0.252-5.036,1.303-7.217-0.862c-0.571-0.057-1.143-0.112-1.714-0.168c-6.009,1.241-11.791-0.662-17.549-1.644
		c-14.038-2.39-28.127-4.621-41.87-8.521c-6.071-1.722-12.108-3.565-18.217-5.146c-2.47-0.639-4.533-1.976-6.61-3.337
		c-21.078-7.237-41.883-15.146-61.861-25.098c-4.283-2.134-8.623-4.154-12.937-6.228c-5.603-0.887-9.958-4.445-14.673-7.105
		c-24.431-13.788-47.301-29.89-68.63-48.076c-4.169-3.555-9.544-6.174-11.958-11.638c-10.137-10.095-20.575-19.878-30.228-30.467
		c-15.961-17.51-30.562-36.061-43.772-55.719C126.061,767.504,125.02,766.216,124.035,764.891z"/>
	<path fill-rule="evenodd" clip-rule="evenodd" fill="#EFEFEF" d="M976.152,503.057c3.856,0.926,7.877,6.975,6.518,11.131
		c-2.41,7.368-1.555,14.836-1.627,22.273c-0.117,11.949,0.438,24.124-2.358,35.652c-2.282,9.407-3.597,18.645-3.877,28.217
		c-0.072,2.458-0.794,5.091-2.729,7.299c-2.296,2.617-2.181,6.141-2.091,9.507c0.129,4.86-0.104,9.59-3.713,13.504
		c-1.549,1.68-1.268,4.034-1.293,6.215c-0.052,4.535-0.514,8.988-3.832,12.521c-1.155,1.229-0.965,2.721-1.19,4.192
		c-0.592,3.847-0.278,8.043-3.822,10.892c-0.479,0.386-0.99,1.129-0.965,1.682c0.362,7.801-4.162,14.255-6.855,20.906
		c-2.324,5.737-3.397,12.475-8.064,17.262c-0.451,0.463-0.965,1.067-1.045,1.66c-1.109,8.258-6.693,14.46-9.799,21.749
		c-3.377,7.931-8.898,14.502-12.421,22.377c-2.448,5.475-6.011,10.865-9.776,15.943c-6.369,8.59-12.491,17.4-18.555,26.214
		c-5.622,8.174-12.714,15.071-18.404,23.092c-7.584,10.691-17.199,19.497-26.188,28.859c-9.592,9.989-20.025,19.126-30.893,27.755
		c-5.813,4.616-11.401,9.519-17.033,14.359c-2.586,2.222-5.68,3.953-8.41,5.693c-6.245,3.981-12.074,8.636-18.432,12.504
		c-6.399,3.895-12.806,8.205-19.184,12.253c-4.237,2.688-8.74,5.362-13.361,7.668c-5.261,2.625-11.096,4.432-15.524,8.627
		c-0.352,0.333-0.834,0.779-1.242,0.767c-6.44-0.203-10.255,5.747-16.615,6.79c-4.075,0.668-8.636,3.421-12.87,5.397
		c-9.033,4.215-18.769,6.616-27.649,10.58c-7.947,3.548-16.382,5.864-24.32,7.801c-10.646,2.597-20.931,8.486-32.604,6.757
		c-1.76-0.26-3.961,0.792-5.602,1.813c-2.189,1.361-4.425,2.241-6.943,2.365c-17.313,0.854-34.366,5.421-51.863,3.648
		c-7.683-0.779-15.291-2.777-23.116-1.057c-1.864,0.41-3.188-0.697-3.401-2.757c0.288-0.47,0.688-0.808,1.196-1.018
		c7.587-1.048,15.263-0.849,22.884-1.28c36.774-2.081,72.729-8.454,107.953-19.108c44.505-13.462,86.007-33.264,124.451-59.392
		c18.201-12.369,35.377-26.049,51.737-40.818c32.636-29.462,60.315-63,83.318-100.378c16.896-27.454,30.706-56.415,41.529-86.845
		c11.445-32.179,19.058-65.218,23.305-99.029c2.594-20.645,3.63-41.43,3.421-62.26c0.122-0.82,0.407-1.565,1.008-2.16
		L976.152,503.057z"/>
	<path fill-rule="evenodd" clip-rule="evenodd" fill="#E0465E" d="M515.98,974.826c-0.327,0.113-0.653,0.228-0.98,0.341
		c-1.01-0.111-2.019-0.222-3.029-0.333c-1.345-1.466-2.637-2.984-4.042-4.391c-60.088-60.104-120.195-120.19-180.235-180.344
		c-1.818-1.821-5.68-3.398-2.523-7.171c0.469-0.188,0.914-0.152,1.333,0.14c2.132,2.33,4.33,4.599,6.565,6.834
		c59.542,59.529,119.082,119.06,178.581,178.632C513.438,970.324,516.098,971.664,515.98,974.826z"/>
	<path fill-rule="evenodd" clip-rule="evenodd" fill="#EFEFEF" d="M200.98,855.059c18.641,16.074,37.828,31.426,58.496,44.872
		c11.978,7.793,24.477,14.689,36.766,21.947c-2.927,1.732-5.881,1.577-8.322-0.648c-5.26-4.795-12.014-7.078-17.829-10.964
		c-8.202-5.481-16.774-10.343-24.836-16.134c-7.536-5.413-14.485-11.667-22.535-16.37c-2.421-1.414-5.02-3.531-6.167-5.434
		c-2.128-3.528-8.105-3.152-7.965-8.462c0.007-0.26-1.055-0.738-1.65-0.794C201.945,862.604,200.685,859.423,200.98,855.059z"/>
	<path fill-rule="evenodd" clip-rule="evenodd" fill="#EFEFEF" d="M823.981,168.052c-29.077-26.102-60.995-48.163-95.229-66.927
		c2.183-1.387,4.726-1.728,6.473,0.077c4.882,5.043,11.862,6.396,17.421,10.423c4.95,3.585,10.858,6.212,16.038,9.665
		c10.243,6.827,20.37,13.865,29.837,21.775c4.034,3.371,8.019,7.335,12.011,10.063c3.32,2.269,4.867,7.143,10.06,7.559
		C823.719,160.938,824.404,164.825,823.981,168.052z"/>
	<path fill-rule="evenodd" clip-rule="evenodd" fill="#EFEFEF" d="M922.88,295.239c-9.513-16.526-19.038-33.037-30.001-48.679
		c-9.343-13.33-19.546-25.979-29.793-38.601c4.044-0.436,5.314,2.15,7.718,4.995c3.153,3.733,6.229,7.584,9.275,11.446
		c11.689,14.821,22.804,29.986,32.16,46.478c3.139,5.533,5.541,11.667,10.133,16.487C924.188,289.271,924.81,292.477,922.88,295.239
		z"/>
	<path fill-rule="evenodd" clip-rule="evenodd" fill="#EFEFEF" d="M371.04,953.203c23.025,6.881,46.287,12.74,70.075,16.356
		c4.73,0.719,9.446,1.525,14.17,2.29c-1.734,2.277-3.511,2.189-6.515,1.925c-5.957-0.523-11.268-3.325-16.983-3.76
		c-4.377-0.333-8.766,0.3-13.217-0.848c-12.254-3.157-24.715-5.436-36.753-9.546C377.604,958.184,372.82,958.453,371.04,953.203z"/>
	<path fill-rule="evenodd" clip-rule="evenodd" fill="#EFEFEF" d="M968.838,428.063c-3.517-15.018-6.404-30.187-10.862-44.978
		c-1.103-3.657-2.133-7.336-3.196-11.005c3.177,0.021,4.637,2.415,4.913,4.802c1.03,8.928,5.146,17.078,6.335,25.893
		c0.957,7.084,3.345,13.781,4.713,20.737C971.14,425.545,970.927,427.153,968.838,428.063z"/>
	<path fill-rule="evenodd" clip-rule="evenodd" fill="#EFEFEF" d="M950.992,360.021c-5.9-15.495-12.04-30.893-18.837-46.021
		c2.971-0.164,5.029,1.63,5.619,4.059c2.108,8.673,7.274,16.102,9.702,24.55c0.951,3.309,1.629,6.4,3.787,9.244
		C953.148,354.335,951.609,357.296,950.992,360.021z"/>
	<path fill-rule="evenodd" clip-rule="evenodd" fill="#EFEFEF" d="M853.021,196.936c-8.652-8.652-17.305-17.305-25.957-25.957
		c5.396-0.587,9.174,1.911,12.054,6.232c2.039,3.059,4.612,5.631,7.671,7.67C851.11,187.762,853.608,191.539,853.021,196.936z"/>
	<path fill-rule="evenodd" clip-rule="evenodd" fill="#EFEFEF" d="M479.001,974.077c4.108-0.024,8.239-0.373,12.265,0.84
		c-1.583,0.211-3.052,0.071-4.538,1.407C483.346,979.363,481.225,978.599,479.001,974.077z"/>
	<path fill-rule="evenodd" clip-rule="evenodd" fill="#EFEFEF" d="M971.898,447.177c-1.142-3.979-1.708-8.048-1.884-12.177
		C973.806,437.054,974.813,443.556,971.898,447.177z"/>
	<path fill-rule="evenodd" clip-rule="evenodd" fill="#EFEFEF" d="M863.044,207.907c-2.365-2.63-4.73-5.259-7.096-7.889
		C862.501,200.098,862.909,200.551,863.044,207.907z"/>
	<path fill-rule="evenodd" clip-rule="evenodd" fill="#EFEFEF" d="M466,973.025c3.109,0.039,6.261-0.378,9.254,0.886
		c-0.702,0.331-1.525,0.526-2.09,1.018C469.529,978.092,468.175,977.752,466,973.025z"/>
	<path fill-rule="evenodd" clip-rule="evenodd" fill="#EFEFEF" d="M457,972.018c2.44-0.003,4.921-0.35,7.216,0.863
		C460.282,977.143,459.291,977.024,457,972.018z"/>
	<path fill-rule="evenodd" clip-rule="evenodd" fill="#EFEFEF" d="M969.909,434.179c-1.121-1.583-0.9-3.401-0.901-5.179
		C973.202,430.048,970.997,432.211,969.909,434.179z"/>
	<path fill-rule="evenodd" clip-rule="evenodd" fill="#C94058" d="M343.003,285.07c3.595-0.735,7.505,1.29,10.896-1.243
		c-2.51-7.668-2.16-15.354-0.145-23.054c8.356-2.371,16.746-1.874,25.146-0.263c1.95,2.034,1.502,4.633,1.641,7.09
		c0.272,4.808-0.556,9.659,0.591,14.412c0.208,0.251,0.382,0.666,0.646,0.719c7.758,1.586,15.543,1.17,23.325,0.213
		c0.412-0.051,0.65-0.705,0.882-1.152c0.587-2.129,0.42-4.293,0.421-6.44c0.01-20.034,0-40.067,0.014-60.101
		c0.001-2.479-0.151-4.971,0.384-7.413c1.461-3.784,3.29-1.704,4.657-0.076c2.572,3.061,4.535,6.577,6.784,9.881
		c1.968,2.892,3.79,5.887,5.88,8.691c3.256,4.37,4.497,4.519,8.727,1.317c0.54-0.409,1.166-0.632,1.818-0.831
		c3.634-0.68,7.296-0.412,10.941-0.393c8.04,0.042,8.94,0.915,8.972,8.807c0.054,13.448,0.006,26.897,0.023,40.346
		c0.002,2.151-0.172,4.327,0.631,6.386c1.361,2.052,3.489,1.509,5.434,1.642c6.422,0.44,12.93-1.011,19.294,1.075
		c2.163,0.709,1.732-0.744,1.567-2.28c-1.891-17.545-0.735-35.138-0.653-52.714c0.003-0.66,0.408-1.253,0.794-1.805
		c3.433-2.279,7.306-1.219,10.997-1.361c3.756-0.144,7.528-0.149,11.279,0.103c0.537,0.007,1.082,0.045,1.612,0.074
		c2.582-0.134,1.998-2.147,2.095-3.664c0.168-2.617-0.207-5.266,0.303-7.861c0.508-2.584,2.248-3.525,4.228-1.822
		c2.951,2.54,6.644,4.257,8.82,7.696c0.87,9.949,0.258,19.914,0.381,29.868c0.113,9.133,0.091,18.27-0.006,27.404
		c-0.041,3.828,1.549,5.358,5.374,5.319c5.639-0.058,11.29-0.346,16.917,0.214c2.129,0.019,3.355,3.619,5.676,1.896
		c2.285-1.696,0.619-4.336,0.511-6.563c-0.315-6.496-0.192-12.992-0.08-19.488c0.022-1.313,0.021-2.965,1.403-3.514
		c1.759-0.697,2.717,0.919,3.496,2.105c2.827,4.304,6.801,7.681,9.198,12.404c2.514,4.953,6.284,4.846,8.699-0.317
		c2.799-5.983,6.712-11.088,10.804-16.115c1.035-1.272,2.091-4.09,4.498-1.284c1.331,6.513,0.365,13.098,0.657,19.641
		c0.139,3.109-0.316,6.244,0.442,9.305c1.137,2.412,3.362,1.545,5.225,1.708c6.669,0.583,13.471-1.21,20.056,1.336
		c1.987,0.769,2.184,0.075,0.681-3.995c-0.752-10.975-0.308-21.954-0.308-32.926c0-13.469-0.38-26.943,0.219-40.401
		c1.37-3.57,3.51-2.16,5.299-0.59c3.313,2.908,6.339,6.137,9.753,8.942c0.001,22.002,0.003,44.004,0.005,66.006
		c-0.937,1.026-1.709,2.148-0.547,3.43c1.352,1.489,2.29,0.111,3.285-0.637c0.665-0.499,1.409-0.816,2.228-1.002
		c18.568-0.452,37.13-0.082,55.689-0.202c6.655-0.043,7.014-0.387,7.032-7.037c0.013-4.475,0.005-8.95,0.001-13.425
		c-0.002-1.823,0.18-3.703-1.652-4.902c-8.449-1.381-16.938-0.474-25.396-0.585c-13.141-0.172-13.22-0.048-13.121-13.217
		c0.086-11.47-0.44-22.947,0.313-34.398c1.294-4.067,3.579-2.625,5.563-0.783c3.537,3.284,7.261,6.395,10.659,9.791
		c16.473,16.458,33.623,32.206,50.271,48.467c9.858,9.629,19.783,19.225,29.69,28.795c15.309,14.789,30.747,29.464,46.123,44.188
		c9.831,9.415,19.867,18.631,29.399,28.381c5.683,5.812,11.774,11.273,17.619,16.96c8.462,8.233,17.324,16.052,25.534,24.55
		c1.046,1.083,2.249,1.979,3.475,2.845c0.951,0.71,1.782,1.541,2.491,2.492c1.442,2.351,3.338,4.251,5.694,5.691
		c2.955,2.44,5.477,5.333,8.259,7.953c2.491,2.465,4.725,5.213,7.762,7.084c1.27,0.962,2.381,2.081,3.335,3.355
		c1.43,2.334,3.336,4.188,5.663,5.62c2.982,2.466,5.522,5.391,8.345,8.025c3.121,3.02,5.883,6.421,9.516,8.895
		c0.562,0.416,1.045,0.909,1.467,1.462c1.454,2.328,3.35,4.212,5.699,5.639c3.312,2.783,6.161,6.043,9.312,8.995
		c2.779,2.702,5.242,5.743,8.528,7.896c0.927,0.678,1.728,1.481,2.41,2.403c1.499,2.538,3.613,4.447,6.121,5.958
		c3.777,3.835,8.492,6.88,10.371,12.318c0.526,3.471,0.308,6.955,0.229,10.436c-0.713,2.271-0.254,4.626-0.463,6.938
		c-1.021,4.911-0.004,9.917-0.691,14.845c-0.089,0.568-0.244,1.116-0.438,1.655c-3.27,5.681-3.478,11.889-3.345,18.221
		c0.114,5.442,0.208,10.894-0.104,16.336c-1.305,3.604-0.104,7.538-1.435,11.142c-2.775,2.563-3.633,5.818-3.499,9.479
		c0.066,1.823,0.072,3.661-0.332,5.462c0.137,6.885-2.625,13.017-4.992,19.253c-1.524,3.737,0.205,7.985-1.809,11.645
		c-0.21,0.45-0.472,0.871-0.754,1.277c-4.045,3.8-2.745,8.981-3.509,13.629c-0.135,0.475-0.34,0.919-0.586,1.346
		c-3.918,3.923-3.909,9.115-4.537,14.102c-0.656,1.878-1.908,3.397-3.006,5.009c-2.165,2.639-1.064,5.995-1.942,8.914
		c-3.942,7.549-7.283,15.35-9.793,23.501c-0.241,0.783-0.816,1.419-1.313,2.073c-2.092,2.134-3.57,4.58-3.872,7.626
		c-1.425,5.318-4.919,9.613-7.183,14.521c-2.278,2.04-3.045,4.871-3.968,7.619c-2.78,4.115-4.559,8.863-7.919,12.616
		c-1.702,4.513-5.646,7.741-7.063,12.414c-3.342,5.602-7.431,10.691-11.022,16.122c-2.15,2.362-4.222,4.775-5.13,7.944
		c-4.355,5.351-8.539,10.837-12.763,16.292c-2.078,2.57-4.316,5.016-6.114,7.808c-0.972,1.834-2.614,3.035-4.106,4.384
		c-2.152,2.049-4.393,4.015-5.973,6.58c-1.228,1.621-2.744,2.976-4.126,4.458c-2.012,1.873-3.881,3.866-5.31,6.242
		c-18.762,21.612-40.471,39.97-63.512,56.744c-11.531,8.396-23.689,15.91-35.902,23.344c-10.767,6.553-22.092,11.984-33.175,17.848
		c-4.685,2.479-9.901,4.544-14.748,6.879c-6.568,3.164-13.879,4.423-20.058,8.386c-0.421,0.27-0.86,0.631-1.33,0.668
		c-7.737,0.608-13.911,6.326-21.743,6.635c-1.702,0.066-3.226,0.821-4.623,1.754c-3.286,2.194-6.853,3.313-10.836,3.167
		c-2.015-0.073-4.13,0.146-5.771,1.32c-4.616,3.3-9.785,3.901-15.221,3.679c-2.371-0.097-4.711,0.407-6.695,1.703
		c-4.245,2.774-8.875,3.529-13.832,3.271c-6.076-0.316-11.939,0.616-17.471,3.335c-2.104,1.033-4.393,1.556-6.762,1.598
		c-9.145,0.162-18.274,0.249-27.425,0.851c-7.943,0.522-15.95,0.535-23.901,1.226c-5.067,0.44-8.782-1.483-12.345-5.062
		c-39.127-39.304-78.375-78.486-117.591-117.702c-18.018-18.018-36.038-36.034-54.051-54.056c-1.294-1.295-2.708-2.498-3.713-4.038
		c-0.925-1.418-1.891-2.955,0.352-4.168c5.626-0.454,10.841,1.604,16.16,2.796c35.418,7.938,70.736,16.357,106.286,23.656
		c17.291,3.55,34.506,7.431,51.788,11.007c2.691,0.557,5.262,0.339,7.903-0.249c57.719-12.862,115.462-25.612,173.206-38.358
		c7.802-1.723,7.735-1.747,8.509-9.566c3.8-38.426,7.115-76.896,10.627-115.348c3.178-34.803,6.292-69.612,9.406-104.422
		c2.759-30.829,5.813-61.635,8.587-92.463c2.804-31.16,5.778-62.305,8.378-93.484c0.953-11.44,2.314-22.845,3.017-34.31
		c0.161-2.639,0.456-5.341,2.286-7.522c-1.797-1.872-4.104-0.984-6.156-0.985c-115.941-0.047-231.883-0.042-347.824-0.046
		c-2.332,0-4.663-0.057-6.995-0.087c-10.357-11.893-22.138-22.393-33-33.79C344.454,289.487,341.574,288.27,343.003,285.07z"/>
	<path fill-rule="evenodd" clip-rule="evenodd" fill="#FEFEFE" d="M739.975,326.016c-2.561,27.981-5.143,55.959-7.674,83.942
		c-2.474,27.348-4.862,54.704-7.35,82.051c-2.818,30.993-5.72,61.978-8.556,92.969c-2.153,23.534-4.248,47.074-6.392,70.609
		c-2.535,27.842-5.11,55.681-7.637,83.523c-1.174,12.928-2.395,25.854-3.326,38.8c-0.241,3.352-1.215,4.822-4.693,5.588
		c-60.218,13.257-120.403,26.663-180.585,40.083c-1.883,0.42-3.566,0.156-5.382-0.25c-14.435-3.231-28.869-6.471-43.341-9.526
		c-14.531-3.068-29.134-5.794-43.651-8.923c-10.509-2.266-20.893-5.107-31.395-7.403c-18.991-4.153-37.794-9.179-56.994-12.364
		c-2.705,0.654-5.147,0.39-6.984-1.994l-0.398-0.202l-0.446,0.01c-2.259-9.085-2.198-18.44-3.101-27.673
		c-2.739-28.001-5.205-56.028-7.751-84.048c-2.125-23.379-4.193-46.763-6.321-70.141c-2.52-27.688-5.089-55.371-7.615-83.059
		c-2.133-23.378-4.225-46.76-6.354-70.139c-2.551-28.019-5.122-56.037-7.683-84.055c-1.061-11.606-2.078-23.216-3.213-34.815
		c-0.23-2.359,0.398-3.477,2.896-3.218c0.989,0.103,1.998,0.013,2.998,0.013c148.654,0.009,297.308,0.017,445.961,0.035
		C736.65,325.831,738.313,325.952,739.975,326.016z"/>
	<path fill-rule="evenodd" clip-rule="evenodd" fill="#FEFEFE" d="M587.039,283.771c-0.032-10.587-0.064-21.174-0.097-31.761
		c-1.117-0.973-1.001-2.398-1.499-4.287c-4.17,7.21-8.885,13.528-13.002,20.251c-3.606,5.889-5.284,5.937-9.124,0.372
		c-4.875-7.065-9.406-14.353-14.025-21.743c0.059,10.71,0.087,21.314-0.022,31.917c-0.023,2.319,0.738,5.2-2.57,6.299
		c-7.151-0.718-14.313-0.374-21.455-0.247c-3.638,0.064-4.871-0.845-4.82-4.695c0.215-16.479,0.095-32.962,0.089-49.443
		c-0.002-5.14,0.334-10.299-1.386-15.303c-0.619-1.8-0.467-3.631,1.027-5.097c0.77-10.036,0.77-10.018,10.896-10.043
		c5.65-0.015,11.3-0.104,16.95-0.159c3.423-1.073,4.215,1.902,5.425,3.792c4.089,6.393,8.043,12.874,11.917,19.402
		c2.484,4.187,2.526,4.111,5.281-0.114c1.759-2.698,2.608-6.109,5.81-7.731c2.382-3.773,5.038-7.407,7.062-11.363
		c1.618-3.166,3.776-3.989,7.118-3.89c6.456,0.19,12.924-0.04,19.387-0.095c4.63-1.297,6.872,0.101,6.057,4.296
		c-0.777,4.001-0.511,7.957-0.544,11.928c-0.188,22.636,0.246,45.274-0.244,67.909C605.854,284.74,596.44,285.05,587.039,283.771z"
		/>
	<path fill-rule="evenodd" clip-rule="evenodd" fill="#FEFEFE" d="M354.058,261c-0.053,7.609-0.106,15.218-0.16,22.827
		c-8.491,0.107-16.983,0.15-25.471,0.359c-2.543,0.063-3.059-1.11-3.055-3.322c0.041-25.829,0.054-51.658-0.019-77.487
		c-0.007-2.592,0.803-3.48,3.428-3.426c7.163,0.148,14.333,0.174,21.494-0.009c2.905-0.074,3.699,0.949,3.625,3.73
		c-0.176,6.661,0.065,13.333-0.135,19.993c-0.093,3.108,0.601,4.504,4.082,4.329c5.651-0.284,11.335-0.254,16.99-0.014
		c3.411,0.146,4.708-0.833,4.561-4.427c-0.267-6.488,0.099-13.001-0.146-19.491c-0.127-3.373,1.056-4.358,4.28-4.124
		c3.142,0.229,6.32-0.051,9.483-0.108c4.293-1.6,8.749-0.884,13.097-0.611c3.19,0.201,3.689,2.519,1.905,6.784
		c-0.025,25.902-0.049,51.803-0.074,77.705c-6.091,1.789-12.316,0.549-18.468,0.667c-3.436,0.066-7.092,1.213-10.403-0.835
		c0.435-7.514,0.413-15.027,0.017-22.541c-1.747-2.833-4.279-3.808-7.567-3.613c-3.468,0.205-6.968,0.203-10.436,0
		C357.92,257.202,355.629,258.294,354.058,261z"/>
	<path fill-rule="evenodd" clip-rule="evenodd" fill="#FEFEFE" d="M453.021,283.884c0.014-17.285-0.059-34.571,0.118-51.854
		c0.034-3.325-0.984-4.276-4.198-4.103c-5.303,0.286-10.626,0.176-15.941,0.232c-2.365,0.919-4.98,2.415-4.962-2.155
		c-0.002-8.001-0.004-16.002-0.006-24.003c-0.989-2.434,0.875-2.828,2.447-3.258c1.773-0.485,3.628-0.373,5.454-0.374
		c20.768-0.011,41.536-0.012,62.304,0.001c1.826,0.001,3.655-0.011,5.459,0.371c2.013,0.426,3.464,1.657,3.523,3.663
		c0.238,7.959,0.569,15.929-0.208,23.881c-0.064,0.66-0.562,1.188-1.072,1.635c-7.978,0.133-15.957,0.265-23.935,0.397
		c-0.967,1.537-0.491,3.245-0.495,4.866c-0.035,15.786-0.106,31.573,0.049,47.358c0.029,2.932-0.444,4.252-3.774,4.022
		C469.545,283.993,461.249,285.217,453.021,283.884z"/>
	<path fill-rule="evenodd" clip-rule="evenodd" fill="#FEFEFE" d="M659.122,208.001c-0.061,14.959-0.073,29.918-0.229,44.876
		c-0.027,2.582,0.755,3.469,3.385,3.432c11.799-0.168,23.601-0.163,35.4-0.22c1.74,4.119,0.528,8.428,0.763,12.641
		c0.211,3.808-0.19,7.656,0.112,11.451c0.288,3.62-1.158,4.394-4.521,4.373c-20.758-0.131-41.516-0.081-62.273-0.058
		c-0.284-0.167-0.568-0.334-0.852-0.502c-0.037-26.663-0.011-53.325-0.188-79.987c-0.022-3.436,1.182-4.165,4.295-4.071
		c5.656,0.17,11.323-0.047,16.985-0.103c2.791-1.637,5.417-1.845,7.712,0.882C660.604,203.229,660.818,205.693,659.122,208.001z"/>
	<path fill-rule="evenodd" clip-rule="evenodd" fill="#E0465E" d="M659.125,201.031c-2.095-2.067-4.812-0.435-7.126-1.198
		c-0.121-1.926,0.025-3.704,2.274-4.42c2.018-0.643,3.866-0.658,5.567,0.92c3.407,3.16,6.992,6.132,10.324,9.367
		c14.448,14.031,28.637,28.338,43.292,42.148c16.706,15.744,33.15,31.753,49.703,47.653c17.033,16.361,34.057,32.733,51.096,49.088
		s34.056,32.733,51.09,49.094c16.674,16.014,33.352,32.024,50.028,48.035c16.917,16.242,34.113,32.193,50.667,48.813
		c0.704,0.707,1.369,1.531,2.218,2c4.142,2.29,6.69,5.686,7.544,10.346c0.007,0.699,0.013,1.398,0.02,2.097
		c-2.424,0.369-3.534-1.58-4.896-2.914c-19.988-19.568-40.284-38.821-60.501-58.146c-11.302-10.803-21.894-22.386-34.047-32.299
		c-22.091-22.429-45.308-43.696-67.882-65.627c-12.647-12.287-25.431-24.468-38.173-36.668
		c-21.166-20.267-42.382-40.487-63.36-60.955c-14.413-14.063-29.174-27.782-43.614-41.828
		C661.669,204.904,660.04,203.246,659.125,201.031z"/>
	<path fill-rule="evenodd" clip-rule="evenodd" fill="#E0465E" d="M505.938,227.919c0.036-7.994-0.043-15.991,0.168-23.979
		c0.078-2.931-0.547-4.023-3.793-4.002c-23.484,0.148-46.97,0.077-70.455,0.09c-1.585,0.001-3.491-0.501-3.828,1.974
		c-3.083-0.652-2.091-3.045-1.792-4.804c0.41-2.408,2.571-2.191,4.403-2.192c13.994-0.008,27.988-0.005,41.982-0.005
		c9.163,0,18.326,0.038,27.488-0.022c2.856-0.019,4.682,1.063,6.734,3.265c4.022,4.316,8.825,7.904,13.307,11.793
		c1.04,22.744,0.366,45.502,0.338,68.251c-0.006,4.886,1.296,6.247,6.07,5.946c7.116-0.448,14.277-0.186,21.419-0.225
		c-0.313,2.234-1.62,1.689-2.958,1.058c-6.803-0.021-13.612-0.246-20.403,0.019c-3.83,0.149-4.738-1.26-4.721-4.878
		c0.102-20.072-0.03-40.146-0.083-60.218c-2.417-5.114-6.838-8.475-11.056-12.851c-1.028,5.816-0.618,11.182-0.819,16.513
		c-0.06,1.583,0.959,3.847-1.809,4.413L505.938,227.919z"/>
	<path fill-rule="evenodd" clip-rule="evenodd" fill="#E0465E" d="M576.433,215.182c-2.654,4.546-5.309,9.092-8.429,14.436
		c-5.589-9.135-10.719-17.563-15.902-25.959c-1.001-1.621-1.553-3.823-4.102-3.825c1.347-5.426,5.335-6.76,9.349-2.926
		c5.06,4.833,9.912,9.881,14.884,14.807C573.522,212.992,574.621,214.526,576.433,215.182z"/>
	<path fill-rule="evenodd" clip-rule="evenodd" fill="#C94058" d="M343.003,285.07c0.082,2.309,1.984,3.375,3.35,4.749
		c9.853,9.917,19.755,19.786,29.637,29.676c1.512,1.513,3.375,2.842,3.01,5.405c-1.835,0.345-3.137-0.502-4.384-1.755
		c-12.052-12.105-24.138-24.178-36.198-36.275c-0.317-0.318-0.463-0.805-0.747-1.317C339.464,284.512,341.275,285.2,343.003,285.07z
		"/>
	<path fill-rule="evenodd" clip-rule="evenodd" fill="#E0465E" d="M615.16,284.002c0.025-26.697-0.086-53.396,0.199-80.089
		c0.052-4.805-2.835-3.721-5.36-4.08c1.294-5.309,5.271-6.667,9.244-3.047c3.28,2.988,6.409,6.143,9.607,9.221
		c2.146,2.064,0.787,4.657,1.063,7.003c-3.524,0.138-4.693-3.104-6.884-4.857c-1.893-1.515-3.32-3.558-5.307-5.044
		c-1.037,0.742-0.712,2.155-1.594,2.896c-0.001,25.336-0.002,50.672-0.003,76.007C616.671,283.097,616.57,283.868,615.16,284.002z"
		/>
	<path fill-rule="evenodd" clip-rule="evenodd" fill="#C94058" d="M428.037,226.004c0.554,3.253,3.315,1.42,4.962,2.155
		c-2.494,4.823-5.838,4.81-9.475-0.356c-3.82-5.427-7.265-11.116-11.03-16.583c-1.289-1.871-2.121-4.227-4.477-5.216
		c0.758-5.321-1.867-6.671-6.688-6.075c-2.726,0.337-5.541-0.042-8.314-0.098c0.798-2.937,3.222-1.483,4.968-1.822
		c7.797-1.514,12.684,1.542,16.625,8.573C418.425,213.392,422.561,220.227,428.037,226.004z"/>
	<path fill-rule="evenodd" clip-rule="evenodd" fill="#C94058" d="M616.13,206.005c0.032-1.73-0.559-3.512,0.523-5.571
		c4.521,4.288,8.892,8.432,13.261,12.577c-0.005,0.996-0.01,1.993-0.015,2.989c-2.952,0.383-4.174-2.094-6.015-3.587
		C621.28,210.299,619.765,206.865,616.13,206.005z"/>
	<path fill-rule="evenodd" clip-rule="evenodd" fill="#C94058" d="M633,285.072c-0.212,1.867-1.067,3.137-3.126,2.683
		c-1.302-0.287-2.325-1.316-2.622-2.606c-0.473-2.046,0.775-2.929,2.652-3.144c0.333,0.664,0.668,1.327,1.002,1.989l0.092,0.086
		C631.526,284.691,632.571,284.26,633,285.072z"/>
	<path fill-rule="evenodd" clip-rule="evenodd" fill="#CA4058" d="M877.004,410.992c3.982,3.487,8.116,6.818,11.921,10.489
		c13.625,13.148,27.062,26.493,40.715,39.612c15.312,14.713,30.781,29.262,46.183,43.883c0.841,35.611-2.872,70.776-10.485,105.54
		c-35.448,161.861-154.845,292.893-312.385,342.828c-37.123,11.767-75.12,18.796-114.027,20.896
		c-7.648,0.413-15.278,1.055-22.944,0.586c-1.349-1.465-2.647-2.979-4.054-4.387c-60.728-60.743-121.468-121.475-182.179-182.234
		c-1.479-1.48-3.571-2.6-3.732-5.084c2.168,1.225,5.029,0.022,6.984,1.994c0.065,2.112,1.768,3.127,3.029,4.389
		c58.415,58.442,116.882,116.832,175.206,175.365c4.943,4.961,10.514,2.57,15.908,2.882c1.274,0.073,2.579-0.67,3.881-0.713
		c7.459-0.25,14.922-0.492,22.371-0.788c11.597-0.462,23.188,0.117,34.161-4.583c2.413-1.033,4.932-0.692,7.4-0.633
		c5.536,0.134,10.828,0.046,15.648-3.59c2.847-2.147,6.709-1.528,10.202-1.438c3.572,0.092,6.974-0.308,9.712-2.958
		c0.35-0.339,0.813-0.762,1.245-0.786c8.295-0.47,15.756-4.043,23.59-6.229c2.995-0.836,6.2-0.845,8.629-3.313
		c1.152-1.17,2.817-1.632,4.567-1.741c3.669-0.23,7.294-0.704,9.865-3.832c0.206-0.25,0.516-0.589,0.781-0.593
		c7.031-0.088,12.476-4.677,18.823-6.738c4.526-1.471,8.933-3.846,13.107-6.019c6.211-3.233,12.798-5.865,18.701-9.498
		c7.043-4.333,14.55-7.873,21.291-12.761c6.096-4.42,12.824-7.957,19.064-12.192c8.571-5.816,16.734-12.207,25.051-18.383
		c9.46-7.024,17.869-15.188,26.603-22.995c5.521-4.933,11.317-9.644,15.733-15.766c1.715-2.376,4.262-4.152,6.43-6.201
		c1.376-2.242,3.665-3.724,5-6c0.958-1.708,2.292-3.042,4-4c1.646-2.637,4.395-4.328,6-7c1.333-1.333,2.667-2.667,4-4
		c2.007-2.661,4.592-4.89,6-8c4.097-5.525,7.526-11.593,13-16c0.943-3.119,3.007-5.537,5-8c2.712-5.99,6.942-10.936,11-16
		c1.433-4.818,6.223-7.829,7-13c3.31-3.571,4.369-8.643,8-12c1.258-2.704,1.785-5.774,4-8c1.618-5.024,4.849-9.242,7-14
		c0.516-3.075,2.024-5.654,4-8c-0.352-6.886,6.609-11.154,6.364-18.191c-0.094-2.7,2.887-4.641,4.636-6.809
		c1.116-3.243-0.127-6.959,2-10c1-1.333,2-2.667,3-4c0.627-5.347,0.93-10.802,5-15c1.044-2.158,0.373-4.452,0.491-6.679
		c0.172-3.224,1.54-5.885,3.509-8.321c2.119-2.291,1.358-5.135,1.531-7.811c0.113-1.731-0.479-3.533,0.469-5.189
		c0.124-0.431,0.203-0.881,0.38-1.289c2.325-5.354,3.863-10.924,4.62-16.711c1.063-1.824,0.536-3.826,0.459-5.71
		c-0.16-3.947,1.052-7.311,3.541-10.29c0.656-3.301-1.017-6.835,1-10c1.09-3.565,0.422-7.22,0.479-10.827
		c0.135-8.548-0.416-17.166,3.521-25.173c1.478-5.262-0.427-10.735,1-16c0.05-2-0.824-4,0-6c0.851-4,0.85-8,0-12
		c-3.333-3.667-6.667-7.333-10-11c-2.346-1.655-4.346-3.655-6-6c-0.953-0.38-1.62-1.046-2-2c-3.385-2.234-5.581-5.805-9-8
		c-3.401-2.599-6.401-5.599-9-9c-2.346-1.655-4.346-3.655-6-6c-0.333-0.333-0.667-0.667-1-1c-3.745-2.543-6.221-6.496-10-9
		c-3.071-2.262-5.738-4.929-8-8c-2.346-1.655-4.346-3.655-6-6c-1.349-0.651-2.349-1.651-3-3c-3.017-1.934-4.949-5.106-8-7
		c-3.071-2.262-5.738-4.929-8-8c-2.346-1.655-4.346-3.655-6-6c-0.953-0.38-1.62-1.046-2-2
		C874.991,412.549,875.646,411.654,877.004,410.992z"/>
	<path fill-rule="evenodd" clip-rule="evenodd" fill="#C94058" d="M877.004,410.993c-0.335,1.002-0.669,2.005-1.004,3.007
		c-2.322-0.041-3.384-1.954-4.777-3.305c-12.272-11.892-24.266-24.084-36.839-35.647c-9.988-9.185-19.788-18.593-29.499-28.03
		c-14.605-14.194-29.378-28.228-44-42.406c-10.447-10.13-20.601-20.591-31.65-30.126c-3.824-3.299-7.195-7.237-10.924-10.753
		c-13.509-12.736-26.747-25.756-40.254-38.499c-4.903-4.626-9.95-9.21-14.56-14.192c-1.206-1.304-2.263-2.975-4.375-3.041
		c0.001-2.323,0.002-4.646,0.003-6.97c0.53,0.397,1.112,0.74,1.582,1.198c13.229,12.873,26.299,25.914,39.702,38.602
		c17.864,16.912,35.477,34.082,53.216,51.121c16.659,16.001,33.322,31.999,49.985,47.996c17.022,16.343,34.051,32.681,51.083,49.014
		C862.244,396.202,869.965,403.243,877.004,410.993z"/>
	<path fill-rule="evenodd" clip-rule="evenodd" fill="#C94058" d="M545.023,285.066c1.068-0.123,2.272,0.135,2.958-1.058
		c0-13.256,0-26.513,0-39.769c0.291-0.136,0.581-0.271,0.872-0.407c6.14,9.447,12.28,18.895,18.836,28.981
		c6.416-9.876,12.428-19.131,19.253-29.637c0,3.854,0,6.343,0,8.832c-4.059,5.532-9.538,10.053-11.887,16.807
		c-0.378,1.084-0.987,2.105-1.603,3.084c-3.498,5.572-8.66,5.606-10.975-0.551c-2.277-6.058-8.257-8.903-10.866-14.69
		c-0.199,8.489-1.432,16.773,0.114,25.081c0.404,2.172,1.232,4.856-1.739,6.017C547.496,288.731,545.879,287.444,545.023,285.066z"
		/>
	<path fill-rule="evenodd" clip-rule="evenodd" fill="#C94058" d="M354.058,261c-0.962-3.763,0.136-5.358,4.352-5.076
		c5.422,0.363,10.904,0.354,16.327,0.002c4.189-0.271,5.374,1.258,4.352,5.073C370.745,261,362.402,261,354.058,261z"/>
	<path fill-rule="evenodd" clip-rule="evenodd" fill="#C94058" d="M506.133,228.063c1.853-5.478,0.449-11.123,0.838-16.677
		c0.148-2.122,0.024-4.262,0.497-6.674c4.124,5.153,11.899,7.146,12.351,15.276c-3.065-0.376-4.873-2.627-6.93-4.554
		c-0.89-0.833-1.587-2.532-3.167-1.772c-1.241,0.597-0.672,2.087-0.699,3.187c-0.069,2.826,0.105,5.663-0.081,8.479
		C508.842,226.841,509.319,229.492,506.133,228.063z"/>
	<path fill-rule="evenodd" clip-rule="evenodd" fill="#C94058" d="M453.021,283.884c8.123,0.09,16.253,0.005,24.365,0.352
		c3.646,0.155,3.946-1.532,3.928-4.435c-0.095-15.596-0.07-31.193-0.005-46.79c0.006-1.557-0.739-3.315,0.695-4.693
		c-0.001,15.456-0.021,30.912,0.012,46.368c0.006,2.913-0.602,5.924,1.68,8.504c0.666,0.753,0.593,2.278-0.363,3.219
		c-0.79,0.776-2.019,0.87-2.798,0.41c-6.052-3.567-12.648-1.016-18.926-1.839C458.747,284.604,455.636,286.148,453.021,283.884z"/>
	<path fill-rule="evenodd" clip-rule="evenodd" fill="#E0465E" d="M633,285.072c-0.667-0.331-1.335-0.662-2.002-0.992
		c20.94,0.016,41.881-0.071,62.819,0.14c3.87,0.039,4.876-1.194,4.612-4.821c-0.563-7.754,0.751-15.577-0.751-23.311
		c2.018,0.985,1.301,2.861,1.317,4.399c0.071,6.634-0.178,13.278,0.109,19.899c0.168,3.87-1.325,4.711-4.904,4.689
		C673.802,284.953,653.4,285.05,633,285.072z"/>
	<path fill-rule="evenodd" clip-rule="evenodd" fill="#C94058" d="M615.16,284.002c0.322-0.663,0.644-1.327,0.966-1.99
		c2.449,0.494,2.055,2.292,1.568,3.858c-0.438,1.413-2.063,1.457-2.936,0.984c-7.013-3.8-14.538-0.959-21.753-1.874
		c-2.01-0.254-4.344,0.973-5.967-1.21C596.407,284.534,605.785,284.119,615.16,284.002z"/>
	<path fill-rule="evenodd" clip-rule="evenodd" fill="#C94058" d="M969,540c-3.321,11.233-3.083,22.783-3.099,34.315
		c-0.001,0.563-0.588,1.123-0.901,1.685c0-8.061-0.023-16.12,0.01-24.18C965.028,547.453,966.556,543.564,969,540z"/>
	<path fill-rule="evenodd" clip-rule="evenodd" fill="#C94058" d="M379.072,283.541c9.617,1.124,19.243,0.8,28.871,0.168
		c-0.396,0.809-1.06,1.244-1.944,1.246c-8.206,0.017-16.412,0.021-24.618,0.021C380.326,284.976,379.454,284.643,379.072,283.541z"
		/>
	<path fill-rule="evenodd" clip-rule="evenodd" fill="#C94058" d="M964,586c-3.394,4.818-2.284,10.763-4,16
		c0.234-3.626-0.513-7.295,0.475-10.89C961.057,588.994,961.753,586.964,964,586z"/>
	<path fill-rule="evenodd" clip-rule="evenodd" fill="#C94058" d="M949,648c-2.878,4.597-3.685,9.883-5,15
		C944.017,657.45,943.561,651.742,949,648z"/>
	<path fill-rule="evenodd" clip-rule="evenodd" fill="#C94058" d="M905,744c0.118,5.653-4.6,8.702-7,13
		C898.071,751.449,903.532,748.8,905,744z"/>
	<path fill-rule="evenodd" clip-rule="evenodd" fill="#C94058" d="M917,454c4.558,1.64,6.959,5.675,10,9
		C922.442,461.36,920.041,457.325,917,454z"/>
	<path fill-rule="evenodd" clip-rule="evenodd" fill="#C94058" d="M953,633c-3.164,4.512-2.375,10.078-4,15
		C949.476,642.771,947.315,636.84,953,633z"/>
	<path fill-rule="evenodd" clip-rule="evenodd" fill="#C94058" d="M943,479c4.197,1.32,6.304,4.992,9,8
		C947.803,485.68,945.696,482.008,943,479z"/>
	<path fill-rule="evenodd" clip-rule="evenodd" fill="#C94058" d="M970,524c-0.538,5.32,1.116,10.778-1,16
		C969.538,534.68,967.884,529.222,970,524z"/>
	<path fill-rule="evenodd" clip-rule="evenodd" fill="#C94058" d="M892,430c3.784,1.056,5.67,4.282,8,7
		C896.216,435.944,894.33,432.718,892,430z"/>
	<path fill-rule="evenodd" clip-rule="evenodd" fill="#C94058" d="M955,620c0,2.797-0.02,5.593,0.007,8.389
		c0.018,1.851,0.062,3.683-2.007,4.611C955.17,628.898,952.655,624.075,955,620z"/>
	<path fill-rule="evenodd" clip-rule="evenodd" fill="#C94058" d="M869,797c-0.563,3.744-3.125,5.989-6,8
		C864.063,801.631,866.705,799.445,869,797z"/>
	<path fill-rule="evenodd" clip-rule="evenodd" fill="#C94058" d="M970,506c1.594,4,1.594,8,0,12C970,514,970,510,970,506z"/>
	<path fill-rule="evenodd" clip-rule="evenodd" fill="#C94058" d="M887,773c-0.963,3.106-3.332,5.334-5,8
		C881.977,777.277,884.06,774.87,887,773z"/>
	<path fill-rule="evenodd" clip-rule="evenodd" fill="#C94058" d="M859,809c-0.737,3.416-3.583,5.024-6,7
		C853.737,812.584,856.583,810.976,859,809z"/>
	<path fill-rule="evenodd" clip-rule="evenodd" fill="#C94058" d="M878,416c2.396,1.604,4.396,3.604,6,6
		C880.839,421.161,878.839,419.161,878,416z"/>
	<path fill-rule="evenodd" clip-rule="evenodd" fill="#C94058" d="M903,440c2.396,1.604,4.396,3.604,6,6
		C905.839,445.161,903.839,443.161,903,440z"/>
	<path fill-rule="evenodd" clip-rule="evenodd" fill="#C94058" d="M928,464c2.396,1.604,4.396,3.604,6,6
		C930.839,469.161,928.839,467.161,928,464z"/>
	<path fill-rule="evenodd" clip-rule="evenodd" fill="#C94058" d="M954,489c2.396,1.604,4.396,3.604,6,6
		C956.839,494.161,954.839,492.161,954,489z"/>
	<path fill-rule="evenodd" clip-rule="evenodd" fill="#C94058" d="M941,667c-1.079,3.251-0.339,6.865-2,10
		C939.36,673.605,937.856,669.838,941,667z"/>
	<path fill-rule="evenodd" clip-rule="evenodd" fill="#C94058" d="M928,702c-1.333,2.667-2.667,5.333-4,8
		C923.806,706.569,924.879,703.772,928,702z"/>
	<path fill-rule="evenodd" clip-rule="evenodd" fill="#C94058" d="M917,724c-1.277,2.694-1.913,5.71-4,8
		C913.351,728.842,913.769,725.718,917,724z"/>
	<path fill-rule="evenodd" clip-rule="evenodd" fill="#C94058" d="M849,820c-0.472,2.996-2.87,4.387-5,6
		C844.472,823.004,846.87,821.613,849,820z"/>
	<path fill-rule="evenodd" clip-rule="evenodd" fill="#C94058" d="M511.603,408.893c46.657,0,93.315,0.048,139.971-0.084
		c3.999-0.012,5.386,0.425,4.55,5c-3.287,17.988-6.244,36.04-9.021,54.115c-0.564,3.674-2.706,3.08-4.947,3.081
		c-27.495,0.011-54.989,0.007-82.483,0.007c-41.992,0-83.983,0.052-125.975-0.079c-4.254-0.013-5.409,0.742-4.143,5.206
		c2.948,10.393,5.623,20.886,7.791,31.465c0.936,4.568,3.107,5.214,7.132,5.208c61.654-0.105,123.308-0.074,184.962-0.073
		c6.694,0,6.577-0.011,5.843,6.601c-3.82,34.409-7.567,68.826-11.355,103.239c-2.695,24.485-5.441,48.966-8.087,73.457
		c-0.267,2.473-1.354,3.817-3.63,4.723c-32.753,13.022-65.487,26.09-98.2,39.212c-1.859,0.746-3.412,0.644-5.204-0.074
		c-32.717-13.111-65.448-26.188-98.188-39.241c-1.995-0.796-3.199-1.865-3.651-4.185c-4.963-25.456-9.977-50.902-15.19-76.308
		c-0.69-3.365,0.128-3.902,3.233-3.88c16.829,0.122,33.66,0.119,50.489-0.002c2.945-0.021,3.979,1.098,4.631,3.848
		c2.723,11.479,5.797,22.877,8.513,34.358c0.615,2.598,1.83,3.882,4.241,4.832c15.31,6.036,30.568,12.201,45.822,18.379
		c1.983,0.803,3.762,0.707,5.72-0.084c15.257-6.17,30.525-12.314,45.83-18.361c2.239-0.885,3.435-1.955,3.743-4.555
		c2.961-24.952,5.917-49.908,9.287-74.808c0.621-4.594-0.589-5.085-4.621-5.077c-58.488,0.117-116.976,0.011-175.464,0.204
		c-5.05,0.017-6.667-1.303-7.273-6.378c-4.69-39.325-9.729-78.609-14.64-117.909c-1.609-12.879-3.033-25.784-4.828-38.637
		c-0.44-3.15,0.863-3.234,3.169-3.221c9.498,0.057,18.996,0.022,28.494,0.022C435.952,408.893,473.777,408.893,511.603,408.893z"/>
</g>
</svg>
