<?xml version="1.0" encoding="utf-8"?>
<!-- Generator: Adobe Illustrator 16.0.3, SVG Export Plug-In . SVG Version: 6.00 Build 0)  -->
<!DOCTYPE svg PUBLIC "-//W3C//DTD SVG 1.1//EN" "http://www.w3.org/Graphics/SVG/1.1/DTD/svg11.dtd">
<svg version="1.1" id="圖層_2" xmlns="http://www.w3.org/2000/svg" xmlns:xlink="http://www.w3.org/1999/xlink" x="0px" y="0px"
	 width="1024px" height="1024px" viewBox="0 0 1024 1024" enable-background="new 0 0 1024 1024" xml:space="preserve">
<g>
	<circle fill="#EFEFEF" cx="512" cy="512" r="484.06"/>
	<circle fill="#1EB2A0" cx="512" cy="512" r="457.113"/>
</g>
<g>
	<defs>
		<circle id="SVGID_1_" cx="512" cy="512" r="457.112"/>
	</defs>
	<clipPath id="SVGID_2_">
		<use xlink:href="#SVGID_1_"  overflow="visible"/>
	</clipPath>
	<g clip-path="url(#SVGID_2_)">
		<polygon opacity="0.1" points="239.059,757.848 532.59,1273.552 790.576,1015.564 206.924,461.345 154.909,512.332 
			353.128,710.551 245.594,732.119 300.576,787.101 		"/>
		<path opacity="0.1" d="M845.823,393.008l35.545,35.545l14.061-15.544l221.891,221.891L769.281,982.937L176.26,389.916
			c0,0,166.656-208.31,335.739-208.31S820.154,367.339,845.823,393.008z"/>
	</g>
</g>
<g>
	<path fill="#FEFEFE" d="M659.235,351.506c0,88.262-71.551,159.813-159.813,159.813c-88.262,0-159.813-71.551-159.813-159.813
		s71.551-159.813,159.813-159.813C587.684,191.693,659.235,263.244,659.235,351.506z M445.444,230.5
		c-24.393,0-48.715,23.398-54.326,52.262c-5.611,28.864,9.615,52.262,34.008,52.262c24.393,0,48.714-23.398,54.325-52.262
		C485.062,253.898,469.836,230.5,445.444,230.5z"/>
	<path fill="#FEFEFE" d="M845.823,393.008c0,0-124.039,133.201-346.401,133.201C277.058,526.209,178.177,388,178.177,388
		c147.727-229.167,326.274-212.042,326.274-212.042C720.451,186.5,845.823,393.008,845.823,393.008z M505.195,193.199
		c0,0-160.956-15.438-294.127,191.149c0,0,89.139,124.591,289.592,124.591c200.453,0,312.271-120.077,312.271-120.077
		S699.912,202.702,505.195,193.199z"/>
</g>
<g>
	<polygon fill="#FEFEFE" points="121.606,415.479 154.26,518.596 186.011,498.416 264.576,629.015 209.351,458.919 169.789,478.026 
			"/>
	<polygon fill="#FEFEFE" points="323.851,535.168 345.33,617.928 368.462,606.053 406.689,649.657 383.228,573.351 361.338,590.688 
			"/>
	<polygon fill="#FEFEFE" points="502.143,566.391 477.596,676 516.522,672.406 522.621,766.954 552.086,648.531 512.932,645.947 	
		"/>
	<polygon fill="#FEFEFE" points="687.176,512.332 627.946,573.815 650.819,589.911 629.623,641.25 687.176,581.833 657.856,569.719 
			"/>
	<polygon fill="#FEFEFE" points="895.428,413.009 820.03,495.591 856.678,512 779.516,645.469 902.395,510.493 866.192,484.577 	"/>
</g>
<g>
	<defs>
		<circle id="SVGID_3_" cx="512" cy="512" r="457.112"/>
	</defs>
	<clipPath id="SVGID_4_">
		<use xlink:href="#SVGID_3_"  overflow="visible"/>
	</clipPath>
	<g clip-path="url(#SVGID_4_)">
		<g>
			<polygon fill="#FEFEFE" points="382.074,732.119 245.594,732.119 256.677,675.119 393.157,675.119 			"/>
			<polygon fill="#FEFEFE" points="329.323,978.49 192.844,978.49 239.059,757.848 375.539,757.848 			"/>
		</g>
		<g>
			<polygon fill="#FEFEFE" points="641.926,732.119 778.405,732.119 767.323,675.119 630.844,675.119 			"/>
			<polygon fill="#FEFEFE" points="694.678,978.49 831.156,978.49 784.942,757.848 648.461,757.848 			"/>
		</g>
	</g>
</g>
</svg>
