<?xml version="1.0" encoding="utf-8"?>
<!-- Generator: Adobe Illustrator 16.0.3, SVG Export Plug-In . SVG Version: 6.00 Build 0)  -->
<!DOCTYPE svg PUBLIC "-//W3C//DTD SVG 1.1//EN" "http://www.w3.org/Graphics/SVG/1.1/DTD/svg11.dtd">
<svg version="1.1" id="圖層_2" xmlns="http://www.w3.org/2000/svg" xmlns:xlink="http://www.w3.org/1999/xlink" x="0px" y="0px"
	 width="1024px" height="1024px" viewBox="0 0 1024 1024" enable-background="new 0 0 1024 1024" xml:space="preserve">
<g>
	<circle fill="#EFEFEF" cx="512" cy="512" r="484.061"/>
	<circle fill="#1EB2A0" cx="512" cy="512" r="457.113"/>
</g>
<g>
	<defs>
		<circle id="SVGID_1_" cx="512" cy="512" r="457.113"/>
	</defs>
	<clipPath id="SVGID_2_">
		<use xlink:href="#SVGID_1_"  overflow="visible"/>
	</clipPath>
	<polyline opacity="0.1" clip-path="url(#SVGID_2_)" points="659.242,200.068 1096.087,636.913 921.78,1378.808 322.804,779.834 
		311.5,326.5 379.435,327.578 331.948,280.093 331.948,231.728 389.5,231.728 404.5,199.366 432.567,227.433 468.577,227.433 
		506.624,200.068 542.219,235.662 550.345,200.068 596.103,245.826 615.781,200.068 645.471,229.758 659.242,200.068 	"/>
</g>
<g id="HTML_5">
	<polygon fill="#FFFFFF" points="354.321,256.074 380.069,256.074 380.069,284.269 408.217,284.269 408.217,200.068 
		380.069,200.068 380.069,227.888 354.321,227.888 354.321,200.068 326.194,200.068 326.194,284.269 354.321,284.269 	"/>
	<polygon fill="#FFFFFF" points="453.718,284.269 481.88,284.269 481.88,227.991 506.624,227.991 506.624,200.068 428.976,200.068 
		428.976,227.991 453.718,227.991 	"/>
	<polygon fill="#FFFFFF" points="548.565,242.567 567.902,272.472 568.39,272.472 587.722,242.567 587.722,284.269 615.781,284.269 
		615.781,200.068 586.413,200.068 568.39,229.693 550.345,200.068 521.018,200.068 521.018,284.269 548.565,284.269 	"/>
	<polygon fill="#FFFFFF" points="698.802,256.45 659.242,256.45 659.242,200.068 631.102,200.068 631.102,284.269 698.802,284.269 	
		"/>
	<path fill="#FFFFFF" d="M283.682,325.782l41.511,456.638l186.805,41.512l186.805-41.512l41.517-456.638H283.682z M646.92,471.076
		H511.997h-83.021l10.384,41.514h72.638h124.539l-20.756,186.807l-103.783,41.512l-103.78-41.512l-16.601-83.025h58.114
		l10.384,41.51l51.883,20.756l51.898-20.756l10.373-83.021h-62.271H387.461l-20.758-166.052h145.294h145.294L646.92,471.076z"/>
</g>
</svg>
