<?xml version="1.0" encoding="utf-8"?>
<!-- Generator: Adobe Illustrator 16.0.3, SVG Export Plug-In . SVG Version: 6.00 Build 0)  -->
<!DOCTYPE svg PUBLIC "-//W3C//DTD SVG 1.1//EN" "http://www.w3.org/Graphics/SVG/1.1/DTD/svg11.dtd">
<svg version="1.1" id="圖層_1" xmlns="http://www.w3.org/2000/svg" xmlns:xlink="http://www.w3.org/1999/xlink" x="0px" y="0px"
	 width="350px" height="720px" viewBox="0 0 350 720" enable-background="new 0 0 350 720" xml:space="preserve">
<g id="圖層_1_2_">
	<g id="圖層_1_1_">
		<g>
			<path fill="#F4DFCA" d="M345.76,157.546h-0.696V60.846c0-28.084-22.998-51.063-51.104-51.063H56.119
				c-28.104,0-51.104,22.979-51.104,51.063V97.94H4.237c-0.938,0-1.707,0.762-1.707,1.699v24.801c0,0.938,0.77,1.705,1.707,1.705
				h0.779v31.936H4.237c-0.938,0-1.707,0.771-1.707,1.707v48.603c0,0.934,0.77,1.705,1.707,1.705h0.779v12.041H4.237
				c-0.938,0-1.707,0.768-1.707,1.702v48.388c0,0.934,0.77,1.707,1.707,1.707h0.779V659.15c0,28.088,22.999,51.068,51.104,51.068
				h237.84c28.104,0,51.104-22.98,51.104-51.068V209.665h0.696c0.938,0,1.709-0.77,1.709-1.707v-48.705
				C347.469,158.321,346.697,157.546,345.76,157.546z"/>
			<path fill="#F7F7F7" d="M339.953,659.149c0,25.285-20.701,45.961-45.994,45.961H56.119c-25.299,0-45.995-20.676-45.995-45.961
				V60.845c0-25.273,20.696-45.955,45.995-45.955h237.84c25.293,0,45.994,20.682,45.994,45.955V659.149L339.953,659.149z"/>
			<path fill="#3E3E3E" d="M25.521,628.724c-1.417,0-2.568-1.152-2.568-2.564V94.171c0-1.412,1.151-2.563,2.568-2.563H324.56
				c1.406,0,2.566,1.147,2.566,2.563v531.988c0,1.412-1.16,2.564-2.566,2.564L25.521,628.724L25.521,628.724z"/>
			<rect x="25.521" y="94.171" fill="#3A454B" width="299.039" height="531.988"/>
			<path fill="#F4DFCA" d="M201.541,663.851c0,14.951-12.123,27.07-27.086,27.07c-14.957,0-27.081-12.119-27.081-27.07
				c0-14.941,12.125-27.063,27.081-27.063C189.418,636.788,201.541,648.909,201.541,663.851z"/>
			<path fill="#F7F7F7" d="M198.783,663.851c0,13.426-10.894,24.309-24.328,24.309c-13.433,0-24.321-10.883-24.321-24.309
				c0-13.416,10.89-24.299,24.321-24.299C187.893,639.552,198.783,650.435,198.783,663.851z"/>
			<path fill="#3E3E3E" d="M200.406,55.38h-49.768c-1.117,0-2.021-0.905-2.021-2.02v-0.406c0-1.117,0.901-2.016,2.021-2.016h49.768
				c1.111,0,2.02,0.896,2.02,2.016v0.406C202.424,54.472,201.518,55.38,200.406,55.38L200.406,55.38z"/>
			<path fill="#3E3E3E" d="M123.488,53.206c0,1.736-1.406,3.146-3.145,3.146c-1.739,0-3.147-1.406-3.147-3.146
				c0-1.729,1.408-3.141,3.147-3.141C122.08,50.065,123.488,51.474,123.488,53.206z"/>
		</g>
	</g>
	<g id="圖層_2">
		<path fill="none" d="M85.866,208.576H49.852c-4.664,0-8.447,3.781-8.447,8.452v10.104h52.909v-10.104
			C94.314,212.358,90.537,208.576,85.866,208.576z"/>
		<path fill="none" d="M85.866,208.576H49.852c-4.664,0-8.447,3.781-8.447,8.452v10.104h52.909v-10.104
			C94.314,212.358,90.537,208.576,85.866,208.576z"/>
		<path fill="none" d="M85.866,208.576H49.852c-4.664,0-8.447,3.781-8.447,8.452v10.104h52.909v-10.104
			C94.314,212.358,90.537,208.576,85.866,208.576z"/>
		<g>
			<g>
				<g>
					<rect x="25.549" y="94.32" fill="#262626" width="298.816" height="531.669"/>
					<polyline opacity="0.14" fill="#FFFFFF" enable-background="new    " points="324.365,625.989 315.151,584.099 34.765,584.099 
						25.549,625.989 					"/>
				</g>
				<g>
					<g>
						<path fill="#EFEFEF" d="M162.216,537.328c0,1.874-1.524,3.395-3.397,3.395s-3.392-1.521-3.392-3.395
							c0-1.877,1.519-3.391,3.392-3.391S162.216,535.451,162.216,537.328z"/>
						<path fill="#686868" d="M176.628,537.328c0,1.874-1.52,3.395-3.395,3.395c-1.873,0-3.396-1.521-3.396-3.395
							c0-1.877,1.523-3.391,3.396-3.391C175.11,533.937,176.628,535.451,176.628,537.328z"/>
						<path fill="#686868" d="M191.048,537.328c0,1.874-1.522,3.395-3.403,3.395c-1.871,0-3.391-1.521-3.391-3.395
							c0-1.877,1.52-3.391,3.391-3.391C189.525,533.937,191.048,535.451,191.048,537.328z"/>
					</g>
					<g>
						<g>
							<path fill="#BC4E42" d="M157.269,127.254l-36.021-0.001c-4.661,0-8.448,3.782-8.448,8.456v5.816h52.917v-5.816
								C165.717,131.035,161.929,127.254,157.269,127.254z"/>
							<path fill="#EFEFEF" d="M112.8,141.525v30.188c0,4.674,3.787,8.458,8.448,8.458h36.021c4.661,0,8.448-3.783,8.448-8.457
								v-30.188L112.8,141.525L112.8,141.525z"/>
						</g>
						<g>
							<g>
								<g>
									<path fill="#A2CCDB" d="M237.111,171.713c0,4.673-3.778,8.457-8.448,8.457h-36.015c-4.666,0-8.449-3.783-8.449-8.457
										v-36.004c0-4.673,3.783-8.455,8.449-8.455h36.015c4.67,0,8.448,3.782,8.448,8.455V171.713z"/>
								</g>
							</g>
							<path fill="#E2AB23" d="M230.25,153.713c0,10.819-8.771,19.592-19.597,19.592c-10.812,0-19.588-8.771-19.588-19.592
								s8.776-19.593,19.588-19.593C221.479,134.12,230.25,142.891,230.25,153.713z"/>
							<path fill="#332F20" d="M218.704,153.713c0,4.443-3.608,8.043-8.051,8.043c-4.438,0-8.037-3.601-8.037-8.043
								s3.599-8.043,8.037-8.043C215.096,145.67,218.704,149.269,218.704,153.713z"/>
						</g>
						<g>
							<g>
								<g>
									<path fill="#D1D1D1" d="M308.513,171.713c0,4.673-3.782,8.457-8.453,8.457h-36.014c-4.667,0-8.446-3.784-8.446-8.457
										v-36.004c0-4.673,3.779-8.455,8.446-8.455h36.014c4.671,0,8.453,3.782,8.453,8.455V171.713z"/>
								</g>
							</g>
							<path fill="#353535" d="M300.252,153.713c0,10.049-8.144,18.187-18.197,18.187c-10.045,0-18.186-8.138-18.186-18.187
								c0-10.045,8.141-18.188,18.186-18.188C292.111,135.526,300.252,143.668,300.252,153.713z"/>
							<circle fill="#4F7D8E" cx="282.057" cy="153.713" r="7.466"/>
						</g>
						<g>
							<g>
								<g>
									<path fill="#5EAFD3" d="M237.111,254.041c0,4.668-3.778,8.446-8.448,8.446h-36.015c-4.666,0-8.449-3.778-8.449-8.446
										v-36.013c0-4.67,3.783-8.452,8.449-8.452h36.015c4.67,0,8.448,3.781,8.448,8.452V254.041z"/>
								</g>
							</g>
							<path fill="#F4B400" d="M227.251,236.034c0,9.167-7.432,16.593-16.598,16.593c-9.157,0-16.592-7.426-16.592-16.593
								c0-9.163,7.435-16.588,16.592-16.588C219.822,219.446,227.251,226.871,227.251,236.034z"/>
						</g>
						<g>
							<g>
								<path fill="#3F3F3F" d="M237.111,418.685c0,4.67-3.778,8.453-8.448,8.453h-36.015c-4.666,0-8.449-3.783-8.449-8.453v-36.01
									c0-4.668,3.783-8.45,8.449-8.45h36.015c4.67,0,8.448,3.782,8.448,8.45V418.685z"/>
							</g>
						</g>
						<g>
							<g>
								<g>
									<g>
										<path fill="#559EE0" d="M308.513,336.362c0,4.67-3.782,8.453-8.453,8.453h-36.014c-4.667,0-8.446-3.783-8.446-8.453
											v-36.009c0-4.668,3.779-8.45,8.446-8.45h36.014c4.671,0,8.453,3.782,8.453,8.45V336.362z"/>
									</g>
								</g>
							</g>
							<path fill="#EFEFEF" d="M308.513,315.621l-3.684,6.075l-2.821-6.634c-0.178-0.423-0.563-0.718-1.021-0.775
								c-0.453-0.055-0.906,0.134-1.178,0.499l-2.035,2.66l-2.864-9.842c-0.161-0.508-0.601-0.874-1.119-0.921
								c-0.517-0.048-1.029,0.223-1.257,0.688l-9.682,18.734l-6.638-11.192c-0.233-0.396-0.644-0.629-1.132-0.632
								c-0.461,0.007-0.882,0.257-1.103,0.665l-4.645,8.412l-3.277-2.551c-0.272-0.207-0.611-0.296-0.951-0.255
								c-0.342,0.038-0.655,0.215-0.855,0.484l-4.577,5.922l-4.076-3.123v3.243l3.522,2.699c0.229,0.177,0.509,0.264,0.775,0.264
								c0.388,0,0.767-0.173,1.027-0.499l4.575-5.915l3.447,2.679c0.304,0.23,0.688,0.315,1.056,0.245
								c0.357-0.077,0.678-0.313,0.854-0.638l4.293-7.758l6.682,11.256c0.232,0.401,0.688,0.645,1.138,0.629
								c0.465-0.015,0.889-0.276,1.107-0.693l9.259-17.938l2.666,9.195c0.146,0.471,0.539,0.815,1.011,0.911
								c0.471,0.083,0.958-0.106,1.251-0.492l2.233-2.929l2.938,6.917c0.196,0.445,0.616,0.747,1.097,0.78
								c0.493,0.039,0.941-0.204,1.189-0.613l2.788-4.6v-4.959L308.513,315.621L308.513,315.621z"/>
						</g>
						<g>
							<path fill="#5E4735" d="M85.866,291.903H49.852c-4.664,0-8.447,3.782-8.447,8.45v5.816h52.909v-5.816
								C94.314,295.684,90.537,291.903,85.866,291.903z"/>
							<path fill="#F9EB9D" d="M41.405,306.171v30.191c0,4.67,3.783,8.453,8.447,8.453h36.015c4.671,0,8.447-3.783,8.447-8.453
								v-30.191H41.405z"/>
						</g>
						<g>
							<g>
								<g>
									<path fill="#DC7500" d="M308.513,597.824c0,4.665-3.782,8.451-8.453,8.451h-36.014c-4.667,0-8.446-3.786-8.446-8.451
										v-36.009c0-4.673,3.779-8.442,8.446-8.442h36.014c4.671,0,8.453,3.771,8.453,8.442V597.824z"/>
								</g>
							</g>
							<path fill="#841F01" d="M276.389,567.587L276.389,567.587l-2.117,0.596v6.344v16.17c-0.578-0.315-1.229-0.509-1.936-0.509
								c-2.234,0-4.058,1.82-4.058,4.047c0,2.238,1.822,4.059,4.058,4.059c2.234,0,4.053-1.818,4.053-4.059v-18.595l13.898-3.912
								v14.461c-0.564-0.31-1.226-0.513-1.935-0.513c-2.234,0-4.056,1.817-4.056,4.055c0,2.234,1.819,4.043,4.056,4.043
								c2.237,0,4.047-1.809,4.047-4.043v-20.314v-6.34L276.389,567.587z"/>
						</g>
						<g>
							<g>
								<g>
									<path fill="#EFEFEF" d="M165.717,336.362c0,4.67-3.787,8.453-8.448,8.453h-36.021c-4.661,0-8.448-3.783-8.448-8.453v-36.01
										c0-4.668,3.787-8.45,8.448-8.45h36.021c4.661,0,8.448,3.782,8.448,8.45V336.362z"/>
								</g>
							</g>
							<rect x="128.882" y="291.903" fill="#BC4E42" width="3.202" height="52.913"/>
							<g>
								<rect x="136.591" y="300.899" fill="#C1C1C1" width="22.278" height="5.708"/>
								<rect x="136.591" y="315.506" fill="#C1C1C1" width="17.138" height="5.707"/>
								<rect x="136.591" y="330.11" fill="#C1C1C1" width="22.278" height="5.712"/>
							</g>
						</g>
						<g>
							<path fill="#DD9334" d="M210.655,318.355v26.461h18.005c4.671,0,8.453-3.787,8.453-8.455v-18.006H210.655z"/>
							<path fill="#749500" d="M228.659,291.902h-18.005v26.454h26.458v-18C237.113,295.685,233.329,291.902,228.659,291.902z"/>
							<path fill="#0964BF" d="M184.199,336.361c0,4.668,3.779,8.455,8.446,8.455h18.009v-26.461h-26.455V336.361z"/>
							<path fill="#915023" d="M210.655,318.355v-26.454h-18.009c-4.667,0-8.446,3.782-8.446,8.454v18H210.655z"/>
						</g>
						<g>
							<g>
								<path fill="#56A8D6" d="M237.111,597.824c0,4.665-3.778,8.451-8.44,8.451h-36.021c-4.666,0-8.448-3.786-8.448-8.451v-36.009
									c0-4.674,3.782-8.442,8.448-8.442h36.021c4.662,0,8.44,3.771,8.44,8.442V597.824z"/>
							</g>
							<g>
								<polygon fill="#BC4E42" points="208.32,577.475 229.166,561.319 213.005,582.174 								"/>
								<polygon fill="#EFEFEF" points="213.005,582.174 192.146,598.33 208.32,577.475 								"/>
							</g>
						</g>
						<g>
							<g>
								<g>
									<path fill="#56A8D6" d="M165.717,597.824c0,4.665-3.782,8.451-8.448,8.451h-36.021c-4.661,0-8.448-3.786-8.448-8.451
										v-36.009c0-4.674,3.787-8.442,8.448-8.442h36.021c4.666,0,8.448,3.771,8.448,8.442V597.824z"/>
								</g>
							</g>
							<path fill="#EFEFEF" d="M156.714,588.635c0,1.422-1.157,2.577-2.572,2.577h-29.769c-1.413,0-2.57-1.155-2.57-2.577V571.28
								c0-1.414,1.157-2.562,2.57-2.562h29.769c1.415,0,2.572,1.146,2.572,2.562V588.635z"/>
						</g>
						<g>
							<g>
								<g>
									<path fill="#5AAF5A" d="M94.314,597.824c0,4.665-3.776,8.451-8.447,8.451H49.852c-4.664,0-8.447-3.786-8.447-8.451v-36.009
										c0-4.674,3.783-8.442,8.447-8.442h36.015c4.671,0,8.447,3.771,8.447,8.442V597.824z"/>
								</g>
							</g>
							<path fill="#EFEFEF" d="M64.392,583.297c3.666,3.653,8.151,6.784,10.55,1.021c0.535-1.271,3.502-0.127,5.852,1.438
								c2.337,1.572,4.463,4.143,3.666,6.254c-2.571,6.792-13.461,6.608-24.423-4.36c-10.968-10.96-11.146-21.843-4.358-24.43
								c2.107-0.795,4.677,1.344,6.247,3.676c1.572,2.346,2.712,5.313,1.443,5.851C57.605,575.14,60.727,579.631,64.392,583.297z"/>
						</g>
						<g>
							<g>
								<g>
									<path fill="#EFEFEF" d="M165.717,254.041c0,4.668-3.782,8.446-8.448,8.446h-36.021c-4.661,0-8.448-3.778-8.448-8.446
										v-36.013c0-4.67,3.787-8.452,8.448-8.452h36.021c4.666,0,8.448,3.781,8.448,8.452V254.041z"/>
								</g>
							</g>
							<path fill="#BC4E42" d="M155.737,247.518c0,2.569-0.008,5.293-0.578,7.79c-0.408,1.755-1.836,3.047-3.564,3.237
								c-4.083,0.453-8.224,0.457-12.335,0.453c-4.118,0.004-8.255,0-12.34-0.453c-1.729-0.19-3.162-1.481-3.561-3.238
								c-0.58-2.496-0.58-5.22-0.58-7.789l0,0c0-2.567,0.012-5.296,0.583-7.787c0.401-1.753,1.838-3.051,3.562-3.244
								c4.088-0.453,8.225-0.453,12.343-0.453c4.112,0,8.249,0,12.337,0.453c1.725,0.193,3.154,1.491,3.561,3.244
								C155.737,242.222,155.737,244.951,155.737,247.518L155.737,247.518z"/>
						</g>
						<g>
							<g>
								<g>
									<path fill="#666666" d="M94.314,418.685c0,4.667-3.776,8.453-8.447,8.453H49.852c-4.664,0-8.447-3.787-8.447-8.453v-36.007
										c0-4.672,3.783-8.453,8.447-8.453h36.015c4.671,0,8.447,3.781,8.447,8.454V418.685z"/>
								</g>
							</g>
							<path fill="#DDDDDD" d="M87.606,398.76c-0.038-0.283-0.299-0.549-0.62-0.549c-1.506,0-2.868-0.614-3.855-1.589v-0.004
								c-2.131-2.131-2.127-5.584,0-7.719c0.225-0.229,0.24-0.586,0.042-0.839c-0.399-0.482-0.82-0.961-1.281-1.422
								c-0.452-0.453-0.928-0.875-1.413-1.276c-0.253-0.188-0.606-0.175-0.837,0.044c-2.131,2.136-5.585,2.14-7.717,0l0,0
								c-0.991-0.984-1.596-2.343-1.596-3.846c0-0.324-0.245-0.587-0.562-0.627c-0.628-0.059-1.267-0.096-1.907-0.096
								c-0.644,0-1.281,0.037-1.912,0.096c-0.312,0.04-0.557,0.303-0.557,0.627c0,1.503-0.606,2.859-1.589,3.846h-0.005
								c-1.026,1.024-2.346,1.557-3.688,1.602c-1.45,0.039-2.923-0.489-4.031-1.602c-0.23-0.219-0.589-0.231-0.835-0.044
								c-0.483,0.401-0.964,0.823-1.42,1.276c-0.453,0.461-0.877,0.938-1.277,1.422c-0.196,0.253-0.184,0.61,0.047,0.839
								c1.104,1.11,1.639,2.581,1.594,4.032c-0.04,1.349-0.574,2.662-1.594,3.687v0.004c-0.986,0.975-2.349,1.589-3.854,1.589
								c-0.326,0-0.588,0.266-0.623,0.548c-0.064,0.643-0.101,1.275-0.101,1.92c0,0.651,0.036,1.278,0.101,1.915
								c0.035,0.313,0.297,0.555,0.623,0.555c1.504,0,2.866,0.615,3.854,1.6v0.003c2.127,2.128,2.127,5.58,0,7.707
								c-0.23,0.234-0.243,0.6-0.047,0.836c0.4,0.49,0.824,0.968,1.277,1.428c0.456,0.451,0.937,0.88,1.42,1.282
								c0.246,0.193,0.604,0.177,0.835-0.055c2.133-2.128,5.589-2.128,7.721,0h0.005c0.982,0.987,1.589,2.354,1.589,3.856
								c0,0.318,0.245,0.591,0.558,0.621c0.629,0.059,1.268,0.097,1.911,0.097c0.642,0,1.279-0.038,1.907-0.097
								c0.315-0.03,0.562-0.303,0.562-0.621c0-1.503,0.604-2.869,1.592-3.856h0.008l0.128-0.123
								c2.135-2.009,5.499-1.968,7.585,0.123c0.23,0.229,0.584,0.244,0.837,0.047c0.485-0.398,0.96-0.827,1.417-1.278
								c0.457-0.465,0.883-0.934,1.277-1.428c0.197-0.235,0.187-0.602-0.042-0.835c-2.09-2.086-2.127-5.445-0.123-7.581l0.123-0.123
								v-0.003c0.987-0.982,2.35-1.6,3.855-1.6c0.321,0,0.582-0.242,0.62-0.555c0.065-0.636,0.1-1.264,0.1-1.915
								C87.704,400.036,87.671,399.401,87.606,398.76z M74.429,407.25c-3.632,3.624-9.511,3.624-13.135,0
								c-3.625-3.627-3.625-9.497,0-13.14c3.624-3.623,9.502-3.623,13.135,0C78.053,397.753,78.053,403.623,74.429,407.25z"/>
						</g>
						<g>
							<g>
								<path fill="#3F3F3F" d="M308.513,254.041c0,4.668-3.782,8.446-8.453,8.446h-36.014c-4.667,0-8.446-3.778-8.446-8.446
									v-36.013c0-4.67,3.779-8.452,8.446-8.452h36.014c4.671,0,8.453,3.781,8.453,8.452V254.041z"/>
							</g>
							<path fill="#167F36" d="M266.007,246.652l5.093-3.047l-1.818-21.699l-9.116,3.229c-0.865,0.307-1.321,1.261-1.021,2.122
								L266.007,246.652z"/>
							<path fill="#F7C41B" d="M279.934,238.314l3.002-21.032l-12.289,1.036c-0.916,0.072-1.599,0.882-1.518,1.799l1.971,23.488
								L279.934,238.314z"/>
							<path fill="#107DD8" d="M302.926,224.55l0.827-5.805c0.135-0.907-0.5-1.759-1.403-1.886l-17.316-2.478
								c-0.903-0.125-1.754,0.512-1.885,1.413l-3.215,22.521L302.926,224.55z"/>
						</g>
						<g>
							<path fill="#74B3C4" d="M41.405,228.133v25.908c0,4.668,3.783,8.446,8.447,8.446h36.015c4.671,0,8.447-3.778,8.447-8.446
								v-25.908H41.405z"/>
							<g>
								<polygon fill="#353535" points="70.34,209.576 60.697,209.576 70.363,218.856 60.697,228.133 70.34,228.133 80.014,218.856 
																	"/>
								<polygon fill="#EFEFEF" points="79.987,209.576 70.34,209.576 80.014,218.856 70.34,228.133 79.987,228.133 89.653,218.856 
																	"/>
								<polygon fill="#EFEFEF" points="60.697,209.576 51.05,209.576 60.72,218.856 51.05,228.133 60.697,228.133 70.363,218.856 
																	"/>
								<path fill="#EFEFEF" d="M43.933,212.004c-1.561,1.527-2.528,3.67-2.528,6.024v10.104l9.668-9.274L43.933,212.004z"/>
								<path fill="#353535" d="M51.05,209.576h-1.198c-2.308,0-4.394,0.931-5.918,2.428l7.141,6.854l-9.669,9.274h9.646l9.67-9.274
									L51.05,209.576z"/>
								<path fill="#353535" d="M94.314,218.028c0-4.67-3.776-8.452-8.447-8.452h-5.88l9.666,9.28l-9.666,9.274h9.642l4.687-4.499
									L94.314,218.028L94.314,218.028z"/>
								<polygon fill="#EFEFEF" points="89.628,228.133 94.314,228.133 94.314,223.635 								"/>
							</g>
						</g>
						<g>
							<g>
								<g>
									<g>
										<g>
											<path fill="#5AAF5A" d="M94.314,171.712c0,4.674-3.776,8.458-8.447,8.458H49.852c-4.664,0-8.447-3.783-8.447-8.458
												v-36.003c0-4.674,3.783-8.456,8.447-8.456h36.015c4.671,0,8.447,3.782,8.447,8.456V171.712z"/>
										</g>
									</g>
								</g>
							</g>
							<g>
								<path fill="#EFEFEF" d="M67.862,137.902c-8.733,0-15.813,7.08-15.813,15.812c0,2.858,0.77,5.53,2.097,7.845
									c0.021,0.282,0.003,0.571-0.063,0.796l-1.652,6.187c-0.127,0.455,0.151,0.728,0.604,0.602l6.188-1.652
									c0.229-0.06,0.511-0.079,0.798-0.06c2.313,1.322,4.983,2.094,7.843,2.094c8.734,0,15.81-7.08,15.81-15.811
									C83.67,144.981,76.596,137.902,67.862,137.902z"/>
							</g>
						</g>
						<g>
							<g>
								<path fill="#3F3F3F" d="M165.717,418.681c0,4.672-3.776,8.455-8.447,8.455h-36.015c-4.664,0-8.447-3.783-8.447-8.455
									v-36.014c0-4.667,3.783-8.44,8.447-8.44h36.015c4.671,0,8.447,3.773,8.447,8.44V418.681z"/>
							</g>
							<g id="XMLID_2_">
								<g>
									<path fill="#F9D128" d="M157.904,393.258c2.188,5.504,1.932,11.93-1.268,17.453c-4.224,7.328-12.382,10.973-20.272,9.816
										l9.323-16.141c2.045-3.559,0.832-8.086-2.719-10.127c-1.162-0.686-2.442-1.004-3.698-1.004L157.904,393.258
										L157.904,393.258z"/>
									<path fill="#D84839" d="M157.904,393.258h-18.636c-2.563,0-5.056,1.342-6.427,3.725c-1.343,2.309-1.285,5.072-0.079,7.271
										l-9.248-16.014c6.066-7.694,17.037-9.978,25.771-4.937C153.36,385.65,156.295,389.217,157.904,393.258z"/>
									<path fill="#4793C6" d="M142.968,394.261c3.551,2.041,4.765,6.568,2.719,10.127c-2.048,3.543-6.584,4.762-10.128,2.711
										c-1.17-0.668-2.089-1.619-2.716-2.711l-0.079-0.135c-1.206-2.199-1.265-4.965,0.079-7.271
										c1.371-2.383,3.864-3.725,6.427-3.725C140.525,393.258,141.805,393.576,142.968,394.261z"/>
									<path fill="#5AAF5A" d="M145.686,404.388l-9.323,16.141c-2.442-0.354-4.856-1.17-7.125-2.475
										c-9.604-5.543-12.89-17.811-7.35-27.402c0.496-0.865,1.04-1.656,1.626-2.41l9.248,16.016l0.079,0.133
										c0.627,1.092,1.546,2.043,2.716,2.711C139.1,409.148,143.638,407.931,145.686,404.388z"/>
								</g>
							</g>
						</g>
					</g>
				</g>
			</g>
			<g>
				<rect x="25.549" y="94.32" fill="#191919" width="298.816" height="18.21"/>
				<g>
					<g>
						<g>
							<polygon fill="#EFEFEF" points="48.847,108.667 30.164,108.667 48.847,98.185 							"/>
						</g>
						<g>
							<g>
								<path fill="#EFEFEF" d="M320.567,101.5h-1.903v-2.495h-17.15v8.849h17.15v-2.499h1.903V101.5z M317.243,106.548h-4.283
									v-6.238h4.283V106.548z"/>
							</g>
						</g>
					</g>
				</g>
			</g>
		</g>
	</g>
</g>
<g id="圖層_2_1_" display="none">
	<g display="inline">
		<g>
			<path fill="#066F93" d="M237.111,336.363c0,4.67-3.778,8.453-8.449,8.453h-36.015c-4.667,0-8.45-3.783-8.45-8.453v-36.011
				c0-4.668,3.783-8.45,8.45-8.45h36.015c4.671,0,8.449,3.782,8.449,8.45V336.363L237.111,336.363z"/>
		</g>
	</g>
	<g display="inline">
		<polygon fill="#9B9B9B" points="204.996,332.919 189.627,327.526 189.627,320.74 204.996,320.74 		"/>
		<rect x="201.745" y="315.887" fill="#E2E2E2" width="5.571" height="16.178"/>
		<g>
			<path fill="#FFAC09" d="M202.591,338.562c0-1.072,0.869-1.94,1.939-1.94c1.072,0,1.94,0.869,1.94,1.94
				c0,1.07-1.94,4.312-1.94,4.312S202.591,339.634,202.591,338.562z"/>
			<path fill="#FFF1CA" d="M203.369,338.166c0-0.642,0.521-1.162,1.161-1.162c0.642,0,1.162,0.521,1.162,1.162
				c0,0.643-1.162,2.582-1.162,2.582S203.369,338.808,203.369,338.166z"/>
		</g>
		<rect x="201.947" y="332.065" fill="#B7B7B7" width="5.169" height="2.605"/>
		<polygon fill="#9B9B9B" points="207.115,334.672 201.947,334.672 201.408,337.278 207.654,337.278 		"/>
		<polygon fill="#E71516" points="193.806,325.177 193.806,320.74 189.627,320.74 189.627,327.526 199.403,330.957 199.403,327.298 
					"/>
		<path fill="#E2E2E2" d="M190.031,317.46c0-0.422-0.342-0.764-0.765-0.764h-0.629c-0.422,0-0.765,0.342-0.765,0.764v10.335
			c0,0.422,0.343,0.765,0.765,0.765h0.629c0.423,0,0.765-0.343,0.765-0.765V317.46z"/>
		<rect x="201.745" y="316.696" fill="#E71516" width="5.571" height="0.798"/>
		<polygon fill="#FFFFFF" points="211.55,294.137 210.654,294.137 209.759,294.137 207.333,307.619 207.333,329.01 208.501,330.177 
			210.654,330.177 212.808,330.177 213.976,329.01 213.976,307.619 		"/>
		<polygon fill="#9B9B9B" points="216.313,332.919 231.683,327.526 231.683,320.74 216.313,320.74 		"/>
		<rect x="213.991" y="315.887" fill="#E2E2E2" width="5.571" height="16.178"/>
		<g>
			<path fill="#FFAC09" d="M216.777,342.874c0,0-1.939-3.24-1.939-4.312c0-1.072,0.868-1.94,1.939-1.94s1.94,0.869,1.94,1.94
				C218.718,339.634,216.777,342.874,216.777,342.874z"/>
			<path fill="#FFF1CA" d="M216.777,340.748c0,0-1.162-1.939-1.162-2.582c0-0.642,0.521-1.162,1.162-1.162
				c0.642,0,1.162,0.521,1.162,1.162C217.939,338.808,216.777,340.748,216.777,340.748z"/>
		</g>
		<rect x="214.193" y="332.065" fill="#B7B7B7" width="5.168" height="2.605"/>
		<polygon fill="#9B9B9B" points="214.193,334.672 219.361,334.672 219.9,337.278 213.654,337.278 		"/>
		<polygon fill="#E71516" points="227.503,325.177 227.503,320.74 231.683,320.74 231.683,327.526 221.905,330.957 221.905,327.298 
					"/>
		<path fill="#E2E2E2" d="M231.277,317.46c0-0.422,0.343-0.764,0.766-0.764h0.629c0.422,0,0.765,0.342,0.765,0.764v10.335
			c0,0.422-0.343,0.765-0.765,0.765h-0.629c-0.423,0-0.766-0.343-0.766-0.765V317.46z"/>
		<rect x="213.991" y="316.696" fill="#E71516" width="5.571" height="0.798"/>
		<g>
			<polygon fill="#433F56" points="208.231,308.394 208.231,313.922 210.654,313.922 213.077,313.922 213.077,308.394 
				210.654,308.394 			"/>
			<polygon fill="#433F56" points="213.077,306.574 211.999,299.631 210.654,299.631 209.31,299.631 208.231,306.574 
				210.654,306.574 			"/>
		</g>
	</g>
</g>
</svg>
