<?xml version="1.0" encoding="utf-8"?>
<!-- Generator: Adobe Illustrator 16.0.3, SVG Export Plug-In . SVG Version: 6.00 Build 0)  -->
<!DOCTYPE svg PUBLIC "-//W3C//DTD SVG 1.1//EN" "http://www.w3.org/Graphics/SVG/1.1/DTD/svg11.dtd">
<svg version="1.1" id="圖層_1" xmlns="http://www.w3.org/2000/svg" xmlns:xlink="http://www.w3.org/1999/xlink" x="0px" y="0px"
	 width="350px" height="720px" viewBox="0 0 350 720" enable-background="new 0 0 350 720" xml:space="preserve">
<g>
	<path fill="#F4DFCA" d="M345.76,157.546h-0.697V60.845c0-28.084-22.998-51.063-51.104-51.063H56.119
		c-28.104,0-51.103,22.979-51.103,51.063V97.94H4.237c-0.939,0-1.707,0.762-1.707,1.699v24.801c0,0.938,0.768,1.705,1.707,1.705
		h0.779v31.936H4.237c-0.939,0-1.707,0.77-1.707,1.707v48.6c0,0.934,0.768,1.705,1.707,1.705h0.779v12.041H4.237
		c-0.939,0-1.707,0.768-1.707,1.705v48.385c0,0.934,0.768,1.707,1.707,1.707h0.779v385.219c0,28.088,22.999,51.068,51.103,51.068
		h237.84c28.105,0,51.104-22.98,51.104-51.068V209.665h0.697c0.938,0,1.709-0.77,1.709-1.707v-48.705
		C347.469,158.321,346.697,157.546,345.76,157.546z"/>
	<path fill="#F7F7F7" d="M339.955,659.149c0,25.285-20.703,45.961-45.996,45.961H56.119c-25.297,0-45.995-20.676-45.995-45.961
		V60.845c0-25.273,20.698-45.955,45.995-45.955h237.84c25.293,0,45.996,20.682,45.996,45.955V659.149z"/>
	<path fill="#3E3E3E" d="M25.521,628.724c-1.417,0-2.57-1.152-2.57-2.564V94.171c0-1.412,1.153-2.563,2.57-2.563h299.039
		c1.406,0,2.566,1.15,2.566,2.563v531.988c0,1.412-1.16,2.564-2.566,2.564H25.521z"/>
	<rect x="25.521" y="94.171" fill="#3A454B" width="299.039" height="531.988"/>
	<path fill="#F4DFCA" d="M201.541,663.851c0,14.951-12.123,27.07-27.086,27.07c-14.957,0-27.081-12.119-27.081-27.07
		c0-14.941,12.125-27.063,27.081-27.063C189.418,636.788,201.541,648.909,201.541,663.851z"/>
	<path fill="#F7F7F7" d="M198.783,663.851c0,13.426-10.891,24.309-24.328,24.309c-13.431,0-24.321-10.883-24.321-24.309
		c0-13.416,10.89-24.299,24.321-24.299C187.893,639.552,198.783,650.435,198.783,663.851z"/>
	<path fill="#3E3E3E" d="M200.406,55.38h-49.768c-1.117,0-2.021-0.908-2.021-2.02v-0.406c0-1.117,0.903-2.016,2.021-2.016h49.768
		c1.111,0,2.018,0.898,2.018,2.016v0.406C202.424,54.472,201.518,55.38,200.406,55.38L200.406,55.38z"/>
	<path fill="#3E3E3E" d="M123.488,53.206c0,1.736-1.408,3.143-3.145,3.143c-1.739,0-3.147-1.406-3.147-3.143
		c0-1.732,1.408-3.141,3.147-3.141C122.08,50.065,123.488,51.474,123.488,53.206z"/>
</g>
</svg>
